<mxfile host="app.diagrams.net" agent="Mozilla/5.0 (Windows NT 10.0; Win64; x64) AppleWebKit/537.36 (KHTML, like Gecko) Chrome/131.0.0.0 Safari/537.36" version="25.0.1">
  <diagram name="Page-1" id="43_dRlYb2VBIuqNKMd4t">
    <mxGraphModel dx="1114" dy="603" grid="1" gridSize="10" guides="1" tooltips="1" connect="1" arrows="1" fold="1" page="1" pageScale="1" pageWidth="850" pageHeight="1100" math="0" shadow="0">
      <root>
        <mxCell id="0" />
        <mxCell id="1" parent="0" />
        <mxCell id="mPjOF8SE_Fwrs24RMQ83-1" value="" style="shape=image;verticalLabelPosition=bottom;labelBackgroundColor=default;verticalAlign=top;aspect=fixed;imageAspect=0;image=data:image/png,iVBORw0KGgoAAAANSUhEUgAAAuIAAAIXCAYAAADZvDuVAAAAAXNSR0IArs4c6QAAAARnQU1BAACxjwv8YQUAAAAJcEhZcwAADsMAAA7DAcdvqGQAAP+lSURBVHhe7J0FYFXH0scHSUiCBAsW3N2tlFJosSL1UneXV5fXvq/66kr11d1poUKhxd3d3V3ijtxvfnOz4ZImkLbQ0rL/cLj3nrNnd1bO7n/nzM4WCijEw8PDw8PDw8PDw+NPReHsTw8PDw8PDw8PDw+PPxGeiHt4eHh4eHh4eHj8BfBE3MPDw8PDw8PDw+MvgCfiHh4eHh4eHh4eHn8BPBH38PDw8PDw8PDw+AvgibiHh4eHh4eHh4fHXwBPxD08PDw8PDw8PDz+Angi7uHh4eHh4eHh4fEXwBNxDw8PDw8PDw8Pj78AR5yIs1FnXpt1hp7L7/tvQUHS+auRn4z5ITTssZAPJ787CoL8whX0/rxwqHv/SLz54Y/GeTTK4Pfi95Qd593h4eHh4eHhcfRwVIh4oUKF7Pu+fftyBvP8BnUX9vcgNB2HY4k8IB/yFFSm0LL4I+VyJLF//347CorQvOaul99bN8dKWRQEufP4W8quoPi95VhQUN7I/UfqzMPDw8PDw+PwKKQD7REbaYkqJSVFEhMTJS0tTbZu3SolSpSQcuXK2WepUqUkLCxMdu7cKampqRY+MjLSroeHh2fHEgQkLknjSUxKMlJAuPLly9v93Jek50mH9IivbJkyUio6+qB0du/eLcnJyTlkIr+sOqJXpEgRidY4ONLT02XXrl2yd+/efO8rXLiwlC1b1tLke1ZWliQkJFjeuQcZkLtkyZK/yl8oCJum6SXqvZmZmXaO8GU0T9z/W4iolZuWDXIQL/cSR4UKFUzGvJCRkSFxcXGWdmhekb9o0aJ2REVFWTz5xQGoJ+qEMk9LS5UdO3Za3RYvXtzKqHTp0hYXIK34+HgrK86RV8opNyhT6oHwhKO8iQ9QN9Q98pPPsmXLaRwlrG0RN9dBfvXnwL3ESRnt3bNHdmm7of7zuo+wnEdWZHb5cXDlT7sMttEkLbtIC0satC3u4Tr5OpxsDsH8lbX7udflj3qhXIsVK5Yd8gCQhWeA8gDIwLNBHZIubQQZQydMXHP1zif1lrvtci9xErcj7HmB54lnFhmR38PDw8PDw+NgHDEizmC+ceNGGTp0qPz000+ycuVK+81AXLVqVTnhhBPkzDPPko4dO8jDDz8so0ePNrLTtGlTuffee6VNmzbZMQWxYcMG+fCDD+S77783MtaxY0d57LHHpFKlSrJ27Vr59ptvZPjw4bJ23Vol/NukSpXKEhtbVTp16iTnn3++tGjRQp544gmThfvJZn7aSUcuISkXXnihXHvttTJ27Dh57rlnZdu2bXYtL0BQbrnlX3L22WcrQSolM2bMkPfff19mzpxp5YGsLVo0l379+kvnzp3zJSOQoSHffSffDRkia9asMVmrV68uV115lfTq3SuHeB4K3EP8TH4+0HL78ssv7RyEqnnz5lYWsbGxFja3HOPGjZPXX39dVqxYkVNG3FuxYkUlpzESExMjLVu2sjqsXbv2r0gfYanLlXr/t4MHW3ybNm2ULVu2ahwVtG5ipUOHDnLhBRdIc60XCP3cuXPl1VdftTKDSN5yyy1ygV7PjcWLF2t7eUiWL1+h8VSxcH379rU8bNmyRe677z4LQz5vv/0OOeusM2XYsGHy9ttvy/bt2y2O/OrdgXtPOukkre/nZJO22Ucfe1Tmz1+Q532E3aNkvVevXnLrrbdKjRo1csqeMli0aJG1uQkTJlg7hTAXVzJbjWdA2/A5555rbf7HH3+UF198MWeyUBCQ3hVXXKHP2I/yyiuvGhGmTm688Uatn5Y5cjgwSfm///s/mT59urXxa665Ri6//HIrfyY2AwcONDlof9zH/VyrXLmyPrfl7Hmi3bZr185IvIs7JTnF7nv1tVdt0pUfaLc866ecckqeEwUPDw8PD4/jHjr4HhEsX748cOmllwaUqASKFCliR0REREAHYPuupDWgZCewadOmwP333x8oV65cQMkBk4DAIw8/Eti9a7fFo+THPpVMBpQQBHTwt/vPOOOMQEJCQmDBggUBJWKBsLAwO096udO59NJLAtu2bQ106dLF4uf84Q5kIS4l1QElOIF77rnnoLwU1fRyH5y/4447AkoITeYHH3wwJ192j95P+medeWZgzerVFiY3dJIQGD16TKBEiRIHpUf+Tj/99IBOSCycK5f84K7rBCdQp06dHBn4VEIdePPNNwNKIO1wUBJo9ynBCyjROkhu0ufTHYUKFQ7oZCigJPNXsiQmJgaU+Gu6ta38XbpFsu91cTZs2DAwZswYu+fDDz8M1K9f38qHQwmjnc+NX375xeLiQEadtFkekF3JvOXNyf3AAw8E4uLiAkrWAzqpymk7hztIXyeCgfXr1wd0cpfTljgs/yF17tqdEuDAnDlzTEaddFk90mYbN26cI4/7dGXA70aNGgVGjhgZUPKcU1YFOZDx+uuv13a9LaAT0pxy00lW4NtvvzU5QusWrNBnsmTJknY/z8h1111r5QN0khBo1aqVxcF1y6ceofXO+bJly1p5ujZO3XMvz6OTze4PKSN3cP61116z9sF9uduNh4eHh4fH8Y4/ZCOu99snr9i//vpr+fzzz02LqAOwvebv3r27nHjiiTmmJ2gw0SZed911UrNmzRyN4zfffiNz582172jdtm3dKjOmTzftLmkouZGrr77azBjQdCo5M42zkgbTHJMOGlfSUQIha9aslZSUVKlVq6bJgRkB2m5esyMbcXIQlnNc40ATqOTQriEbB9+VQFk6tWrVOvioXds0xEpycmR397pPsHzFcpmm+QHODIDrfMfMYPToUaa1d/e5e939BQFpE8eyZctk9erVdo54ABrPn3/+xbSv5Dk3KBNAeOKpWKmS1K5TRypUrGhmBeRfr8q0adPkpRdflPnz51t45KdO0EDfdvvtsm7dekuDesGEgjrmbQhlSxrIxlsS7kND6tItpuVHPeQFrqExd3mJiAhqVpGTdJTb5ZQZv0G9evWsLl29cnDNhSM/5MtdQ9vL2ws0uHuy9uTUA2nwNoB8uDonbuq8SZMmOaY05EcnFvLUU0/J0qVL7RzpETdvFapWq2b5o+ypi2XLl0mzZs2sjJwMHMjlZKRsQttmVFRxia0SKyVyvR3hHp6tvMA1zFmAi1OzlAPXvvgkL9Vo45o36t3FiUb/s88+k5deeiknvCt7J2vRsKJSs0aNg5+N7KNK5SoWF/dweHh4eHh4eBzAESHiEGxMTSAkDPaYhQz+drB88cUX8t1338nYsWPl1lv/Jf369VWyE2XEBvMCSA7gdf7s2bON1IGpSvgmTppk38N0EG/durX07NlTNm/eLCNGjLB0IAKQ7yFDhtgEAJMYCCGv7iHmkJdHHnlUBg36xo5vvvlWXn75ZYsLQsHBJOGtt962a4T54osv5bbbbrP4HcgjRPCLz7+QUSNHyuhRo3KOMZrnq666yq7nBqQDIsSxfv0GM1dhEuLIJ9f5jp3uDz/8YGm68L8VjiBBcilH4MgSn9hQz5kz24iyC5sXyCuEFLI9Yfx4y98bb7xhZkGurpco0aSuAXGvWrXKzF527dxpYSC4/bRuMdEZqXU1ZsxY+d///ic9evSwcgqSssJG2J0s+zXvoWVeEJAWEw/9FjyhoDw5f9lllykx/kjrNVj3n2vd0X5cvdetW8dMNr7VNvr114Nk8OAh8sILL0hxlT0rK2ijD5hgYVrx8/DhOXX+888/W/6ff/55M0sBmKF89NFHZtoDINB9+vSxc5O0HY/QieM7OoHkHO2ZesEM51MluKTPgYwNGzbMyUOrli3l5YEv58j4k7ZvTEsiIqNs8lZQUEeHA+n1799fvvrySxmr9TX0x6Fy080328SWa5DxWbNmmbkZ8XGO+gPI26RxEzPHCX02OMZrGyLPbqLq4eHh4eHhcTD+EBF3pDExMUGWL19ugzREq27dutKiZQsjHRCzBg0ayAMP/Ecef/wJHdzL2z0XXXSR1KpZy76Dn38eLgsXLjSb0zGjxxg5B40bNZIzzzzTNKjbt++QTUrGAYN7mzatTUMZlq3Zxk72mWeeMZtzSARa7E6dTpCTT+4iXbueLO3bt7fzDmgYu3TpYtc5OnRob0QUohEK8olmHRtrNLyhR34L0YiHckDTyMI2tMhLliyxa5BOCKERZCXOEBzSqFGjulSrVjWHrBcUrh7QhEP8ABrhM848wxawAmSYNGmipe1IVF4gL2iIyS9le/HFF8t5552XU27YQTN5ACzMZGKEFpgyo44g3JB3CBhElTydddZZplX9+OOPpW3btipvcBLi5Ka0XZkjHxMWk1HPBQ4xccgLxAPhb9u2jdbpyVavp556irUFh9Kly9iaBNoE1zt3PtHyqpk/qO4pC+LKq96Z6EGokZNJIDbvjqRCal984cWcMqhTp46cqWXw2muvWdkgF/F269rV0uc46aTOts7AtaVy5ctLu/btcq531uuVKgfbZqiMRwo8P9Q5ay1a6rN7/XXXSe/evbOvik2SIeR5ISysaJ5lRBsslv0Gw8PDw8PDw+PX+ENE3KFw4SI5i7Egamh/586bJ4WVVEC2IA5cZ7DnNyQUE5Dep/W2wR+wOBLyPW/uvBwzFV7lQ5jQcIMiRQobgYOskM6UKVNtcWORbHML0oGgO3MKdxCeA5IXqnnda7/3HhTGaWnzggsTeuQHFqm2atUqR2uKnFOnTrXvjkjhqYTFqJA5yue00yBuNU2e3wq0pHNmz8nRyvLW4eabbpGGWs7ICZFCm0tahyP6rgz2mMZZzLyhVKkDZhgQZYDpEJpawpMnyOWdd9wpZZW0h5Y/9QhxZYEj5gp5gUkbQNYckq7fw5Xs/lYgj6sf4sld73ynHLhOTdjnIcitiyv0cGXEQtEFCxZY+RIHC2PPPvssqVEzWO+uDCDtTM5OPeUUm6ARB+dDPzkcXB6cfDxLodePNJCdcmERJ28aqPPQSSvy2OQoHzj5cx8eHh4eHh4e+eMPEXFHRhiwISCOzKxfv16uuPxy+e9//2uacgC5cuEd8bjg/AukTu06dg5MnDhRvvzqyxwbZ+xozzjjDCPw3IvXDDTkpAMpQMt8ySWXmP0qXlZAbpKZF8lx4FRuMpQXSDs+Pk527dp90HEoYoKMaOgh4wCzmqlTp0lGRtANH8BkBY0yYZlAYK6Tlw33oeDKlDKfM2eOfcfWGRtmTB0wKwEQLLxnULaunvIC6TsZwnVykBAfL/PnzTfzI0DcTDIA5ihLly2z79xTU8lnq9atrA5C64GyBYTJK2203mtULuzoMUuaPHmyTNFJC9/nzJ17EIkuKKhLR+j5xBzGgXMuj26ymF/dM8HBOwn1jUaYz9Rs0g14m7Fjxw77DphgNmnS1L67fDu4dF3arpzcEQriJ7yTr3Cu60catD8mg+5YtGihzJ0bbE8A23Ts3fMCbdCVkTsoq99Tbx4eHh4eHscT/hARd0SD1/648IvKXkjGAAzhwyXeOeecI48++qj+Drrlc2DwbtioofTo2SPHVvz77783u3IWf6JBhER27drV7uNAu4xtrYsHcokWHXvdc8891z4hpI6cOjiSlZts8Sv0TF5kjHOYYGB73qfPadK7dy/p17+fnHZab3nzzTeNcOROD6CxR95WrVsbyUKLvGLF8hxygwnOjBnTjcBw3S0ARBsZWk6Hg6sDbLVnzZ5l3zEJwO1cmTKlpdOJne0cYKEgC11JI79JRHxCggwaNMjs6Z988km5+ppr5KOPP9J7glpwTEswFaKOt23fnkNCMUmqV6++fVIeeZWlkzU3yC9pXnThhTaxwsb7Uv28+KKL5AmVwfnB/q0Irfc8xDksqMNnn33WTE2o9z46UeItzp133mn2+IAJYKjJRoUKFaVSpcr2PXd+kSOvc6GffxVmzZwpb731ltU7pl333nufTtxm2DXaU6/eva2N5m6b1PWSJUttwkwZcfTX56Nvv37y49ChOW8Kfkub9vDw8PDwOF6QNzP6jcAUBLOD/9x/v5QtWyaHmEJQsB+GsEKUWUwJeXaAfODzG80tgPBifwxJRBuOjSomDQzikFW+Q/jvvuceI/2chxBC3LHRxS/ypUripkyekmM+cSSAPNivo3HmmDljhi2KRIOfnx9lyC6kq0H9+kH7YwWTBO4B+Hhm4kFZufLDhzP3/VZAdhYtXGR+qwETG+zhKbMGDeqblhZQ9mPGjLH8cC03OaI+UjQ/eMB5+umnjZRhzgLZRhPOpAq/3dg879u3X8v4wGZHxIdpCshrYnI40FaQfx3HunV28BsPOr8nvlD8Xg5IukxwaFvUO558Zs+aJb/8PFzLJOijnA2AQjW/eEJhA5+/E2invHngOaXe3333XcsvbZG6vvnmm83TEXWcG9Q/7W/evHk5zwe+4adPm2bPCZOo3O3Mw8PDw8PDI4gjQsRBxQoVbCMcvJCwuM8RaIDWd/78eaZpmz5tupFkBn+ITqNGjWzDD8ijC8+rezS6aMNBqNYQ85Q7br9d3lLScPrpp5vZCvdxQBinTZ0qd997jxHnP0rgHIL226dpvs61hYdMKshj9+49bDFmXkSDcxA0Fqo68xQ2mJmskwR2W4SUYyoCIODOLCUvspMfXP4grPMXBF0KQoY7nXCCkW/KmEVzEGi+Q8AhlWvXrM23bJAZ23U2MmKygFaYvGCrf9NNN5mnmiB+nWcXZ17lcShwH+ZNtAUmZchOufG7WrVqvzm+IwXqg/xSfsF6P0cGDBigdT/gkGYalPXfDRBm6pt6Z1LEM8qzRb7ZRIkFvHm1GZ5J2tzpp/e3Z4INlXg+OHh7QtumPNwz7OHh4eHh4XEAR4wxFNLBNkbJeL9+/eTxxx+33R0hbiz6YiDmwF7822+/lYT44PbrHAzQvPqHdAHOsfMg5Bwyz+AfOohDVHlVjmb8KdPevWdmI478EB6t5ciRI03D7tL5veBe7GMfevBB8/ry9NNPmbs+DmRAxryIV1GVE6kxT2nWvLnZ+CLb5s2bzAaaBa1oEjHlIO/4SnflVFC4clmwcEEOqcekJ06JFDtr4qkE95FJSYl2jbxgnjJm7BjTdu7PVS5cx3MHEyryRx1ApAATmxEjKNPgLozI6SYN/Ibks3gTOBvogoJ4MDnCDSWeVT755BP7/PTTT819IITwrwATsCuvvNJ2dA3W+5NWLrfrRLBy5SoWhnoNbZ9JbPGvZXw0EVpt1MNvLe/coF0y4bj//vstb+4NDu0TLzzslJofSJ/J0mOP/dfKBo26ez5oP7zt8fDw8PDw8MgbR4yIQ+IY0CEFaDQh13fffbc88sgjpjFz5G3a9GmSnJKc8xswkGPP7IDNOfaoIC8STTqQpIYNGpjGDgKBth3zCXcdDyUQcdLJK47fAshWldhYe01fp07d7M86ZoYDiQwlYg5MTAB5bKIkm/AguAX9++Z3GSAzPq4dYSmorIQjXUxjFsxfYLbK7jd24BBYCCSbzEDGKROAppMt0gnHZEFvsvMOxYuXMO38v/71L5tQ4d4RoCUfPPhbczMJqGdc3TmvN5i9YIaEaRFphZprAJe+q/NQUFaxVava4la2U8eshgOf740aNrTJyl8ByhNNPW2xTt16OfXOWxk3CaGtoi122KQTrfXZC4ddnoF7Pv4okCk8/IAnmYyMdG3nQXeSuVFY6yh328yveeH7H/t8nqXrr7/evO7QVpgwsm6DxcbUU155iIyMCJaRlg3rBFw5YaaTV317eHh4eHh4BHHERkkGfAZdDgZrfjOYYwPOpxuQ8Z3tBnNHEiApoQQBkuOITm5wjyO/3IdPatzB3XjjjbYjoIsTbV5uMvh7gWxofB1Jdp8FBWYW7dq2te/Ys48aNcpMRJAVosdbhN9KWFwZ4q4Q93kOlC8eTjjPgVePjRs35YSnTObNn2/nrZ7s7AHgihINNCY3J5xwgpn/xMYGtb+4YMTLS3x8kPjFxJQ3UxJHMjG94Tr5yp0ffiObs4F39eQQWlfB9hAs4z0h5f5ng3SR19IPkQm4/DFRcJMRgCcf7KRBaBm4MiGflMPvBS48MeNybwkoc+eZiPipB3fs3L7DJkbITfpMskJlCgWTHeIkLzyz3bp1s/PIy9sW1ndQY7nrDYQUy0Fl5OHh4eHh4XFo/Db2lwcYeOfPX2A7E6KFTk/PsMGeg0Hb2Zy6ARrtN9ps4M4F9utnyPjtiEQoIEQzps+Q559/zhaGoYElDUg5n3ix4JyLE5MQXLIdCWIA98D9nSMhfLqjIEBrir0sWmS0jGjqsclFPsxwnCnAb4EjVEuWLDazEQCJuuiiC808AG02n+47JhbcQ3kkJyXbbqfYf/8aBxNOzAs6dAi6QDQSr2XPxkAgJqaCbUpDeMoCV39sWgMZx02jA5MizHHYzXKKfhLP/v379L4DdRxakgeVbQHL+GghVBb3ncOVf12tu/p6YBLEeTTHaJBZ5Eq+HXgDwQ6cjz76iAwfPtzad+jkoyBwzwRt221QxKRo/PgJtvMlMrljw4aN8uZbb1q6gDrCzt89e7lB3IThk3UFJ510kn0Cni123KTduHyHIlg+wTYQeoS2Iw8PDw8PD49f4w8TcdzaoQHEJpTdM++99x7b0vztt982LyYPPfSQbNoU1MhCPE7ucnKO7Xd+YLAPDu5BAgEgjZOnTJannnpa03lA/vOf/9guhaSDdw9MMdw269zbqVOnHC8eLq7fA+6FND/33HOWLq/u79dPSOW/9TteSBzhyi8d7Kwh3HgwcfIBygGiC4lzpKwgsro4SHfRosVWvoA3A7fc8i+566677MDNHgcmQrfeeqvZ1nMfZT9mzGjzh50XnAykg5kRZiLOdAZNOiSTOLD/7937NDMp4TeTJUwZcFf573/fJ6+++qq1AdKnvnBnOVMJo1sAygGKaH1z5IeDyyT4nXMFtY0+6PZsHBxn3iA/kOr/e/DBX9X7J598bIsbqVt2zWzapInlh3Jg0vHg/+k9/75fXnnlFWuf/9bv3Pv22+/Y9dD85wX31icU7neLFi2tzAFx4MGHuJlwvfPOO/Liiy+ad5vBgwebPNzHTqO4A82vzAgTSrIxEeIAtM3FOuGbMmWK/UYM98aK+Ddu3CAPPfyIlUvogUzI5jaG8vDw8PDw8MgFHch/F3QAts89e/YEPv74YxhFzlGpUqVAbGxsICYm5qDz/fr1CyxatCiwd+/enPvB1i1b7ZoLd8YZZwQWLlxo14gfJCcnB5TU5IRRQpGTToUKFXLOK0EIXHTRxYFVq1blpKFEwj4XLFgQ6NmzZ07YCy64IKAk1q4Rxh1bt24NKHHNCackxeItHHIoeQ4ocQlceumlgbVr11ocStYC0dHRdk+NGjUCn376qZ1HjnUa5rrrrrVr3EecSs4Dy5Yuteukm5iYGGjbtq3FTXrdu3cPrFu3LicOB8oPTJ8+PdCjR48cGS+//PJAamqaXcuNuLi4wIABA3LiLl++fGD06NGBzKyswE033RTQSYHFU6VKlcCIESPsHpfOqFGjAkri7DpHhw4dAkq47VpSUpLVf+3atXOuc5BH6kXJ+kHn33zzrUBGRmbgww8/COjEwc5Rl088/rjFlxtjxo4NlChRwvKnE6vAAw/cb20C2ebPn2/54BrpPfLII4Fdu3bl1KMD6d1www05MlDGOpmwa8Tlyj89LS3w1VdfWVwurMWdR703atQoMG3aNItDJxYBJduBmjVr5tzHQTjks+dA4+EceVCibOm58gWZmZlaxh0sfsJRr8uWLcuRLRT8VpJt7Sc0vZIlS9rzkLvMCffdd98FdGKR8+zxfDRr1iwnzI033mhtzaVH2KeefDIQHh5u16mD66+/3q6tXbsmcPrpp+fcyxFaRu6gXh95+OHAjh07TO7QNuzh4eHh4eERCPwhjbjebxo2tHMXX3yxbV/Ob8xReEWPxlCJhb1Kx+3bgw8+aBpWtGlKcLJjCXr6YGGXA9eVxNh3Fw6NbPsOHWxTFV7L66Cekw5uC3nlTvqXX3a5aS9J093rPjEFcba1oESJkpr2ga3V3UFc1asFF+FxoFnHZrpUyMEiS845OQEa7oiI4Kt/8sNvQDmxwK9z55MsLmTHJrdDx45m2gCIB3v3ihUrmD06YbifsuD+ULj8YBvs7IOr16gu7du3Mx/W3OvAvfwm7/hlR4OrZMpsh9kMKTMjw9Kh3gDh3OJIlw4L+Vi0iSyAMnd20JQDG/zwtoBFnmjdyQtpUi8s8qR+sSW/8qqrzOShWDHskUtKZLa/bdJxW9znBgtKkcfaWkg7sXu07vht5WO/g+Yh7voBBCyP7hxtiXwCzrmjiJYB5j3BxcMH6j6veictB+LCrhoNMGXAIlbiowxYE8BzUEzzgHccFkTiCpProW0HlClT1uqea+SLOnGyOZBX7lOibul1P7W7uVLkHGYo1A1lDqgL0nJ1g8yEIz575kodeOZCr5EGv3neWrdpY9cxO1q6dJktNi5WLCJnkao7QssotKzM6kzjc4eHh4eHh4fHARTSwfEPj46Qh3Vr18mEiROM3LGADDvokkq2qsRWMRLG4i88K+QmFgDbbswdxoweLWnp6XKSkr4+SiDYSh3xXHhMBViAyKv9xUuWSNzu3UYoIUuxsbFG8nv17CWxVWMtfO50khKTzOvH+AnjleSE2SY6p5xyag55diA/mGAMHTo0+0zeQDbMNniFD+mYNWumDBv2s5KhTdK8eQvp16+vTQhcHtik5uuvv5LFi5cY4cPjCyY0EDZIEPbjLIrDxprfmK1AuIg7d14APtOHDBkiu5V44SKxb58+Zp4SWmYOpIGtL6Y8TGCiooqbz2fSx3wAu2VIHG4UIZXOBtmBTVpwPcm9uO7r16+PTSxC02LRKHbQTA5wc4hHD0gv9di6dSs5+eRu2US9kO28iucY7sHEhbJgcWhu4A3mo48+srLDZpmFrdg6kyZtDFeH2MgzwcCdJG74nB20k4u8s5ES9Yn7xg5aZ6dpWSFL7rKCOA/WfCYewgUh90DWu3fvnuP/njiY4ND+J2j7Wr58ha2NoC1R1hUqxEib1q2ls05EmJTlBvdSl+PGjZdCWj7Y3p966qk5E41QGd1v2svCBQutPVM+PHeQccqcMmVTLMrDmZiEAmJNfU6bNs1+99HywG8/kwzXHiH0I0aOtPUE+1U+TGLwD166dLQtNsa14aGAnOQBs6zckzsPDw8PDw+PI0TEQwGhgCChDS1TuoyUK18uR9vqBvj8wHXIRX4LykJBOMgE5AMyhFbuUHGHAnKUWyt/pLB/fyA7D/m73MNGGmLiNMy54bSi+V0PBeVN+IKUGaCMmfgUKVJUZTig1aUZcN5pivMDsqMRhUznB9YN4BkkNSVZSimRhCTnVzek6bSxhwLx5SdbMD9FctpZfiCPlBXpHWkQd2h7Ih1IMbKVUHIbGRGpMh6+fe7dy1qB4Jum3wJ2OYX47969S0qVitbJT7kCP0fI7ohyXmACTJiCtjEPDw8PDw+PguGIEXGi4ciPUB2OhBcELg3wR+PyOPI4VB0fifr/O8C1z/wmeX92ORwv5e7h4eHh4fF3xBHXiDv8WQTAE41jF8d73biJ459VBi494J8JDw8PDw+PYx9HjYh7eHh4eHh4eHh4eOQPrzbz8PDw8PDw8PDw+AvgibiHh4eHh4eHh4fHXwBPxD08PDw8PDw8PDz+Angi7uHh4eHh4eHh4fEXwBNxDw8PDw8PDw8Pj78Anoh7eHh4eHh4eHh4/AXwRNzDw8PDw8PDw8PjL4An4h4eHh4eHh4eHh5/ATwR9/Dw8PDw8PDw8PgL4Im4h4Ht6Pft25ezRfpvBfcSx7GEvPLE92NJTmQ51srNw8PDw8PD48/BEdvinmg4Chf23N7Dw8PDw8PDw8PjcDhiRNzj74s9WVny/gcfSHJysgwYMECqV6+efaVg2LRpk7z//vtSs2ZNufjii6VIkSLZV/467N27V7766ivZuXOn9O3bV+rVqyfbtm2TX375RdIzMqSfnqtataqF5RFAK/1ny015/+9//5OIiGJyzTXXSlRUVPYVDw8PDw8Pj+MBR4SIQ3oWLVwoX375pWQqqQuNku+1atWS6667zhONYxTp6ely+umny/IVK+SzTz+Vk046KftKwTBr1izp16+fNG3WTIb99JOEh4dnX/nrkJiYqG3uepk/f548//zzJt9CbaOPP/647FBy/sgjj8jJXbrI3Hnz5NlnnpGyZcvKo48+JuXLl8uO4ehj69atcuKJJ+oEoLBMnDhJKlWqlH3Fw8PDw8PD43jAEbEj2ZO1RxYoyXnzrbdMM/r5F1/IF0rKBw0aJF9//bWMHTtWspSgOzi7XWfDC5EPteV1n/OUJEGcBmkcgDC5wTniIY68bG1D4z1UOMIQNq80gEsnFJxzsnO4dELBPYdKLxShaYR+PxQI49LPHT6vNIC7JxTx8fGSoMfefXvtd35x5gXKIDU1VVJTki1NfrsjP4SWd37phIZxMh9KHq67+uDepKREPZLsN+BcSkqK5ZO3AGDXjh0yZswYmTlzpt67x84Bdw9w6bp480JB8pMb3JORkSGZmVk58bty+yPpuDCA6+4IRej9fOaXnoeHh4eHh8fRw5Ex6C4kRrTRrKJNfVsJ+Vtvvmmv3SHn99xzz0HacEwAChUqZPbkfC9atGjOOeA+161bJx999JFMmDjRfudlOsA54iGOvOzTQ+M9VDjCEDavNIBLJxScc7JzuHRCwT2HSi8UoWmEfj8UCOPSzx0+rzSAuycUhA0PD5MiIennFWd+gNCFhYVbPJSJO/KDk+1Q6YSGcTIfSh6uh9YHYTmIB+SODzRv3tza2AsvvCBlypSxc4AwDi48ny6u3ChIfnKDe4pFREhYeHhO/K7c/kg6LgzgujtCEXo/n/ml5+Hh4eHh4XH0UOQR3tH/QaDBW7RokYwaNUp69eolt956qzRs2FAaNGggDfXA5pjBHq3b2rVrzUSgQoUKkpCYKKNGjpSpU6dKRmamlCtbVslcmGkJ161bb/a8E5WER0ZGSrVq1WTz5s1SvHhx+w3S0tJk8uTJZg6BWQXxV6xYMYdU7FO50HQSX4QSnunTp2v4SSZLuXLlDiIfmDIsWLBAduzYIZUrV84+GwT5I53du3dL+fLl7X60iPPnz5dx48bZNe5DthIlSmTfJZKpeVq6dJls2rRRoqNLG9FFRuJbv369lVl0dLTJtmfPHpk9e7bExcVZGrxFmDRpkuU1ulS0FC7ya8JF/IsXL5Zffv5Z5s2dCwOT0qXLGJFjUrRs2TJZtWqVlQnnnGZ09erVsmTJEiOemJEgzwcffGCa4gsvush+//jDD7JI4yavyMj9+WHjxo3y3nvvaR1VlQsvvNDKeaTWK/bZmFvkZaqya9cuy9/IkSNUxtVSrFgxlb30QYQRWZF//PjxVh5bt27RcBEWLjcotylTpph2OyEhwUxNhg4dam0GG3HaI3XEdWyzu3fvLrVr17Y2EJxEhFm9k35KaorFFa4Ti8ioSJmi9TsiOz8xMTFWX7nBGwXa8YgRI6zcw8OLqQwHt7HcQDv/3vvv2+Tnmquv0Ta8XIYPHy4bNmywNpCXKVeSyo4p0M/U+bx5Ji/16OoX07Dly5fbc1alShWrC/JMONq8K1/aDXWEzMhOennly8PDw8PDw+Po4cgQ8T17jcSOUFLVvn176dGjR/aVA3CvyjFVeeutt2zwx6YcUxbIC4QB1KlTRwnTTnnzzTfliy8+N1IFaYPskgYLAjkgG88880zwfiUUEDWILISubt26Rkwg4Ji2TJs2zQj5Rx99KIMGfWPksmnTpkaakQtygvb9jTdelwkTJto1SIsjritXrpT7779ftiipQ+Ofkpwir7z6isn47bff2oQBQsMEA0ITGxtraWzdus3k41qLFs2ljBJI0oP0k/dPP/3U7OfJT0pKsjz00EM2mYHYvvbaa/Ljjz8aQW/RsoWRfOCIXbLKwP2UAfdQfkwK9u/fJ23btpXt27fLO++8bWVLfUDoyQvxvfH66/LpZ59Ji+YtjChDvD///HPZqeWMicmQIUPk60GDtCwmWLlBUilTPvMCZJf7C2ueKaN33nlHvv/+e7uXhZyNGzfWsi6pIQMmP7K+/PLL8u677yoZHGV1O2fOHCPspEPZUQa0k9dfe12GDB4sY0aPNjtqJi9RSo5r165jkxriW7p0qZUDkwnKDBJNfUJYyW+fPn1+RcQpE4g4k5InnnjC2gh1C/ldv36DvcVZs2aNlsF4eVvz891335nc5IeFn0x4HMcmn6+88op8+OGHRm6ZPM7ViRHtqn79BpafvACpZgKTqe00ISFe2+fH8s0335j8TECQj/YEgvlconX3hr1pgojTrqZPn2GT2MaNGlvb51khThaqYpbz4osvyg8/fG/kvkePnsSk5f6evKrt9wctKzeRpL3UrFHDJjAeHh4eHh4efw5+rWb9A4BkMqCjbYOU8glJgtw54LlixowZ8uyzzxrRYZHgmWeeaRo8zAMgIaVKlVRiEdSoQ6jRnnfu3Flat25txASyAcHApIBzt9xyi1xwwQWmsWZhHnFgKpOlJGzFihVK6L+QTz75RMl1edPYo113mkEHiG7hwkVk2LBhRnIAxBUyP1pJIEQNzTCE6P0P3peXXnrJCBYa4Ntvv90mIJC8J598wkgYyMhI1/SXm/YZDbWzwiVO5IIoQg7Bvn1BTfVPP/1kJLVOnbrSq2evHC2tI+DOlnfKlMnyuhJq4r322uvk6quvlsZNmpiWHPC5YsVKkwUy6kAdLdNJDGVEeZFH4sREgrhIP1LJ6LXXXitdu3Y1rT+TAjdRygvIB4nevGmzEvAfbAHilVdeYeXDRISJCm2APEBkiW/s2DHSpk0be3tyzjnnWP1DpplQAcoFcl4qupQMOP98ufHGG60N/PLLz1bHyI7caJVf1fgg/0wqrrnmGouXNJlAIVfuug4FpJx0ZuuBjMSZlppm5fbRxx/J4CGD5YQTTtD8XGkTEcg2cScnJ9n9TBiYkHGuqZb/v/71LzlvwABbiPncc8+axv9QKKbyQcKZoNavX98047R3iDTn0MJTbmj8P/iAieQga7+0+Ssuv0LbeaY8p8/SoG8GWXzUNZMQ2vDAgQONWPfp01fvqW7xMEF6/vnnLOxFF11k8TD5JS3yhtyAduHh4eHh4eFxlKHE4w9DiUvg3XfeDSjhCdSsWTNw2mmnBXr37m2fSrICSsgDe/fuDSgJDCgBD8TExATatWsX+OGHHwJKmANJSUmBm266KaCkKfDwI48ElEwEAvv3B5RoB6rExgauuOKKQHpamoVTEhtQkhGoWLFi4Nxzzw0kxCdkSxEIDB06NKBEPXDnnXcGlMAElLwETj75ZJirxnFlQEllQEl8IC4+3uQJBb+//XZwQIlLoH///paOkpGAEsKAkvdA5SpV7P6Vq1YFmjVrFqhVq1Zg5MiR2XcHLBxyRkVFBR5/4omAEuGAEuvAgAEDAqeeempAJyQWbo+ms3nz5sDNN98cqFq1qqb5raWDrD169LD7zz//fA2/zOJUwhksj2wQFlCOhL3vvn/bb5CQkGBxA53kBHRyEmjUqFFAyZXdRzxKXAOXXHJJQCcVASWPJqeS0UC3U04JhGn5K+EN6CTB4tBJVeDqq64KREQUCzz44IN2Li8oSQ+UKVMmUEXL6I033rA0KM8vv/zS6pr8OLleffVVC0d8iYmJdg4MHPiy1alOauw3aY8bNy6gBN1+AyW9gVNO6RYoV65cQCcx1nZmz54dqF6jRqBJk8aBiRMnWjjK7aWXBmpbrBWooddoZ2DBggVWt0rUA6NGjbJzxNOqZUurU9Kijc6bN9/S0ElQQEm+lk+KnVdybLKTH8oXvPHG64Hq1asH7rjjjkC81qHD22+/bfdfpeWXHzZv2RxQ8m118cgjj1qegU5GAkqOA506dVJZ5tk52km9evUCF198cUAnM3YODBkyJFC7dq1Av379tM1mWjnrJCoQGRkZ6NOnj7VZ2hBtYPu27QGdXFk848ePz44hYPHxvLZq1Sqgk04759qZh4eHh4eHx9HDEdOIB/QPzSPmHmhxsU/ls2LFSmZrq2kFw+knx9lnn22mAEWKFpWSJUtKkyZNTOOsZCaoQS9UyMwECusnr9wjIiMtHFpbbGOxD+f3z7/8bNo8DrSkADtwNJ1o07Oy9phN8bnnnmML8zA5wUQk1FxASYf9rl+/npmloK1Gk895bLlJr3HjRqKkzsxf0OpjY9yiRYuc+7Ed7tKli2kg169blyML18gvn4cDJiJoXW+88SapW7eOxUl8edlnY3ePBnjMmNFmirB0yRIrL8o9tKxzg3NoxYM/gh8gQ8s1MjJCBpx3npleEA7NbPsOHcx2mHLAhhzkjpe88QYCTe01V1+d/XahsLRr1z54r5aH09TzZgHtLuF5g0C9DR48WLZv32YaW9YGbN++w9LWSZTlH608Zhh80haIOzEx6A3F3jZoW+BNB+Yn+7Lr4vLLLpMGDeqbhrggZR8KwvPWgjK+4orLNT/aDjVN3nrQ5jZu2GDtEMyYMdO0yORn/IQJ8lV2fjDX4R6002j3Qe5yK6R/2HSXKlVKrr/+Ossz4C0PbXbLli3WzgEaerTvlBGmMJQbZlGYsGD2s2XLVlm7do2FpR3xLPG2RicYUlq/s05gk8qE/TplSLlhBkM8zoSHa7ylAqTj4eHx58KNFx5/LXLXAb99vXgcLRw50xRto9ghn3rqqfLmm2/lHLwer12n9q8aMWRATx4ghQo3+LuwuT/3algIEgQF4oMtLiYumDRwYNLBRAASAgnC1IQ4OQdJBXl1dC5dJg6nKsHGvGbo0B+NBGF/TVpnnn6GxblcCToyY/7g7K5dHiBpnIPUQIZ+D5DF2QUTb25ZHSD9mKNgb/7IIw/L/Q88YGYgEL/fQ6LIY5gS/kKFg/c68spCQEx6spRIsxEOyC0Tv/fsydI61QmX/nZlTBnYZ3Y+IPuYFXEeE4v//ve/Vm9PPvmkfP/DD1JUJyHlypVV0p5h8kyePMXCPPjgg2bygwnIggULLS7yyCdrDfisVau2TWKsPvRgcSv19XtB/LYAct8B936uTqnfgKZBW6T8+Y1JD+sR8ElOfiDJ2MwzEc2v3ByYjIbK6iYPrvwA+eQ3kxfSodyeeuopM7nCFrxSpYomD+AeZId8cw9knzxs3bbVrvGJnfnTTz9t8VDGa1avtglMfusAPDw8jj7oB35L/83zTF+BcggTyl07d+X0v3mBdVbOLNGBsPmFP1bg8vlnIXcd8Dv0HPK4cd/D44/iyBHxbNCRsEFJYSV0RYviji3vhWpGZvSzIF1OzgMQ0llA5Dt27Gj2xeeee27Occcdd8hdd91jZDYQCD64PDDuIc6ro3O/0b6eoHGihWeRI1pNbMYh9r169Q6SlOywrrML7cSCBCpv8kx4u0cPZMhLy+0AqUUmtPT5ycqk4aabbpLnnntO+vc/XVatXGUEjQWLjpA5GV3+OQ5K++Cos3Egf4B7IXOFdFJTRI/8ESTGgDRCQbmZ3HpQRqSPvTe7eFJn1CEa7Hvuust25kTTz4Dx6KMPW36w8zYPPA0b2sSAuKij3LB0VQauuUlYXnVRUDjinTs/5ANY2e7dZ/mjLYbm59JLLpG7tC1efvllUlnzA34VTzaIh8mKQ5EiuC88OCzlhjxouEPTwc4bO3ts+nmTAShf4uQe0oToG7LLgkWZ/fr1zXlmiOdGbUuPPfbYb97MycPD4/eBdVSsLWExNW/RGGtYr8Lb3IKAZ5x+mud85oyZ8p///EfmzZ+X09/n1ffRn+KfgfVbgHVJn+pkHoXTnj2/T3nE22PGS9afkA8W+3/77Tf29titD8tLlt8C1ryg2EPR9GeA9UUs0P/f/960tWjOaxpAURfM53cFrisPj0Mhb2bwW2EcKzhjNPKop0IfPCNhuQBByOt8bjgCCbgHzTZEAvKDVvqBBx4wjybugJT07NnDzCN+y7OPvMiDp4qTunQxE4mhPw6VpcuWScuWLaV6jepGcJo1bWZ5ZMEphJfvaD4B2l46HkwNIiOjcsoDrSmL7lyeeXjR6oO8OqiClAvAfIHFrq+9+po88+wzEhtbRYYNH26mNcRB3HTSaEv4TaxoVulQrKPefyBt8paRkZnTsTjyxmQkPj5OSkeXkqjiwbcKBZUvNzBTYVt5yoSdLu+7776cerv33nvl1ttuk27dullYtOHjxo23Rbifffa5PP/8C6YZx3SI9Jns8clbCLBi+XLTolv70/M7dmy3hZzu95GEEWqNk7cfMTFBd5a8CcLTSk5+NG+33X67mcwwkcgPyGZH9u8DCJp6OVSuHHQDyQSGsnLpUIZMPlnw7Dzr5EZwYlJYatSoaZ+4Vbz11tvk3//+d048yH755Zdb+/fw8Dj6YNE6E2ie5wcf/D+588477ZnEoxZkryCgj6cv37V7l5mpMc44TS39Su7xBfM2zNLwRgbmKFl+VCfgn332WY4CB+S+L69xyuHDDz+wxfTITh/98MMP2bjMW0HGG1CQ+A4VhgnE/ff/22QPBWEOF3fu34cDkyHeNtK3srCdictdWjdMmgDme6+88rK9od21K0jOySdexpjg5Jbpj8rj8c/HkSHi2aADgHSu1VkrDzyeMJjBQuYcmXYoSOOE4HAeIon7NTxu0FnUbxB0CccMHPttOh8eBOyYsSWmQ4KABjXiwY6qoI2f1/n4ncaO+Z133zENNhpD0oPEYMtOGHxbM0tGtjgltvNVjhEjflFCGybt2rUTtkpn0gBZ5sHFTRy2xJDkL7/6UoYPH2bpOa0r8jkZDycr18k3frgp27T0NJMpNraqyUt+IYm4USQfmE1Qdmu0PujQsNOmfKzDzk4KkswkAm0GNvabNTy2w8jNRj0tW7UyEx+QF7FFptx17BB6Hrt6ZPtp6FCTg8kLEwPKCM8sq1avNv/vmKdQfpBLPJRQx86tXzCtIFGFmEPGkXPu3Dlmj00Z455v8eJFNsEIlZd7DyrfAsodilCC3Fzzw8Rr5IigT27yQ5nT9rHlRpb8gBT7tQ6oh1CZ3Jsc0nGyN27c1NYokE+0Q+STNs9zQT3xBgGE1oOL033ypgG79wUL5puJC88ocdCGsb/Hcwyyg4PKyMPD44iDPgJC3Lv3aXLTTTfruNPHxgjcqbIHwuGeQfoG1xehmGKM4pNzfAe5+2qul9A+NVw/QT08NV1zjY15Zi6ajdz35f4dirVr11n/fNppvTUfN8p1111nxBylCn0jCO0zQV7xHSpNXNCicKhXt272mSAIcyjZwOGuh4LxGFe07OeA/Ji+/lsJeeUqVayf5Drj6oAB5+txnq05A3APTEVxuXs4mX6LPB7HB46IH3FIHa/Z6DwgTUuWLLWBHrLKJ4vAcAHHgw6ZwrYbG2cWpYXrOR5SyMTYcWOlaZOm0u2UbkYM43bH2SI1ZsGQqoULF9mCNsgc/qqJC800Dwj+pVl89uab/5OYmArSqFEjIyTY0NLZQaYPpe1zD4e5u9Pvw5XsYDcL+Xn00UdzNK9lypYxrTGzZvJGx8kruNffeMPyeckll5jpAOYsEFc6KMqBPDAp+WnYMNuACIJJufXu3dvIPRMM3CxCsK666ioj1vk9sHTQA18eKC8PfNk6ADr0QYO+1nKdIKeccqppke2NgJJVZvGUERoWXh/yug0THCZM559/vtnvQwQpp8SkJFmtRHfevLl6zNdznxpBO+OMMyxfzrd6brmYDPD6rlKlynLFFUG3hcgYH59gxB9ZzjvvPDMrIV+UA2SSNsObAeoYm3EWOkZoezixc2eze4Z0QhrRbENq39WJEfmlMzxf81ijRnUpV768acNnavvBzzZE/bNPP9X7Fmo9pRgR79mzp7UHyoBXsEw4TjvtNPPfjuxMPpCXPDJwoE3Hx3mFCjFy2WWX2+BFnmlHlBMynq5lQlvErpr2x5sIJgLbtgZJreXnq68sXtw55gXaER037Q3NmGtjyEd5skYB0xEWwdKmkZ/6nD17li3OpE1Rn4SFUJNP4iSPvFpFS45rQoD8PFNMgpjEuY2DaDuEx/0j7Ref75g9IXd+7c/Dw+OP46uvvtT/C5lJGG82eXtG/4OtN2Nlhw4d7DlEScHbPkdq6a9RXvD8oqxg/KQvoH/v37+/9XmMSfSF9Nfc54g5+z0wZkFs69arZ/0Be1lg1hYdfXD8mJwwrjI5Z6xiPMtNqAHjLmEeffQxOeuss6R9+w7SseMJ1veQD/py+ny0xcjJfhXEQ3/n+hjkRInB/iD0T6SPiSZpIjv9LONkVe0LyR/9HYoEnACQNvfQlxEP/Rx9dmi8pI2ygrAc9NnkM7dyib73pZcG6jgVY5pwXPiyLwflCu8gP8SPUwTMJRkTGeMZeylbxlb2wkA+lHDITpzUITKSv1Qdz6KYDCnX8H2sBzgiRBxAevB8ERVV3LSvNHYIFMSSxsuDTwPmgeQB6qNECHLkNJYQog3rN0ir1q3M3pZGSqMuUbyErF6zWtbprJtGDYHHVrh1mzbWwCEPdBaQHx6IVq1aW2fArBU72ylTptpCNtJDI3go0OkZkEfzQNyYUEDi6TjcgcYbuSGFPOCEQzbsda+//nojTjzkhOU7+cAWD+0o5yCreI3ZsGGjPuD9TEsJuaSjoIwgX8ENY/J+SDlfVNMjfbTITAogiX379Zd/3XKLdRKkA+mlE964cZMRM4jdzTffbGYUdEQQNcISH9r9Vq1amVx4LaE8mRwQFl/TaJ5d2rmRrB3tQq0D7mcwcZ0+neSkSZOlvnbyPfU8hJyyoN61tG2goHOi/pKUQLbL7vCCHneq6ABR0+p+1sxZllcmbt27nyrp6Rly3rnnSYwSZRaYNm/W3GRlh85ly5Za/WFqwcSLDhm7ZwYb8k85MEliAsQ6Aogr9UeHSrlT/rRbtNsMKL169cxpo3jg4XxNlQuvOUwsOOiQub561Rqrw4U6CYjX+qDjZhJDG8gLlA+TJDpuBmIGRYBPefzEU39MGCD8lB3lxsCLBoqJBmlBzvE/TpsnHgZMBujU1DSbEHIvsrm2i0wMgAxa5Jvyp206MycGf9LIq549PDyOHCBuEE6eO4gm/Sb9OAomnj+8RqGAwuRj585dOWZ79E+DBw+RZ555WhoxcdZxjT4U5QZjHPbLTPA//vhjI34oHDhP/CgH6DMcEUeZhG056dJPMgauXbNW/vdmcDE34VEyLFNSTt9BfwdC+weIOOP6WTp21NCxbI+OZaaw0Wt4l2KTNUw9MGH5+utB8sP33xs5hljT7zBWMh6xgJxwX3/9td1DntgIjzHj//7v/yw/kGL6RRQJhEWZwyZqOGpAVpQ65cvH5Hj+oi+kLAiLnEO++84UhrwlZmwgT65/B2xOiFJr9+44Hc9aatnV0H6ziPER+mf6UNKENtH/QtQHabyPPfqoTTh27Nwho0aOsolQDx0jNGJTylCW7NOAuQ6Kj/BiETYm0dd6eNBYjxj0gbLjUFDCFNiyZav5rw4Fv7WDMF/hoVCCar6/lTgEdJaZfTYIfdjNR7LONu3QzsTOhUInBHZkZWVln8kf3MuBX+VrrrkmoGQ+oJ2ayaAEJzvUASQmJgW0AwoooQwkqGz55Z3zyLl69ZqAdqh2jvxu3bot5x7STUxMNB/YhytDB+3kzG+0ksvAtq1b85SRuEiT8iFu0sEn++bNWw7ypY58Sqhz5CBfOmEK6GQnO0T+IF3izl13xEVdU2955SlYd2utbnPfC7hfCbr5Y9+2LehjO5ifnXYtNwhDWB2o7Df+v0nbtTXu4TftwQHZ+Y0sDpQL+aEccqejA4aFDS07QLi4uHjLC3mKD/Fvnx/IC+lwn5Lv7LNBkAZy5VWnlJVLJzQvADmoM9rWoUAZ6eTG2i5tKPfz6OHhcXTRt2+fQMOGDW0vA8Czzv4DtWvXtv0c6KvYu0BJeuCyyy6zMIBn/sknnwzoBD+ghNKe5Xfffdf2lYiOjg5079498Prrr9veBkrAA6eccort5QF0wh6oo/EPHzbMfr///vu2d8YNN9xgvxlrH3n4EduH4Jxzzgl8oNeVBAfatm0X+PzzL2wczd0nsV+FkmPb02DLli3WrzB+JGvfzRjC3hDsxcEeEh9//FHg0ksvsbH1oey9KRK0n33hhRcCJUuWNPk++OCDwOOPP277GnzxxRfWn+kkQe+pYntWAOIi/8h5qubvKS2PK6+80vYi6devv3EJ+u/nnnsuoGTf9u3QiY/JUqpUqUDHjh0DSuZ/1e/t1bzdf//9gQoVKgQ6dOgQePPNNwPLli3L3hsjOIax1wL7TpxxxhmBNJWN/SsuvPDCQLFixQI6MQrceuutASX+gTjtw5V0W1zdunUN6IQgoGTc8lKpUkWr27z6d4/jD0eUiP9TwINVpUqVQPv27a3Ty4v05QWIVUHDHg2Qdl6ENxQFuR6ah6ORp/ziLIj8xyL+rPwcqXTyi8fDw+PPQ79+fQN169YNfPPNN4HFS5YEBg0aZAQRggkBBSiC6tapY5t0OUDQ2dCNjcRGjBhhRJXN7yCcl19+uU3iecY5LrroIiOI33//vd0LuQ4l4p988kmgRs2atgkemDx5cqBZ8+aBLl26WDr0E5DVoGJmU579BmkWL17cxss+p51mE4FuXbtaHiCwxIPSKiMj3RRx48aNC7CpWs+ePQP79u61DeRatmxpxJuJAHKj6ECpgpIAspp70gKpZUM8CDBEGaCQYsOz1q1bByZNmmRKBoh927ZtcxQnxNe0aRM7j0Ijr34TxdV9991nG58xuUGut99+xxRAgM3QkJ9N1ByRZ4JQQSdM11x9tclLvMSPfEw6Fi5caFyCupk1c1agWdNmVuZMXIDvj49vHNHFmn9naFnYwSs67NXdq0FMOzhfEPDa6q98pU/ayHAoFOR6aB6ORp7yi7Mg8h+L+LPyc6TSyS8eDw+PPw+YRmCvzfqQrjrW3HzzLWZ2glldzx49LYwSuoNcmwLGI87nBuYTmMJhxuY2HGN9CuYfSgDtd17PPQvG3RiHiQgysfkd9ymBtf4C80m8cuV1P/cSBtMXvG1h3scGfJh8YJaKSce2bVtl+PCfbR0UTgYwE0zVIyMz08xUsKHG5BOzOZc3TGpYr0I8uaEE2A7MWDENBKWjS5sp3r79wQXwyEOZYF9PnjBlVTKsaafneIjJq99kLwtcAbP2hnVDOpGwvTrwkoLcIHf5u70ysrKdIHCkJCfb2iXuwUMOa80waXn/g/clLn63mVvCN0BBOYbHPxN/P9ZzlEAHw8GDix0aC2hYyc6DmtfD6nH8Yf/+4OY+HL7j9PDw+CNgzQkLJFmcjw30W2+9ab7E8TgSXTrawkAmWQ+Uu7/JjxBDOoGze3aLHQvaX0FQ9yqZdJvKEQf3H6rP4x7SwQ6bhe/YRGOnzrqVgPaZ/GZ/CFwLvzRwoC3gZ60Oi9SJE7KPvG69EgdjLv0tx6Fkd4QaEIq4cAbLPWXKljXXw6TFfg7Ykd9+++2WFzy7MGEg/tzgHHlmJ+VXX33VbNeZiGC7jovCvCYGVkfuu17nfkg5G+FBxLFjp26x4x87bpyS/fLKM9rYZAfkVZ8exw88w8wFZu/MspkJV69ezT8gxzFcJ02n7gYDN1AAd45wnpx7eHj8NgSkZMlS5gyARfS4EGSfBUeigfUteoT+hqTibSw3CONIN4SUTxwY7FFCeDhlkuu7IKcA5wmA8/RtjtzmB9J2BBRNv/s+bvx4I7MQ+y/Rhk+caJ6nTjqpczBevY/wyIuXMpeG63sPh9B8sYmg+028uzTvLKzE8xlep1igyfiOe0gW65Nu7nIJ7cdxo0seunQ5WZo2bWYevnhj4OoiFKFlQ16oM94KREZF2SJ6SDiev3jb7jzH3XHHnbbwFOQVp8fxA0/Ec4EHgoePB/RwnZfHPwd0pKHEm+/79/Oqca8kJyVrB7xD1qxdJ6tWr9VjjWzatMXcM7IJ0r7sjZFcZxwal4eHh8ehwDjjxhwH15egMcXLE8QYb2SA72PHjDmIvBEeUw08i0AYIcKYp+A6VwNKdSWjgDe+RZWAHqCNB/dXeFepppMBCKxLDw9MU6dNM9eDefVrpEW85AGE5gVt9PoNG6RFy5bS8YQTTHOOFhv3q4Bs4rGKCcikyZPNowtpoNnHkxeenZhIBMMeUIiQZl7jMyVCCK5hhoJXM9woQnr/+9h/ZeDAgTbh4bqLKxS4Xh47dqyZshTKjn/9+nXmEQ7vaxyMC7kBgSdfyG5y6meUEvHWrVpZXJgGOTMdzlNe1J8n4B7AM808wMPBg+7xz4cbhFynSIeakJAo0+cskg+/HCqPvPCh3P34m3LHwy/L/U++Jf95+m093pG7Hn1V7nz0Nbn/6XflxTe/kB+Hj7JBIykpyQYC4iJu4str8PLw8Di+kZaeIWlpqdpXBH9DYB0xc59NmzQxl72YRNx0001y9913y8UXX2RuBwHkj34GEo4mlr0X2LMBW2T2iZg0aaK5qa2bvZ8A4Qnr+iRILqYTzqQFt39nnXOOuTXlfrTHt9xys1x//XXmV5z7SCcUxMe+FLnPA/YlYBOeoT/+aG4Y2ZSHPOC6ljziKxzXjZdddpm5Osbl6n//+197Q8AGOUwIiDcpKdns553cpJm7b4Ug74dc60G+0ITjTpeyOu+8c+XyKy43d7y4aGXnT1zMOjLuZMf9LTsN47YYOR/4z3/MdIgJTffuPfTejiYzabs6AkyWMF8hLXZJZYdR5L3qyqtM807+2BkUN4bspIocX3zxZY7NucfxjSPmR9zD4+8IOlMOBqIVK9fId8MnySeDR8rPoyfJgiUrZcOmzTYIMGimZ2RKRmaWHekZWRKnHfm27Ttk3cZNMm/xKpk4c5FMm7tcNm/bLWFFREqWiDItiCP7eWlwPDw8jk/g87pUqeCeBpDRUDiShwY5tkoVSU9Pk8mTpxhZhVyy0Rgaa+5Fm5wQH28LHtnzAbKNTfLu3buMlN9222228JE42R8CE45TTjlFiWMNi499PViciR9xNprBFzhOClAsTJ8xQ9JSU2wR6AAl5shDPxZKQvF1zjk0zblNLZCNc2jGsY1mz4mTT+6Ss18BhJcFmmitiRuyP2v2bEnUvpVr7O2A73J8dtOX4v+cBZlo/VnsyEaB7F8B6Gch+GlpKba5Gbpx7NPpe1l82b9ff2nfsYMtTv3hhx/MPzn7YyC7mwRBptFWU7bIwUQgpnw5uVnL9corrjSNOJMO9l6oqHL0VRm5D9kpz4ULF5j5CZpv5K9Tt46V7fZt22Xy1CkyZ85c/b7N/JdTXrx9cJp3j+MXhbTx/vo9i4fHcQII+JJlq2T4uOmycMkqiU9MFjbUQePhkB+B5tHhoOPGJhCbQn2kpKiy8DLRJaV+nZpyUvvm0qZ5fev0XZzuFa6Hh8fxC8ww0MRCwulD8gPa3fj4ODOFo++AmEZERBrRxvYa0odmdfeuXbZAEU0sb+Yg3GwMR9/j+hxsxtEmcw4i7DyJ8N1t104/xf149MjU/pFN09zmZaEE3AGvJ5jBQJAhy7nBNcKQVpjmMzp7h1DyBUmnf6UfheDioYQ+mTfSmOWQJteZMHCesiINNmIjLBMGt+ARwo3MlAXxjtDJyE033iBXX32N3HfffRaGvC3XCUYPJeos4HzkkUet/ELfRhA38SA3cXKd8oJsE4byw9QEudwmgcjPBIg65RPPNSw+JV4X3mn0yRuTD/J2qHr3OH7gibjHcQXX3OlQN2/bIUNHTJQJU+bIzrhEI+BoUfIj3vmhcCEdSPjTuDnobNnVtWjRIlI8KkLq1aomPbt2lI6tm0hU8SgbfHld6eHh4XE40KeEEuDcv0PxW8LmB+4BoffRp/3WftGhoDLkDvdH0gS//PKLXHjhhfY2gDcFaN3Ron/11Zf2duHDDz6UPn37WF98qHTzKo8/iuAY4W3EPYLwRNzjuENGeppMnbVQhvwyWdas3SBp6ZnaIeav+f694NGiw0UrUr5cGenQuqn0P7Wd2S5iy1hE03OaKg8PD4+CIDdhDUXua4cKeygcqXh+C450mminP/vsM/nq669Nwx1RrJjs3btHKlWsJOeed55ccMEFpk3PnUZecoA/IsuRzpvHPwueiHscV9gVlyDDR02SYaOnyJYdu6WIdoZHmwzziO3dt1+KhYdJwzpVpV+vrtKxdWN75curWk/GPTz+fuC59sPnsQvqBhMbbOd37d5t/tHRfmO2UqtWLTM1OR4A4fek/9iGJ+Ie/3jQxOmI1m/aJt/+OFomTJsjiUkppgE/0lrw/IAMttJe06seW1H6dj9RepzUTol4mNkJelOVvx+oU9e2DjfQ8WYE/FntzcPDw8Pj7wFPxD3+sXBNG5K0bOU6+er7kTJt9kLzfoI2+q8AMkHKKsSUk57dTpS+3drYYiAOT8aPD+S2QfX4G0Kf46SsDEnYk2m+qz08jlWUDouQEuHFvFb8GIYn4h7/WNC0jYSvWieffjNcps9eJHv37rNFlH8lkAtTlbJlS8v5/btKlw4tbJU9ngu8//q/D9hlD08QeIvAC0J+4PU49qq8Cq9cuXL22fyBdwjMlfI0WaLt7N1r7YfrjK2HazPp6WwDHrDJXm4wKWBTKp4J8/6zb5+lz6TwcPHiHQIZQieQe/bstTjDwvLecOXvDten7NFyGrxmkR4LJcyblnkco9irz+LVDdpJt6p1pKg+j5A9T8iPPXgi7vGPhBswMUf5+OuhMmHqXCUvSsKPoUET0lO5YnkZ0P8UaduykZQqWcLIkifjxzbwxfzjjz/apieQ3NKlo22DDnwt4wKOtodrNnwf47kBf8y4iIuMjJKqVWPNXzM+hkNdvbn2Om/uXPl28GBrpxddfLFtsBJ6Ha8P33//vcWt3TdXbBLQtm1b8y+NOzsHM4XSe0aPHm1bbPfo0UO6du1qbYzzuGlju/GtW7fJ+ecPkGrVqsmQIUNsU5gGDRrY1uv169fPSRvwnYnArFmz5bPPPrXJ4zVXXy116tY1Uv7aa6/J7t1xcuWVV5hP5n8a7G2GlkWGlu1zc8fJs/PGS0QR/7x6HJvI2rdXXjzxdLm0QWsJy/bu5d/GHXvwG/p4/OPgiMOu3fHy9fcjZdyU2ZKVtde0fscS6BATk1MlLj5JasaWleJKkDgHofGd5bEFCBhtat26dfLiiy/It99+qyS0uC38YhOSdWvXSn0lr7hKw/cy23U//NBDRprRhEN+U1NTbIe+GTNmmBa5SZMmB2mTif9VJbIvvfSSTJg4UZo1bSbNWzS3tgCp5nPRokXy/PPPy0S9jscH/EvPmTPHCD+boLRp00YiIiJyiDNgcxJ2K1y0eLHt0ohPZOL6+eef5SGVkbCnnXaaabjffPNN+fzzzy1OwnXu3NniCI2PScVjjz0q77//voVjcxYIOxNIdg9kF0jiw4/yPw2ub9mrnzN3bJQ5OzdJZNEwCStcxB/+OOYOPHP1rFpfmpWrpN+Da1lCn2WPYwN+tPf4R4GBEuzJypQR46bJ+KlzzCb8WCPhDmg+V67dKOOmzpfdcfFm6oBpAMTP49iBq49p06bZroWnntrdCPNzzz4rL7zwgmmvS5cpY2FWr1olLw8caBrza6+9Vp7VMM8884x9Pvh//2dhXn75ZdNqo112muudu3bJlClTTJMMQR8/YbwRf+DaNWG5Bw046T///AvynwcesB0MP/jwQ5k5c6aFNc2tDsLE27FjR3PXtlDT++mnoaYJZ4ORr776yiZ9Awacb5p3R/aZOGCmMk4nDZs3b7Y4uEacpL10yRIZPXqMNGvWzMg3bdaVT1hYuJ3zg/2xg6KFgu2AT7T5HscPgr2GN3o41uGJuMc/ChACBp0Z85bKz2OnSlxC0l+2MLOgwKf4lLkrZdnqTZKSkiqZGRlm2uDIl8exA3YzxBwFbTbbY1eoWFFOPvlkufTSS6VF8+ZWb1OnTjWN9VlnnSn/p8SbLbjRGLOt9dXXXCNXXXWVbN26VUnxT7YLICZTYJLeg6u1Cy+6yOKE9KNtB47Yuk/MUTAfYfvsc8491wg/JBkiD2nmALQhTGBuuvFGadSokXz00UemVUejP3XqFDn99NPllFO6WVjiJjzxojlfs3q1jBgxwq65tsjugN//8IPFiekKn5B2JxcTXvfd46/Hnv37JG1vlqTtyZIU/UzRzyw9dzz0LORxj44Hmfv2yt7A4RUb9MNZ+/dK+t49ss/3vR5/IjwR9/hbIS9y6s7xiUZv+45d8v2IybJhyw7T+B3rYKKQmJgg0+evkN3xiZKSmmbmDY5MOZC/vPLvcfThyCV21NHRpWTw4MEyaNAg23rbaYMBW3ljAoLZCDbb2FBnKTknjNM4cx5TldmzZ1s981aE65ixQKa7de1q9tws8ly6bJld4z7AdxcXC49pD+4637k/FJznOuT6XCXsmzdvkf/97396vCExMRV0snBWzjbdLg0WlDIRQCsPESdOt24BDTkmLdi5N2nS1J4vT7yPTWRqGylZJFzql46RrpVqSZeY6tJYv5cKKxZsR/+QvgS7Z8h2hh58B7ZhmhSSBqXKSc9q9aV6idI55JrPNCXbTEgcuC+8cBE5sUId6VKljkSHaxn9Q8rH49iHJ+IexzwKSj4dUR01caasWLnGlrJhI/d3AIRm1dpNsnnTJklOTpLMjEwbLEMB4clNegpaNh5/DG5Cd+KJnaVvn76ycOFCefjhh+Xpp5+RYcOGy86dO+16QkK8bNywweyr69dvYOcg2pBc4uAzpkIFM/+A1PL2g/N4VYGYY3ICEcacJDY2VmbOmCGrVq0y//PAtQHqPSsrUydwiWYCA4kvWaqUEWiXjoMLf+GFF1m8X3zxhSxevEQuueQS09bv03bmWhHhuBftPfbhi3VSQfwA7T2afiYbbB0eGRm0Rfdt8NgDZLNe6fJyZYM28nj7XvJE69PkqTa95b/tesrNTTpK07IVre7+7mQzSKCLSq3ipaVWVLQUVTJND8n5CH0O+ldvKM+c0EdOja2rRH2P3ROu7buBTkjKhUXm5J/yKlU0TO5p3k3+27aP1FQCv68AWnQPjyMBT8Q9jjnkHtgZMADENCsz02xSk5JTjITwmann0NpBILZu3yFTZi6Q5JT0Y8pDyuGAVhwN6Ip1W1T2FEnTPKanp9tnckqqmQTwO7fJiisb4AnR0QdeUW67/XZ54IEHbKHm+++/J7fd9i/5+OOPbRttzFbi4nZLYW17RUMWYoaCySE7qsbHx1t7BizihOjiTQUbcQgyNtjYfONJxdUybRxN9erVq+W1116XV155RZ588klbINmzR0+dKJxoYdzEAfCbtlG5ciUzkWESgGkLC0v5rhdz4gc8T2jJMU/BReMPP/xg5yHg3377jS3ChNATzre5Yw+Qy1qRpeTelifLVc07SpS2l5lx22VKwjbR3kMurNNCzqvdTKLDI0yTbMRV78GMhd+Z+pkXCaWmMfFw0zZc4xGWT9cK+HTxEDZ360A2F3cwbHYchyC9hDe59CDu0DjR+pcuFilX1Wstl9dtJVFFwkzTXaRQYdmvfeOmzBSZu2uLxGelW4LIWjGyhDzY9lQ5tUoti5vwOr01OZYlb5alcTskLYtyCelb9YCsExbNe245AL+J3+XFlQ95/LtPeDyOLjwR9zimwIDguCWv3xMSk2Xjlh2ydNV6mTZrgYwaP1V++mWcfD98rAwZOtI+R42bKhOmzJZFy9fIiHEzZfPWHdrx/f20GdgKL163W5as3CQz5iyUkWMny7AR4+SHn8fKjz+PkxFjJsm4STP02iJZvnq9bNm200j6fu3sQ+HJ0dEDZVujRg2555575J133pF///vf5gOexZdomiG45cvH2HbaGTpxcve4Tw4W4+KhBI13ZFSUTSIhu0y2mFixiBM7bgg3pi+YuqA5d3FArDdu2mTuA78b8p3Fd+edd8rDDz9ksuSGuwe3ixMnTTIXh0xmR/wyQjZv2hwk6tlhSd/MW/Se2rVrS0xMjGnBE3TSu2btWlm4cJH07t3bPLN4In7sAcKHicW/6reTLhVry9DVS+SGcYPl1mnfyO1ThsiVo7+SJ2eOkpUJO5WsBjtaCCYHXjZKFS0m5QqHS7FCRaxuOe9A+Eg9T2OBXBYPC5cyhYpKUT0PoTUCquFLSBEziUEO4ggloWHa1orpeSg6fXSJwkWltBSVCI0X4pobnIMQM2koo4Q7Qok297k4yUFpvdawUqzUrVBJSqhMkHB8ZmMXP3j1Qrl70g/yw9ol5t0G+SpHlpQTKtWQRjFVNHwxiVIZyEPi3ix5YvYYuWfGd7IqaYd5GQFu8kD+S2vZlNUyKlakaHb5HJCZ0OFMwDX94GRAw2veMAUCoWE9PELh3Rd6HHNITU2Trdt3ydIVa2XCtLkybPRU+XHkVBkxVgn39PkyZdZimTV/mcxZvEpmL1gm0+ctlYnT9PzsJbJkxRrJyMw6SFP8dwFazGTTim+VGfOWywzNI3maMXepLT6dPm+ZTJ65UCbOWGj5X712o8THJ9gmKoV1MAkrqgNQ0eAAAf6OZXCsgzJlgsgn2nHMN3BjiJ9uyGnPnr1k3bq1Mn36dGnZsqVptakPwtvArfcuWbJEPvjgA2ml10/v398WbuJ5BY1z0Ef5DzJkyGBZvHiRJCQkmj05i0PRRONHfPjw4VJHSfKHH34ol15yqVxzzbXSrVtXiY6OzpbyAEiTg7cpjz32mMyfN1fuv/9+Jdv7ZMzYMaYhb9y4sWnp0dDjcxySDtnGEwsmN5jMQMinTpliXlwYMvi9fPlykwWbd+Jg4oDrQ+I5++yzTV6X938KXH5wXzht+wY7IH3HAnjqIYCty1eR29ufKut2JsjD04bJxowkiSgabv7Os5QMzo3fLgv1QKtLvUcoMW5SuoL0rNFA+sbWk65lq0q5EiUlS2PclZGm+UVjV0hiIopL/6oNJGvvHiXFUXJO3WbSu0w1qViqtOzKSpdMPd+ibCU5r3J9OblqHalYvJQkZqZL4p5MI96k1bJMJWlbtrKkZmVK3VLl5exqDeTUctlxpKdKyr49RmgB5iUVwqKkS2xtObNWE+lWpbbUKlVG0vftlaQ9GTYZaKHx9ahaT1rHxEpJJbzURa0SZSRcJd6UniSNostL14o1JV3TS1Ki3blCdelao560VBn2FQqYBr2l5n1DWqLZjXeLrSsNVK6dGamSlm3Kgjw1ikfLyRrPGZXrySmVa0u1MuVFb5eErKAclD1Ev3eVelJb00/U561XtfpydoXa0rRKNYtje3qKTWz+zOeB9Lpr+TQrV9kmBuCf9Dz+U+CJuMcxAcxOklPSZN2GzTJu8gz5fMhIGTJsvMyct1g2bd0uKcnJ1oGgvWPXPjuUdHJwrnDhQpKSkmxE5+8M8piezuBXyAYuvFAE8xuWY/uLeQoEfN2GLTJLJyLTlKiv0e+F9mVKsYhIKWa7GgbL6p9GhP5KUJaQZTTGkG7aLGUMOZ08ZbKUL1veNvWJT4g3DTdhQjfQ4eB+SPiCBfPluuuul5atWpkHE/yAQ2g7depkCyshyO3atTetMxsC4fGkdevWlhbkF7OYm2++WaJLR1v7yA+u/keNGi0DBw7UiUIPufHGGyU2tqpMmjTJNO5MFtgd1BFxSHvfvn1N85+Wli7ff/+dTRCQAz/l119/vcXtiDikPT8i/k9re8cyEYe6okE+s3YT6VSphny7YLKMi9so+1U+R8LQFqOpNtMNzQN9TD8ll/9pcbJ0rdVAKpYoJdXLVZBTqteX9jHVZE3ibtmUmkTHJI2UsL540ulSrXCEnFO9qbSuXF3qVqqi6TVVElpUKhcrLtc17iDtatSVeuUryWlK6otrWosTdspuJeQlw8Llggat5PqG7aVG4Sg5v15raRZbXepVipVTqtWVOuElZOqODZK+f6+xXzTg/9eos1zWtL1UiighMeGRclLVutK+UnXZmJJgx9nVGsqF9VpKlegyUiYsQupHl5PmpStKUlqqTNm1Sc5Q2e5q0UXWb90iS9MS5MY6raVX7cZmzlJWJxaNylSQxuUqypSt62RXZpoM1Pz1qlBHxm9da0R+vzLsNjq5uL9ZF7mgfmupXLacVNa0usbWka4qS5IS8cVxOqkJ7JOyYZHyVMvu0lvJPHkZ0LydVC1fUdpVrCa9qzeU1VoO61Vmyv3Pei48Ef97wJumePzlQIO9avVa+ezb4fLAM+/KGx8NkaUr1uigt18ilcxEZLtIOxwIAzH6u+Nw+cD2nTKJiCgmxTQsGszJU2fJs28Okqdf/VjGTZwiu+KTzGSBiQnkweOPg/Jkw5s333zLtMRbtmwxUw3I6/Zt26RqtaoSUyHGNOEnnHCC+RvH1zcLO9Fk84n7wLfffttcH/Y57TQbFIcOHWqE++6775ann35annrqKft89NFHzdUh9Tdnzlzbip7wRgR1MsA95v1Cj7zgSCO26y+/PNDCX3rpZUq6K8qp3bvbbqATJ0yQX7I9oxCeuPh0baZ+/Xpmrw4Rx//4gAEDDrI/B6Hp71fmQjmtXLFCFi9aJAv0PkxtWIz6d58kH/soZCYT9UrH2KLF5YF0JeE6Ic+HeKXuzZK2MbFydYtOkqpzudsmfCenDX1PLhjxmby1eKrULxMjd7c8WaKVQLOlPxpq2tOJdRvJ2rQ4uXbMV3LFqC9l+sY1ckHtZnJ/++6yJHGnXDrqC7li9FcyM36rdK+ixLl0JTPLgPxjflepdFlpU7uu/LRhsZz10wdylcYxdstqOal2QxkQUye4eFib38V1W0qXeo3kw6Uz5dxRn8tpIz6WOyb/KCWKhsvl9dtKzRJl5e2Vs+XeGT/L3J1bZMGW9XL3yG/ksgnfyOcbl0ikmbEE30IBNPMvLZ8uj0792bTdP65bIpdoXq8YM0iWJu2yCRXPQdreTJMXU5vKxaJ0ctFRWlapKf9bOkPOGvaRnD7sQ7ln0o+2+PO6Ru2lnRJ1bMExZckI7JGYcuWkbpVY+b/pv2j4D+WJmaPs2oUN2pgpzJ9vopJd/yHPtcexBU/EPf4SMHjTQcYnJMrwUZPk8YEfGRGP373LyDfaNY+CwV4va5mJdvALFi+Xl977Tga+N1hWrVmv5CvLXOTlR9Y8Dg9XdkyOILW4/sOHNtpvfIV/9tln0qdPX7niiissHNrru+++xxZDvvrqq+aKEA0xmmNsydu2aSPPPvOclI+JkZUrVxpJZydKtNKQEMgAbz1IFy8q7dq1lUWLFir5n2VECDlwi8inO/ICzxfHN998Y55XbrjhBpsAaCT2jF1wwQXStFkz+VavT5482Qg2zx0afIfYqlWlt8qG7TmuG086qUv2FXyGF7XzoekjF7bu/7r1Vul2yinSXfPOos833nhDkhITLYxvi0cPtI9yEdo29DMxM804mHLAXwEyGFU0TLpWri01ipWSIcsXyLANy418ogH/auV8+UmJao1SZaRJqfJ6PrigETI+ff0q+ffcUbIiJV7mx22TH7eulBQlot+tXSwvLpgoy5SMz1NiPHv7JikTWVzqKKFne3XiLqIThJT0NPlq6Wx5ZulU2ZmVLvPjt8lny2abzF1qN5EwbYcVIorLBbWaybod22TEkgV2T1HlkBM2rZaFu7ZKi9LVpVaJGNmRkSqb0pJsIedu2ScLMxNlRcIu2Z2dd40y+IzwRY+N6Sl6JJmmeHd6qqxJSZT1qQm2AFOzxj+JLBxupJw4u5WrIW3LVtFJw1L5dOUcSy9pT5b8snGlfKp5qBpZUnrF1gveqCikhb07I03umDZMhq5fKnGav8FaLmsS4qRRdExO3fzZCOgzZyLqf/v36eS9IId/Tv80eNMUj78EzMw3btwkH3z5k3zz0zgj5Gh38yMVHocHgzDkiA5046bNsnTVJilfppTE6MHbBVzgEYbDo+Bw5QVRhVSiIWZRJm8u2MTnlltukeuuu07q1KmTE656jeqmda5RvbrZbnNgWgIZvuuuu6R2ndoWDs8/kGU033Xr1rX64zwH6ZYpU8bSKV06Wkl0M7PbLlWqlJmTNG/RokB1CQnHEwtpYC7injGItdt+n/hYnEm65IMJAOfZsIfFndjD44e8efNmJi/hIO28lTnllFNtEkG8eFshn9jO40rRHXhzqV6jht3zd25/9FvIf2yapgTRv0ZDJdBlZcSGFUoyE5V7qcyw0hBgS16+WJT0q9lYIouFyzfrFsna5DjTImdzSqmuJLNTbG1ZnrRbZiuxrlGitJxRq4nMWLdKftm+xmyiKQfcJJ5UpbaMVCI/a+fm4E6ee/dJ61IVpUOlGrIgabtM2LpOIjR8x0pKoCOj5ftl82Rh6m4pEx5h0tF2+lZvJCXCisqX6xZKbPFoubBhG9mbtU/KqkztoytK57Kx0rlMFelQobpULlFcpu5YJwt0IhATVUJOqVpHiqgsEzevkeR9e8z8hnpqXq6ydIypJpPXr5QZKkektj9s3c+t20Lm79oik7etC2rOVQrkPrdOMylRKEyGblou61ISpL/K1KlidRm9ZbVM3rFeJwlFg5pz7U8rhReX3pXryC7Zq5OYZWbucmbd5iqHyHvLZmqcwb4DrXyfCnWkevGSMmT9EtmVmf6nkXEmHKdUrSsNy1ZUYfS35rOgB+0AJY/H0YcvZY8/FZBEOqbly1fIwLe/kGGjp8iePVlGQDyODOjkGdhWr10vb3zwjcxbsFBSUoM7dkKi/OvJ3w/Iabdu3cyHOF5Tnnn2WTnzzDONiIaCAay6El3IL1pwwj733HMWFmJL/TBIs7X8f/7zHzNnyestEEQYbfq9995nZBkifeWVV5qJyOEGc9KAMKO9v/fee4145wbyPPjgg0aeyRu/8S/OhkQO2IrjlQUbdmR2kwUmDmj+GzZsoOecn/UTbZdRdvpkcsKBTTq276Gado+jg8D+gMTFxVs/WzE8Ugrps46dc25wKkKJJwdmFc7HtrE1oAGsn8jVxPgZUVgnU9kXzI2f9ScBiVQ6UVTPs3gxs3Ah2aeHaWJzCYDZTIS2dcaBLL1OTPv27ZeUlDRtR8G4sTmnrVXQiWL7eo3kpMYt5KRGzeXkxi0ls0ikjNq2QVanxFs+QkXkO/HuUaJcUDApyd0n8gsPL2WLRfAwS8K+LMuXS6uQ5ml/ZhaCS/FQGpUdgPuPBS8piJO8J0PG60Tii5Xz5KtV8wt0fK3HLxuXy569B28Q5nF04Im4x58KyAEmE//79AeZv2ydRBQL/1v5+/67AJIGYdqxO17e+3qUrFm7QdLS0z0ZP0KgHUOcIaSOVOcH6oGwbrIZGtaRZT7zA9dDw3D/ocLnhpMzLxBXaNx8coTK6NLLnSa/c8tO2NDwHO6cx9FGQDL275VFGfFGRBtXiJVwNLjUhx488Rzm61rJZxoEXMPhTSWqCG7/Chn5JAzVVVhJ+j4lnMlZQV/3h4OrYZeOwb7k/DLs03QzleAhk0uPiVyJElGSnJoqWfv2StqePWamNWvjWrls9Jdy7shP5ZwRn8jZelww9iO5bfIQmbdri2mxc8PizeN8fnDacwcnLZOMhP2YtYRJGXPHeMDNZ0AnGUUji0nh8DBJCRybax+YCJA3tuz/bMVc+ffUYb/hGC4vzZsgGXqvx9FHwVurh8cfgLM3S0pKlk++HiZLV6w3raEfoI8ebEBS8ofXmU++H28uIVPT0jwZ/4OAfDpizWcoEQ0FbduFCz1yg3OHeg6I34Xh4Ht+xDo/5JcG8YReI63ccbs088on50PhZA09DlVGHkcOaJKLad1N2rJW4pOT5IwajeSU2DqmIU5VQoVfbUh1tRLRcmLFGubzektqotQOLyFtS8WYKQULOCFwpSOipH3VWpK8J9MIr6OndBkZ+3Bs+Fv6jhCSqxGUKVlKGlavYSQ6MStDz+2XZmUqStmo4jIvbZe5EdyRkSJJKclSt0pVKaIkPSEzXc9nSarKE5eRKim4RESY7KhN657dn2UoycfFYV5PVOg5+kf+yLPFpeB6xv7gYk3a/Yb0nZIoGVI3upyUD4s02dL37ZGoouHSqHxlyQorIgvit+nk4dhdiIzZjZtkUeYFOQgbqST+N1Wzx++G7x09/lR89dNE8//NgrS8iIHHkQVlzIRn+crVMmribElMSjHNeBY7dGaH8fDw+GcALfaa5Hj5ZPYkJZf75b/tesn9rbvJ2bWbSt+ajeSBxp3kvZPOkisbtTMPKzM2rJWNSQlydr0WclPt1lKzRBk5oUJ1ublpJ2lZPlZGbVopq5LizB4c0GUXKxJuBLYgsHUpIatF4buRYeFmo/1o+57SulxlObNaQ7mjRRczj2HjHUxXWPA4dMk8KRMZKfe17mp22iyMbFy6gtxQs4Xc0qC9xOqEwsxQspQc6wSjdtkKckqN+nJylVrSqnwVs4/ODeROUTId2LdfulWpa24ee1arb/by5I3+MqJwMSmi1Ijymbx1rczbuVn6Vm8otzfvLG013gYlysr1dVvLNfVay9Jd2+TH1YtsgakDBP9YAtLwFoS5CrId7giOywEtgWMrH/9keCLucdSBNhyN2NKlS2Xa9Jm2YU9uTZrH0YN1rNoJT5w+TxYvWSKpKSm26+OerCzTUHl4ePwzAHXief9k+wp5ct54WZ+YJgPqtpLHO/SS5zr1lWtbdpbdezLMdd+ujFSZGr9ZXlk4WbIy98i9nXrKV70vkTe7nSPdK9eW7xfMktcXTlFyhjlJsJ/AljszD404bit/3ZMEN7/CDMV23eSMyhaXnCwL166RjqUry/vdL5BHOvaW6EBheW/KaJm+faORQTLy3uZF8sOi2dI5ppq82fUc+abP5fJxjwvl1jYnS6WSpcx0BLK8LTNVpmxeK8U0iXt10vFCh75yUtnq5vUEodzbWIglmt6t6cnyxap5Ur1ktLxy0hnyRPteUrN4tNmAoyDK2Jcp+2S/aYY3pyXJG/MnyZjNq6Vvnaby/qnnyxenXSZXNW4v87ZukKfnjZNNackWFnv4vWkZsk/jyAv2FlI/qaM/G7+um0Pjt4b3+GMopAOxL3OPowu0Fnv2yPNvfiGjJ063ztzbhf/5QAvepGE9ufTMblIttqJEly5tC+gwRQhqQTw8PA4FUyros5KhpGrg/IkycMFEI4PHGtAUo6WtHBktdUqVkdiI4pK2f69sV/K9KnG37RwZpM6FJFxJZHUloo1Kx0hMeJSk7tsjq5PjZHnCLknen6Uhgm4L2bmyXfmqsjZxl6xOTTDyida5QmRxaVy6oqxO2i1blLhCe7FBr1W8tBLc0rIhPVGWJ8XZVvS3Nj9RzoptIC9OHSUzMnZLx4rVpZCOBwsTdtjmQWmBfUEiriDNUkXCzQMMLhQjtZzj92bJxtREWZMSb+Yq5MC2yi8aLk3KVLQNfZIzMmTG7i3m1rB6iWipX6qcLI3bLpszUsxmGvnIS4eYquYnfLMS8+m7NpuJCjt/st3+oqSd5qbQaSorRZWUhmUqSJWIEtYGNmrcK7QcKE/Xc2IW1CK6gr0BmBO3zTzKcA0zl1al2X4/TOZpPjET+jN6W9Kljm5o2lHm7doqE7esLZCHnyAhDEgLrdPPe1wsJf0i66MOT8Q9jiqcNnzOgqXywv8+l83bdpg23NO+Px/UBa+KL+zTQTp1aCflypeXEiVLmA9yN/h5eHjkj78LEQehphlhKjO/0cky5JMHNtgBkHb+IG06Jbfve7LPuTAO3Id2G3LuegxskEmKkG5CT8qh37ChLhVeTG5p1knOrdpQnp42Uj7YssT8hbMok633idHt/ujgNOlMFtBoswg1eCaYByeFs/E2zbT+QYKtT9NPwvM1VGZIahiLNPU2tN9BKbl6QHIHFzfxIQPltzdbCu6xdBQH7jw4jvzOH214Iv73weFrxcPjD4COmcFr7NT5snN3fHbn6fFXgAkRuytOW7hetm7fKSnJycGFm/m8Sj2WwWteXiO743hcfEq+8UMOjByElIc7PI5fQGodsYXoQsKD5hnBLe4d6JP5DVHPCOwLkuLsc7kRJOEH08mc79lpAb7xNAbp6gFgw15UJy7I4Egt5DpU1lDY5EDPEwbZLA/ZsoWOJI4M44rQkXA7k32eX6Gxcz9205kaJ1Y37mpQ5oP7EeLigJBnafg9GoLwxOHSBXyzSUnwZw44z9ncZeHh4eCJuMdRBR36uo1bbMdHfJJ67wl/LcLDwmTTtt2yZu1aSUpOtJ03qRde7/6d4Lx9uOOfZF5zqEkFk1qu7dq1S95443/mH3znzp2W99DycIeHB0QWQssRShxzg2tB4gvJzRtB+nvw1SApzX02SEBdTIULFzLN97rE3TJ150ZZn5ls2llaeW5SnRvB+A949MgvpMmvcYbKwmdesgGX34PJdFDrnRdc+Nz3hCKv8gGHitfDw7Mij6MKSMPchctld1y8dUP/FLL0dwUTobS0NJmzfIvs3J0oaW6jn73HrvutUNCedu7cJb/88osMHjzYjm+//VamTp1qW6v/E3CoSQXnOdasWSOffPKxbZGPnf+OHTvkp59+yimT7777TqZPny7p6enZd3p4/HWASKPVHrFppTw9f7zMT94lEUXCDjKf8fA4XuG3uPc4qkDb+vWPY2XNuk2wiHw1CR5/LlLS90itKmWlbJlSUqxYhISHFxM21TiWJ0poitEIT5kyWZ566in5/vvvZcKECTJixAgZO3asLF22TKpWrSYVK1bMviMI7uEAEPm88ujCcN29tSE9991dd0TYwd0Teo7fHFwDfOZ+E+Tic99dvOnpGZa/zZs32zb67KwJXPx8EvfYseOMcJ911lm20yflwA6ZI0eOlPHjx9tEhXPLly+XRo0bSymNK1RG0nQyOvlDr4fK7647UC6Ac+47YfN628V5F4/7zCsddy40bEHLzMFdJ04OEHr9SMCVxR/e4h6x3AHse/aP0O+A7+7nQd+zD3DI79k/8vsOjnIafFAj+CXfnZlmJiaYpxwcR/Drob9n/wj9DnJ/dz8P+p59gEN+z/4R+h38lWn8DmAOw3jbtkJV2ZaWIhuSE37T+FspooScU6e5FAv79Y6/HkcWnoh7HDUwaMXFxcnX34+SxKRkv4HPMQIITkZGhlQoV0Yqx5SV4sWjbNMVNLGh5OdYqytH+ubMmSMffPCBbafev39/2x4eLf+oUaMkKytTGivxjI6OziFNHOTLfc8LLkxo/nOXhYsjFHnF6c658KHxOOS+zieASDLJwNVnixYtpFy5cjnXXH4g6V988blpwe+66y7bXn/GjBnyySefGCk/44wzrAxSU1NtsoI20m1h70A8Lu3Q9B3cNRcuFKHh3Xc+80JoPKH3OYSezx02N3Jf5zMU7rw7cl8/EjgSRDywZ68EMvdIIEvp6B5t08pQ7VwW7vaUPu3V83rdjJf36cQiM8tc42njCN6n5yxchn7PfpNl54kr9/cs0gm68ftL09ir8erzW0S/Ft2nBFE/94emk1/cB6UTEreec98tbrabJ51Q+XPn5e+cBmVZVNv0b2DmGrsn4n8TeK8pHkcFNCuO2fMWy+MDP5Dk1HQj4h7HBiDijRs1kL4nt5SG9WpKTEyMaWBz2xW77uFokJrfCrf4EHJ5yy23yHPPPScXXnihTSDWrl0rF110keYrXV599TXp3LmzheWe1atXy8KFCyUzM0Pq16svTZo2laioKLsOyCOmHgsWLLDvnTp10uvF9b5V0qBBAwu7ceNGs8WuXbu2lC5d2u7LysqSdevW2ffq1WtIRERQe835RYsWyTIl00W0PCHFzZo1s2sOmzZtkpkzZ0pCQoLUqVNH2rRpIykpqbJixXLLG6SZz+bNm0tsbKwRcmSjHsaNGye333671KtXTz777DOboAwZPFjuuvtuef755+Xiiy/WsXu/LF68WM4991yJ0ri+/+EHlbG6pU34JUuW2HXCNW7cRBo2bJgjP9i2bZvMmjXLbNG5r1WrVlKmTBnLG+VJW2ECMGnSJNm2davU1jy0bdv2V+1nq16bO3euxUcbI56qVatmX2Wn3SQrW8qUcsbEiEkVZdZIZcLLjwNlPXv2bDNBosxa6ASsZIkS2VfFZCUtJioVVbbWWqa53478UVBekJk/4jVlX3Ka7E1IkkJKuOzxKqJ51HjtB985x2+Xd/edRxBixrPIbyam+r2Q3hMky/pdyVpACZ1FUrRIMLzFq9//6jQA8UM0Q+LOOx39qXE7gntw3IdIJx/5/95pEF8RKVqhjBT+Des+jqTXFGv3BbjX4/fBE3GPowKnvfz6+5HyyaBhkpm1xz/IxxAgqKXLlpOze7SRZg1qSXSZchIRGSVhOsiGa2cfHh4uxZSYFdKOPBSODP4VcER8yJAhcuuttxrphGhivsHmRKf16SNbt2yRN954Q07u2lXi4+Nl2LBhZkMO2YOIlylTVs468yy5/MorpIySP7zIQCbfffddI8+4cmzerLlUrVZV5s2bZ2lAeF977TUzgbn//vvlhBNOMDm2aFr/+9//bBy97rprjbBu377d0sNem+9cjFXied5556ms50lYWFEzF3n55Zdl7ry5ZpsPAb1DiXWYlvn7778vo0ePtjcUNWrUMOJ/4403yqmnnmppUgZvvvmmTUIg43fccYdkpGdYmdx5153ywgsv2IQEQHJPOKGjyTd8+HCLDy8rn3z8sQxV+dCo498fog95P/300+1NAuXw3nvvycSJE20ALlu2jPTufZrcdeedsk3zdM8990gJJeIQ6wnjx0tc3G4lvJXknHPOkQvOP19KK2GnjXD/F198YeUIuaaeGii5vvCCC6V791MtjxDvF198UcqXL29tbuq0abZuoUmTJnLppZfKaaedZnFBsMk3kwfqOlLL7F//+pfVeYnixWXKlCny1VdfWTjyHan1eIJOqIgD8n+k8IeJuNbF3oRk2bN9l0bG0KsHH4DH6rd+B/wuyHeQ+/6CfAf8Lsh3kPt+9z03ChJfft8BvwvyHeS+vyDfAb8L8h3kvr8g3wG/D/O9cGQxCa9SQQpFhAdPFABHgoh/3etSicw2j/M4evDMyKPAgIQxEB1q7sY1R9YItWNXvOzNJuUexw7QXKanpsjSVZtk1KS58u1P4+Tjr3+SDz7/Xj+HyqffDJdvfhwjE6cvkFVrN0qykiPgSPih2sCfAdJHQ40mHDOOt95+W8n2BumoJDm2ajULM2bMGHnppZckTgk5hP3CCy/SyUaEvP7G6/LDDz9YmFWrVsmTTz5pWmbMOk47rbcsWbpEXn7lZRk7dkyOe8Bly5aZ6QtpOmD6gYZ25swZkpycbJNPbLMhjJBOtPX9ldympaXLs88+K3PmzDZC+qWSU4hzj+495LLLLpNmSvyz9uxVwlvWNPDFlViWKFFC6tSta5pqp4EH5JeJA5re7no/4BV0QAdd0kc+NNbz5883852tW7cZiSc+QLovapnwFmHAgAEmI8QVAk8ZAPIwdOhQ09JDZNu376ATgH32PLP4k3L4UOMmXLv27eUcLVtM0MjjpMmTbXKzdMkS+429OkT4yiuvtDcNk/X6M88+Y+UG3CLTTz/91N5I9OjRQzqfdJLJAkFPTEwyLTwTAyZCp5xyilyiMvGGAZmYyGzSSRYTpYlaLm3btZMrrrhCmrdoYfby3OfqkL7rmACPkD5HPEq2BXyR7OP3fHe/C/Ld/f6t393vgnx3v/P6nvsIve+3fne/C/Ld/f6t393vgnx3v3/rd/f7UN/Z2pRGE+x6jz5sDEcRX1g2JcbJT+uWyo9rlxToGLx6oUzauk7iM4OLxP/qceLvAm8j7pEvQh8iCFjokR9Cw7Dt8ahJs2Xthk051zyOHVC/O+KSZfmaTbJ89XpZvnK9LLFjgyxctlrmLFopi5evkTXrN8q2HbuVLO6TiPAwiYqKyLn/z6xTR6Qg3mi6MXeAvEHQ0LxixnHbbbdJs+bNbBv/V1991Yj2//3nP3LNNdeYuQra6eHDfpJdO3fJ2WefbWQd4gx5e+aZZ40I1qpVS6ZOnqIEcI9ccfnlUqlSJSOUaIpZHFm/fn2TA4IH2aMM+vTpYxr4119/3UwnIKHE37FjR6lQsYJ8/vnnRobbK3FF640ZBVrtfv36Sd++faVOnbqm/W6nRJI4Md94QicIaJirVKlieSedyUo2P/7kEyPJ1157rZ3bu2ePTh6W2uLN3bt3mwb6559/Ns38ySefbHbk1apVM3MkNPp79+6RZ597Xs5XIt6lSxebNOBlBdMT7O6HDxtuhP++++6TCy64wIh8q1atNVy45RnNM6Yp/33sMbnt1lula9euljfIO28UeGPw6WefmTwQ8IceesjSgUQnaBkxCcLUhokPJkHDhg83M5RnnnnGyruDlhl5gKyfr/kn7ldeecXeBjBcobmnzOrWrWPXvh40yIj8eeeeZ3VNnlk3QN3jOQb7eN4GMFH5o2/lXJv/Izbi+zOzZH9qOq+j6RSzz3p45A2aCWYsRUsVNzOXgoIJ+u+xESc5fKbHFi8lZcMj5Ml542T0plUydvPqQx7jt6yR4RuWy/a0ZNuFtLLe/2ePEX9XeI24x69wMAEPEuj9+/cJ2qn1m7bKomVrZPbClTJz/nKZNmeJzJi3zH4vX7VeNm7ZbhvF2L06k09K1UHHXsF6HIvYyzbOWsdhRYuajXDxqEiJUMKFv/HAvr2yectWmThtrnw8aJi8/v4g+fK7kTJL6zslNc3uhyD+2ZpG2icHGmlsrDERQSOLlhQzEgabVatXmx025Gv8+Am2ABLN949KAvFMAhFGi42ZCJpoFjhiNpKlpPakk06SVkre0P66QYRNjyCyzuQqNyB42DBji45cw5TMkt7AgQNl/Lhx5j1otRJD3kS079DB4oKsY+O9YsUKCdcJDqAs3fO3PzstRyC5Z4HGz2+ILbKZPPpJnrkX7TtlglkMpBxiz8QCDTiacspq37798t2QISbf0089beYhDL/chza7Xv16lgfeJkBweRsACTdZNI10lYPJCGTY1QUkG3JOGRAHJBqCT1lCliHRmJ5QR4RDFuRFfj4hy2jMCUdbbNSokZUVeUZ2rlHHlOfXX39t9xMfgLTv1PqkLt9++2154oknTO6NGzbY5Gj9+vUWzsPDo+CgV0+UfbIhRfvYtCTZmp6c77FFjx0ZKXqkGhFP03HFo+DwRNwjX7CKfufuBNOKjp4wQwb9MFLe/+x7eeXdr+S5/30uz7z+qTz16sfy9GufyvP6+40PBsmHX/wgg4eOkimzFsqWrTtzSIXH3w8QoAglUyz2Q+u3dv1GGfTjaHn1/W/kxxETbNKVmZWZQ6b+LEBKOW666Sb55JNPzU4bTS4aWDSgAHMLzEAg3GPGjM7xrY1pBBpuNNMQRogp+cT8w9qqHpBB4s9LkxPamrnuwvAJaYTAoqn//vvvzAzkm2++CZpntGxpWmzswdHyYhKC+ci///1v+e9//2tyIQ8k2T0z7tPItgKf4eSPhYrOZhyoFJp+YSlVqpTcfPNNpn2HRENmP/roIyPSxEFZkLcdO7abxpxFr98O/tYWjeL2EXIdHhZupBqbcbTiDz30oGm0f/llhNUxuSWv2HdjX84EAzkh3aFlBgFGw+48tbi8EI4yyMzIDPp91/As4qYOAJo40iFuQDocvLHgDQMLSLFRf+yxx0xuwqVomTNRwvQHbT3lztuA3UrceQviFoc62Tw8PAoG+n3WQEQWDZMI/czviMz+DC+UvWurf9R+EzwR9zC4gRIwqG3etkumzFwgXw7+2Ug2ZPuDr4bJ2CmzZcnyVbJ500bZvm2rxO3eJTt3bJNN+nv2gqXy89hp8vbnQ+WZ1z6Rz74dLnFs5KMDoB8E/96AZLEArmjRwrJ67Tr54Isf5eOvh8nSFeuNjEPw/kwyDiKU5EVEFjMzhEsuuUTJd7KM+OUX2bF9uxHrYuHFzAXg448/Lh9//LF8+OGHdkBOH3jgAdO4sjgR2dGo8gzQSjkPKeZ3KPE2hDwnjjQCwmKWAclEHmyTLT1Ni4MFpDfqxAEtbs2aNW0RKOYWEF5IMfbQeBhhB0IQSmodSYW44+0Ery8sDCVNwjkQnvjRQKMJv/nmm22iwQQE7T+af8Jj8402nnLg+EDl/PSTT+Tqq6+W4iWKmwb94YcfNhtzJg3Tpk0z7fn2HTuC6ejBpIOicK+6IdWQfcqANCgHNOxuQyEnZ3CykiIlddLAxCHPMg6BpaH38qaDMsLc6JxzzrZJBGZA2JjjIx2Cf82115qJkqtnDuRmkgZcOXp4eBQEAdmjzzTP56GeUYc92hdm7d9ri0SDvYJHQeGJuIeBAZHHLSExRWbOXShvfTJEnnr9Mxn04xhZuXqt7N+3Vwe8EuahAEKGpjT3wfmoyAj7RCM2dORE2bBhg2m8/kwiHszLgc8jCYjX0Yj3SAHZjqaGmgU81C/mRqMnzpS3PhsqCxavlLTUNCOvfyYZZ8IYyDZ76nNaH2nYsIGMGTtWFitZxd4awotNM3JBLiFzEFhHAFkUidYYsjhdySZa9AwNiy042mfarMtP+ZgYI3urV6+ReJ1cQjJnzphhZg8QRcocO2zig2xyL5rrenpUq1rViClh0OASN88H7v7+7//+z8KhtUabjmYb2ZAZudLT0u0+iO6sWbMt3k7ZXltyJgH8ZbdJJhV8J1zfvv3MGwkaYghr3br17G0A35lsUEb16tY1+fBCwiNKmniYIQw299ddd715Ltm1a6dp1Im3SJHCpi3HKwpyQfKx0+cTt4PktalOFihPvJiQV/JAmfGbvNWuXcvkVWGDn4cAeVq5YoXFz5uMxx9/QvNS19xDxsfHmYcVJgCYxJFf6pkyZUEr+fwz26SHx/GK4AjvKfjvgV+seZzDDdp4Xdi0Zbt8P3yCfDZ4hCxautLIt70a1sEMssGAdqhBLRhXcG5XtEgRu4+4Q0EYN/bmvuZQkDD5AS1lcZ0M1KhaRYlWhKRnBE0nfms8oXD5NsLFp5ElzpHf3y7j0YUJZBqMgizM+b0gz8SPJnnVhu0SW7GMlIkuYefRPB6NMnFtD1tgPG10797dSBhkC7vjhQsX2OJLPI9gm+wIIlpkCPDGDRvNBOT7H743UshCStoaYWbMnGl28bjHwwMHJA+zCjTtkFeIHmYR2CPjxWPypMnyyaef2GJRiB/mHBDbxIREcxWI9pr2AcGeOnWKfPPtNzYBQCt97733mo3z1i1bzdQE7yMdOnSwhZuE4TcyhxUNk42bNhqxRbPNhj0Q51tuvtnOuWcXorpE5f5Z76NMeAvANey6SR8vK5B+yipZyTEeSbCfp3zWr1svY/U3ZJ38crz9ztu2YJTJ1dRpU81LSuXKleWKK660vH+q+cY7i3k+0fSZuLz66itWNyzwhCQzyXFpMxlKiE+QL778whZqoqG+7rrrzA85dYmPc2RjwSvPF2lwH2V4+eWX2ZuPO++4Q9brpB4f4ciPu0JcM/bo0dMmQJQn5/FpzkRp3vx58uOPP1qbqF+/gb35OBLIKXP99Is1Pf4U0EyK/rmLNTmqRJWUeqVjZOLWtdbmD3cn1zN1rGWR58mxtaV6yTI5z4vHoeGJ+HEOHhSI6opVa+X1D7+TkROnC4vZICXudXJBwANeoXxpPcpJpg6ke/bs/dUDCEkvXzbatlVnDMJlW14PKgsGK1YoK8XCw5RI/7ZFHxk6yLVsUk9uu2aANKpfS5atWi+74hJsYvB7APlDAxitnWC12CpSo3o1KVu6lOaX7fv3WD6OBbhyjIkpK21atZDS0aVktxISzh8tkB71Hq+kds2mnVKjSgUpERUhhbW8KO8j3QFTF8TJQkR214SE1a9fz8gMb13YhGftmrVGAiF2EG18XRMWcjxy1EiZNn2axYNnDXMNqAQNTyoLFixUIjfWyHazpk2llJ6H3GGugWYVIsoEA3IISV2+YrlpirE/huSxeJJwtWrXMtMQXOmNHDlCSe5YSz8yMkp69epl5BPbZkjiCI0HIo4py3/+8x8jsJiWQPrRmjOpYCEn7v/4zT2Q1V69ex/03JAfCCoLRXv27GkTESakTFCw02bygJcS4mHRI+chspjEUCazZs20MsP7CW8RFi9abMR8+M/DTVb8jN95553SvHkzMzXD1IY3DJQvNtmTJk6yiRD27sTB5J03D5QNRJvy+kXLgskFJJy4mCwAJhhoydGg40XFzH20P+I+8nTeeQPMj/mEiRPNKwuTJuqobZs2cofGwyQILTheUVgoOmLkKFsTwPb+aPbZrAiZeJtxJODK/WgQcfIO8npuSHe/0aO8rx9tuPTdn56x80dLFswbSLMgxPHPxn5cheqhuf9z6oJm4on4Pxp+Q5/jHJDwZStWywtvfiGr1m3K0X67hyf0Qcr9HfAbP+Eli0fIvTecbwPiR4OGyagJM5QcHSBjhI8uXVruuOYcadawjnz+w3j58ZdxtnkHA7cLU1jJTo8u7eSaC/vJrAXLVa4vVcYgqXdpgvx+49GhS8fWctOV58nu+AR57b2vzZuL8/oAQmUCoXGFfuczLKyIdD2xrZzWta3UqVVTCmmeRDvhuN27ZcKMhTJszDTZtj34yj403txpgPzSKeh3wO+8vjPxiYgMlzN6d5PrLz1T1mzYLPf993+SmJhg18Gh4j5cOg753ceivQZKiq8+r7vUrB6rZLR4jr3wkQbmIxvXb1ACHWsaXCcnWLd2nRTRwQpS7Lxq4G0DEynaRowS0mpKEkOJGc8AYdZrnJjd1KhZwzbKGTRokPnFbqqk3gGTDDa1qarkFIK6bes207ZXrlI5Jz2IMQsF12lYygdZ0Nq6siC9TZs2y7ZtW62MIM58hgKN9WYlqZX0XmSFqENksS2HzBKHs3kmDcxa0LBXpUyiDuwaiixMKNC0Q1jdPZieIANmIpUqVZQqKn+xYkEZ0Erv1Osb1q+XcJWrVs1aen9JK2fcDXZVwtyieXNbFLpWf+NpBtJN/JD8UCAXBBlf7rxZwAwmNK+pqWkqy3abqCAHQGa06Ju1DOpr2VCunCMeNPFRGrZO3Tr2ViAUmNVs2rjJ3tIwsUCmcuXKZl89MkAOyMwf2tAnkQ19dkshjUsLNfsCBC8g2mPqOQt2EKhj0ub871Uq/BEU0oRDZYKMQs0CKuvRIMss+CPevfuDNsqHg5vEHElZKHNipd27WCkHvkPEoeKkF9r/HA1gfldIx69iVSvYZ0Hxezf0scmwHm3KV5HTajaSJ2aPCeYz+3p+4HpiVqa0V+L/ULvucmLlWsHn5SiMAf80+BI6jmGD2/qN8toHg2XT1p22XbQjxXy6QZVPd56HyhEO951HdN++gCSk7JHy5cpI+2a1ldAHBwvXSaElr1+zipK0qkbIWzWpLZXKl7YH3jo6PSCTpUpEScN6tWwgxV0iRCEnney4+IScuPsA14Mk40B3EfxGz3lwZ0k4lx++u7hJx8XrCOZp3TrJTVecJ7Vr1ZIlS5fLTyMmyPRZ86Rw0WJydr/u0rh+bYuf8JSTK7PQNIBLB7h0AGmF5oXvXAcH8nT4+sBVpHIDiUtOl207dimJ2arlmWlhiBfkjtt9zx13aB7cd5BXWfEJseINysqVq2T42BmyUycpeCzBxIA2lhtGKLLL9/eA9Qh169U1Iuby5gCJhoC5sgaYg6CB7dC+vW2S48regXxBIlu3biWNGgfd5iF7XjKiMSYe0gCVKleS6jWqH5QeZVJeCT9eUjAJQTvsyhqQXvXq1WxBJXbYuUk4gOS303uZ2KKFx/wDzXmLFi3tumsXgDJAC0+ZhJJwQLpo2tHEh94TE1NBWrVqKR06tLc8ORIOeLvA5IHNcSDcaLsh/g7E49p702bNzPUg4UPzCKhn6gi78RM7dZK6depYOYW2ieLFoyz9ihUrZJ8Jyowmn0Wprlw5hxaeMmvarOmvSDhxUo6UQceOHUx7fyRI+B9tqwUFaXSuUV+61WkkpYsF1xM40EfWLltBzmzSVhqUqyRsZPRnAbkKa/YbV6wiV7Y7Sa5u30WuatdFBjTvIE30HJOQI10+YYWKyI2dTpX7u58hpSKCJliHgk0StJ7M3ecRriqr/+z2ygQ1Qtv8mc3ayr9PPV3qlonxbvo8jggO7jk9jhsEtYAJ8tbnw2T9pm3W2aHZY3BloIWIMMDzm/Nch7BxHwdkhk4K+1S2Qs/UMItXrtN7CuvAWkOKRxW3+wnnyFKNapV0AA26M6tVNUYqVyhrWnPS4GDAKVu6pFSpWF52xCXKklUbZO++oPkKMrhBmfiQD3CO3xB25INE5O6L8Q9N/ITjQGZk517ywm9HEIjXEcwKMeXkzNO66L2F5eOvhsqjL30sb3z0rfx34Edy75Nvy9uffi+bt+6wNIkXGYPphVmc/Oa8y1/opILvXCMtR/r4bmVtsejkRcNwX0HqAxeDgf37ZMrUWXLv4/+Tge9+YyZGLg0+iY+0kcHFAYibc6TjZHZ54OAa5/IqK5cX0uD+6XMXy7z5i8wGm4V8hCEs4JM0+SSuPwLkyQsuT3mBa/ldJz6ukT/AmyHILXkPRWgcua/lhguXl6zunCub3HDyAMxi8F7CZkK8acgP+ZUJ53Nf42doXvKCu44nF9odIB7au8u7q1PO5y4P125C0+Fc7nB5yRd6j0PuMKHInVbue38v3PPFcaTizA3KMEyH4utP6qFHTylbvLgRPMsP2lA9utZrLE+ccZF0qt1QkjKDPvzB4fKrV+wafWvuEPx253Liyf7tAPnk7IDWneShfufL7af2l9tO6ScP9z9fvrnmbnlAyXJ0RKTszdWOc9LUIz/kpOkO/vSTFPs1bClntmgvUdbXBOMwebmeHR7g7rN4WLic3qS19GvcSsKLFLbrDsF4Q7/nuhZyhIL8dNVJ0VmNW0ul4qXsrS8eRCI0rVZVa0m3hs2lRvkKZp4Yivzic9Ar2Z8Hwnp4HHok8fhHgo6fzu3HkZNl8dLl1uEzkEGqICIMOnynk+A3pIwwkDRHDB2p5NoeiJwS8NXrt9qr6MqVKknVatUsHPdx4EquUZ1qEhFe1EwEypYrJ1ViY23LceIlHcJXrVxB6tWsInEJKbJ6404zFUAWZMrISDf7cV6jc5QpHa1y4EYtpDPTsdoN15wmbb5ER5eUatWqmr1puBJzygCSSJp5kmT9XqZsedOmkqepsxeZ/TkTjDDtjHfu2C4//DxWlq9eZ/dzuHIKEtQwJfLltRxig5o5lYHrOfFTJkpe0bbgjQY5MMFBExireWPCEiy3MGGDHbR9yHxQfeh3NuHh/qJFi1jnzvUkPIVkBbXhjujzSf5YZIo8lF95/cTLDTbw1EFovbOBU4niUVKhguahahWJ0bwEN50JevQILSvg8oS2btS05bJpyw4rN9LGdMERNjyKsGASu2mu/V4QX15ALuTIDc5RxlzPD1wnTxy333GHvPXWW1oXVeyak5/7CefSyCs9wnGEppdbXn67uPKDu4a9O64IWRB6OORXLk5+B367Mjmc/Hx38aL5fvvtd2xRJuXk+oP8cKh0HELjd+CcK7tQ5FXeDrnT4ndecf8W4LoRO3kmli4+jiMOzVIRlTloOnAgfy4lzbV97g0EJ4oAwpmpRDBdn3UO50EoFHv0eeRaWma6eRlS4bOvaFz6vPPMa0TWlxCOc6FwoYsWLiIp2v9e//lb0u/Np2TAuy/I5DXL5eIOJ0vv+s2kqMqOGYlB0+CZT9e+OUMnFJD53MiRXa9DcLO070NWtNvI9K8hH8lFHwyUHUmJWufBvGdp+DTyqvFyH/Gm782SksUi5OyWHeX05u1MQ5+hYSwevZ6h9zhf96Tj8sdv0k/L0rg0fFZ2GLum5ZGhfdP5bU+Uu3qcITXKxUiKlh91E5+RJq9M/Fmu/+ItmbR2uURHBifG3LtfJwXkg/jM7Z/Gc6C0FVbO+yzvyERekCF04uBxfMIv1jwOQaexbt16+eCrn5Sw7bXOiUEGghf66Qa90INzLgzxMOi53+zSyALJijHlZOPGLbJm/WYdU4Ku3cqVLydn9ekmCYnJsmrVainLYsKEJFm5eoN1TsRLHB3bNpeOrRvLgsUrZPTEGfa6kfhZIHnu6afKjZedKaf37iK9Tm4vnds3s0WJ6zZu1XwEJwn0adWqVJS2rRpLfGKSrNm4Xbqf1EZuuvwsOaNXF+nasYWS/RiVI1XJfpKlCSEkfYiFI62kCXnvqekQ74z5K2Tr9h1SVMNzjyPelAHkN5g25KGItG3ZRK6+sJ9cfE4vOe2UEyz9JvVr6ACyxzbBcdrjQtpNn9Wnq1x8Vk9ZtX6bdGjdRG658hw5u8/JOgEpJnFJaXL5gN7Sr0cnvW+H7NyVoPcF64S0ipcoIX17nCyXn3OK7NuTIUtWbpT2bZrLvTddKFUqxcichWzkEtT8IyNePS4+q7tcdt5p0r/HidKrWwdpWi9WUtL3yM7dSSp7MN5wla9Lh2ZyzUV95fwze0nvbh3l1BNbSd3qlSUlNdM2eSJOR8LJD3XMZIFywJ936ahCUrliBZtIMVmgPFkgyK6H+HaG0LndIUnzt4L7jhaIm8WNlBc26O7cb0Hu8If7fSgQlvZCGz0c8ov3t6afX3jaPBNaTGeQ6XA4XDoOv1W+vJBfHL8nLsB9H37wgTz44IMyd948M19i8W8xnidtz9OP0GJN2j820We17CBhWqYjly2QbcmJUiy7f0H61tVqScda9WTS6mUyc8NqvRaupLOInFK7kZzb6gRpVqmqJClJTMRvu94ACcTE44QadeXs5u2leeXqSg73yu60FCXzOqFQblyrdHlpWL6SYIVdr0Jl6d+oFYODbA0hv5BEJgin1m8q9SvFyuvjh8umxHjZnBwvW+PjpHfjlhKvcU5Zt0JJ714jvzFRJaRXwxZyZrN20rBCFSOmcWmpGrdFabJVKhEtfTS93o1aSPXoslKzdIzULhtj+d+ekiSxJUtLqWKRsi0lUfapDBBczHL6N24t3eo1lrIRxS3dcpElpHOdhtK1XhMpqX1NmvZJ5TV9CHimytOmSg2pWLyk5fmMxq2kTrkKsiZup8nZqkp1ObNpW+nRoLmGKSU7kpNU1iwpEV5MWsfWtPIoo/duS4qXqMLBt60QcWQn/K7UZJUrSKypp7plK0hfLQ/yHluqtJFswmBfzfVKJaOlfbU6do7r/Zu01t+1jZDHpWr5KPJsqzQTv1jzHw1PxI8zQIjQWn46eIQszTYlcaSSgZ7B1Q367jP0e37nAKSvbOloada4rqaRJTPnLbFOCpLWuG516XJCK1mwdLXMX7xKarCgLypSlqsM8Uo4kSOmjD7AGiambCmZPG2WLFy2TuUKlwr6+6bLTpeundtLSkqyTJuzWDZs3ibVK1eQls0aSpXyJWXxivVK6NH075NaNapI6+aNJLpEpHRUQt60YR3ZuHm7bN6yTWLKRUvzpo2kbJloWb1+k8QrGXcEMnf+MnRQa9OsrpmoVK9UVrbuTjavEVnacYbmnbIzzZLmodfJ7eSKAafpPWVk6fJVMnfRCuvVmjeuJ/Xr1pTEpCRZuz64m2MRHex6n9zK5ClftqScelJ7raCgOUhySposWLJK2qn87Vs1lc07EmXV2o2WDiQYjUqtqjowKaEuV7aMTJ+7VNZt3iFNGjeQvqd0MBvtcVPmhZDwWnL3DQOsLOLidlnd783MkHp1akvzRrUt7g06ScBV3NmnnayTiN4SpeWycMlymb9kteaxqE5umkjtGrFajjtky/adB5Ubn9ZZ64F2PUU5eo0qZbXjD8iM6TPkhRdesA1s0DCyqI5t3ps0bmzmM2zLfqwdaO6ZaCBrXteP5yMjI9OOvK79kw7awISJE2T6jBnmpnLU6NGyaPFiWyxarkKMzEvcoUR8/REj4me30Em/TuQPRcSnrFkhszaukVpKWh/qfa7c0KW3xESWkk5K8DpVryPDViyQDH3+ykUWl6f6XWzmLvVKlpMTazeQ81p1NMXGml06qVdidknLE+SuTj3l5FqN5czWnaRv01ZSTOWZsGaZTTR4lkOJeAMl4h/PGG/3okFuquS/b/O2MnP9Spm5ca0kaX/SSgn/f/ueLxfo5KBW8dJykpLmUxo11wlCqizdvtny37paTXmi7wVyuk4QqpYqL2e2bC/9mrWRdprHrUoWl2zbJK/2u0R6tmovQxbMUMKdKr00/WfPvkxOrlFPGpapKGfoPTtTlbCXKivXde4pzWJrSDklzScqKa8bU1kWb9lgJi4P9zpXzlKy3aFWfbmi0ynSomotmaKTmTu69JW7e54uTctW0klMNenbsp00rVxNJq5ZKhWVaD/U51xpr/eU1P6wtZbrKTUbyvrdO2TZzq1yXadT5YK2nWX+pnWyNn6XTgqi5Awl7S+eeamc2riF1FGZTmvRTk7TSQOTlRW7tilB3SsnaXyP9j9fGleMlSs7dpPudZtI14bNpFetRrIlYbcs373dyP6v4In4Px7ea8pxBoj49h275D9Pv21u/Y7UQxIk+HulWdPG8uhdV8ju3XHyf8++p0Q30Qa0s/t0lQvP7iUffztKZs1fKrdedY7Uq1lJXv/gW5kwfaG9Nm1cv4Zce8lZZjry1kffyuyFK6RM6ZKmVb7wzB6yYPEyefeL4abpRm5MYG65/HSpGltZXv/wG5k8fb6kpmVI1xNby1UXni6xStTZcGXwsPEyfd5y03a3btZA5egtlZQof/PDSPnk25G2YCw3eCwglO3btpJ/XXGGRJcqoekmy+QZ82XizCW2yRFmJW4SAmFr2UQ7+wv6mavDb34cLeOnztVyQXNdXDp3bCOXn9NdVq7bLE+8/LGRfEjqrVeeLl06n2iTo+lzFskXQ36RzKx9EqYEevPWbdL31E5y4Vm9ZOmq9fLhFz/Ipm27zVSFNwDdT2orN1x2hl7bJC+89aX5T+7aRQfXa86WWXMXylOvf27p61Av/77lEmndoon8Mm6q/PDzBHszgXa9UYPa5u5xwtR5Nmk4tVMLufyC/jrQBuSr736RWfOW2mDMTpW9Tu0s5/Q+UabNWigvvjNI83/wa2wHV3bnn9ZBUpPjbYfGpUuXGrGlnXD9jDPOMFd8Qb/zvgvyOPbABBOXiWPHjjUvLjzrTGxZ1HvLHffJulrl5aX5IyW8sE5GC9qPalPP7TWFZyJcCfjHl90iEUXD5J7vPpV5W9ZLKSX8KDcg7NeccIrc1q2PPDViiLw1eZSR9qfOuFheGTNUvls0W8or+albpryMXbdcSW+aPNnnfLPrfmLEYBm/aqmxpAe6ny1tlXQ+9Ms3MnjxbLnlpF5yX/fTzXzk05kTZcyKRZK+d4+sVELogIlFuJYDxPmsVh3k1i/fk/VKPiuUKCV3n9xXSpeMlvt++FSmb1hlhP31AVdLzTIV5MVxP8mEVYulTtkKcpemER0VJf/58QvZrhMMJhBNq1SXh378Upbu2CK9GjaXh3qdI5/PnizP6X1ovz+75BaJiY6Vs999TOJSkuXLS26WciVLyUPDv5a1u3ZK/QqVJS41WTYkxknrqjXl3z3O1MlDQAaOHSrrVL7dek+Z4iXk+TMu0QlMfRm7bLG8PXWkaalXx+2Qi1t1UvIbJ3M3b5DEzFS5pO1Jcm3nHvL4sEHy/eI5UjW6rDx7+kUSq58DJ/4ss9atkh0pSaZpf0DTQgt/1+CPZOLa5dK3YUt58fSLZVtigvz7l0GyU9OuV76iPNL7fIksFiYXffSyLNZJyHnN28lTStYjpLC8rXU4aOF06Vizvtx1Sn+ZoZOZp0Z+L+uVkEfoBCwUvEHwXlP+2fBE/DgCDwWv5MZOnCn/+2iwjjRFjUz90SYAKS5chEWEWaYRf/zeq6Rc2bLy3P8+k5lzFxNCHrj1MiPBT7/xhWnKb1Mi3rNrB/l0yBgZpIQ4NSVFCXdHuf6ys2Txyg0y8O2vbEe+apXLy903Xiily5a3bfbnzl9ku3siMvbh5/Y/VS45t48Sydny4ZdDdXKRKN06t5GrLzpDihUtJO9+9r1Mmb1E81rEOjTsnM/qGzQHmTp7sbyo6WRlBLfhzg1cKTJBaNW8iZzds700aVxf87hPEpJTzWfz0DGzZMPmnSqLTkJ0wBzQv5tccMapMnLCTHn7k+8lJS3NFv2Rf/yi337t+VK1SkV56a0vZM6CZRIZES63XtFfOp/YyUyFnn/zK9m6M54CNc0IWu1G9WvKzVcNsLcCb3z4rUyds8zSKx5ZTC7SCUXvk9vKd8PGyntf/2yLCzu2ayV3XXuOzFu4RP478GOdfOyRevXrymN3Xm4TkUdfeF9l3m55gwTv25tlE599WjZSqIhcfWFf6d21vU4IRsin3/6sEwQ0Y9iT7pcmDWrJvTdfavbzz77+iaxeu0kio4prHAcvWCqqZII3F62b1ZMu7RpLsg6WbLbCVuts4w54Efevf/3L2qSHx7EIiDfuIt99911z94g5DhNIFs42bNpM3l87XwYumPCH3Rf+FiL+5C9D5O0po+TC1ifKS+ddKQNH/yhPj/nRiFJUWLj2NIWkdESk/HTTA7Jo83q5W+PCDjpeyTlmHU8pufxk5gR5bvQPcv2JPeXBHmfJ4AXT5eFfvjUTiWKafiCEcaEZj1JiiGb5so5dZXtivF1Hg5+Ykib3Df1cZV0nCemp0rtBc3n2rEvlq9lT5OXxwyUJu3Ql8rd07i03nthLXpk4TCatXSovn3W5TRbO+3CgvUnD+8iQy2+XKRrPDV+/a0T0IyXeFUvFyrnvPS4JqUky+Pr7pEJESblh0DsyXUkrckZqOMxx6patKM8qwUUDfM+Qj2VjkvahCt4avHjWZVJNJyjXff6WzNu6IejlReWnTM0+XfOXqZ+tq9aSr666QwbPnSYv6WQgQceWz1SGOmUryT060Zi4dpltsFUyrJjc3/NMOUmJ+O3ffCBLlGDf3a2facgf+O4zJdczJEIna8pk5er23eSBPufohOML+WTWRCv/5865XD6bNl7emDxCdmmZFQ8vJm9dcJ2Z2Pz7Bx0vN62RaDzFWA6C8ET8nw9fQscReCDo2BcsW22LaSDQRbRzKaod+B85IOEQeggY21ovW7XByFqtapWNUJYtV94WIG7dsUsS0JCnp8uK1eslTgekGrExUr5MCYnQQQdfyxHFwmTz5i2SrMQ8XDspbImr6r2agJQvXVJOaN3UNLitmtSV9q2aSHRJvLOIVIwpa+YTNtIpyNu2XQmycesuyVIyiYkLts9okrdu2a4kN1VKlYyS0iUjjaDmla8imq8iOlCwy+gbH39vRHjRslVSrnQp6dr5BLnp8jOlScNaRnajdHLAAkg0ZuF6T8O6NaRj6ybStnlDadOsvjRRQo0GmolA5QrljEzbbEJBnUyetVi27Yyz+iDffBYvUVI2b0+QzSovtvA1atY093RZmVlStWIZaVi7smzfnWQTFzo80y7DpzVOFs8SB2VTs0qMmc9s2rpDduyKs/qirsw8pij2roVsB9JoLYuY8mUsruJREdKicT2zW6ecO7RqLPVrxWr8e00jX75MdE4nm7vcqHvsxrfHp9uGTGyqwm6Sn3z8idxyyy3mx5u0nW9rf/jjWDtYpM3CaYgiv2+44Qb59NNP5eGHHzZXjNH6PLq+5s+ErePQh3rRto0yeul8ubFLLyWxt8mFLTua9xDswGsp8Syt/Wm7arXlwwHXyTeX3S7Dr75H/q/HmVIrpqKUKBYhYdoHhCvBy9TnfnXcLrMdJ6+/ypH2UW6BI0T9DSXY/x32jcxav1rKlCguMcVL2CJKNOc1lPjiVeScpu3kq4tvll+uuVeGabrXn3iqlC9VUgl9MUnUfnerEuWKpUpLg5jK2q3vl2aVq0lJ7Qu26oTdlekB0qcyap4+mTpWihYpJO9fdIO8fPbl0rZqTQ3DX2Hr62xZpMpKl8rUHiLJAtfwwmGSoGmikWYswlyFRZXYnZ/booMM1Lg+u/Q2ebrXAKlUsrSFgXAjhSmo9KA/wz2sk82gdcD1EjrpqRVTSZL3ZMoCrRPyj3kR3sCYoCBXPc0n5e3uQ2OfvmevnUvVsYdyhZBzb1ApdiD3HscHPBE/zoA/7w1bdhkRg6weiQMyBrnjEzK4aPla61CaN6xpXj9qVClvxG71+i222yMbUmxSghwXnyTV9Bqkrmy0EtkKZWVXXLIsZwGnThTClMzhVQXyik33NRefLrddf5HccvV5css1A+S2ay+QPt1PtIWNaekZlifslt0MHG0uHTIy6n92jk4OUxk2EoIwF48IusfKnSe7RwEZBztUrskzFpopzfuff28LFhvUrSWnnthGJwFlpFhYIYmK0DLVDviE9i3kjhsukluvvVD+de35+nmBaegb1attcdGp47cZsqoJ2bmMrODGFaHpMwnABeDSFWslPjFFiXdVqaCTFgbiunVq2cY5m7fvkrWbd2W7i1R5nQ2hZTlYN+VLl7BTO3RigvmQyxuAEDMAQ9RLRkWaXWq4ynZqlw5y5w0Xq+zIf77coeV+yXn9pGpsFSPgaGkcQmV2cYfpwIJ3nMSkxJxNm07odIJtTPP+e+9Lv779sgcdD49jD64d9+/f3zTi//d//ycnnXRSjj/2I9p2NSr3RKLpZcGiEUsFfQWyBH8HQ/H8bVTS+sTIIfLK2GE2+X+ozwB5se+FEq0EnJA8nqt375DpG1eb2ciCbRtk/OqlMnD0UBm1YpFkBfZJmPZVxOXswTEtyc0BiYu8chqTEe4dNG+aPDliiClL/nVCD6mCLbBeh1iicV25e5vM2rRG5mxaKwu3bpBflsyVgWN+lAmrl9iCzo1K/LHp/uDiG+W7K+6UB/sOkAVbN8qnsydbHAeLoGRa+6fRyxfJAz9+LuNXLjZ79dfOuVLOatJGwrWsworoxF/DBEOHZgGaHrRzh4Cb/bXmEdKLHft9+CkvFilbEnbJtvRkW9Bpd2kY4mBcMEJvvw+WyoE3A2jZCcviUEg491MOXAO2ONa+BUFd7jOJTByLmXsKbN7k8Y+DJ+LHEeh0ccOVlJwmeP/g4T9SsM6LzkQHkvWbd5rWls170HTUrxEjEcWKmjtCCCdkeZsSW1wUVq0UI5UqlFcSXlqqVoyWnXEJsmX7biNu1gGajIUkKSlFfhk3Tb7+aYIM/nmKHd/+PFk+HTJWXv/oBxk6erpk7glq5UNBPHg5ONDJaYesHXdwcWHQXzS7buL+Lz+gEbHBVzvWpNRMMz0ZMX66JGo5Nq5XXSqUi1YJgx32fh2ssLX+augBOQf/MkXlnijvfDFc3vl8mCxYutaIKuYhDgwSuHhEq59TLzoIINfiVZuUcMdJg1qxUr1KBYkpGy11alaVffsLyeq1G3VA1ElF9ivLA/dSarg/1IlGNmkoWmiv/T4oDQVpmHZcywWNGyY/0+csli9+GKfyT83JA3l689Nh8uGgkbYwFLOU/ED8kPVMbQeY2HAwucLrRNeuJ9uW5tSBh8exCPd8NG/eQk444YQcLzE2CbUrRw70L9hmJyQnS/WoaKlcItpIHdpt7LfpW8pFlZDUrAyza6avYEHm4m2b5b3pY+X+oV/IlzMnSueGzaRNbC3ZmpKkz/x+Wa+E96PRw+WV8cPlpYk/y3PjhsrzY3+UeZvR1B7oW/kDBcmXvWnTcli+c6sMXz5falWuLB1q1JUIPYfNNqR+ppL/N6aMkhc1zYGTfpFnlIS/OXWUku0NUr9iFWlWtab8pOT8pXHDZPLaFWb3ftu3H8hKjfMgMpptI0OaO9KSZMSKhfL4iMFyx+CPdCKxX85p3VFql6ugcge135QZ/tdzu2Ake+TVCLlew8NM36at5fsFs+TZ0d+bO8LXJ42wtwJGiLL7S/pCxKEeDuzweaCUiJP62aXlzUSgfPGS5uaQsk/NypQy9I8aZnN8nN3vQHkjy8GTuYKUvsc/FZ6IHyewAUQffHxMZynRCiWsdKx0Kgc+0Wxna7oPOg5cO/DJPcE4XFwsAl23aYsR7no1Y6V+nRpSRMNs27FbOyCRYno+MSlZNm4KrqKvGltRGtStabtyomneFR80S6Gz2rsn6EUE13+TZy2R8ZNnyfipc3KOCdPmyKQZ80zbjqbYud0C3M9unXxCNskDGm7MSNiZD+KekokXkgObDjmYX267H7eIRXTiEvQVHhkZIVka58o1G5WIp+rvYraZTtbeQmYCU1jLBR/a4ybPlgkhcnJMnDbX7OPjEpKDZFjT4RWmQ5AIH/xI4qFhh5bJug2bLC22dWeCw6ZHlOfyVets4MhTm6KnyFdKSpqlVaF8WcsHaViebDIC8c4yW048sWAmQ1y4nhwzaWYeeZijE43lVh9McogH5P50wMY+C1tMiIWWJXVJG0GO3GXu4XGsIeg7n0cshIBlfx4p8BhgfoFf6r36+A9o00k616ovxQoVkbLFIs3rx1lN2sq6ndtl/ub15je7deXq0r1eE+1z9sqybVtk9a5tplAors/ktuQEsw8/sW5DaVyztiTtyZQtyYnmzrBhTBUpV7xETn726eO61+bDhyeC5Luo9lFo0pkM4NEkdW+W9GzYXMpEFpfZG9fITk3n5LpNpFa5irI7NUV2Kjlnw5+GMZXNdh2SXKxImFTRyUb1MuUloPkNU6IdW6qMlNU4GKcA0hQrhqZepAxeSZq0kRqly8vWpARZvHmDJOsYFokZiMpjkxYluuVLlpTK0WXMzr5EGLvn/jpPmKREaX9fWtNKzEiTZTu22v09GjU3c56cOzRdZCkdUVzKR5WUmMgStuNpaH8NoY5T8j5341qpoOEua9XJyoH1NvXLV5RrOnSVDB0jZujEhDEov/6OMTGkeXkch/BE/DgBnQCdQXJapnYU+O1mtzzIWFATCjmicw6S1eB5+g2O4PUg8QbBew5oUc2WWj85bxrVjEwzLyG+E1o1kFo1q0l8fIIkxO22OAi3Xzu/dRu32OLKBnWqmxtC5YDmljBN7+d1K6nhrWDnzh1KSItJraoVJSU52TYQ2pO1xz7TU1Mlw3aQhNQeaM7ktWbVShp3NY1nv6SmpplnE8xHalarYvHj0QUy7d4OIJfLG8CzCjbsWZmZZteejlszjYeOtrISYcxtkpOSlFxmmWnM9h07NV/7zFtLqeLhKnuCTiRUTj2II1UHJuzRQzXSRqCDX3Pgyt8ODUs+V61ZL7vjk6RxnVjp0r6xpl9ONm7dIes277SdTSkAZ0ZzAMRdRLbtTrbyiI2tIrGVYsxUBLt2ZKKOqlWOkfJlS0tCcrpNhCDY1XVyVDwCn+CJOXmgXt0mPcFyCk4c+J77EzApYXyBfO/TctGkPDz+lnDP69ECJmHDl82XL+ZNNRd7rw24Rt69+EY7buvWX8l1krw/dYz52Mb8Abvqp0+/SN49/1p5Z8C1cuPJp8ns9WvMFhoC+ebEEZKUkS7/OfNCee/CG+T98zTchdfL3af2l5plYkxDi/vUYhoXu3oe7tGkb+XtIeSTPoPfS3ZskYWb1svJDZpIi9gaskonA+9NHm1+xJ8/61L58CJNd8B18qbKeHXHblKlVGnZGL9L1uzaLs2r1pSejVpIuxp1baHjU30vkEd6niNVSpYOEmBl6FHhOgZp2vTql7fpLK+de6V8cMH18vZF10sVJdzDls6TzQnxSvZTZOGWTVI/JlYGnnelPNn/QmlYsbL1N5i6YO4DqMOg3Jtl7oY1cvkJ3eQ9Lbs3z7tautdvJpEajvwRjsXp09evkkCRQvLAaefIW+ddI11q1jfzHMxOmIwwCcjSckSr/8OCmbYT6AeX3KT1cY28rHHWLFdJXp4wXNbu3mnlS3ljSpNbaYIpEuY3R7mJeRzD8H7EjxPQubBIZb0S3TkLV3LGSJMbYNxn8HVc8AiGOfA79BwI/v71J/ZyRcKKSYfWjaRC+TISHR1t5hoz5i2VfdojkS7eWyByaMvr1a5mRHDrjt0yYepc2b4zzsglHT6b/aDBbtm0ni2STEpJNVJZJCzcFlrWrlFZOrVpbHljFT8daA0l4M0b1ZEKMWWlSiVsOgubvXKpEpHSqW1T6X5SO2EjIzS+K1ZtkLBsrRfyIxtaj8D+vdKjc3Pp3qWjRJcoZoNQZLFwKRNdUpo3riO9unVUAltBJs5YJHMXr5bU9EztoAtJdZ0s1K1V3ewWE5W071cijA17xbKlpGWTutK4Xg3ZujNRy4iBsLC0bVpHKlWuJAuXrJY1G7bYa2pXLznlqXnas7+Q1KlVTRrWjrU8BQL7ZNrM+bJwxQbT0jN4cS/XOrSsLzt27Zapc5aajSkLcxvWrGC7RJbUMkhISLY6LFu6pHQ9oaVtjrQrPlnbhk54IsLNV3j12EqmpklKTddeIszOVyofLa2b1pX6taqa+dGh2gEHC3CrVyyl5RelbaC0lCxZwuzimWi4sB4efyfQJ9F29+onm/kciQ19AOYXKZkZsnLnNtmaFGfPfJjGi8cTdrD8cOYEmbpB+20LX8gWR0LuopQ88hhiY/3B9HGyavd2k29zQpys1rhIo7iGwQUhvskhjfO3bJBUnYTjnQQ3f7OVlG5OCq7dyQ1Sw9YZ4rkpbpdM1Pux87YyUBnilQQnpaXJnM3rZEdqktmlYz7DdYgt/RJEdPyaZbJw2ybzoc129HNVhjcnj5S5m9aalh/zD3ayXKf3z9W4ShQJt0nFTJUN848MvY5XGDy44HHlh4VzZOjiOZKQkWZa7m1JCeZBhTLbquR83qZ1kqh9Pk4EluuEAXt1ZOJIycq0Nwjhmi8WuO7Wyc03C2bIul07ZIaS73WaT8YY3BUmpafaxkks+MR/+/rE3eaJBL/fszXO1Kw9krInU/O2UXalpZjHE1rDurid8umsyfLTsnkq+x4rR+5L0zqmDnhTEJRHJFInC2u0ruaqzMlaL4xXB4FmglLG+xH/x8K7LzyOgJnG1NkL5O1Ph2rNKzHXTvJogAcP0vXwbRdL5UoV7dyHXw2VURNmmZ0115EFDylsftPtxDYWZvLMhfLR10E/4WhlAbaMeES5sP/J0qJJPdm+K96IeuaegBQLKyzlypSUklHF5N0vf5bFK9bZRiOd2zeVS87pLSkQYc0jr2xZGIrZBSQdrx8jJ8yQH0dOMY24S8vBOo7AfunSobm5JERjsW13gqSmZhhJZrMeSP2ipatl0LBJsmnrTorTBuRObZvIGb07S8niUbJ6wzbbrAhNSMmocKlQTicb23fIqx/9ZOYamOvccEF3adu2jXw++BcZMX6WFNK08nokmcBc0K+LnN6zs3lDYbOgD7/+SdPYadvhY15CB965fXPz5rJk2Sp58vUvg3Ws8bVoVNNcPdasWtkIf0JSioRrvpnIbFb5Pxr0i6xat9m80HQ9oYW5kmRgXr1xmySn6uCgY0Op4hE6GSopy1evN3v3w3WwmBq1rFNOqlQsJ7GxVaVSpUpSqlTJ4NuOw9zr4XEsgucJMpOhhGPg/IkycMHEP+y+MBSYSWCqgTlHcZ20orBgQ5sU+gvtX+iLAH0Z5LpMVAmLIkHJaZKSdjxvECN9CGQ9OjxCSmg8POtJ6elGXLkBcm3x6YF2HDd++T2TbBcfUTToKz011FUpJEuvYSKSsT9oAojGuLCeK62EFBMQgBkJrgwxv2EznId6nC2P/fytDBzzvYjeS795UatO8uoF18ijP34t704fazbxyAWxs7wE9pmLP4h45p49tsMlBNwmD5SphkWO6GLaF6qMkG3yA4mGQqYpGXbQ4BpHlm16xMLNdI2PTYpK673Yd2dZvWgZ62eE1m2ZyCgzfYHYs/ASV5OUPRMSRlBWDWAiRFniX51Fr9iIx2cEt8VnzKCsKHPiS9dyCF1pwDkdFa18yJNVYAi8+8J/PrxG/DgBnRma6o1bghrxoB/poAb4SB9oPNl9UrQTYIe6TZu3mzacxY14FdFkLQzabvpRzBY2b9spsxYsk7WbduSYblh8ygAxB8H3dVJKmr3CY8OcMnrQpbLt+5xFq8yFH+Sefgyihy9X8jlt9mIzraikZD4qMkKJfJxMnD5fJs5YqCQ51Uj6wfLTnZB2EdnOgtL4BO20g1vYlywRZdd36mRgxtwlMmrSHNmybZdpopGZgW+HXtuxM16/B2xnT/x/F48Ml/TMvbJyvZa95hFPJ6RFnUQoicY3+ZJVG2RnfHDTEPLu8s8naWMrj501Zh6JSqJnzl8uS1dv1utBmYNlWtg012wisXrdFlmqcVocGueO3YkSl5BobgoxqYnWiRLltWjFehkxbobtqomXFuzfcaO4Y7dOXLS9lFFiHlO2pBTHM43eu2T1Jpm9YLkttD1QZgcfyEzeqpaPlIrldKKk5JsNgUqWKGHrBsijh8ffEbRr2veR1og7WFx6CiIZl54qiSz+0/NGhEPS4ZmHFMZnpGq4FCNwjoQDZIRopyrh3K3X8SPOglDMKThPwD1KntO0b4QU2rn8oGEhicSFWUwO7DkXJedB0uvS5JOwaIgTMtOsrDARIR3s09tWryM1y8ZIbJkYOaFGAzm9SSvp37ytrN+9Sz6cPl4SstJs63jkpU9z8ULod6UlBycl2ofkyKLyUTZMAiDoEGTrx/UfG/Ckke+Q/OlpI/DJWsbYsacrSeftgCuL4BjAW4ogOSZOwpJf4sEcBdmcRxsO9zaBsNRHpobBJIZrBv1k/E0JKSsH4iIdBAs9nwOaideI/6PhNeLHCViMR1XPXbBUXvvoe33QDu4MjjSYCaO5jS5eTFMKSGJKhs2yQ0GY8LAiRvLoNDDvYJv60AEHIDf+v9l4pkzJSCml5BANT4qSfLaCx7aZzhPC6tItqeQ3Q0klHmJK6HfsvSHLeBjBDCNLyS8k/FDNn90uia9UiQg9omxLfl7Hsnvn7sQUm0jQAbty5ANyC4EtWTxSykWXkBLFIyxcUkq6xKmcmRnpZuZCHokb7yklI8MkNUM748zMX+XdgbB0dcWjiklkeFElxVm2YDJ3HTJgMQHYqx17sFyC8VH/aNFKan1g4oO5TLKSgR1xSZKhxICyJSzRZWUFtVulikdp2OKapk4WdHBjI6O4xDRbgElZHgoUa4tapaRalQrm8g2vE3yy6ZAn4h5/V/AcQmaOlkb894AYDjWIH+760YLLmUubvrNURKT0aNBMejdsIdFh2jdqR0E5rE+OkyELZsqsjWutL88PueP8ozgaZXOk4/Qa8X8+PBE/TkA181CsWbtBnnvnWzNlONqwRXraiUBW0Wzn9SDT+py7qSCp/X/2rgMwjuJqf5Lu1Htvlm25N9x7L5gaiimmBhJaSIEU8geSAOkJAUInQAid0IsppjdjXHHvvTdZstW7dP/73t3I6/PJluWCJc9nj3Zvd/rOznzz9s0bPQ0IloESW2+L9c60ddFggBedhJhp8h7DkQyz/NT/ZpjDGf8oySAR9b4q+9JsLA7daZM2zCUc/xHsjHQxo18g1hH9ORdwNgbmn3VFKTglW4H8swOtlUkG7YlTJcYfzrKwaw0Jods3mTBgWiTufH6sa4JlcGvdHTqfnCz1zIlFWnI80tLTkZmZieSUFCH1/KpgO2aLlgm27RONiLcUsKRU8WAdpkfFITM+QXXP95aXYltxoUr/jTqLxT5YIt76YWvoJAHJE1+I6JhoREVRr1BeLPnNazwebcd4aRYwKipKbVyTAAfyR8IYERGhCw55HsiPcbQKwviioiJUskrdaG6MQzUSf78Rci+Un2rlnLs90sRgdHSUXj9UOk7HclCH3JtulMbRsODQz69x3NyIGxFFiV9vmGgto5pJdPoTx2tcjMqyOe8FclQdiYiI9NVVYP8uiYdlZB79n61/WZg/bt6jakp+fhk/y8DyRjvK4KZ+t59f4xrSk7aVEuvWLfzp35TdO3k5eYiHhYXFPnA6T3WS0BA3dpWVYObmdfhi3XIs2bVVVTMsCbc4WWGJ+EkEkiASK6omkDSRwJI0es0PHl2nO20KwSO4jTHTC+TP3Pfu1Ejp7IF+jPPG51H/JhzB6/5+GRdJIc9Zbs7wmYYJ4++/Mcdy6Hb0mm6dHLxxmLgbc5RaM5zXBU7XWUeByhDIaVkOUlfMl+ZT49z/XkNZfPlhvhp7LnRaBvHHBUz7ytD4M9LySHy0lpIYLUQ+VJxMCDh5oBqQVUmxsLCg6JRf1mgPnYtNY2lpRPoNC4uTFbb1n2SgvdqslBjpC70LOY4HSNCE1fl+7Q+nNLtpnXGQNz6BOTYFjHtfOodHCL3p+NKVcpA0N0Wy611I6fVrCPfRAMvSWF1502q8Xg67DL76amoZSNYTY0IRwy8H4eEqeQ8PD/Pt6Hl0d3O1sLBo2aBIgc7C4mSGJeInEbwS0CC0yUxRIkcJpRJUkizrrDsCZwg2F4HmJLlVGk71GK80PLxh0yQLCwsLCwuLfbBE/CSCUUXo2C4LsXHxKhnlAkla8aDFEeusa7aTdsSJXXpihC7IpAnJ6OgYdarT3gRpuoWFhYWFxckGS8RPIhiVhrS0VLTPyfJdtbA4MvDTMje/iI8OQ3q8VxoeGxODuNhYRNPUZFiYknUrEbewsLCwsNgfloifhAgLdWNIjwxEhrtVUuncmIA4KF/y3dvnt7lHPQSG717T42rsqIfA8N1relyNHfUQGL57TY+rsaMeAsN3r+lxNXbUQ2D47jUWlqopMeEutE92SZsKQ0RkJGKEhMcnxHstrVgSbmFhYWFhERCWiJ+EICnq1LEjMtLS1JoIybiqF/g2deGiPB7VFjXPaY/beVQ/Xum6mgKU+A55lHAk/Pxt0zjEsaWk4YsjKiIEuanenUdJvEnCExOTdKGmEnGrH25hYWFhYREQloifhKCuOO2JTxjWAzGRoWoOjzsx8jpJlm4gIATLkK8g+eeRf4aQ8R79NBAyOXKbehJ5/iap529zn9fr6rmd/T7/No2WnwY3a4gKd6FtQpBaSeH29XFxcUiMT0BMTAzCw8ItCbewsLA4Etjus9XDEvGTECRWNDPXpWM7DOvXFaEuoV1ClgxhIsmiHwMSMxIyA96jHwOGI7lrgERjSKAByaDzt03DhxaYBkNxcWZcTAQ6pLgQHxer0u/4+HikJKcgITFBF2hyIydnGhYWFvtgzfZZNAXsQSkIsWi92DfyWpxUIBELFXI2pG839OnaDmFuEjFKO0nA3HpuYDZsMSApc4kfAyV+rn1b75rf+xO/fZJRHvj72KSxr0kfu3I0ngZB3ySxTIt+GcbgaKRxuOUwYBLqfL+96QRpXEq09ejNN4/7zr33GI7n1APPTgpHx1S3bhBF9RMnCY+NjbUqKRYWjcL7InqEifNrpHXWHdRJO9EN1Xytx6L1IUgesH2+Jylqa2tRXVWF/II9+GLGIixevQV1Hko+DckzTcOQqcZ+E7x28N+1tTVK7hKjXKis9aCiRu5L8/NytaOTxoG/icbi9P9NNCVO/9+EdJS+y1FhQoyDg1BYXiPX6oXEkiQfnTS8ONRvYv84qGqSGEVyDZRXVqGiNkSfP3fN5F0SbaqaKHFmQTRKbxwMG4Q6xISHIDrCjbhwj27Sw4mc0QlPSU5WAm5IOM0XWhJu0drAd4SLkyvr6nD/oq9x/+KvESbvzuGgvqIK9eWV3vfMwqIp4BfN2EiEOAQ0h0Kd9O0u8f+jnkOwMH8Hvt6+QcalQ4fnujG6/smZOKNdN/x13ufevSJ89xsD7xdVV2FQajbuGDgBwzPae9+XJqR5ssMS8ZMYfPQkY5WVldi5azfmLlqFJWu3obLaa2/8aIPpxUeGIDVGBrLaIOSV1KOqxrv1e2tAXV0tIkNDkBHvlmM9CkrrsLOYKj8+D98R+FWTJDwlxru1NCXh7GirqqplsuBBTR3kOdRIW5ATk1fpFdzS+YeKX3ewlMtdp9vV81p4WKgS7cjISMTHJ6heOAl4VBQ376EfKwm3aJ04GkRcCbgddi0OC9KfHqZ6iiXiLQe2hk5ikCypioqQqqSkBAzt3x0j+3dFRmqiSkiPJsJC6pAVW4f0WI9KVbOSo9AxK04XiwaaC/IFJrE18E4aany/vPD+3heWv51xMTzjMaivr1NncLTTCAoOQVQYEB1Wj6jICHTITkTXNnFSv+F634nG0to/bq9E3cCbljP/dX75Z3n2j9NJwiPDvVvPp6QkITszAx3at0WPDhno1i4JPdolo2duMrrlJEie49E1Jx4dM2PQNjUc2akxSEtJRGJCrLh4JCcnIyMjQx1t0idSHSXOqqNYWDQJfD9ITqyzrsnO9qmtGSF/EPjOLU5CkDRRn5mzVpcrGHFREUiOCUNEqLz89TWorqmDCkqb2Q9QAp4cWYvk6BDECumOjopEbGwMEhLihPAnISEuGpXVdSit2J/w0pweJwmGmDJ/bpkwcJGpgTs0TC15GPC3EySFDGfioMpNsEwwGuI8imlQly8xoh5pscGIFBIeHR0tk5skZKUlIy7SjZKyclRU1TXUY1AjaTnB++LT+0PAbeL3K4+UxT//9GPyu4+EBykJ1zwlJgp5TpNnsE+KHRMVhdiYKCXpfD7cGTNK2oHek2vcmCc2Jg7xcfFapoSERCTEx6udcFpHoWScknCmb0m4RWsG3zW28Vo5ztq1WV1TpIwWFscb1CqnJHtAajZ2lpdic0mh/j4UOHrQZUbGoFN8Cr7esUHb/KFC8n5VXR2yomIxOisXOTEJDe+LxcFhibiFvigk4ySHIeLCKTmNChNSHiZEmovzQhAe6ka4y0vu6oK4WDCEbFJfNCWI8ptWNeLChPSFBiEpokYIvQsJUS7ERnkJOIldnJC5hIQElaomJSUjOTEWyXERCHN5UFZZjaraeo2Lry7T0Ph9ZJNEmsRVyWYjvymdVh13+c142KEYgsjymQ6F1wj1c6RpSCIR7iApbwhihHRHCzlNFMKarKRVyGtCDOJjIlFZVYXSSkrlvZ+3mSZ3pGTc/BTI37zXkBdf3kx9mDxrOXgucfAay6h+9eiNIyzUhczoGsTLBMiQ8GSp76TkJCQKGSeBpqUTkuhIeS7RMULKhXTzundr+mgh37G6CJOO6ifx8tzi4kjKJaz4ZVh+TdHJCOtVnIVFawbfR7ZzS8QtTnRYIt5yYHXELRQkb4RZwFleUYGSklKUFBehpLRcSHIVKuRaRUWl6nV71SK8Tl9ScSTxLhmTQkKCITxQSSJJmtsdirCwcCXiJHleEhgpZDFM7VlXSXp79hRi645d2La7ELv2VGJvaTVqa6o1XiM5Jvk85NH34je1WbOLoE8N06w0ghAWXI/EyHqV/scI4U5MTFapMwlvWJhX9aZY6nLHzt3YvD0Pm3YWYndRldY5CbSS6YOkYfJ4MNAvpfJS9Yh21SEuol4XV4aFh2t9k0ynpqZq/fOLBMk+wfiZD9ULrK2T3/U6Oair87YHPlM+T0lAwzCvdDxnmoQ5Wli0dvBdIZk5Ih1xC4vjAKsj3nJgibiFwkn86mWQqa6pUQluJYl3ZaUQ83JUlJcraa6Wl61GSBtJuJI4OfIt9Jo+9G74wgWBoSThoW5ERESqlY3w8AhECDEMV6sabiVzDF8jaZHkFxcXKyHPKxCiurcUe0uqUFpRjfLaYC/hZ0Z9vcGhOoXjAb44YSEeJAnpjeOXg4hwJbwk4ZT405pIGCcRUqesy/LSUhQWFWHHrgJs27UHW/NKUFYTjFqW7QgKxHyESPgYdx2iQusQ7g7RjXZYz5RsJ8Qn6KTAbDnPjXf8ybN2A+JMZ2C6hQay7f2x7/eRZNjCooXCEnGLlgJLxFsOLBG3CAi+iHW1tSohN5ZVSMJJmukoMa2R66SBTh1qSnP5QpJoU+JNc4WhYTwPhcstzhWiUnJD2Nn8lPgzDSHjZaVlKCsrRYkc9xaXqTS+uLRCrXqUVkHSptQWKKuWjqa+Di7fIMidQTVO+cfrwdIBcRMEI7FnZ1Dvk/Jysxp2EExbVTok/zTjFyJ5JRVlGGe8/mkwbFBQCGJcFYgJ8wjpdSMq0rurJKXOtKcdExujpNdInhkn648TjlIpW+Hevdi5uxAFRaXIKyxHaZnUb70btZJ3ZcNSiS7Jjz/hpbTadG5q6xt1iAipRnSo5CPMJfUcJHUfpnreVJFJEAIeFxunXyCcutwWFhaHD0vELVoKLBFvObBE3KJRmKbBl6mW5FuOXrWFOiXPau5OWCPv8zU0Lxy5IwkopeLBQoZJJikdV5Iu54FeTL74tBpSVVmlqjEVQvzLyspUIk9iXl1dg5KKGp0QcAJQXlWv6h2lQsipF02VDieZJrk26TB/JOX8p+fsVOS3N99UvwhR8k4CbIi2Ienec6qQeKX3zCfLGh9Wg7jQakQKCY+MitaFj1699yQ9J+l1qm8QrLfq6up9hLykBEXFRdhTVC7HEhSXVaG4Qgh7dZ1OdmoRCunGtINjqu4gmVR4arUew10elca73SFyrEd4aLBOfKiKEh0VpSSc+YiJkbzoLpdhqs9tO0ULi+aDfYAl4hYtAZaItxxYIm7RJLCZmKbCo5JSJamGiHt1wg3xVOk0X17f76a8jJqGxEVVDa8KTLU6kvHqGiGwQtIrq4SIk6SKKxQWvimvFAUlNPNH6bqPZItjnhrOeZ3/5FzTkH+UmOu5OCdhb+yc5JddTYinCjFhQFx4HSLCuKFNpC4+TUpM0l0lqY99MDN+jKuBkKvKD/XuvY5S8pLyGrlWqb+rZG5QR2m9hJFsIkSIuEui5OJN4d8IJREXck0JONOLlLxw4aV3MWW05oMScH6d8O6UeehnYGFh0Ti0X5D3+qgQce0eDuwjLCwahwwETWRsloi3HFgibtFsmKbjbEKGfAYioYcDlbrXe6XuNTW1qBHiWlPrVYuhignVZWqEnOcXlmHzjgLs2lOKwjIJI1lhykeY/H7gckl3UA0iXXUy6NYhJiIY4UKAKXWmOgp1sI0pP6OOcqjy70fIZdKhUvLyCpSVl6OyUoi5HPmFgOWnSgz9s2SMl18ZQoJdoJWaUHcowiPCVf+eVlC4OJRqKZSAuyUftO5iO0ILi+aB7x3fOfM+H00iXl9VTdbj+2Vh0QRI3x8sfXxTYIl4y4El4hYnNNg8+TJTFYbqI8aaB6XmlIqTyFKSvGVHPnYUlKKorBoVleKq2ZlI1+D9f9gwL0VoUC3ChYCHCwGPCvUo0SXp1UWQCYm6ODMmJlpJMBdBNoWEO8GyGULOslESzsWw1TJIc6LBRbMsq8kQpfn82qAkW45UN6Gj5JvpN9zz5eNw8mJhYXFw8H3l56kq6YseWPzNERHxmp0FXjJuYdFEkIS705N8vw4OS8RbDiwRt2gxYFM1zdWQc7XuUlmJ0hIh4cWF2L2nBHsKi70WVyq5oLQeVbUeIfG+buRQvYlET+5KHWxKwcODaxEV5iXg1HlX+9qxsSoJ55HmACOogy1k2KjjNAdaHimb6uJz0qFSf6rg1KpevpeJM24vEaejigoXklJC7tXJ30e+LQG3sDgycFK8c+dOnWTT6hDfL4PK2tojlohXbdiK+vIq3y8Li0MjODIMYe2zfb8ODkvEWw4sEbdosWDT5Ytu1DvKy70LIMvKy9T++d6SSpRVVKvedUkVyTgJrzfMvk7FcRZE8u01JUg98LCQatW9pg42F19S7SRGiHdcfFyDGgpNBFICfbQ6GzPZYEdIfXn5oUTc+ZqyUyQJZ5qGcFvybWFxdGDetT179uBf/7pPF4vn5uYiIyMDaWmpqooWm5iEF7avxIPLvpF+wmut6XBRtWEb6iur7Htr0WQEhYUKEc/y/To4LBFvObBE3KLFwytB3rcAskqOZWXlQszLVKpVWVGO4rJqlFdRr7wW1eJIcNn09ye4HkS4anVgDKEd9FCqoYSrFJzqKCThXAypu1FGhOtCySORgjcV/vm0pNvC4ujCvF98r3jOI/uKCy+8AO+8844u1k5JSUFWZib69umDSZMvwaIEFx5YNh2hnBQ3k4jXlVd6LTrZ99miCbBEvHXC1pBFiwfJMEkzCTI30aHKSEpqCtLS0pGeno7MzGy0bZOJ9tkpaJeZiLYZ8chOjUFmchTSEyOQnkQXidTEKMQnJCIpOUUH3YyMTGRmZKgkLD09DcmpybplPXXCQ5uhD95cMA12ZsbZQdvC4sjR2OTWqKTs2LENHTt21L6AX6fydu3C5s2b9b1PSUnS/REYojkk3MLCwsLAEnGLVgOSVEPIqdcZFxerdr1T09J8hDwL2dltkJ2VjaysLGRkCtGW84yMLLmfofd55H26TLmfJuFoH5wmCmNUMh6u6irc+t3CwqLlwEm8CUO8qdaWn5+vJHvt2rVYuHAhZs2ahZkzZ6tuONXQCG7WdcMNN+DOO+9Ev3791XKThYWFxZHCsgmLVgcScuptkzQrKY+OQnx8HBIT4pGYlIh0Srgp7RainZ2dJaQ8U6Xe2XLkOe+npafJIJyA+DjuShml+uAk+cdLCh4IJBL+ZOJY4XimZWFxLNAY8SaBLi4uxq5du7Bp0yYsXboUM2bMwFdfTcOcOXOwY8cOJd1jx47B9ddfj06dOqlU/KabblKXKZN4S8ItLCyOFqyOuEWz0VjTOR5ElWmbdJznjYF+qK/GozrfNQ9NAzoh8ehCSF98TksJxwPOsvCcML+Zf4K/D1XeI4Wpp+ORloXF0Yaz/fJIy0rGcRHmrp07sSsvD+Xl5Tph5xeyDh066sScE3kn/vKXvygxv+CCC1RCLhGiSt7FI7eaYnXELQ4PVke8dcIScYtmwX+gozMv3PEYVLg4k7rh/uctHc6y+BPv0tJS/YxubJYfS5CgUFeWXwL4VcHC4kSHsz8ylpS4AVhJSYmqnWzfvl0l4VQto6pa+/bt0aZNG32fnPAnDyTvnJDzveQ9qqUdjQ19LBG3OFxYIt46YWvIolkgYSwqKsLu3bvVUccyLy9PHQfAYwkOrkx7y5Yt6ijh4sDLAfh4w0xCjgZYpyTbJAwsF+uyrKysIf6pU6fiH//4BxYsWKC/jyW+/vpr/O1vf9OjhcWJCDNR5fvBPoETRxJtvj+LFy/GZ599phZPvvjiC+2fqGJCqfbVV1+N008/HV27dm0g4SYuwp84cNJrVNIsYbawsDjasETc4rBgSOHGjRvxpz/9Cddccw2uu/ZadTy/8cYbMX/evGOmQ0np1KxZs/Hb3/4WZ5xxBiZOnIgf//jHmD79m4YJwNEixocCB29K20ieSaKPBMw7F4nddddduOiiizB+/HhcddVVePzxx7Fhwwb1Q1L85JNPYvny5frbSR6ONqgr+8gjD+vRwuJEAds832++byTf/HJDkr161Wp88fkXeOWVVzBlyhRddMl1H2eddTauuOIKnHfeeejXr58u3jZScyes1M7CwuK7gu19LA4LRiK0Y8d2vPrqK2pdgLtb0nFgJAH3+D5icdD0J6j87RwE+dufUAYKRzBuSrquvfYalXRxYB0yZAjmCfF/8MEHVDLPT2r0558Oz/0HX4LXTFo8DzSBMPEZfya/e/cW4s9//jPuvfdeXfTF6+aeswzONAKB9fbJJ5+otO6JJ57QsB06dNBFY5SAP/jgg7qwjNvY06Y5F40SjNeZjhP+ZQlULoJhnfHwnKA6SmJi0n4qMIcqh4XF0YbzfaqRNsx3hV+J1q1bh2nTpkkf9CrefPNNLFy0UHe4HTduHL4vE9iLL74YAwcOREpKcsM6D6c02xJvCwuLEwW2N7JoFoKCgoWsRWHYsGE6EL7++ut444038L///Q+DBg3UwY+DHckbPxlTaswBlITQkD0OrvxNZwZcQgddGXAN6TMEkNKvr776CoWFhbjnnnvw0EMP4eGHH9Zrv/jlLxGfkKC6bMY/46EEnWkzD4FIJP1QrYV+GL9/XkxcJj76Mbqn9fV1WLJkiVpd4Cdx+jFl49EZr/OeE4xzy9at+P3tt+tGRI8++ijee/c9rU8SjX/961/o06dPA5kweSHM4rNAcTNelsVZ785yEcYP88f64bmJx3yGN+SF9+icz8XC4miCbc+0UZ6bts73bau8I/w6wz7m+eef13ee79egQYNw6aWXKvEeNXq06n1HR0Vp3+Nswycz8eYbbVxrxeGUr7XXhUXLgyXiFs2CGeBCQoJ1h0njjIk/ggMlJb3XXnutSqqoSvLPf/4T69av146QgyuJNMknF1MRJITvv/8+/vrXv2LRokV6zQzOPJI0Mt3MjExdSMiFV7R4MGzoUB2Aiaee+i+eeeYZNUn2xz/+EWPHjsWVV16hOtYkrgZMi+oeN974I4wYMQKnnXaaSriXLV22H9n9+9//rvFRCs8Bn7aE//Of/6g9YeZx/vz5en7bbbdh7ty5Go7XfvGLn2P06FE455zv4YknHldC7ATLwzp6Q0j31i1bcNPPfoYJEybIhCJeJdFxcXGYPHmyEg1+Uqf/CLleuHcv/v3ov7U+L774Ijz33HOqJ29A4jJ//gLJz61qgu30009TfW/WMcvFeEh0qOJCifuZZ56Js846S+t81apVvlhksHKQ+8LCIrzyyqu4XSYM/ApiYXE04E++6TjZKygowMIFC/HWW2/J+/wUPvjgA+zOy1O9bqpuXX755Tj11FPRpUsXtfPNhZR0hnCf7OTbwFPvQXVtDapqqlEhfU2tr65bFaSbYj9KQcahGDbbV5W0LzpLxi1OFNieyqJZ4OBJCSkHPJcMgMYZix/sGEmwfybkkoSvc+fOqu5A1Yuf/uQnmPftt2qbd+XKlbhDSCwlXcTs2bOVNHJBYlpaml4z0i2S/NzcXCXQf/7Ln4Voz1RiyXt0BNN9++0p+PWvb9EBm5KzNtnZks4q/OpXv8LzQloJktXXX38DV37/+0LGp6NXr16aH+b58isux+JFizXuvUJ6n3/+Odx66634ieR7vUwiSAi4kHLjxg0qcS4uLtFyLFmyWBeRkoz//ve/03ipPkOiMHXqB1ixYoWmbYgHy0XSQck3j+PGjVfybUiF1q1MaqiSQvC4R/LzdyHPjz3+mNbn5s1bvBOFp59WP3wmTP8KmXi89trr6NGjp5QrVScOtIG8fds2jXfNmjVaHqrVMB7m8dlnn8XzL7ygZaKKj1fqL8+5phYvv/QSfvnLn+si0rZt22paFhaHC3/ibY4lJaUyCVytk2W2w7fffhtr161FtkyyOUnkZJQTZb6nnJRyoqoba/neE9NHWOxDlRDwWOkzRrbtjDM690bfjDYIk/qqqa1jpft8tSywTOXVVajztSG2pShpB6d1PQVnde+DaHeoXuN9+qN/JyJDwzCpZ3+M79Ad0nJ8Vy0svluE/EHgO7ewaDIozeZgSUkpJb2UPn/zzTcqIe7Wvbve/+Uvf4mM9HQ88sgjuOSSS3DuuecKua3FRx99iMSkZPQXkpqTk4NlS5fqgkTa6KWlAxLWm2++GYMHD9ZB2gyyJKUky9x++tNPP8WHH36oCxypN00zZByYSURfe/11VRdhmpRUX3X11aorOmvWTCWygwYOxAYh1FxsGi4D1b+FfJOQU8LGLa1ffvllLRMHfpL+l156WdOkJJw2hUkKhg8fjmHDRuDbb+eiQ4dclSZz84+ePXtqGaZOfR+TL56skwxaaCCZYB45mTCEgWWjdPu+++8XMhyhk5b4+Hi9Z0C/xv+0aV/hyy+/wJAhQzXvP/3pT3VTItZFiZBnLkijJJHqLOvXrVNpIvXOuaCVC9eoT9u7d2+dzJCA88sDy/Ob3/wGkyZN0nssP+/PnjVLyvYtRo0apbr39Dd06DD9osEvEFbaaNEUGNLtJMlsO5wIUyVr3vz5+Gb6dJ14c9Eld7E95ZRTVL+b0m6+M9zVlsSbpJt9gHknnHEeL/CdZbq1cpy1a7O6ppiEC4S6whJ4ZJJ7TMoiPPvK/iPw13Muw2WDRuKMnv1wYb+hGNupJ0oqy7Blb4FKx7+LOmwuWPd9MtoiKyZBSXZ1fR2qZDxpm5CMH488DSM6dMXibZuwtmAXUqJj0SUpHUkRUdgj5Q3yeFUW2ycm49HJ16F7QipeWzpXBQ4tqQ6CXPIOJMT6fh0cHvlHVc0BqdnYWV6KzSWFDftjHAycotFlRsagU3wKvt6xwdtG9W7j4P2qujpkRcVidFYucuQ5mffF4uCwo6lFs8DBlI7WUx5/4gmVJP/73/9WiWqZkEKqL1Bd4oILL0S3bt0QFxurm2JMmnQB0tLSsXTJEpUqk2xTck21CRLLd999V1Uuzj777IZ0DPhC0/4vSegDDzyoAzUlaD/60Y9UdYR62pTKl0v6/IRNtY5TevXS3THHj5uAvn36aTpbt23DeiH+JOtc7DlSyCYHexLM0aNHo127dqqPSuk6pdC0jNJdJhe0YsIjSS0nDdx5M9Qdqn54jXkjUeDEoLqqGtNlYsI04uMTkJ2drdf9QdUXkmcjBfeHsxMrL69AXFw8vve972k+mQfmh/VAKXaVpEnS/OWXX6qUm8SGZJqTI9Yj0yLhoV9K4dvKJIgqOSw3nw0J+0j5zfJ4JwxQKxS05NKvX18l4ZSGB8qnhYUByTcHYILtjm2YX1e2yXs3/evpePHFF1Wdiud1MnHmVyNOIjlZZX/AiSAnpDQtyLZo+gBnX2DROKqlTq8dMhY/H382CsvLcM8nU3Dza0/hbx+8gVCZF53ZpbcQ1RhU1FR5n42QpzIhtnSVVNmo319aTrJaUVOt57xDEkxnnjFRKfcZ3kiqDeinvs7bHmqFOJt0/CXVBnXi18TPcwPmiZL8n48/C78efw6SJf/lMplzB4Vgd2kJXpk3A0/N+BybC/cI2QxGipDB20+/ADePO1smHpWoqK3Wsu4Sv/d//j4emfWZtNP9SaIpA12tfjXw3fChWkg/HUOYsjRWDguLw4Ht2SyaBQ627MRIZKlWQukr3X+ffFIJJ60asPPlIMvBVDxruAQhpZRuUcWDBJQ4//xJKm2l5RESWhJz+jHSNCc4GFMKTN1okv/777tP9aap60zpeEiIS/tP6o8zHyFCjPmbW9snCHE2JIEkmwN9jx7dNU5THoZLSU727r63K0+l7LxHIs1P4oQZgKi64vF44zN55flQqZPLLr9cTaiRvP/gB1er1Nofmp4QZkoBK2SwqKyo8N3ZB28a3vSYBok+1Uh45HXmnXnkMcQVgrLyclUf4USDEnyak6R5R+q+c6LCZ0FSRIk/J0icgJi4GQ/rnWB8lFrSSg1Vi7LbtFESzvxYWDhh2r4B2w7b9p49ezFv3nw1J0jy/fHHH8u1ArXnzbUQXLswdOhQnTRTDY3km++fmeg5SZLFocFegsTwlLRsfH/waGzMz8MdU1/Fs99+jS/WLMdL87/BT996Bk/M+hzFVZUIc7lRIWQyQo6Ds3Nxeqee6JmahRCpd0O8iVB5Hu3jk5UY84kMadMBfdLaCHkIUsJMfetT0ttgdLsuiAuPQK2vzyJ5jnKHIi06VokGVUEGZ7XH2PZdkRopRFrCGhiyHxcWjuE5nXCa5CUjJlbJMe95JOGMmDhx8ciIi0dOfBIyYuMQLf1ZqUwoFmzbiLmb16OoqgJRoWHIjI1Hm8RktBH/nZPS0C4uSerHg1Ip95drlmH+1o379ask1ZSej83tinG53TSt6roanaQQ9JsieaarkolOUkQ0xrTrim4pmVpeknoLi+bCEnGLIwKlwn1691bCTUcdTpJEMziTuFFdhEdeM4MrdaEN6VuzZrWQ1jV6TjJudKkbA+NgWEp0z580CZdedpmSTA765RXexZzMgyGrlLo5O13mR69LnihFJijJoeN1knT6i4uL9V5TH97O2MRDkDAECekg6N+4DJkoUM3ksccfVynf4kWLVO+dG4sQhszSL4kHiUhJcYl+XSBJVjNtvjrTNByEZL88yHWeMx6Cnx3pSLZ79eyplmXuvpvubtwnExaq3Fx55ZVSL97JRXFJyX51QZi0KoWEc5JgVFs+/uhjtY7D/Bi/FicnTHszIPEmSkvLdNI29YMPlHi/99672Lx5k040aV2J7WjEyJGqesKvTlQz46SSE8BAcLZ7iybA9x5P6NoLGfEJeHneN1i2cytq6oUYS1XWS31uLMzHil3bUSoTf/ZtI4V4PnrxNXjskutw17lX4KkrbsTd51yG3kKsSZRJnvtntcODF/0Ql/cbhmcvvh6PTL4WT1zxI9w+8Xz0Sc/B3adfjMcmX4eHL7kWj1xwLQa36agkvURI8SkZbfH7sefittFn487TL8QTl/8ID06+Bo9Keuf27K9pqHqIZP+87v3w7OU34l/nX4m/nDkZz1zxE3x/wEgh9PUYwDxc/EN0S89Cx/RM3H3BVXh+8o/QX+KPCHHh2mHjcfPYM4UoR2Nspx64W8qSk5SKnm3a4ZVrfol7xX+WkHLqiP/jnEvF/zipF9+4IPVy/eBxeP6qm3DfBVfjASnri1ffhF+PPVsnEVzkGhocgisGjMCfzrwYt4w8A09O+iEeuuQaPHHJ9fj9mLMRI/H6f0mwsGgqLBG3aDY4TjaQQgHPSexI1ij1ImbNnKXXSJx5fdXqVSoJp3SVAzTPX3rpJRncPUpeqSZBXWZa76B/56Cvn7e3ehcb8h6ttMTGxjZYTQgLC1VSQHJLHfUtW7ZqOPqjDjql9FTnoBoGpeEk3FQdIagrTrUWEvo1a9dq/ihRryfplHL5kw+C19j5kvBTlUMlgeJ4ZBqnCfG444478KMbb1RpvbE2YuqMR5JmknXG9eR//6uSeLfER8cyUZVmoRB5qpWYCQav+4P1x0GYdUHpPeucXxouuuhC/cJARz1wlis+Pk5J0OrVq1UyzvySDFEfnotTCRJ6LtLs0aMHrrnmh5ouVY8oIfd/LhatG2ynzudtiDfbJN8pTjD5VWzKlLexbNkyhMm7wLUSw0eMUIk3zW+yP+C7bRZaBiLZvNaSyPeJSLvYb/TL7ojaqhol4eyPQmXizXp1y3vrEkIpLzfKaqoxvH1n3HrqeciMTcAT33yGP3z4Oj5dtQQjOnbHL8YJCY2KVRIfHx6JYbmdcfO4s1BQUYp/fv4uVgmZn9RvqBL0jkKOH5/5GV4R4t89MwuTeg9U1RGqcUTJsz6lXa5K6DMjY3HPZ+/iyZmfIy0mTsjwBHROSleLLv0y2+I3Quxr6jz4h8T/l8+mqB77T0afgeFtO2F70V68v/hb5JcUI6+4CFMWzcFri+dgU1EBwoSId0pOQ9e0LIRLWVdIuT9YsRB7y0qwu6gQr307XfzPxd7KckS6Q2VykIM2ccnSjkM0j5P7DJF0TsfOoj34p+TvTx++hk0Fu3HFoNE6WaBUv95Tr6R8Uu9BOPuUAZizfSP+8ckUbBR/Fw8ciTO79UWlVVOxaCYsEbdoFrjokqYESY4N2NmTpJG0UT2DCzGfevopvPDCC5g+fbou7qR0loSR5gz5OZo6yFx0OWrUCNx55x/UlN6MGd/gscceU6JsBn2C+s833XyTmkOkxI2mB0kOaWWB5JsDvqYvpNIsMOTOlNSZpplEWmShNK6zkAJacaF+NM0rcuEi79E84R133K6ElAsvSa6ZV+dkwwlKlllmko/PP/9c01knJP7dd9/Bn/70RyUoy5Z5F6IyLk48nDAEmIs5x4wZo5/uqUpC++i0x/7AAw+oWskLzz+vExbWNdVFnPkhQSLpJi3gp2NOAEjsaRWFZaHVGC6iZdm4LnvRwkWa54kTT1Vd8fvvv1/17Jn2L37xCzUVR514xsvnS4wfP0F3TeWXCuqLc5Gd87lYtC6wfTnbGNuLed7bt+/QCSXfZX4hoYWeKiHkXFTJL2LU8e7fv78S8Q65ubpugpNexuEfL8HrLQX78h8khM+F2FCZvJ9A7wHrMtIVivSISJTX16JCiCEn1P41zDKQXJ7evQ8y4xLw4rdf46nZX2DK0m/xwJdTMXX5AgwR4j24XccGM3+V0sfMXL8Kd33xLl5dMBOPTvtIiX2U9GsPfvMRXp43Aw/LtdU7t6F3Zo4SbUq6Q4JkIiB93Pwdm/Hg9A/x4rzpeGbWl0qke2W0wfguPZUcf08Ib2JUNG59/yU8L/l5cd7XuFMIMdVMzuzRD3sqyvCypLuteC92CGF+c9FsvLBwBjYUFmjbrJO0vPrpQViZtx1vLZ6LHXv3YvPefDw8/RO8tmiWTD6qVFLPzefY7KhWGB8WgR8MGYti6fMf+upDvLF4Nt6QvN316RTklxXjzO790C4xRVV+gqW8pdVVeHf5fDwkZX5l/gzNq4x6GNm2o+TBCicsmgc7mlocFsxASsLLATZCOn0nzKDdtl07lQZT55tElwsxb7nlFuzK24WbbvqZfqYmWSRB5C6S550/CUlJiUpKBw0arMTWbK9uVCEoSesiBJrkkvasaY6PZJvXf/e73+ngz0GnvKxMJwHJyUm6+QfJLC2EjBWye+kllyBM/NM6yM9//nMl748++oj6+d3vfitkc6WaOTzv3HN1QsHOlySf5/6gWs6ZZ52pxJ1WU9RG+rp1SmBff/0NlfD/+Mc/UaJLCy4sG2FIDeuKjnV0++2/x/nnn69lpjlCbuFPQk5S3KdvX5Vgs5ys8wYSLM+CUnxK1U1clDhSL/3CCy+QCdDzWkbmg9ZjSMjr6r0qQpdeeplaseFkgc+FVmp4n/FzoScnCDwyTpadebvwwgvVP00ZWrQe7COYXpi2RHACyC8yH330ka4BmTlzpi4C5pclfi0h6R4wYIC+R1xzwPeOut7sH5xxEs54WwL4nvjXC8vF9RzrVq3GukVLUFFQyBs+H989lPiKo3iERJh9hD+o45waHYuOyekqdZ61YY2SdkrOd5YWY/amNYiCC/2Tc5RckspTckwivq4gT6XqW4TgUmVj8fbNmLNprd4vrCxHQVEhYsLCESmO0IlAvQfLdmzB3G0btf5KqyuxeMdWVZXpkpKl6iKnZLdDmMR7ec9BuO/0S8Rdimv7jkC8jC9d0jKV9FOVRBdYeoKkH/OgvIZ20eu0zzfgOUk5Jfky9VPLMOW11fLbWw71o8/Ru9lcu/hk1SWfsX4F1uTv1OpySz0s3bkV63bukPspSI9NUJLvCnFhZ0mhlndnSRGotLhVJgW7ygoRFxsHN782WFg0A9Z8ocVhgx0ZyV8HIbMjR47U3ez8wQ6XZJf6zxycKYGmtIxE+Oyzv6eLBEmYeTzr7LMxUAZzEj7+5mds+u8iYZN9CyRNmiTbtBRCP127dtPNeq644nK1tEK1DA6K//3vf9UviXrfvv2Qnd1G0jwLl19xhUrEmTcSTapwkEx06tQRbdq0VUJB04S04EDpNdMk0aXkntZEWBan+UESYuq6ciLBsvIzPM2u5eZ2QLu2bZEjjjrzJODcCIh+CRPegL8zMjK1XJQqktD0FfLNcLT8MkrqmKSYlmdIeJiGStclHMvJT/7036tXTy0X77GeWIc5OW3VljifEy3R0EQhCT2JFOuQpiY7dOgo6fbFRRdfhPHjx6u6Dwl5T6mbwUOG6ESBajqdOnXWZ00rLSyzRcuFIZhse8YRJcXFulbBaxd/iU4s9+4tlHbv1skg2xrbANu7WcAcKW2F7xTBeE1c5thSYIi3M/90NTW12LVrV0OdrFq1Elu37cTCgl1YU1+K0Kj9hRFNxdE2X8gnShWK07r1Rk5SCt5cMAt7ykv3i5tnNPmXER2HM7r3RVlVFT5asRBFQo6p1sE4aA7wrK69sTJvBz5ZuxTd07JUev7pykVYIddCpZ+OFvJ8xaCRWL1rBz5fsww1km4IgnFO937ITEjCJ2uWYlXedvTObIuR7btg9e7t+HL9Sl0YyjrOljRO79EfWwry8bWQ4KsHjkFcRARorSQ1JhapQmyTZbKwuXgPpkn8c7asV/J9Sb9hCA124SPJy67SIi1bbGg4xnfphXB3qORxsV5vn5SKM6QeuAD0zaXfKpEnYsTvlQNHYosQ6PeWzUcn8XdO70GaxrytG5XEu6Vf5wLMCbnd0DklE5+uXYY1u3dofaXGxOETqa9NMhHh2JAp9Xhmx94oCa7HlAWz9wlJjhGs+cLWiSCpKG+PbGFxDEFJRnDw/i+kaXqBXtSmvMCB4qT0nOScus9UbyFppcoGJSAHA/2wE21un8FBPFAn3JyOiNXC+BrLc6A4G0uH8bCL9K8nJ5je4WSxOWWy+G7RWPusrKzCzp071E4+N6Oi5R62h4iIcF2sywkZJdwpySmIjTuQALT0ttBYvewp2IMdO3agYE+BqnBVV3vVGfh1jBP+eCEZr+xYjcc2zVed+OagasM21JVXIkjezaNRhyReNPH3f2PPwo/HnIk73nkJL877BvUSNVVoaAGEUnKSzNzEFPzzvCsQKXn/zdsvYtHOLYgOC1dVFOpF3zfpKjw07QPc+/l7mNRrEO676Af43ZQX8PKi2WptJSUiCh/85Hf4YtVS/Pa9l1FWW63rZZ668DqcktMOv3r3Rbyz5Ft8f8Ao3DnxAkxZ9i1+N/UVTYPmFcd16YknLrkBb8ybiX9+/g5evOImpMVE45pXntA25S0P1KoLzRMWy0SB0vkp19yiUv9fvPUslu/aps8uS8jw3865TIh8lJTlBSzYsQmjOnTDfedegd0lxbjouQdVWs14qQ//4Q2/wYxNa3C9pNUrvQ1eve4WvDTna/zjsylKJOm3TNJ78uLrMCinE37+9nOYtm4Z7r/gB+jXpr2k8Tw+X7sc4TIZ6Zeag0e/dzU2ekpxxVP3wyVE+VgiKCwUYe2zfL8ODtaXS+rqRz2HYGH+Dny9fUOTVKnYRuj6J2fijHbd8Nd5nwdUcfIH7xfJ8xokxP+OgRMwPKN9o++Xxf6wNWRxTGE6VUME+dtc4+DT2ADUlIHJGacT/E39cjriYITWhKUfk6R/fE2Bs7NxxmvK0ZQ4vaSZYfblmdf8wwaqG/9rJgzzdbB6Ipzl9vcTCE15NhbfLfyfo2mflO5uF4LJxcNURfrqqy+xYMFCJZ0MkpKaii5du2DgoEG6hoKqJ/z6YUi4f3tsaW2hsXrhxJ1rOajzTrU4rmlZtWa17vjJr1E5OW30qxO/LPHLV7eeXRGfmiAvauC+5bsAqVKIlOfjVUtQVFyMq4aMwdD2HRHpcin55a6ap3buiUmnDFTJ+ab8PN30ZoCQyyCpl6KKcqRGxSiJrayrxeKtmyQ+IbDyj/79of2F75xg+nVUH3H4pUpHXbBHVU/6ZbXTNEjGB7XpAK4zWrRtg5LehVvXI0KuM06aF/xSiO609SuxdW+BqqSQUBoyyMkDJy/0a1qf5kWcgfc3v2i62Gj1KwBVSQgKazhhIdncXlyI/OISjJAyt0/w6oKXVFagX3Z7dMvKward27G1MF/VcUwa3li8eakL8qAixBuz7RUtmgurmmJxTOE/UPP30R68nfHRSgAH1c6du+iASVUXdp6B0mwsL0eav0DxNiXOxvLSlLD+aCwuJwL9bk5aFicGnO3cHGn6jZZwaEWItvvXrFmrqifU8yYhCY+IQHp6mqoxUbXJmBWk5JdxME7CGa85bwkIlH+Ck/TdebuxfsN6tffP9SqcjBgrQpx4cJ1Lj+490FUmJlTPoslVqn5JpCgXYjt9x0bMPsF21iRZ3SHkMlKI46jOvdAzI0d1rPsI2T69Wx/dbZOqF9M2rERJRQWGZOeib06uLq48JT0bF/UdipFCSqmu8sr8mUp4OyWn46ye/fH5qqVYsnOrktIodxiuHjJW0/p45WJUS1uq9dRhUs+ByE5MxkcyGaBqChdkjmjfFR2SU5EZl4i2cu/0rr01vuXbt+I/Mz9HkRBf6nsPbt8JYzp1R1p0HAZntseELr0kP0NQwr0RivaqVZJh7Tqjt5D62LBIdE/KUBOJtAF+Wvc+qmvOvOwsK0ac3O8vZLpPTjtd8Nk5JV0INTf7CVLThVQteWfZPM13WLALp0tabZNSkR0Tj0E5HdQcYmx4JJ6d/SVmb1qHMJnMMD9tE1Pw+eplWFuwUycptId+Xs8BqJGycyEq1VWOJaxqSuuEJeIWrQp85Sm54kZD1F89moOchcWJBP9BzpwXF5dg+/btSrhJvjdt3ORTPSlWP1wU3aljJ10v0aljRyWZXBdAPe/WSLzpeHnv3j0yIdmikm861g91v2mGkWstuFFYdyHep5zSy7fYOxnh4WEaj4nX1Dl1iUnCT8Qt7rlAcdmubSgsK0eaPNdTsnJUzzshIkrNDr69ZK4QyTxsEWKaV1osBDRFJcC9hTTHR0Xj0zVL8JQQZBJaklQuvMyOT8TXa5d7d66U8oYIQSfJXrVzG77dsl5IuHcfhq6pmUKqqzB9wyqNv09We4xq3wXr8/OwTcj0xM49VQd9+a6teG72NCzL26rtboeQxHzJS4ekNAzIaotuyRlKej2SzqyNa1RyTVWL0qoqJEke+4qftIhoLNy2CdslLC2bkNDP3rRWyHml1EGt6oczDuYz0uXG1+tXqaS/p0w4Vkr9zN68Tut92c4tOintnpmNPult0CszR8070prMhysXqbUVqqu0SUjSdjRb8sP88utDtCsMubHJ2FS0W9VVLBG3RLw5sDriFhYWFic4TDcdaFCj1R7qd9MGPi320HQnf1MNhbre1PGmGUEuCOYmVU4wXjNYtsQB82D1QrWSvYV7UVpSopJu2uhnHRFcfMzJR3ZWlm7AxUXYTjSm26rXJa1KIRz3L/oa9y/+Wu1YNwdHW0fcCeaTOuHp0bFKUsPdbuwSMruxsAClQjKZZ2NVJTMmHrnJqYgIDcNO8bM6b4fqfEfQfna9B2FuFzokpCgZLq6qYGUL6QrShY6FFeXIF5JH5Qz6zYyJ0504d5eVKlmd3Gco7jj1fLy1dC7u/+oD9M1upxL1Nbt3KoHmwk/Nr+SD+uncdKdTarrmZXdJETYU7NadM/ksWEOUYOcmJqOd5Ce/rAQb9uxWtZuM2HhNd0dxESrqanSixKeXK/64+JPmD1fn74I7KBjZcYkSpkYtxHgkUrX/Lf67p2bphIN5IVHfWrxXpd6Ml/GxLuPCIqRcRSiprtR8h0s9Up2nTqqSphX5LI8lrI5464Ql4hYWFhYnIBojmbQbT0JJsk2CWVhYJOeFSsjpMzQsTKXctJiTmpriDeQAB8eWSrwJM3HwB23smwkJzX7uLRTiKOfVcp1kgKoltPpCaTeJuD+aQhpaChE3qBRyW+lbSEmrVLTZTTLWMOjLCU0P0g8XcYZKWaJCw/cjlCRl3GqeVlWc9WO2qKe1EiNpJamlZJx+iyvLcUmfYfjrWZPxzvJ5+NXbL0j91UncwUryuejTCUpwaRKRetrMF6OkSUX6ddYP06gUf5RIk7CTbDIMy0QVEuOXRJTxsVxhMhFhPGw7un2/+NF41ackJ/XDeDUe8cONkSJkcsaFoQasJ52YONOQsjJciPxmPRxrWCLeOmGJuIWFhcUJgMYIJj+b03IHHcl2iRx35+WphJcDHRcTciOntkK809LTDrB539IHw8bqhRMSEm7WS7nvqwDrhQS8vq5ed5DlRkM0I5qUmOgLtQ/NqZeWRsQJE/OhBnr6O1pkgLRtb0Upzu3eD7dMOAefrF6Kuz99RyXzxMHScdZEY/4OJ6+H65c4WvVwtGGJeOuEJeIWFhYW3wFM12tImCGcPJJwU9pNKS8XW+7cuUt1nLnIkHbg4xMSVLLbJjtbF1b6ozWRb3POMlH1hvXCemC9UBeeR+46qxOStDS0FeKdmZHhXVjpA+OgI46kXloiEf+uQOlyVkyC6mhTTYWb5BxrHerWDkvEWycsEbdokWCzpaSQA5jZTMQJdgD0w07gux7kmE8iUD4Jk1eDxspjOjXbsbVc8Dk7CaZCflN9giSTBJMSXi4i3LUrD8XFReqPGzC1a9ce7du3825c5QDv07XkduGsF8L85kSE9cIFlZR45+Xlad2oGo7c54JK3UCrXVtdcOnEsagXfQclXUvEDw2WiGYDqcNNlRejD27RfFgi3jphibhFi0RZWblut52Vlak7RJK8OgnOggULlNRwN0wuVnOC9w828JlX4mgMjnv37MHSZcs0Lu6KSd1UZ/rMI+048xO7RzpOgn68i+sylFzQ79at27B69Wq1Z8xdDS1aJsyzp1oFySQluSSZJJebN29W6S79sM3mtMlRgpkgJNw5mPE+XWsk3lxgWlVVqQScmw3l5XnrhVvtc1An8W7Xth3aSr2wjpxx8D5/O68dbVgibvFdwhLx1glrvtCixYEv95YtW3TbepKY4cOH62doMwhzEP/BD36A9957T7et51bclEqzQzAkhmhs8DvUfYJ5IA7l5/3338cVV1yBDz/8UPVVufW8My80K3f++efhySf/g6lTp2LKlCl46qmnMG/evP3I+FtvvYWbb75Jw40ZM+ag6VqcOGAb4LPiM+eki+SbEm+238WLF6vjBIv63tTzHjBgIIYNG4oePXqoOT2qWzC8s00a11LhfAdp57zKVy80u7hl6xbdRn7+/PlYuXKF1hXfA77H3Eyne/fuSM9Ib7Bz7nwPj0e9MN9Mo1aONF14IpovtGi9sOYLWyfsVMWixYIveU1N9QEvOwdnXqMz4DmvUxJJQmQGcCd4zRAmo07ihDNO3mdczjQMTNzUX/3mm+n6Sb2wsBDvvPOOhnEupmN4SkFp+/xf//oXHn30UVx77bVYvWoV/u///k9JCcH0AuXZ4sQBn6V5TjxnO+JEkc+eUt25c+bo5PDVV1/FjBkztM0OGTIUl19+OS699FKMGjVKJo1ZOqk0cRjoQNiCBzSWxTi+A0bVZPPmLVIvc3XC+tZbb2LO7Nnqn6T7qquuwsUXX6wTbU5K+NXL/x3gxNQO9BYWFi0ZlohbtDoEGpw5gNO+Mrf1fu/dd7FwwQKUlZU2kB0SKBJiSuLelfszvpmhn8NJGgy4OyElmSRWs2fPwZdffKlx+sOkTUnn3Lnf6lbh48aNVeknd/AzZMSA/im1Hz9+PM4++2zcddddSkCY1rJlyzTvlmycmHASTDM5I8mkLjPVo0i8X3nlFXzxxRe67XjPHj1xySWXKMk89dRT0aFD7gE2rImWTjDNRMK0dTMp4Y6eixYt0nfsf//7Hz7+5GMU7ClAD6mXyZMn48orr9R6yc3N1S9BDO9s/6wXCwsLi9YE26tZnBTg4H/jjTdi0qRJ+OnPbsL5crzjjjtUR5cD/bKlS/U+ifBNN92Eyy6/DBdddBEWLlyoRIIk65ZbblGi8LOf/QzXX38dLrzoQnzyySca3gmSBl5bKnFy22ySrksvvUyJ/WeffebztT+YBsNwYRrRJicHEeHhSujMwjSL7x58RoZg8pzPjW2Ik7Ply5fjo48+UoJJVaKNmzahXfv22ubYbk4//XT07NVTdZv5VYTP1EkwW/ozNnXDI98XUy8rVqxQ1SzWy9tvv61bymdnt5F6uUBVyPjO9ezZo2F3T2e98HegxcsWFhYWrQWWiFucFHjxxRdVzYPkm1LKP/7xj+jRo5cQhnpVG7j3X//Ct99+i9///nZMmfIOuHSCRPoXv/iFfkInaD5u7ty5+Prrr3H++efjb3/7m24TTvJhQBJCcPtsxsfdDEeOpMpBtm6X/cknHytB8bf1zN8kY9QJZnwkdWVCymkpIyoqar80LI4vnOSbjiSTi2v5dYMTq+eff16l3vx6kZCQoISbk6/zzj0X/fr21QWGVDfh83US7pYu3TVt3dQJHddnsO3zHXnppZeUfPOdiYqMwvhx43DZpZfqxGTw4EFIS0ttaPetqV4sLI4J7BDQamF7PItWDQ7uJAiUNHNnvW7duqFv3z6qHnDppZcoOabE7oMPPsCZZ56J73//SiHXvXCukChKvim927hxk8ZBwkEJ6K2/uVUJ+g9/+EONzymxMyRi5cqVSkBo5YTqB1yIN3ToMElrJRYtXqxxGfCcizapxkJiR91wThbGjBmNPn1OafBjcXzgJJiGhHPyxAnb9OnT8fLLLyvJnD17tm6BPXLESFWrOO+884RgDlZ9Ztr6Jvk2km+iJRNM1gHfAWfd0PF92L07H3Nl0knd96effhpffvmlvm/9+vXT94xu5KiR+pUnKjq6YVLCeqE7WYk3mwXLL9Uo9cq2Zp11jTu+b76uxKKVwZovtGhxIBlYv34Dhg8fhgsumIS//vVv+lnbDO4kAd/73vf0eP/99ys5uk+O/7r3XiQlJeHCCy9UtZMuXbqoZPOZZ57BL3/5S+R26IBOPtOAJB3U0aZ79tnnMHHiqTjjjDNU1YTST5oipB/zKd0JkpN77rkHTz75JG6//XaVjtLc4htvvK7p3HLLr4Rs/0bDkdyNHTtWdc1ZBoLlGzdunJL9Xr16qa4sLalQmn/NNdeotN4/TYvmg/VtyKDpDnnkM9mwYYNKePlVhKQ6LT1dzeelpaUhIiJcn78h3AxD11qIpbM8PBKsq7LSUqmXjdiwcYNae+F7wC8BuoslyXZUlNaHqReD1tBmta1IOY6G+cL6sgp46vZXa7OwOBiCQoIRHHXgBl6BYM0XthxYIm7R4sCXe9WqVWrG79xzz8Fdd/1zPyLORWHUO+UOfIaI004z9XepRrB4yRLkCGn40Q034KLJk/Gf//wHv73tNiXm6UKwGIdLSARfjZSUZCHOv0bnzp11ERn1vCn5o3k53neSC9PpUMJOskxLEDS3lpiYIPc8QloKsHjxErUCQR1iSuhJ9AcNGoTOnTrh+utv0HK0yWmjZgup0sD4SfYsET964HOjcw4Q/K3WTTZtEoLpJd68xmdEfebMzAw1mceFlZwYkWTyPtFankVj5amqqtYJ40Yh3vxyUyET3HCpizZtcvSLD3XeWR+sF7PwtLW2z6NJxKXCfScWFoeBJr5bloi3HNgasmiR4IBPSdySJUtVbYBklb8JSrlppSEsLLRBbYQSzAsuuABPCOmmtDpMwr/2+uvYuWNHgxSPUvTHH38cjz32GB555BE1Jfj3v/9DSbiJh2SlMcJiflNX2KsfnqHbbYeHR0j8kZKHdN18aP369XqfnZRx3JqbVlNOP+N0NWXI/Bopq8WRgXXIOjbgc+LgwEWwnNB9/PHHOkF7XdrDcplEcRdLTpaoqsSvFfwqQXUTSn252RJJp4mnpRNO1ouzPdPxiw7fi5kzZqgazgsvPI/Zs2fp+9W7d2+cc+65OOuss2QCORDt2rXTr0zc7ZNEvDXUyXED68k66w7XWbQ6WCJu0SJBaTEl4tTh5kY4VEMhcSUBf/LJ/+pixwH9B6jkm5JO6mxzIVl7IQ5cNNa9Rw+1SELSnpWZoWFpISUlNRXtc3OVYPBTe1VlZYOkPTTUrROAQESDZIbXK8or1GwdJwfXXXct7r33XnX33HMv7rvvPlVJobTVWFsxJIhphMrEoTHyzYmAlSw0Dc56JfhcWHckktyhdNq0afpVgypGNFcZEuJCf2krVD3iZKh///5o37696vVTIs51BK2FXPrXjWnbNN3Jdktb99R//+TTT/X9oBrOOJmM8GvQ0KFD0bVrN91gh5MVTl7NBNXCwsLConmwI7tFiwOJA0nAT3/6U5U6/+Uvf9GFclTboFT73nvv0R0sz5VrlDRT1/fBBx9Uifh1112Hn/zkJ0qEqYpCaTuyI7QAAP/0SURBVHj79rm4+uqrdaEkw99www0a1wQhZT+68UbsEkJC8kL1FqqmGMm7k9AYieu8+fPUZjQXaJ55xpkaP03YkdxTGt6/fz9VP6Hayo4dO1WKyLDUu3WSJH/ix4kGJbjONC32wVl3hlyaZ8aNdGi3msR72rSvZPJVrF8quGnM6NGjMWBAf20LtGxD8t0YwWyJZNy0SwNTN9w+fu26ddrmKfUmAacVmNjYON3dk5PcYcOHo3ef3tp2+YWG7ZaT0UBoiXVjYWFhcSLAbnFvccKAxKkpjuDAn5GeroSbUmTqWnOzEJ6TlNMmOK02GN1Vfm7nTpf0xzhOO/10/PjGH6Ndu7ZqMrBr166q80riRj1Ybq3dVgj0eedPQl8hI4yDuwBSUj5hwgSVlDrJh5FWb9q8Gfm78zFx4mkqRaQfdXKPR+YnStKrr68TsjMW8fFxuiCQeuJDhgxp+LxvwLwybkrRqfs+WPyxzM76aMw542ltIMF0lk/rWBy3SV+7dh3my4Ro3rx5WCdkk1uoJyclo608a24Uw4kXJ0gk3VSpoIUT8/z8660l1qGzbsyRk8ft27Zj0eJFqha1dOkSnaC6hVi3yaZlnw6+ummvajhs35yQGDUcA/94TzaY9nE0tri3sDiWkFFAdbvtFvcnPuxiTYujDn8pnIEhO0cbuwsKsG3bNiVcJLlUKYkTgkUwJ+wGKquqsXPXTuwRv1yImZyUJGQjXgkxESyeaitLsHHjZhSWVcLlqUZKSioy0lJRGxyOenlL9uzaKoSmBgkpWUJgwjSceXm0q5EOp6x4D0oLCxAZE4/45DTt+Jx+eF4jedldkI8sITxcAMjJQbTkl3lqrIZKy8uxa+cuJe5JiYm+q0eOQM9KO90TrPNkPgO1H05OWH98/sXFxaiupo32ENXl5iJCEm06nnPC5Y+WPlAw/3SB6iY/v0Amj5uUcPOLinfdRLguHjZ1Qyk3STcnsP5o6XVzLKDtUOrkqCzWtLA4hrCLNVsOLBG3OCyYgZ84UsJWI4MZiRP1qUkSquUlRlUlUFaGiqoq1PO+nFfJ/VpxHulYqoVQeIQV11RSTUPyUyvXJQzzUStx8MWvE0cJOPNZJ9fq5JxEg06JsVyvlPgrKypYCM0Luwp3iBypkhDsRlC9d8fN2hrJVz3vBiEiLETDV1TXShqBX5tQIYFh7mBU10pexYX4dUJB8ps6xy6XG9WSB+abUnCtV8mf/qaE1pcvIljuh4j/YJlAhMgEgCasXO5QuCg9l/iMJQ9XeARC5F5kVBSqIyL1eqgQL7fEy3MeOeFoDpzPnTgenWugTpxthROSbdu3qe4/CSbzRam20VsmCefCSv+vFgb0fyTt9ruGeQ7+ZSgtLcN2qRd+1TF1Q4k264LEm3XEOklISFTTi040FqfF/rBE3KKlwBLxlgNLxC0aBZsGHQfnQw3QdeKPAz/JradwL0qFQJNEl5ULkea5XK8nKa6sFIJdq4sgSb5JmGtr68R5CXmQEN9gOdbJa+2RwY4EPEgIZHi9d0MdEmvqqdYKgZcLknAtIuVlp9y5WgZEynfdQkZNfkN4j/78wM6B5NYj90nUg4ShBoe4vb0J/TvKW0+yHyCOQ4GdWQ0Juy8qE7X85R9FTV2975cHbikv/ci0wuEDqBWn0TDPQqhr5FitZfZe83aSQXqP11xS/loh7CT7VD1wyeSCXwHCIoSosy7lSNIeRHIu5Cw0MlIJbFhklJJ4V3QMXDExusV+OMk+M3EQsLMljqTDNfUbqJ1R5Wjr1q16VOItlUGCGRFJazRRSi5Jwun8dbsPFm9LQWNl4PtCNSo6Lrbk1wE+CxJufhnis2SdpKSk6OTEH62hbo43LBG3aCmwRLzlwBJxiyajTAb6koIClObtQmlxMSqKClFTWooaIdllZaVKwkmwPSXFXoIpHUGwEOdgEuqqKiXQbrlGYk2CzBc0KDhEySEl0eQDQvuVTPEaESTnbiGMEbzJ/9KxhAoJU8+8Ly5S/PJnjdwjJWRn47utHVGwkGwPJeSSD28ISUX8cFdE7XSEzDNe5odS+GCJr07It0Lejjq53xwwbk5Q/MErNVJ+t6RH6b3xEiydGCcN5TIxYVgFyyWEix1aHetISGg1/TCclIlgnjmhITixqBf/EkAnPjKV0mdBsFy0Ac26rWMFCYGoZl1KPlhnLiHvrNtgIXKuqGjQ/GNEhJB0SlNjYxEWE4so6g4nJCAyORUxsTEI9SO+TcXBSGCRtC2SywIh3lygSkcdZ0r1SShJvFOSU5CQmKCk04nWQC4bKwPbACcjtGbCjXRoJ5/km/5YL1Q1cdaN/wDIeC3pPjJYIm7RUmCJeMuBJeIWjaKShGjTBuRv3YqiXTtRXFSMssJC1BYXIUheuHoh1y4heqRiLnlRXULc3GHhOtiHUp2CkjkhapSq8kUOj4xEsPgPkoErlMSPZFuOhnSzITIsJdT7wa+J+jdYEk+S+1ohbIyPhJuE1Am9Ju6gkHS8pNurvkKCTtN2R0LEmVeWnYScdUQCTmhZ9cwBua8H/bs/eK1OB3xOVSRuqVeNXyJi/DxnJ0v5uqrN8F5NtarG1Dbs3udBRRklyvX6NaJeOupKiZNEv4bSVKmfWh7l2XKCwE2ISIBZeo8Qck9klHcyJYQ9MiXVq1+cnIy4jEwkZWUjtX2uEPnGSUljBJOEkgST5JLmJPmbpiY5ISO5pG43zVVycWVjkt2WTjAbKwP13qnjTWs9rBt+EeDg5nZzkhSuz4D1Qhv1gSyatIa6OZFgibhFS4El4i0HlohbHIBqIcJbFi/CmhnTsXvjBlTv3YsQecEihBCFRUchSkhZbFSUqjhEClHiMSI0lAxLCTiPzmblPK8RgkXCR/AqX16SvXpJk1JxkkRVRyGh5kss1w4g5k6w06B/txv1QsQpzZUIvdd8cfBIf/7kfD8wHp/fWikrpcM8BpOIG+l4E2EIOMvGc3ZitLJgfpOUR8jEoVzKxY6xVtI1x8OBStPlqERcSDNVUljXjEcOmla4EGP6IyHnkc/GCx4lb9Q5l3t6lc+NajhSfyTzmlepxyohf+VC3MupPiQkuaKkVMg9/dSjQq6HUAKbmoY2PXqiz7jxSMpp661zjdKktw8k/lxIWFCQ30AuaX+dC2epQkN1ExJvs4mOP1pD587nFKhuKOHmpMQQ77LSMlRWeSdJfLeo60073jTbGWjxqR34ji0sEbdoKbBEvOXAEnGLBhhysHH1aky9++8o27IJ3Xr2QpvsbCTSyoiQolAh3VSDIEGjf9N8+MJRqupsTgFfXD/yQYJhiDkl4zwn8ea5iYvE/KBgnMyLz5+Scn6yl6NR39D7vnT8wXS8eRBiKoOqIeI1JOLSiZj8NQXswEi62fWESL5IrZWIS/2wNLzOa6wF/ubRqKnwuK/2Dg+SpKZNNRyS8hA5UiXFVzUNR+aD9xoWm+rBdy7w0KPA+9ebd7dMhgi95btfK+Gpyb63sAh7hTDu2bkTWzdvxrALL8bEn/0c4TJBM+BEi4sHqcdMNRNKefmbpNNIvbk7I81RJqekHKDnzbZFtOQO3bRlf/LNSQnrxdRHQcEeqZ8i/WJBPfjomGikySSHkxLqezvDM046O9AdPziJ+IOLp+MBIeKu4OapZ1lYHCuwl6iT/tklI84NPQdbIn6CwxJxiwaYl2bWe+/ig3/9E8mRkeg1aBCiYmMRKQQ8Shx1ckkQSE5VpcTXfJyNyDQpQ9b9wbAkFLznXSgpL6rxJ9eNBJyErEYISSDJoRMk21RNUfUTX3yMW9OQa4xbY/cROn9Ql13L4w71SuR9RJxHlrG2RpUzvJ4PAZJwwi1p85wdGgk5peA8Vkn84VKuCskn9aspVaY/44dQAi/nh0qRfgh2kjwnORaO7UtT6kD+kYxz8ao5Uk1FF3NKur7g+4Fx0Zle13S/9Mp4dcIlz4S/q+spFZfnXFWJkj0FWLxgAVI7d8F1jz2JkIhIVTWhtJu2vQuLCtU2O+uXut4k3txAh5Jdf1vVfHZ0Lb0DN23QCV6jpJvEm/XBI+uJExSWl+paXFxJe/WUfPvXAcMTh3onLI4NnET8voXTcM+ir/Rds7A4EcG2+tNThmFpwS5LxE9gWCJu0YAGIj71fcz4z2PA3j1wR4QLiatDtBCr6Dgh5PFeU2hhQtLDo6N1ASDJapiEUzN5YWGqXkBLHbSU4nwJlbjLC00zg1Q5Ifll83NKnPmbYeiHfvnbqJc4/TlBXXUl3/THeEnemRbjF0frIBKRV2IucRpo0xdHUsOyG1BFQvNwKEm8DyTQgTopxmvINe+zczPSb1o9IVhvPKfOPI/0zXND4g8GSrX5z3SuLA/JuCHe7Dw1Rn46Zz1I3Wid+iY6hMlXQ0qShyBx/KzJ5854aDWmRiYjlNJWC+nmOgFag8njQl0hkVUlxQiuqUKdEJLQwcNx7k9vlrJ4VLe5pqZayaUh3plZWWrRwwl9DoKWTi5ZjkBlMF8BVNVEJia0ZU8puNGDp6SbW8lnZWWq+pcTraVuWgv0Gcs/qu/9e9lMPCrucFVT+CRDJYx9ohbHA1d1G4CZOzfh863rdOw5FCwRP/6wRNyiAealmfn+e1j54rPonZKExLQ07Nq2DXsL8rGjpBTFQsio+qBSXCERwaFuBLlDERMcpBY2QuPiECEEPSrcawub5vFU1UDOSdwpaea5S95aSoSVcPviItnQl13yQGLN82C5R6kxyT31y/2hL7mEU1UUIdwk20rI5R7Lc7DmTcJdL0STadN8IvOheXG5hYRLvpoApqOmBCWcSYnXeM7up4HKa9TeCYWZWAQ6HgxaJjpfmVhfLN8+ws7fPh17uUdCTwm8R8pDqTVNGnJiUl9ZoV8dGMwjdUBb7qo/Lq5cyDXtm7M+SuQ6dcDrK8pRJWRSJzwSd11VhaZFqX8kRfByjJHnnC9+1nfqiQmTL0GaT4+ZW8n763kzz3T6vMW1VJgy+IMTFkq7ScD5RYATEup988sAVYe4wDK7TRsl39ygyQkzIWzpddPawTUtSwp2YHFhnn7Bahroz6O7D+6pKteJtIXFsQJbGwUxWVFxeHP9Ut0F1hLxExOWiFs0wLw0s4SIL3/hGfRKTkSmkCnq+NIGNUlztRBeSkOLy8tQzc/rciyq8NoEp/S3oFZefYmHhJBHSlRd4WEStwfusFAEhUfAExyCSOkgYuS3R0iwWwg8N7HhgkISdMj9IErW5VRNE3IBqMDZEVC6y99Oom9Ak4i0C+4hyafuhDOgDyQ5poMwxJC/SDYPGxIX1XAYp/dlIkEL1nrTDYJ4RerC6L5z8SfVYEj2SZJ55AY93k2K9r2OnCQwLgNvfdZp/fM67WnT8gnr2IBmImlaUsss3jg9qJTnw7IVMawQQwmIqsoqhMixTiZWDKPqOULWuViTgU2VkWxHSGCm6A5xIVqeJbPI6qYVGF6nFJ4d9x5pGwmDh+Pahx9TE4dOsG21dHLJZxMo/ywbCbdxlHbT/GJRUZHqgFOdi18DcnM7IC0t1RdqH+xgdXJh494C3LXoK+yuLG3R74NFy0CR9OubS/eiTPoiEupDwRLx4w9LxC0aEJCIZ2aioqzswAGDzcZxjWfalMR56ryLObn5ThElqULUKoWwM/4SIX1Uz6ihFFaIYYnco01sZXTyh5ImhuNPphni5qY7XqJsFCp43RURrgSQCJNzEl+dAMi/kPBIJeLR4i9MnNeXF8wn1S6ChazTTjbBfFRLfrmBzdFDkC5qrZKOqTEwX4VCon1FR11FmZaV4ISkWsiybsEvZWOZvbuE+gg/bY3znP98j4HS7toKIdoOmI43Sg48Z/1ogvI7VuLl7pycDPEi7wfqMundmys5yonRg3eCz4dEPH7QMFzz0KOqwsS2dEC7aWFguUwZzDnbc5UMblxcSaJdVFSsW+zv3LlDJeEk3vwa0EGId0Zmhu566oQdnFoH2B74LJvSxumXjpi3bSOumv4mtpeXNIkYWVgcCWg5JdzlavJaBkvEjz8sEbdoQGNEvFKIeAPbE+igIiRzP8g1NfPXWHNiGDn4v8ym+anKhDg9SjxKqoXk8H4dt8EXcl9sQss1dhRFQlS9sXpBnVuSJAWly/559KFS4i0LJPkWgt4YmvKaMHdeb4f2a0CfGk5/7YOSZDnyuoc67i4hyz5P/BROjRD+JIUOld/6TPQuH5X3NztPoz9OSTr19ml20PgzR4MaCRNIC59Vash3oLwSTM9JxKMSvBY+mkJSTmSY584Fu5xUkXhT13urEG/u9llUWKhfZLjAMjc3Fzk5OWoFxh92QLLghJ8qaAvyt+GHn7+Ggsoyu9DT4oSDJeLHH5aIWzSgqUScYLM5HDKuFlQkfn8wDm6c04BGmmNDM5UjF2MaBGy+vmuqB22IeQMk30r2Jc2GIglxlbzVG73wAHHqLpWB0vKBdxgdB1sdcA9CQDUWiYtHKoLQZkiDLrkDTK6WKiO+3054O0vfDwF/k2wzXZJvWkXhkdf8YfLKHToZtyOaRsG0jOWXpkjEWyoRN+8AnyFJN12lTNp2bNuuxDtvd55eI9km6e7YsRMSkxJVrYpgefXdEGcHIAsnLBG3aAmwRPz4w9aQRfMgL2ogBLsO3N2PfqkbHYiUUdc7JDQMIdyR06dP7Q8lyZR20zlIOEEdZ0rMna6GOusyeaijfyHXTlcnZLG2vFx3j2yIk7rRck9zx05IiBbTcTpNSwZSLoQM5Kp8jgSYpJok92CuTPxRJYcLPXnOo7+r5GJSiYudItVwnI7E2IALLelo75sEUMm37xio82T6DE79b6ruHKwTYDrG8gv/mvPWANYVBwqCR65zoLoJJd6bNm3CzJkz8dZbb+H1117D/AXz1aLJ2LHjcOWVV+Liiy/GkCFDkJqaoiSc4RkfwXZuBx8LCwsLi6bAjhYWhw2V+JHsOSHXKA2nWok/KJkmWTVExQlKwxkXJeOBVEm8kupA8mIvAhFNmlSk5CkQSPZ5PxC0XJIH6qUHAlU7GpPwMkZOI+i4iPFg4F2uXj/UCnZKnw8ekyHpUkesfzmSjDOPmle5z6M/qMrCe1RFqRJHKsprgaZBVIExViH4t+kWIk5MGPJtjtTj5wLLXbt24du5czFlyhQ8//zz+Oqrr/T6wIGDcNVVV+GKK67AqFEjkZPTRnXACdMWeKR6iiXfFhYWFhaHCztyWBw2SDwOkF6TjLjcASXiJLY0PxiIxNK/IeiBwpJQh4SGIph60gEQ7BYK3Ei8gcg4F5IyveAAZJv5a4ykEyRtjUn2CapsmOnJwQg5S0vyTNAHzQwG8knp86Hkz0YPnEdKZikFZ/n0KPcDqaYEkogfTD+8JUvEDeEmeNSvGvIcadd7+fIV+OCDD/Dcc8/h7bffVr3vDrm5uOiii3DppZdi4sSJ6NKls24lT5JNZ56989zCwsLCwqK5sETconnwJyEkco1IxAmv3eoDSZxa/vDFFSgsJeK0FhJIKq6qKDW1mrY/qAMeSCc9iBtpBAcFlrKzDHKdLhA4mWisHASJt5mekNQ2RlpZWtXflvzRR2Nb2zdVIk5nSDjr0kjFzdb0/ggkEScpbw0ScUO2+YycrqysHOvWr8enn36KF154Af/73/+waNFCtXF+xhlnqNT7nHPOQb9+/ZCcnKxSb6eU2xJvCwsLC4tjAUvELZoHITf7gUSuEYk40Zgk2SkR190w/dAgEQ8gwQ5xu9QxbX80pp6iEvH6wBJxLYNcp/OXwDemWuOEUyLOlBsjrYyFEnGqplAa3lisTZWI0zl1xNUyiu8YCK1NIm5UTQi2MTqWfceOnZj+9XS8/PLLePHFFzDjm2/UD3W7J19yCc4//3wMHjwYbdq0Uak3t953frkxJNzCwsLCwuJYwY40FocNkp7D0hH3SZkDEVmnRLwxHfFGJeLc5bM5EnFJT62m+INl8OXVPz3nRKKxSQWJt5EqM+WDScRVgi35M1veHxibl2QHum5A8k1Cr+Vh3hkXpeDyW0m5z58/AknEndJ8J05EibhRNTFg+ekKCwuxePFi1fN+5umn8f7772F3/m506dpVpd0k3qNGjULnzp2REB+PiIgItfHtlHpbWFhYWFgcT9iRx+KwocTHX+1BrlG6HUjHmtcogWY4fwSTGEtclIY3JhGndDpgvG7G24hEnHE2RqzEOzcAOkAqzjJQGs60/Ei0UXcg1N65331Cybf3tFGJOEORAPM+1VP4m2T6wNgkPvEX6LoBiaMxm0fQv8YlxwZSHgBMn/E6JeKU5h84bWGc+yYU/PtdScSd5NsQZm6es3LlSnz04Yd45pln8Nprr+lv2vQ+9dRTMWnSJEyYMAG9evZEWlqabi1P8u1iW2O5G2sfFhYWFhYWxwl2JLJoHvxJJsldbU1AqTZJj0qoA5A4tZhC8sijv5RdoPcooQ4Qbz13lwwgEadfStoDScSNagrJ/wFxsgySFvPhT9KpL2wmEoHKQfBlMi+UkvIA/hiD2Rqe90mGA8cmccm9A6n8PvAe80ICTlLP/JGYm6NZEOoPps+wJORUU6EvXgvUGchlzYeeizseEnEtk1/eDWnevn07pk2bhpdeegmvv/46Fi5YoPf69++vut4k3tTzbtu2LZKSkhAXF6dSb/PszNHC4ruAtuvGXngLixMA7CI5nnh7fIvjAbuhj0UDOEiQ1DR3Qx8Pd6aU1hRw0SXJFUmuf3Pjdd3QR+JnnHq+P5RQ+8I74d2shyoxQuAd8XrzVoOgYOpMC5F3kjpNg7t4HkjgCePXTBAMuEiTUnZzDCQVd04jSI5JYANufiOO1ymvZhgeSYr9QaLOOBiXFrURUPpNv8wPiabzGAgk384JgJGQE/4hmC6v8ekzzzz6+yGYVnM39GFYk1d/KXVBwR5s2LgBW7dsUfvejC8+Ph6pqanquKiSUm7qeLv9v3BYWHyHcH5F41cYgr/m796Kyz55CXnlpfKb73agN8rC4viD4413kykP+iZm4JKu/fDHOZ94+3Kvl0bB+3ZDn+bBEnGLBjSZiEuTIRHlsQF6jeSWpw7iKyB55f2AEmoHmQ9EjpWk+Qi4f3i1mCIIFK9OBhiWPxxxKsH25e8A6b34M1Jy/ziZD3ZGXLRpfvvDXGFIIw0/0JcXHHxJwg1hDzQY8wprnXEFIuIMY/JlLKZQYk3/PDYmEedVdo0k4Dxn1JSImzw5YZKVWw0TA1M2J5iPwyHipv7871PdZIuQbm6os2fPHr0WHR2t1k0Sk5IQJYSbv+mMPW8nTH1YWJxoqKqqwpat21DsCsYHu9ehjF/tGu0hAoMkie+ghcWxgmlfyeGRiA+LwG0zP/D25Xq1cfC+JeLNgyXiFg04LIk4Ca0/WdXf+8isgfHH6/7Njfc89T76J/cY737gNYYRd6BE3Buvl+jraQMYRlVlGNYJXmfeHYTcCWeZnOk5JeKNvTLMOWuJjmTVn9QaMLSSWu/PgNJwwhBfEuRARNzkg3+ViMuRHebByD3B9Ix6DJ2R2pvfTjRPIv5vhMfFwe1yKaGmJJvbwZM8a4cuzoA2valuYoh3tZAVtrUo8ZuclCwEPF7DcUt5XtsX0guma4m3xYkEtklOKDdu3Iht27bpcfPmzdi6dSvKysvxhz//Gck5Wd6XqokgDSqtrMDs7Rvx9e4tCA+wZsbC4mjA9Pc85pWXYPrOTU2a/NGHJeLNgyXiFg04LCIuzWY/ibL8Vim5vL5OMmugetv+JNsH+ieZIiH3J9saL9Nhen7xeom9N7w/SLTrSfDpYT9IOYSAqw55I/kxEwnnfVM3BzNjaK7ySNIa2JcXJNm8T0fCTGJsrhkwGVY7rx9MNYXhnRJxtaQi1xvTE2epqA7DUrIs5jd9+vs2yTIv3okBj76LDjAeQ8R/8MAjiEtJUcn2H/7wBzUL+Ktf/QodO3bUz/UF+flKUHbl5SlhYd1GREQiKSlR1U4o6aZud1xcPFyu/RecMh1LvC1OZLCNr1q1CrfddquQ7206waRFn0p5Py6++GL885//VFv1zoXWBwXfN2nzW0v24pHF3+DFdYsQ7Q6T9/DAd9vC4miBzY5mYGXklvHk0H0ufVgi3jxYIm7RgCMi4gKVbEtr8up87w+SZaOi4g8lvBKWfhpItUmP6fB6gPTq6+iXRN1BmE0aZIy+cAYqBWfeGLcwW29+zQRiHzQ/fuXl4Nrg1+8ewRh4VQmu+DNS5v3gH6fPD/0alRKDOmXe4uQ6L++7cyB4r46TGKkPpsB4lJRTgm/q0wEzSTBHzbf8MdJvZz6dEwBvvPtfM2A9GyJ+3SOPYcuuPNxzzz1qwzsjIx1/+tOfkZPTFvn5u1UK7na5ERnlVTOhNROqnnBxJUm7Pxi3Jd8WLQVsr3l5u/H444/hb3//O6rkvWD7JfnmAuNhw4apRSe26Ka0a8ZHKrOprAj/WjgNT6/8FolhEahi/2VhcYzAlnk4qlD0ZYl48xDyB4qsLCwEhvBsXbMauxcvRFpkhKoEqF6082UUf8JMfT8MvIRZmRzvO2D0yRm/P0iMa4TZVcsLXysvbB3Jozh6Da6qVAk5w6spQr/whrQ3xOup181/QkLdPqK9j4Qy93WSRg0XWgaLC3Gh3u1GnRBCc+5xuYRICyEOD0eQn2Se5DwkNAwucd7FqExz/w6Kv5gXplFLf4xX4qx3u8S33K0oR31lFT2pqUZVH2EYnzNQwhsmeZCyeKqrveVrpDPkPUotSNzroqIRmpYOV3QMgqVeq8vLvQO9IywnM9USb53kDQ7HvHrE1emQr7n1wpEs88j5jTOvTlRI3BFtc1GTlIwHHn4Yr7zyCioqKtRlZ2cjNTVFJd7p6elo166d2vPOzc1Vc4NsZ5w4ECyTk6A0haxYWJwoYHvlJJP7DSxYsAA7tm9Xyz1nnXUWfviDHyA8IqLBulFTnImzoq4G83ZvF7cVUa5QvUaiZJ11x8qZ9tcU0GeVjEVZUbEYnZWLnJiEA/pyi8CwEnGLBjRZIi5NRqXUDqJLeuapk2t63J+kGyLO+Hk0IAmvC49AWPdeiMhpp8SU9r35RpMI1xYVoGLHFtRsEJe38wA742q+UOJW3W3xH5SUgtTRYxAhRLBwxXIUzp2J+tJS1RV3CUGMHTQM4XKvYbEm8yThueV9cLBLXoZ6uOR3jRxrFs7D9m+maX1Qkh/esQsyRo2FKzISm6d9geIF8xBcU61pGzDWGvEf1W8gkoeOgFsIP+PWe5K/qt07UbR+BUoXLEVdaYmQ7TBU71eHPkgesi+4ELHtO6Fqz25s+ehDlG7ZcoDtduaf5Q5LSUXyqHFI6NoNkVI+hq8r2IUdyxZgy+z5QMFurffqmlokSr4yBgxEWGSU5t08Ve0wJe/Fe3dh86cfo2jlap3UGFAKfiiJeIFMNPa0T8cGVzKmfvypXjO45pprVD2lW7duviv7YPzZDtuipcLZhsukv5wzZw527tyJaplIP/jgg6qq8tZbb2HMmDE64TwcKaG+m3LcXl6CBxdPx6NLZyIhLMJ708LiBAHbqJWINw9WIm7RAO3wZSA5pESc53T7kUj5bYiXOfpgNtbZn7jLbxLZ5DSkTjwT6cNHCRnPRlhmCiLaZCGifTtEde+B6C5dEJmWCaGWqM3braonJj4e+aKHuEJQW16OsOGD0ObCy5DYqw+CMrJQKmS8Nl/CyGAY0qETks88A8kD+yEqV+IWF9elK5JP6Yu4rl0RnpOBqI65iOjcQdLPRk1RMfZ8O7eBiKddfgXaXXwF4k/pg6oIN/bMnQNPScl+Gw2xnuplYpH9vfPR9YqrEdOxM9xpGYhs2x4xklbKsKFI6NkLoVHxKF69Ep7KCnkD998BM1jSimzTFj1/9nPkjJ2IlIGDkL9+HQrXrVWC7SSrzFdEVgY6X3a5pPcDpPfsIROJekQJGY/r1RvpgwagsrYa+fPmq5y7oroGHa+6Bv0uuxIZp/RCrEx+Ert2QFLXjohv31GOnRGTHIf8hYuxd926/Yg480jH5Pd/uvtQLuUvjwlFu/7D0bVHT7TNyVFpt0vKyCN3taTJQZ2QCUxZeHSWy8KiJcE54czLy8OMGTOUhHfv3h3jxo1FkryPNK957bXXqqnN5rR1hiiR/nL2rs2Ym7cVES5rqtPixALbqJWINw+WiFs0oMlE3MBJrCWsSpqVse1P1RpTTaFEPCw+EQlCGoPiYpA/dzryv/oUpauWoYxEdecuGbhiEdGrpxDzXNSVlaBqy9b9X2yJklJ4SpbTLrwAMVlt4BHy6ZZ4yzdtQvmG9ZIBIe9yvyp/B0pWLcXehXNRtHAe6svKEJvbBaXbt2LN68+j6NtZ2Dt/LvYumIv8BYvgKfAR/9g45P7gWiAsRMsRlpyIkrlzUSMTAyPxJrgVf3B4ODKGjUK8ENFtM77C2uefRcHc2RLnt6gt3ouELn2Q3LcvSvfsRMniJfr52vn9oFbiSD77TGSPmoDa2gq4QyNQUViM/JXLUVdUJLzdN6mRuq53hyHztNPQ67rrUVuQjxXPPYUVb7yGLTO/Qd7q1XCFR0uEFdjxzUxQB7xGSHru+FORJpObLUsXYtkrL2HT159h25zp2Dx9BrbO/gY7Z0gdLF+NmspylZg7HycPB1NNqZTn3Kb7QPziH3fjVMnX0KFDMWjQIPTu3Vs32KE0nKopfH62c7ZoLWBbrpE+cu3atZg3b55KwYcPH67tnfbDqYLFDaeoI97cds9QlohbnMhgG7VEvHmwRNyiAU0m4mRmJOGGoRG++/zrbxZQJeG87/QvIBF3xcUhpscpqI90YffnH6Hsoy9Qu3krqlatRvmyZSjfuA6e8FDEd+uF0Ow2KJW8kXQ6peK11TXwCAFv970LUZOfhz1rVyI6KRVVnhqUrF4OFJfCU1GBqjVrUb5E4lyyHGXLVyJEOoyEEaNRvG4d1jz0EKpmz0HF0uWokHv1u/PgDgvThYXRA4Yge+JZ2DV/JqoKCxEnnUzl5i0oWb8a9VVVDXnRxahCxJMHDUFsty7Y8clUbH3ycVSuWYWSJYuwR8oTkpiEVCGmiApF3ocfoU7qxVlbteER6HTVlYjNzsGGT99HeHQ8olPTsWfhfFRu3SzkmPrmFI7XITQ1De1P/x6SO3bB6jdewYL770fJtq3YK5OPvcuWYOeKZSheuQZBpcX6bGlZJXvMeKR26YoVM2dhxX//g/xvZiB/0TLkL1mCgkXiVq1CTVUlQqTshPORMZ/6GL0/DwB1xMMys9Hn9DMRI4Sbiy9JwPv06aNEhCTcwqK1gaooCxcuxPLly7WNjx07tuHLD/tTqqLQCtCREBKGtETc4kQG26gl4s2Dl0FYWBwm/KXbZGy0QhLINreqb/C+fxg/UBXCHR0NV1Q0QiIj4XGFoHTtWux++y3sXbsKkckZiBo5Fh6/F5uEPq5PL4TFxqJ4/kIUfPo5qvJ2I6Z7V4RlZ6Oei04kDy6J2y0DpVsmF0HRMaiL9NqldrndiJCwbkkzlMeoKLiEUHMCwbynCHkNDgtHwQefYvcX01TvPGrQQHjiE7zS/kYQHOpGiMRH55I4g4qLUTb/W0kzSEh+FDwk+r46oX58sKSX2K490jr0RunWLdj85jsySViLSLmW1LGTkOPwBnOErEsuAIuUyVJ9VTWqSkqV1MfHxeqgHxkRjqBtW1DFiYwvjBNUuQlxuxAZE42oePEv4cLFsfwh3KHSly9WtaluHpj3Q8OjEwWns7BoLXD2Y/n5+Zg5cyZWrFih5jlPO+00FV5Y3VgLC4umwvYUFocPYWb+Cwf1mi5O9LvuA/0fdGYs97jYs666ymeVRBqnhHEJoazKL0DB19MBIeoJp/SBK5ELLr2DIUlmiJDmpH59EBQagiIhnrWrVqBq93ZEJ2Yiql1XBEVF7lOj0XDizFHB3+bUowsraV2ECyFDJa343n1QWlSE0lXLUbLgW1QWFSKpd2/E5ObCw230GXeAsrE89SyPumoECcF1Z2bK9TqUbd+u8ZsXUGtN0kzu3w+hQo4LZs1B8abNyKdEv7wEyb37IzQzW6XuSoglvRpaJBFyz8kF9cGTe3RFtZSD8SpIBBohA6w/koUayZdK9YXM18nRf6Etq8kszuShsU2C/GEkgcZZWLQWsG1T/WTD+g346quvdEMqrn8YPHiwz4d3omthYWHRFNjewuLoQAgaSZw/kTNQcttEErcfZEBzeeoRtG0zaqoqEBEVhfq4eCGb3h0ueYxqk4PENl1QlrcTdVs3oXpvAXavWozakkIkdOmEsKTEAzcKOhhkoCVpZknC+g1EVEwsds6egUohvdUb16Nw/TqEhscgrntvICJSie8BNFzyTcl6ZHIqIpNSEJWRgfjBg5Ay4XQUbdmCHe9/gBAZzGk/nNCNE6KikTRiKILCXCheuRz1FeXInzsPZVu2IqpXb0TldlASQDJMdZjqPTJBWbQAlTJRyRw6Cn1//StkDB2BIJk8UIVFVYoaQWRMFBLbtkVkVhuEpWciLEMmLanpcIXtv208s2fU4Hkw+W0KmvW8TxL4142tq5aD8vJyLFu2DNO+nqa7x5577rkqDTeLkC0sTkZ4ezDbjzUHlohbNA/+xIHkVQalAyTlRwjVv5a4a0pLUFvOxYohiIyL00WUBFVhIoWkUpVl77xFqCkpZSiULV6Jqh15cq87Qtu1BQ0rHpDnRqCSe/EbEh6B+OGjlFRXzpkB2hCplEF4z+yZqC7IR9KgwUJksw6Ml2HhQtrgYej1y1vR4+Zb0PO236Pn7bcjRcj0lnmzkD/7G2G1IWoSkC8hSXlMTlsk5XRD8ZaN2L12FUKkjEVCyAu3bEBcZibSevSCSyYF3LzHxXqR+zumf4XVTz+Bqvw9aDNkHIb97R4M/+X/CTEfBldCkmQlcJlz+/XAiF/8CmPv/AvG3P4njL3jzxj2f79Fas9eDXVLMLiRgvMv82tx5NA25oAl4icunM+mWCbjs2bNwty5c9G1a1ecIyScqmDHUxWFLaepm6xYWBwPUGWRQhr+szh8WCJucdjgwHSA5JvXarn5zj4Stx+aOXBQ7cN/R03CkOXgyChEDeiH+mAPipcsQG2xkPXwcGDTBlRu34yI6GREtusKT0Qk6muqD50PuU+9cJLRqKxsZPQ8BeV796Jy9UrdJCdU4i5euhiVu3chtnNHxOXmIjg0tEEaxthZPzyGJ2Ugpm9/xPTpj+iO3eCudaO2phKJXXMRc+qZklSw0HXo9vaQNNNHjFIp+rYvv0ZpfgFCgoNQvmcPdi2dh5riAsR16YIIIf5aJxKOk5JqIQar33od8//xB2z4+kPUV1WizRlnYvhd92PoL36NqGyZKJgyO7heaGQKIjKyEdWuPSLatlM9dHf7DoAQfdarAaXhZtDn38ORiFsEBrc637p1K1avXo0lSxZjzZo12LVrF6qqqnw+LE401NbIpHf7Dnz44YfYvHkzJkyY8J2oopg3k/tycot765zO43OB7gV2FDIEum7d4Tnv2CDvgJzwGQTaa8KicVirKRYNUAIpROtQVlOUBHPgcX6KlWuUXtP5Lw7UeP39C7xWU+LVakpQXBRKli1GzYZNCOZiQR+YFl2IEMT4kaPkZXejYM5M1OTt0nSCczsi5/RzULh7I/a+9y7qyysACV9VWoq6zATEduqMcFcoytesQlVenpJmmS2AXUdEx85IGTwMlRJX3pefI7i8TCX6zC8XUcaOPxXpA4dg54yvsHv6NClDCOqk6NX5+Yjq0wOJXXqiYs9e7Fm2BPWlJZpfT1i4xhnbozs2f/gOlvzjr9j+6UfY9uFU7Jz1DWrDo5AzcAQy+/XHnpUrULlxA2qlfMFSz91vuhmhSalY+MKzqNy1U3fWrJQeLVTmPKndT0FMt47Yu2o5ilasatC71t05ZdKwd+NG7PxmNnZtWicsuxYJ6e2Q2KMHwnMz5Pos1QOvkfrKHuu1mjJv6nuYfvutWP7aS1g99V2snPImVr79Boo3rGtQRSHYocoUS2pr3y6gjYFWU8Kz2qDfmWch1GcvWduKhYLtKn93Pj755BPcdddd+Pe/H8V//vMkPvroI92BkYtvs2SixePhwLy3h0JT/QXCwcLyHi2HFBQUyKvn1rbZmp479cHXrV2HTz/9FHGxcZg4caJudHY8wdosr63Bsr15WF+8B7HSz4QFuxHhDkWE9G8nu4sU567zePdRkLqJDA0L6M/fRbukDgNct+7wXFiIS44uHWuTQkLRLyEdHRNSvLygFfUFxwp2Z02LBpjPq4fcWVPAZrOfpFp+1/kWWfLcCepQazPzu07pbVibtsi86HIEtUnFtldeQNnn0xAiJM7ASMSjuvVEzi9+I4S3GMv+/md4tm6We3VIvOgytD/nfJQV7Ubp7LmoFubIrdpd5eUIaZeOpF79NZ4NTzyCgg8/VMsjjI85TTj9bCG/v0Lh0sVY8offISR/lxJ1plknZKjzXX9DWpf+2LZiNuoXrUZIsIvMF/UVFYjo30eIbh/sWboMK+/5O6pWLdNt5uujY9D1p79AzgUXYPXTj2PN3Xd7yb+AdRCanokOt92JdkOHY/XHH2D9n38PSP3EDxqKgXfdhxoZQLZ/+D6qC/cimgtVq2sQFBGJrBGjEJ3dBsufewpL/vMoaoX4u6ScBqxZxl8lcdVJHN0nX4a+P/6ZVH49Pr/zd9g97XNUi58Bv7kdPc4+F3PfewfL7vsn6osKhfDvs5LSGEjIKemgRNxYenGCae+prJRyDMM1Dz2KqIRE7YBtJ+ytG75bu3fvxr333ounn34a0dHRGNC/PyKjZAJaUqI6x5SI/+9//1Mb1AbmSwvfS+e5gYmb5Ne8v4Tz3IDWa8wEzoSjH/OMAsVPONMwMGEZJ8/feOMNPPPMM7jjjjvUVCUJuXn+9MOjiZfx0TX2+0RChbzrxioKbeLTFCdtgxPHu21XSP+6Xfq/vdXl8su+V05wU7d18xdj17Yd6Dx0IBIT4rVNHQxUa9y4bj3SMjMQERmpwgaLI0OwPIfVs+chqsaDkaNGWpO1TYQl4hYNMINrk4i4+A2oniIHVQHxh9xrIOQ+BCLi5V98jWAScZ8/LrKsDw5B0qmno83ky7F31WJs/uddQl5rESSdZ7vbfovYnI7w+Fv80OAyuIeHi4vA5vffwdYXngb2Fqhku1EizkWaQl7dPU9Bn7/8E6FChuvLZOCT8jrBQThEyFS1dN7r7v0bdr3zluqPB8UloMtPf65EfM1zT2Ltgw/uI+IyAQhyuZF1wWT0+vkt2LV8Hub+5CcIqahEx5//HzpeeLGWu7ayylt+U+V8LkKuaVpw59xZWPDw/ShYMA9uThrkNuuUiz2ZJ7eQpRqpm5rYaIx54B5kdxmIRU88im//85jUQxgG3nrHfkTcVVyIeikzP9HuezL74JSIk4AzS4H8MQ+WiB8Ibe/iioVs//vf/8Y999yDM884A3fc+QdkZ2fp+0Y/NIM3ZcoUjB83Dl26dNH3jddJzqnKQnv2JMLcmZESc9Yr31feJ9HlNS4ipD8SRfoL9bU7ImBc8l6EhoU25IH3eOTvSnk3PfLwuSMkSTUJKSXDhsyHy3tFx7goDX/sscfwr3/9C0899TSGDxuGcHlvmCfGxc1uGJ5H5pv5Yv4MsWc5mLZJn/k36X4XYH6Yj1J5ZlM/+AClpaU49dRT0a5dO5+P7w7MV6D372QHvwzOX7AA27dtw/ARI5QAsq4ah0cmwKW47rprccEFF+Kss85CVFSkhPHdtmgW+BxmzZ6NPQUFGDhwoO6obHFonHgiCIsTHjoYBCDhlIgb04P+oNm9g3aMco9qISSctPjB30r2xYULYYkfOwp1QjQK5sxHnRBVEk906oKo1GwUbd+Atff8FavvvBWr/3CbujV/vA3Lf/VTrH/reVSU7kF0bgeEZ2Qe0noK81gfHITYXr2VCGya8ykW3nwDFv30Oiz+2fUNbsGPfoAdX30Ct4sqLl1Qy0WU1JUj+fEvpsTJF80tnZREinrqYRNSBpeQG25qlDh0OJW+sVRI9lc/uw6f3/gDfP6jH8pR3GWTMOeO36Bg+VIk9OyO+K6dNc56ia82KFiPtN7AreS9YN0BtWUkWPwpf5h2ALC8bnFUhmBo/2dENRWjF86/Vkf88KATEXFbt2zBk08+iXZt2+If//gH2rdv51XjEj8kqxkZGboFeqfO8mx9dcxt0p977jlceumlGCrk9gKZ3L344osoLCzS+yTvlK7feeed+PSTT3Hjj2/EqNGjcfXVV+O9997bT+e8cO9eDXvZZZepqT3G9fQzT6tuOlFcXIJnn30W9wqZfvmVl3HV969SP0Yn+u6778akSZM0/osvvlgnFSTgJOd/+9vf8PLLL+lCxn/KJPmHP/wBnn/+eezZs0fJ9xdffIGbbrpJN7o57fTT8ec//xlLly7VtkZH838PPPAATpcJyugxY3DDDTfogkgS4uMNpsnJxvr16/GclCEqKgrnnz/phCDhBqZftM7rzF4OPK+trfOONX5+nI7+a6prMGPGDEz7ahqekvdyr7TV+rrA/q1rmnM+h+/i3W3JsETc4rChks4G0ueDXAtxuREcYMc3tZct/g8qHSWhZAdZUYHa6kp9kevdoQju2w8pV12B6ORMFG9ag8rZ0yUuEhgPwnv0Vglz0eIVKFyxHGVbNqN000aUbFiP4o0bULJpA/Knz0L5+s2I6ZiL2C6dlehLV+FNMwBIDEIiIpE2ZoRKovd++BXyJe6ijev3c7tXrkDBl1+iZvtOxAzug/AOOdIBOeOVspJocNdPKT+3v6+RCUYkt3s/fQK4CU/RohXqL77fAMSlpGD3hiXYMO0zFK5aiVLJf6mkUyplKRTCtWbObGyTfIRGxCKj2ymITEpGdPsOaD/pIkR07qa663USV6UMJpVyzDmlN5K6dtfJ0c6NGxEZHiZX99U/vwpQUl8l/sslj3TV4urEOTcpMiopBP+ac4tDg22J7biishILFy8WAl2oRJQ7jmo7EwLOJ8JzSpb1vfK9I2Vl5apH/tvf/laIYS3OOutM9XP77bfj3nvv0XPqZJMokxRfe921ate6R/fu+FLa5c0334yVK1cqqSQh//Nf/oI//vGPSvpPlzxUS5u89bbbVJK9V0j6nj0FmD59Ou6SScIdt9+hC0kpzdqxYwdeeuklJelt2rTBqRMmaH4p/eZ1xk9pd0lpmZaVajZ5u3erFJllIfn/1a9+paodnAC0a5ujJJ1Lk5hGUVERXnjhBTz44INom5ODMUL0Seg//vhjbx8g7niC5fnmm290IjN8+AiVhCc0Qc3heIF1yi8J1u1zbNOmbry9lFcNKpBfOn5x4Tvx5H/+o+3va2n333wzQ65VaxwHC2td427/52BxOLCLNS0awMGGL9Eht7g3cA6SEpakj7Nhf/AFJbnzH8y4WDOEizW794Q7LRu10REI7tIGoX16ImrwQKRPPAuZo09FRFyikOFF2PLSy6gTYkAiHpaYhDaXXAF3RAS2THkTNdu2IEii102FuJMmnXQO1ZVVQpI7IaFrD1QW7EHhyuXwlBTDIwQ+smMXpA0eigou1vzqcwSVlTKzCOvcHbkXXIriPXuw+4WnESydNstAx/JxUsHzSok7oV9/JHbtjb3rN6Jw6RLpkIJ1i/vEnn3gcYcjPLstEocMR8KwkUg++3x0ljxHJ6VIeRZi9X336GY/qZdehZQuXbHtk09QMv1r0PpMULAMuFJH7NpI2OrLy+FOTkFitx4Ij47BdkkLCUkYcMttaD9utEwyOiAmJRNpfQeg0/fOQ9errkFEZBTWfvkF1rz2PwRJGaokv5mjxyKtSzcExcYjqXMXtBk1Bm3GnaouZ/xExPYfiPKSUlTu3K5l5GPn50Y+OTpKxBujRnax5oFgmy8vK1PCTJN3lCr369dP64WE+fnnn1OJ8VdffYklS5YiOztbzeG99967ePzxx3HllVeqNPrUCadi3NixKgWf++23+tmXqiGff/65SpT5iZ1klsSRn+UZZ4cOHdCzZ08skkkApfCXXHKJEvszzzwTl116KZYuWYI5c+ao3jO3ZCf5nT9/PiZdcIEQ9McxefJkdBdizzydd955uOKKKzB+/HgMGzYM77wzBdu2bVPp+Gghz3zK8+bNw3333YdbbrlF/ZCg//3vf9f8/OlPf9Lw5513vrard999F8nJycjNzVWyTrzyyisaP9MaOnSoqqfQ77GGIfvML3Xd8/LyGmyDU43G+x5YcnGiwoxbnDSSWOfktNW2Ewh81pzEzpgxUyaT9+qEkdeohjR23FiZdCXYZ91MNPCHrVtVTY79Br8oWRwaViJucXQgL6BXIr5vAWED9J4rQAcXhIrqalRQV9ztRnrHHmg/7Ay0H3oGsvqNRmhKOko2r8H2/72I/KeFEG/fqlvP19d7ENq2PcK50G3XZtSuW41gJeG+5izpkPhTWu4qK0Hh8iUo2rEdoULIaaKP5Jdgx1En4dgRM28q5Zd8pgm5rq+pxd5ZM1C5d4/3ns8RlJoxjdptW5G/cj6qK4qRIHFHpqcrUedulXVyTOrcFZ0uuQwdL7oEnS64GG2HD1db6Otffw1Lb/+9Wl8Jpo78gIHqf+fMmap+o2lpSl7wnMS8YvlStf4SKmWI73kKKpcswubXnoMnxIOOE87FKT/6KXpdewPan/k9LduKZ5/Esvv/iWDq+Mtv5q2ouETVCbKys9Bt3AR0P/Ps/Vzvs89ESm6O1N+BdJtE3ErEDx98Fhz8CUqOCF5btWoVpkx5B68L+Xviif+oxHrd+vV6n5/NN27coKSQkuqpU6eqDmypPMsd0pZXrJAJpcRB8khLKz/+8U+U2FLaPnToMCWPlJgz3U+EYFNNhDrYXHhIaS8nAZQKUu2ERN4l7x+fLEn5ZCHXHTrk6iQ8MTERnTt3VkJfXl6BzZs2q8Q6JiZW1TcqJQ5OHDgpYLt1u0M1DIkQSf3GjRs1n5SIM11OSKhyQ8LEa7GxsZp/+nv4oYewQ/LC8HTmfTuW4LvP/DF9LjZlmc855xzNk3lWFq0HfC/4ZYpflfj1xrSxaV9/jc8++0yJOdsDnYXF8YJdrGnRAA5K7KgOtVhTOyofsWiAXKN+uDamAE1KF2pK/PuB8chgF5aUgjAZkPUSJec0Lyh+ayTdqr1CJkpKEVTnS4/5kHAuLsbJykFI0R5UbNx0gM665oX5YJmiYxDaLhc1Qsyr1q5C8J58JdyIiYOrnRDzkiIh82toLFjDRMi1ksxshK9apmYSneXh14GGV4Z+09PgbpuLssoqVK1fC5QUIyIjC3EZNG9Gf956o4nCEglbn7cD1QV7UFVZAVdQsC5MTeg/UElS0bIl8JSXweNHQEh+aZGFkxl3524IymmHmrWrUbNmpW7fH5Wegeic9rr1f5QrBPkymOxduwalq1fCLWUyz44LMkMTk5DCCUlYKIqqqlEr9eNMrd5Tj9Itm1C5a9e+iY3AqKhYqylNB+uE7Zi61P/9739Vl5pk+7rrrtP7JAJUC6E/fpgk2X7r7bcxetQoXHPttXhWiCGtq1CqZNociTcltbROwkWdN998kxDbXWpajyScOtkzZ87CBRdMUvWUn/70p7j11lvVGgvXPJgFnIaQZMn7ff8DD2DAgAG4+ec/R548d6qd9O7dWyecJKOcMHCRKck71a+4wJNSL+q5f/zRx0iSCcDDDz+Mv/71r0pmad6PaT355H+kzH/XyQTLYdoDy8B4f/KTn2h9UB+ceuNUCcnJyVFp9DXXXIO2bdse8/bD+uJXAUrzBw0ajG7dumpeLQlvOTDjFid+nFiOGDFSJqVJvrv7g363bt2Ghx56UN+/dWvXIjUtVSeW/IrDSZi19NE8NPAHeZ/55Y529u1izabBEnGLBjS8SM20mqJNieSD5M8BoyNOe9eBmpuSb3FMQqMQ0u2pE4IoYUjKOfjz2n4Qz7X0w7CSlwPAfDAe3z2mSmJBaklFC82L3CPBZbpU/1B/co31UCUBwiRtA0oWOTj7LzolUajmpETu6W6XDC/XPSY+uUcb3iTXXFSpXwwYXvyzRmnb28UwUpZaIdH+9UyQAJMIsxS1wSHigjWMS8pjrJ3U84uDTDRIlGvkeh3TlOdwAKEQ/7XiV0ot8XqlgV7wt7cugnnNd53pMgXK6K3VlOaBZI8qJOeffz7GjBmNN998Sy2KsJ2xLtn2uJiRethvvfWWqmeQrL/xxutKpE899bSGhZesT+osd+rUSSXZt9zyK2zbth2fffa5Xmc7pdSbKjAMSzJOsstFnbf+5lZVi+GEzjx3jatzZ5k/FuOWX/96PyLO/G3csAF/8pHkq666SlViqL/+17/+BcXFRfqJn5/zDRF/+ulnMGHCeJWQUxf8zjvvEIIzXFVYomVCzDgJSszbtmurEwF+oSGBIhl+//331a76GWecobrvtK5yrMDJL6X0nAyxztnXcaJi223Lghm3mkLECbY3PnO+lx988EEDYWSb5RcaOwlrHsxzsET88LFP5GVhcTjwH6hkYCfpPIAwC3SnShJm3+DvhIahiQ+JzkuOfeSX5jr4n4SVBNUfEpfQdNUXPyAvgnol8PsIepCkESLe2FEo2GlI3O5Q934vAaXA9BPuFyU750CDM8tE8ktiHETnvahWXUj8lZS73SqB1wWrEreWSa5Xi3/erxH/dVreA+PfH0EIkThDZSDhkf6ZVxI5/g6qLEdVaQk8FeVCpoWoS5o0Z7gfGEbqOURIeqiECZO0g1lPUl88BlElRa4ZMEt2Z80jA9sOda1JUOfNm6860dpu5Dot3bBdsY5JAg1RpX53SIhLCEUKRo4coWHpxo8fp2SaKhSMw7RJZ9s054yf7eOUU05R4h8b55X6MQ4TH21+x0pcnNAZmPeUYTcJsaHuOFVWOFk47bTThOgM90rWg7xWXwiSGoaj9J5pEd2kzImJSZqPnj17Ydy4sQ3pDhs2VEk4y0uLP5Ty00oLJw6cZJD4V/smH0cLzJ9xlIpykSjrijrz7du3b1CvcdalResD2y6/4hjyzckevyZREs62amFxvGEXa1o0gAMUB6FmLdbkfSGTXCTpL6HWwU0G9f38+2DucZGl/JJMiB9e86XHuCgtJ5kPFG99rRBSybc/lNA7r2uc3rxpOaXD5fkBpZJ7DZJ+R3jVOZc4GIYSRec9LYM4htKr/C0HlohScG/5vI6gH0qXubU9iW2dOGE9es8Jr4R630JJwqRFR/JEx7SoY850ScopfScB12uCfTn1whkH88F807Qi4/H4VYjc1vC8zNj843LCLtZsHCSnXLxECTJ31pw371vd4IcLHmk//LXXX9ffXERJEh4aGoZZs2aqdJvScH5GX758Od5++2291j43V69Pneq1c82FkJQyc/JHqSAXPlJ6zc2BqDtOiTxVSwiqpKxbtw6vvvqqEt60tDQlIB9+8IGq0VC1hOYUCZo3pF439cJpwo954CLSr776CnGxsbjq+9/XdKnvzTRIcuiXEse2bdpguVynhJv5p7SeeaMaDcvMhc1VlZW6ydHSZct0gdfixYv1HlVUvn/VVV7Cf5TAtkhp6LffztPFsVTt4SY9LL9pp7a9tjyYcaspizUNOAFkX8b2xveSaxI48bTPv/lo4A92seZhwxJxiwY0mYiLP3+1lIZrclTnB97zJ9KEhtGoGf5AabpJtSFuB+pqalUirhJ1PyjJNh2rI1zDbyP5dcYp50q4SWaZngPMB6+bDtwRqgHqRxzvHYy0Gn9MwcRFUu7vn3k18TUaly8cCTkHElVV8ZWpsXDV9CvhVNWE9SFozC8z4POi940FlUCwRDwwWAckuhnpmejcqRMKhSzMnj1biSsXiJEMUy/5/EmTdGMRqnpQQkdLJmvkXeTnc5JZ+l21ejVyhOCOGjVaSGWVhi0RIk5CTOken/2uXXl49913lITz8zDjoulBkmXGQ8c4uZsnJdFDxA+J/5dCTknuad6Q5JSknp/qKTHnglGqjfDIsjA+3qfNcpKeBCEya9euVek5iTaJzUAhub169VJyxMkHdeCZNj9dM8yIESMQGxenFl5eeeVlnVRwkWpu+/ZqWpFEmW36aIGTAdbhpk0blYDzSwHLR9h22nLRHCJu+sglS5boWgS+c1YafmRo4A+WiB82rI64RQMadLymvo/lLzyNXkkH0RGXQdifWHt/e/Wv/cF7gXTESaIbSK/c8yfABMNQz9of1CNn+EAWPlRPnfHxhyNNzTeJu1zyJ/6ajkw6QtxutfvthOqXS90cbGMi5py1xLsNkmpx/uB9SrtJMXhOQkyCyzBOqB/fda+O+P4wpJudn9lZk95Uyi71Tek4F2P6g3nikFMpYUMZVo6siUBUxJmuN5/7XzNgXvZaHfFDghM9WkbZsGGDSofZrjjZ5XtG9QgezY6SHMy4UJIEuqiwULfDJzkneabUnIselyxdqpuR0GwhVZHYHiiNpsS6W7duquZBgkFpNDfRoUSbhJRfdfhpnnbHSUQYjjq2TJPqKrSEYtoWJeicODDPJDhdu3ZVSTXthY8dM0bzS78kNQsXLlQyzziojsPJAcPRhCL1z8Uj4uK9Ou4k2swzpfOcFFCvlGoCPXr0UB31I5WGm/wTrGtOIpge80azifq+OPxYtEyYcaupOuIE3zuGo5oYJ6x899g2LJqPBv5gdcQPG5aIWzTAvEhfv/0WVr/0PPqkp+on6goScUHDoCVHEgoeG2Cu8dSxyJFQAi5HJep+zc0QY8p+vQsz9yeOTFO3hpd0AxH82mouBKWd8v3j9i4Y9ebVKTHX5s40A6RFmAmG/z1TN/tZTfEDQ3BI51HVSnzngcD7JhaeBwIvs7p5PxD51brxnZNwK2mXo9aV3AtE7gnqpBsJPOM2xJx59c8v/WgM8od+ScRp8tEf1L/fXV6B2IFDce3D/7ZE/Cij4d1rxTgWZeSCzKVLlmLpsqUq5aeuu1G7sWgdMH2zJeLfLcxzsET88HH0vvtZtBrwU3ZZVSXWrVmD4vzd0kg8quMaHRuLsPBwZYdOnecGyBjqqT+QLKv/xgZY5/UAfniFYRsjv8oQeS/gfV7zuy7+lL42kh9VS2GH4tcps4MxUvGDkQWmxlqhj0AknPcpWabUmn5IbkmKAyFA7vfDfvdYLl8dMH+MsbF8kqATzJ/xw/NAafGulkdOQoSF68JUOdK5fY5pF1dUoFQmReG0/6z6/haNgQOWP3RS5Xt+Bs5r5jkF8tdUHCz+w8HhhlH/Bwlj4jvYe9UcUJLPLwPLVyxXW+gjho+wJNzCwuKEgyXiFg0wA2G7Hj3R47QzURSXgBmr1mD6osX4dulSrFi5Elu3bEFFSYmwyRqVjvKzNDcDcYWGIjQ8Am5xrrBwVe/gdveMU3eiFGLrP8yq9FmcnpMG+g3WDZJpkuMA0nAu1FSziAFUUw4GL00NAEmfUn1dGBqAOBwuUaDvQJTUxGJSODCl5oHxHipOTgKcUnKW0ywa5YJNqqoYx+v6/HikZ6nnmspKlJRXoKisDDulHewoLkF+dS0qYxOQO/EMDJ50IcIiIzXc4dbXyQJO5vwRqL6aeq2pOFpxHW4Y9X+QMM3JQyA439kt0k9RB59qOrSRzp06Y2K9lmYsLCwsTiRY1RSLgCiXAWzDsqXYunIFCnbs0G3g6/Pz4KmpBpdfBMuRg2uIEHCSuGhKisVRrzOSOq6eeoQKIQ8TSqjSZR1r5Y9pbhKGpJcqIiTTvKyb8DikhdQBr5d0aOHEqMI41VPUYgqPPjLvBHW9vcx0f6mfknumwzB+BID3GE4tqvjFqXn1HQNBya0vPiW7cmxMMs54jDqKOQYC1VEYJeMOpJpCmPhZRhJmYylFyQ3j9itjla8cLrksNAyVrA/5HVRTq/eotkKlFR4rJVHNn8YjpQnhc5S7MTEq+Q5NSEJkRiaSxaXl5CCnd1+06dYtING0sDiWYPtnm6d++qqVK7Fs2XJEREYoCeeiMYvWC6uacmLAqqY0H5aIWxwSJWXlyN+6BUXiivfuQWVRIcqEqJcWl6CqvAxBZaVwyQDIRZ31NVVqmxp1tbrZTgQJuoMMquk/uRYu99xCIbkJDYT4hgR77SmTmLvkPJS2wyUebspDqbLXMrHARzRJI7264UKMlUl6D15IPHJdF4KSwTqaOOP3Lhr1p8cC8cb0ePRfyMmOmzc4OWiIz8FxqTdtfh4QM8vRkG+NvkElhaQ9MLX3bvbDOOnfWwwScq8z4BkXajZMUOQCqTUXYupPPXh0gyKGr5Xy86KJghsB1fPLhfyuDZbJEb9o0J5yRCRc0dG6OC+U53HxiIlPQFRsjOp/R6WmIiElDVHZbZCYlIRwtx3ELL5bUPpNc3SbNm0W8p3VsOjUonXDEvETA5aINx+WiFsEBJsFHcmxk0gbsNGUllegorgIdULOi0vLUFK4F2XiquU6CXlFYSFqhCBWCUHnosoKIe0kkcE1NQgrK6FZCN36XSmkEESmQmIdIi90uKTgJcxkiLWIFOLMe8GUyhp/Tkm7wFVbIw1aaKgvv0rsHcRZ45JbJOfBkh7VLw4Ar4k/lZo73gzjVdVhSF5J1BsRU3Npao3jFkl/neSDUUjM/LMfvEtZoWRZ4UuYJN28nkq+peyeoGAh8VyQ6f0C4RHyzPrz1NSqelAQLViIv0rJI8vvCgvT/HJHzhA5DxdHss2642ZG4VExCBOiHRYdJccIhEZFwxUVhYiYWMQkJCAmNhbhcu6S82i5HiqTpsZgOmILi+MB0z8R3GWURIxknBZXaDZR33+HH4vWCUvETwxYIt58WCJu0SSwmZhB7XAHtioh0twlr6KyElWVVQgpK0VFqddVVVaguqZayLuQ8upqNQ9YW1GBuuoqNVnIl7uqqlKIbz1qeF1+U4WEfmuFfJLYqklBSSekvFR3t+SukdymvVruV0uae2QiEB4ehhghqtrahbzqZIBl0p9ePWiVLFNirAhcRkrKdwsZjxPCG04i7LtuwFCURldJfNw1sWHrfPFIAu0WkhwsBPhABKHeLURbjnVU7RHizE4tSPLKrwU8dwtRDnF7TbqpXr446uKTbNNEXWh4OELET3BomJ6TqIcJeXbL73Dq8AvJjhHCXRctxFrqI0IIORfhuiVd3Z7/MMDnYmDJt8XxhumLnNvjEyRVVhXl5IIl4icGLBFvPiwRtzhiOEmZwdEmZ0yB6XArbdWDllZL02RsvtQLpdSZ9yg5DhPCHiKEupwkXDqE2cuXIy01FT1ycjQs80Y1mmqf+klwkJBcIbKVSu73tx/uj83r1+PVL77CBaefho453k1NAoF672EkxNK5k+7X13tQI34pkQ5tZJODWLmueYuIVJUdkusQV4gMEG4ly26qkMh9Thpcel1IvS/s0QLr079LaM7ky8LiWIM7eK5cuUptkGdmZujAz23KLU4uWCJ+YsAS8ebDEnGL445AxN3gaJO+0rJyfPPNdGSkp+tOekcCvigPPvggHnroIdx9990479zzJK/eeycaDlbHxNGeKFlYHE/s3r1biRd38evbtx969uyJ0FDvxkJ20nhywRLxEwOWiDcfdjS2OO7gy9qYO5JBlB2B03FQrigvV0dpOcEdBv39HcoxDN2G9evx0v/+h/Xr1uH5557DqlUrVQLfnDib4o5kjhyobp3OwqIlwbwLfNeoD07ThDt37sQZZ5yBfv366hcjS8ItLCxaIuyIbNFq4E82ndJ1c/T301RHvPHGG1gvZJwD/ieffKJ6qdxpU1VEAoQ5UmdJhYWFF3znuP0+t/ufMmWKWvM5//zzkZmZqfed77qFhYVFS4Il4hYWB4GRslEK9+qrr2LPnj36u7S0FG+//TbWrFmj/ijBtrCwODYoKSnB7Nlz8Nlnn2HQoEGYOHEiYmLsBj0WFhYtH5aIW1gcBEaXcNq0aarekpqaisTERJXErVq1Chs2bND7lGBbWFgcXfD9KygowAcffCCT3tW4ZPJk9OvXT3f0JawU3MLCoqXDsgcLi4PAqJ1MmDABr7/+Bl597TXcdttteOWVV1VCzgUpVipnYXF0QQJOa0ibNm3CSy+9pGY2L7vsMqRnZCj5tqpbFhYWrQWWiFtYHAIc8NPS0tChQy46duiArKwstGvXFl27dkVycrKaGbSwsDg64MS2oqIC3879Fm+++SYGDxqsizKjo6N9PiwsLCxaDywRt7BoAkjG6Wpr61Rax3MSBisNt7A4euD7VFhYiKlTp2LxksW49NJL0bcvraIE2gTLwsLCouXDEnELi8OE4d6GnFtYWDQfJN9cZ0HThBs3blRVFH5luvLKK5GRkQGX22W/OllYWLRaWCJuYWFhYfGdwHxV4i65c+bMwVtvvY0+ffo2qKLYRdAWFhatHbaXs7CwsLD4TsAvSjQJ+v7772PJkqVqG7x//34IDw/3+bCwsLBo3bBE3MLCwsLiuMFIwQma/3zrrbdU9eSiiy5E27Y5aiHFSsItLCxOFtjezsLCwsLiuIAEnFJwmiacMWOm7lDbuXNnjB8/Xu3zWwJuYWFxssH2ehYWFhYWxwUk4fn5+fjoo4+wevVqDB06FAMHDkRcXJzPh4WFhcXJBUvELSwsLCyOGZyqKGvXrsV7772nJkAnTBiPrl27ISIiouG+hYWFxckGS8QtLCwsLI4JaJaQUnAeZ8+eja+//hqZmZkYNWoUsrOz4Xa71J81A2phYXGywhJxCwsLC4tjAup87969G1OnfqCqKD169FB1FO5Ia2BJuIWFxckMS8QtLCwsLI4J1qxZowsyKysrMHjwYN0lMyYmxqqiWFhYWPhgibiFhYWFxVGBIdhURZk3bx5mzZqlCzFHjxql1lG4VT39WCm4hYWFhReWiFtYWFhYHBWQYO/duxeff/45li1bhrZt22L06NFITUvz+bCqKBYWFhZOWCJuYWFhYXFUwA16vvzyS+zatQv9+vbDkCFDdKt6CwsLC4vAsETcwsLCwqJZcKqiLF26FN98842ec4Oenr16NqiiWFhYWFgEhiXiFhYWFhaHDUOwS0pKVBd8zpw5SEtLw5lnnon09HS9RzUUq4piYWFh0TgsEbewsLCwaBZ27NihUvBly5ajX79+GDNmrG7QY2FhYWHRNFgibmFhYWHRJBgpeF19PdatW4dp06YhLy8P5557Lvr06QOXK8SqolhYWFgcBiwRt7CwsLA4JEiw6crKylQfnJZRoqKicNlllyE1NUX9WFUUCwsLi8ODJeIWFhYWFocEF2EWFBRg7txv8dWXX+rmPNQHd7m829RbWFhYWBw+LBG3sLCwsDgoSMK3bduGzz77DGvXrsHkyZMxYMAAK/22sLCwOEJYIm5hYWFhcQCohkICXl1drfrg77//vkq/r7rqKrWOwvvBwXYIsbCwsDgS2F7UwsLCwmI/GBJO04SzZ8/G1KlT0bt3b0yaNEltgxOWhFtYWFgcOWxPamFhYWGxH0jEd+7ciQ8//FAXZtIqCnfJtLCwsLA4urBE3MLCwsKiAfX1HqxevRrvvvsuXCEhuOr730dOTo7es1JwCwsLi6ML26taWFhYnOQwqijl5RX48ssv8fHHH6sqyrnnnYfIqCgl4JaEW1hYWBx92J7VwsLC4iQHrZ/k7dqFd6a8jXXr1uKM089QqyiWfFtYWFgcW9he1sLCwuIkx7JlyzBlyhSER0Togsz2ue0REhJiibiFhYXFMYbtZS0sLCxOMlANhaitrVXb4F999RV6nXIKTjvtNCQlJamZQkvCLSwsLI49bE9rcVKBurAWFiczSMJJsnfn7cZrr72GLVu2YPTo0ejfvz8iIiJ8viwsLCwsjgcsEbdo1fBK9kJ8v6Cf2y0sTmaQhC9fvhxvT3kb0dHROPXUiejcuTPCwsJ8PiwsLCwsjhcsEbdolaisrERVVRUqystRXV2FmpoaOdagQq7X1dX5fFlYnHygVZRvvvkG3bp1U0l4VlZmwyY9FhYWFhbHF5aIW7QqGJLN3QBvueUWXH/99bj77rtx66234oorLsPLL7+MOp9+rIXFyYTCwkJVRdm8ebNaRBk4cCBiY2N9dy0sLCwsvgtYIm7RqkAdcLq0tDQsWLAA773/HubMmaNSwHnz5iNI/IS63Q2L1ZoK459xk+ybdOgsLE5UsK3SrVu3Hm+//bZKvocPH46ePXtaVRQLCwuLEwCWiFu0KoS4XGoTuWvXrroZSWZmpu8OMH7CBJx2+ul6frgWIYz/pOQkJTKJiUmajrUsYXEiI5gmCH2ua9duGDlyJHJzc3XthIWFhYXFd48gz3co0qurqUZVWRHq62p8VywsjhAUeQu4QHP9inX49e1/wIeffYLsNm1x+2//D1dddhFqan3t7XBaPuMV/yTfdPX62oj7zt4eC4smwNduq6qqEZ+eiZDgULDpShO2sGgVMFaA5s+fr2pXI0aMRHJyku9uYPArEcO9+OKLKlhp3769nZweIcxzmDVrFvLz8zF48GCkpKT47locDN8ZEd+7Yx2Wff0q8resQn1tnXfAsLA4inB5QvDmp9/i9a9X4pSOKbhsYm+0yUyzOuIWJx1k+ojIpBT0HnsFUtv2QnCIJR0WrQOWiJ8YsES8+fhOiHhNZTm+fPFOLPj4KZQV7fEKFr+T6YBFa4Y7NBgFVZGYvd6DnPhqnJJegyr78cXiJAQ1qDj/7HfaVRh75R8Rl9rWd8fComXDEvETA5aINx/fCREv2b0V//vj95C3aQlc7nDfojeflNJ+M7U4KvAgOCgE1fUh2FsGRLg9iA2XzlfbmW1jFicJfN07VbUqSsuRkJ6Nyb9/A5mdB+p1C4uWDkvETwxYIt58fCdEvHDHBrz294uwc+NiHSAIjzzEutoaOVrRuMXRRUhIkPKRetu2LE4myHzT5XYjyNfH1lRWITGjPS767avI6NRfr1lYtHRYIn5iwBLx5uM7IeJFQsRfdRDx+rpaJKTnIiYxS+5aKxQWRxumiVtJuMXJA35lLC7YjJL8bULGg1BdWSn9bHtcbIm4RSuCJeInBiwRbz5OCCJeVV6JgWffgAFnXIfI2CSVjltYWFhYNB91tdWY8ea9WPjZ/xDiCkZ1BVVT2lkibtGqYIn4iQFLxJuPE4aIDzv/ZoyYfCuiE9N9viwsLCwsmguq+n3x/O2Y+eYjQsQ9qK6ssETcotXBEvETA5aINx8njB6IzgZkTuDV5bUScQsLC4vmora2VlVT9qllWVhYWFiciDjxFLKtGq+FhYXFEYGbTllYWFhYnPiwKyNbMKhVdCjNIuPH6Q6GI/V3sGv+1w0CXW/Mv/Oa//nBnBOHuh8Ijfl1Xm/MOf01Bue9g/k9nHgC4VDhnXD6a2q4Q4VpLB5z/WD3LCwsLCwsWhssEW+hoPoO9dyMrlsgkLwYP07XmH9eN/Hy2Bj5ccbrH5e57oSJk84/Tmd6BiZ+/7gJc82EMzC/G3P+4Rq7HwjOME5/PG8sPuN4n+Ux/pzhDcw9A/424Zw4VDwHqzcDE94/bn/QH53xZ34fDCZuA/84iEB5NOEC5d34d8ZrYWFhYWHRWmCJeAsFdUArKytRUVGBqqqqgASmurpa79OfcfTLsIFQU1Oj/ukY1kmgnGgsbXOd1wxx4j3+bixOk0emTdCOvPGv13z+GY6/y8vLsWfPHhQXFzekY9J1OoZ3nldX16hfHp336JgH//pzgumaeHhuysB0/dPxj5t+6J955W9TTiec5aIrLS3VPPmD+W+sLk09mzQDgX788+UPXmM6zFNZWRkKCwuxd+9ePW8sjAHDMG97pQwMwzL555N+mL732e3fbgLlnWFNuUybsrCwsLCwaC04YaymDD3/Zoy8+DeISspQ84VcfWvROD777DNMmzZNiU/37t1x2mmnISMjw3dX6rioCF988SVmz56ldckV4dQbjY6ORs+evTBw4ADExsY2XCfeffddXXlOAtWhQweceuqpuprcCaY3a9ZsfPrpJ0qM0tLScOmllyIpKQlLly7Dm2++gYiICFxxxZXIyspEXl4eXnrpJV1FTT8XXngh2rb1bq9Nkvbee+9JHmdj1KhRmDhxIkpLSvH5559j7rdzJZ89cfFFFyE0LEyJN1djf/LJJ1i2bJmWo3fv3pg06QJUSp4++PADzRvLaghjSEiI/iaRGzRoEPr3H4B58+ZJPDMRGhqq9+kvLi4OQ4cOQ58+vREZGal5M2BcrJeFCxcqiWRdn3XWWUhISMCHH36oeed1wpB5psk6ZdwDBw7UtN966y3s3r1bf5955pnqj/75nFimr7/+GuvXr9f02rVrK2EGa31kZWU1vAsLFizQutm5cyd69OiJ008/HenpqRKPRwn8Rx99pHGMGDECY8eO1TAGzAufwbPPPqt+zznnXPTt2wdhUrdO8Jky/m+++QZfffUVNm3apOmzHQwdOlSe02ikp6UiWOrOgHnm8/n000+1blevXqNLPTp16oQe8gxHjxmDdvLM2dZYlzNnztT2xfKxzbLsbM9Mh8/0vPPO8z4biYN5efaZZ7SOr7jiCm07pj4sGgefo6e+Fl++cAdmvvmotZpi0WrBfpR9grWa8t3CPAdrNaUZkAH6uKNw+3rPEz/r7/nT99yev5wb7rn9VHimPnqzpyR/u6de7stL4vVoERBC6DxXXnmlRzoOjxBKT79+fT2vv/663hNyK/OYes+6dWs9kydf7BFS7ImKivIIcfTEx8d7hHTKMcEzYcIEz/vvvecpKyvTcCUlJZ7x48drfAzjdrs9f/jDHzxCFPW+gZB/z5AhQzxC4NT16NHDIwTMI0TM8+CDD3mE3HtSU1M9QrA9Qug9zz//vCcnJ8cTHh6u7vbbb/cIudK4CgoKtBxshtdff72Wa8mSJR4h6x4hsh6ZCHh27NihcT/22GMatxBwPbIciYmJnosuushz5513etq1a6fX6VheliEmJkb98fwHP/iBZ8qUKZ6rrrpK643xmDrheXZ2tueWW25pqA8DIa0eIdLqh/F06JDrkQ5f702ePNkjxF3TYFo8p3Omy/SmT5/u6dq1q6bF8hJ8TmvWrPHIJEbLwTAm/0yLZRCi6pk1e7Y+T+K3v/udJ1r8sd5TU9M8f/vb3xruLV68WJ+pdHyeX/7iF3rdvEc8Cln2zJG4WE/M11/+8hePdJZ6z/m+8fmee+65mn9T1yZPzP8555yjaTF+IccemeR4hEh7ZFKg9005GN7UC8vB51pbW+f5/ve/r8+bbejjjz/2bNu2zXPDDTfoM2G5hIh73njjDc0L8zV79hyJI9YjhF2fH+vNmV+LwODzrqmu9Hzy1P95/nR2tOev50V57jw92HP/1bme7au/9fmysGj5MP3BvHnzPG+99ZaMI/n6+2Dg+8G+5Omnn/asXr1a+zKLI4N5DjNnzvS8++67nry8PP1tcWhY0VILgjR0PVI6K52HSiLphNBh8eJFeo+SRCIoKFhmpyEqDRZijN/97ne49tprIWRbwtSoFPLGH/8Yc+fORU1NrUocjcoDHX8LgcTy5cs1PiFeeo1SWc54mS7j5jXOgikBDg4OalAxkAsajvfpz7hnn32mIU5pf3qfqJP4GIL5N9Jk5svtDlWp7EMPPaThKZEWEol//OMfOOOMM1SCPXjQIFxwwSRcfvll+N73vgchsVqWPn364JJLJuOyyy6FkFStB6P+0LlzZ9xxxx24+eabVXIrhFCl1kIOtaymbhcvXoINGzY01M2GDRuxYsUKzfcFF1yAH/7whxL/ZSqFFoKrUhVKApgXIZ36pcJI3hmfkUBTEv7nP/9ZJcSMm/kTYo0//elPGDNmjIah9PthKTefL8Eq5S60zEde3i588cUX+jy894LUMV9GssM0nUfxpXXIOjD+CZaXWC/lfPjhh/HOO+/oMz3rrDNx9913484775DyDW+QejOPMnHTeFetWoUfSzv68ssvNe2zzz4bf//733HvvffixhtvRMeOHbFk6VKVkISEBOvXDYKm9VhGps3ysG5q5Mi6ffF//0NZaan6I9iumO8Dy2NhYWFhYdGyYYl4C4Ih2VSHIBHvImSSRKekpFTVQkhYg4RA1fuIiiFaScnJ+MEPfoDf//73SrT+8Ic/IDw8HNu3b8eTTz4pJGl3g1+CcZK0zp8/r4E0k5hR7YFpk/y2a9dO1UNIihiWR0PoiH2xecEwJIhbtmxRlQ6qHBDUCVc40jcgcXO5QlAiBJBlYxwkrFdeeaWS3AcffFAJ+dhx43D77XcIkf07br31VrRp00bDX3TRRXrtnnvuVZWY8PAIJXQE/UyefAluueUWDeN2u5Vorlq1UstSR4JYU41PPvlIw/Tq1Qu5ud7Pl1TboMrNueeeq2T67n/+U4l3WloqYqROJk06XwjsPZo3pmtIr8YrkykSzwXzFyjhJQGdNGkS7rvvPn1GnCz997//1QkTnzfVTVatXKl5Zl1Rr5pkns9vzpw5OnkwYNxMo9Y3YfNHff2+62ZSR/DZEu9MmaITNP6++uqrJU/3a13feOOPpZx/0XxSbWnJkiU6gSMZf+6553SiwHohQScBZ1hOTm677Ta8/PIrePbpZ3QCxTT3tTPWie9UwOsR8nxZN0sWL8YH0kYIThpNmH1hLSwsLCwsWgcsEW8hMCR3h5Bn6jlzMRwlwpdcconqOJMckUT5UxXS3NqaGg1PSTF1tkhihw0bpuSJYai7TNJHEk8MGTIEXbt2xZ49e4XgL9XFdwSln5SSZ2dnq14dJcBOkAQ2hvT0dHTp0kXIdBReeOEFIaLzEeoOhcvduF4e80ziGSL5ZP64YHDqBx8ogaX0NTExUeMlKY2UskXHxAiJpPTZG575IWmNEoJHnXBKVk0eGV9kZISGNRJ9L7yk2S1pFhUWyaThIyXLJKTUmefk48MPP9AJhVviZB1EybXQUEp6g3QS5HK5ddLA+ibBd4Lpk8yyHlke5o/ElbrgPGecnARRssyy8dmsWbNW88B8kszm5OTIpCC3Qb+c0mhDponGnoP/dfOb5aVU/ttvv8WOHTtwyim9MG7cWNXfZhthvqivf9ZZZ+tvLuBkG+SiUtYFwTZD8s0wLDvrJTY2ViZ1HTB6zGgky2TQOVFzgtng82nbNke/VGzcuBHPPPOM6rKz/lhfFhYWFhYWrRGWiLcQGBIzV8jS2rVrESOks0/fvkqASGBIXniPRC3EQcrIcki4SGgNWSNx79+/vxIsSsWLioqVjAX7yGg738I8EsK5c+dg6bJlShopgeViGKpyDBo4COVC3poKEjhKqEnimeb7U6dix86dSoQbA8tcU1ONzMxMlcaSfK9Yvlwl+1y498orr6gEVSFlZLlZBKHbeslIYM3CQicRXblypUpv77jjdtxzzz0aNxeeUuLOMCS+JJtUS2E+uJh0/PgJSsR5beGiRao+YerUW3XMQ4iSeMJJjg0YN9Paum2LnscnJOgXCE4M6N9MB1hmM9GprKxAXW2dkFIurIWScC7GpFSfqimUijMuxtEcMCzJdbG0A4LxZmd7vyrwHvPF55SRmSHkOkbrg/XOMOvWrVeyPHr0aG1Xu3btwiOPPIx//vMudVRT4QJekupA9UGwTKzv3NwOqlrE+lm8eDGmTHlbSX1jEwsLCwsLC4uWjsAjo8UJB0OyKLUk6aZOMnWgBwwYgMGDhyh5WblihaqsBAIJFZ0BiTyJEQmQU02BiBCCTksftGwxb/581dulaghXpVMKzbTb57ZHlU/XuCkoLy9TdQtK4kkwp059H7NnzWxQFQkEb56DVcr6i1/8ApdffrlKTimNpq4y9d6p0kHJrCmf5scvT4HyuG7dOjz66CN4/PEnsEhIde/efXDvPfeq5NcQTaP3TNJLax3U9/ZafAnCDJ96itN6COFN3pteoHQNTF45QTEE1Vwj+Lz3D+9VASJIik+bOFGtpqiai5BxThoogT4i+JLjVwVnngw8Ui/19R69R8cvJqwf5pXPiGD7e/jhR4SE3y0TnX/hgQceULUWqq8cbKLANsi2RYspp5xyiqouUa1lqzxrfumwsLCwsLBojbBEvAWAxJCEKG/XLixauFB1c0nMSMpJFklECUpqqbsbGD4pscRFCWNxcZHGS5JDiSYJlpE8VtVUqxk5mnSqKK9Qkjd16lSVUlIaSzLNMIcjqaREnkTx2muvU/UDLnp86+23Nc+KgHF5iSkJHKXwf/zjH/HUU0/j4osv1mvUWSeZni/5Y1kOB4zvwgsvUjUP7wLOGsTHx+tXAqZJtQ+SfRJNThyoq82FnEZVY+bMGarGsd/XhybDqyveWO2xLM7ysJ73+fUuiM3KzsapEyao5JwTpZde+p9KnQ8XTIfx18vzadDXFzT2bNWvhOEELikpUeuGZdm4cYPe4+Ttpz/9KX796//T58y2yoWarMdDgeH7SLujrjz9Uy3qtddfR7jvmVhYWFhYWLQ2WCLeAmBI2Rwh2Rs2btTzmTNn4a9//asuiCNBJLZu3ao2mgl/4kIJJq+FCoGmFPrr6d94CZ0QucTEBCFB+8hfZUUlEhITVaebROuDDz7Af/7zH5VSkohz4eLh6u0yO9VCroYMGYyRI0aoigetgtCiRlNAKTDTPuecc9TayU033aR527FjJ9auW6fE8HDAScYvf/krlbTTvjknBP9+/DHVlWZcnHSwrilxpj1tpvnrX/9aJyUkiZxIUJJuJkGHA0qcSfql0lFUWKhfG1j3dJxg8FlRdYaLR3me5tODN+TYfMGg+hDXCZDoTpfnScl4UwkrJ1JMixMLhomNi0VMrFfyzC8OZjGtiY9tZfPmLTpB4USEOu3UgaeqireOpqkfSsapT3/DDder+hPz7ZT6Hwys17DwCFUD6tevHwoKCnQ9ANdDNDYxsLCwsLCwaMmwRLwFwHzSp7k6kjZKcakuQUdTdyRjPXr0UBJJKSIJoiFQPHIBIM0AEps2ek0B0jIFCRR1os1COhIsgoSIaghUfaFUk8SMKgckrCRX3MyGfg5K+gLcYxokZLQkQok0SR0toigC+PcurqyXtNfg3XffA63DhIa6tayUvJrJBYne4YLhkmSyQdLH+iOh5gJKqt9QH37KlCmolgkLJc7cgGfcuHHqaLKQiyhJhrkJDevmcEBCyQkENxdifZSWlKiVlO3bdzSUh8+Q6VPfmpMh6pAThoDTH+PJbtMGE089FRmSH5J26mwf7JmEhOyrJ7YV+i8o8O7mSVLNiQ5VlrhhEr+AkIx706JK1Dy8/vprGpaTKH4Vod+JE0/TiQsXC7NdcTLI65xosHzMpzNP5ixQLjlBYRk7dOioakhsY1ysejD1JQsLCwsLi5YMS8RPcJDMkMhQDYOWRki4Jp46USXht99+uy5cpMrGeeefr/4p2aW6CsNQ3YJEaMvmzWqijyoDP/7Jj/HIww+rlHHw4EG66JHEmv6MVJlhSYi4CyStpxiQEFIKS1RWerfKZzjm0R+0C+4E/ZnFoEMkDu6qaNIlmB4tjjAuEx8nILw9b963Ut5bcf3116vpxd/+9rcqoacElgssuwsxp4SXUBULX5wHA9OrqKxQCS6JOCchBfn5DQT4i88/VxJKEv6b3/xG65k66axzLpAlmebXBy6cJbz59po9pHOC+TEkmucMO2zoMJ1E8SvBlCnv4CfyXH75y1/g//7v1/jVr36lttppvpHPh18gTFhzNHU0fMQIXCATGwNep5WcQOA9hqV744038LOf/QzXXHMNrrrqKm0zZ55xpupns15ff/11/PznN2u9M288Tpv2lU7GSJI5EaKq0XXXXa8TI5L6xx57TG2HM9xNN/1MLbpwUkNn2paph7r6Ojnfv55M/uLiYtVCDdciGPC6icPCwsLCwqK1wBLxExyGcFFVYpMQahLO4SOGY0D/AWrLm4sHKckcKuSQv7kxDdUnSCJp0o+m//iJ/7HH/o0nnngCH370EcLCw9XsIQk8pd5e1YGQBqm0kcySpHIxKCWcBElab3EkRaGhXpUGEkke6UicKWWnBJOLKs11/qY0lhJugqT38suvUGk0zxmOpI4mAOnfkDWC5SVhZ7wvv/wS7rrrLrV2QnvmXbp0FfL6S7WnzjwTNMFYXe0lopLNhuuEM26WmekxfRJdlpOTE+qC88vDOpn40A9VYSi9Z922yclRlRZ+RaCFEOqI0357RQUXrQarBDcQWWR9MV06knDmIys7S8k9t8uXp6wb+9x///3417/+papG/EpBtZlLL71MyS/BZ2TiNxMPSuz5hYGTJi4c5bONo9qLA+Z50uoKVUUYlnrl7733nlom4ZESbdbDz3/+c5X8U93llVdeVXvo//73v/VrQfv2uULKf6Lknc+XbsCA/t6J4HnnqZT9/fffx0MPPayO6jW0ekJCTbOZrAc6gvVlymCeCScekk0F2zQ3CmL5XOKP9UYpO8vhfKYWFhYWFhYtGSF/oIjxOKOqtBDLpr+G0sJdOiDX1dSiTbchaNtjBEIjhfTJYM0B18IL1gXVJLhobbyQQEpwSc6MBJHEJCo6SqXDJOajRo1G//79kJSYhJ49emiYMaNHqxrD6RKWxI2mBCnZNWodJHlU+6Ckk9JISr9JlBIlHRJyWlGhCcFOQnq9pC5UyFUqBvTrj7HjxipJon8ex4wZi9MmnqbnJGsk8hPGT1BpOtUaiNTUFDWT10uI/YTx43DqhFM1bcZB0sV7LCd1hUlKqaKRKyS4e7duqh5z6qkTcdVV39dNdYy1EObLJWSUqjhdu3ZTqyJt2uRI2fZNFMLDwlW1h3F7JyEhMmGJRHZWNlKlPEOGDEU3SYNp0g/N6ZFMErpRksRDs45U5ejSuYua7Wvfvp3kWQhwbJyadRwzdow+C4Lp8vlEi/9ePXtqfO2FZDIvfFZU/enRvbvW64D+A7VsjJOS8EsvvVzyn63xEHxGGekZWt8k3obUsy3wywWfNS27cKJAAst7xhF8FumSrxEjR+LUiRMxUfzS0T8nRayXTvLce0g++fwZZ7++fTFo8GCdMFByzomJsZDCeFkOPhu6Hj17SPhO3jCSv9Gjx2Dy5Mm6uJbl5LNlmMyMTJx2+mmq3sJnxzbICQ7rm2myvuiXeui8znZzmrTJkZJvtiVTHovGoRMeTz02Lv4CW1fMlTqVCY9M4iKi49Fj5EWIScr0+bSwaNlgW2efQMEI1R1zcto29NmNwQgFKIBgv0dhj53gHxnMc6B6IteQ0VQxx0mLQyNIKs8rojqOKNqxAa/+/SLs3LhYyUVVeSWGnn8zRl78G0QlZah+sn0p/CCPqdC3UI4ELBAoeS4rLVNSTn+HC0p0/5+9swCQ4sje+De+LrCwuLtLIJAA8RB3d8/lf/GL28Vz0cvF3Y0YEWJEiBCCu7uuAOs2Pv/3vZmGYbPAAguL1G8pZqa7urq6quWr16+qmAa3pRCyoKWTVkteVPEiiC4MjE/rMKE/d7nsn8IqPo9lpWVIEKEan+aWCPgD6jbCm6nVUCDcH32qJROaly2VQzBI63N0sp54uI5uNVxHYRpPUWHRhnwyzxTomytHjgbC8kpNSRXhHz2uKu3Ayhki/z7Rke5XypHjhtcErfHasJKQIMdlNVji4frKyirJX3Tklp0J65sPNYo3liEnLaI1fWvwOLgNbyqsn+rHQYs+XVUSExLh9kTLn287WJaMb677uoH1FwkH8et79+Cvz1+AwxmBX66pzCZtcMYdH6Npx/6xmAbDng3vi7xvsH8P57kYMmQosrKibxE3B68Pbvf+++/r5HRs8Mc/awzbjlUPdKvkG9X9999f34Qato556u0piPikhXlz4pNQnDVo2KBWIo0XTXUoQCmcqgtmS1BVt0RSmFkinPDtBi2W1fPI0ThqK8IJha1lKbWgmOX+suTCprV6a+WQLCK6JlHHdfRBri7CSWaDTE2X++X3LZUjj5PjXlsinHCK9uoinLDcmPeaRLhVD7TI0LLN46tJhBMeT8p2NrK2FVq6eXyNGjdGQylv5p91sLl2u+VewuPgMfAGbB1H/HYsW54zlggnrAs2rIwINxgMBsO+hnny7UFsSQiRra2PZ1tEz7aku7OwGgEUrjU1IuqCnZUuYfnVlL5VD9Zx7cw8bCtWnq26Zx1Ub4xZULiTmo6j+na7w/lkMBgMBsPugBHiexBbEkJka+u3l52V7vZA4bqzLKc70yLL8ttS+tZx7cw8bCtWnrel7mtzHLvT+WQwGAwGQ32y2zz19bHMB7R+7D5ixGAwGPY0trUBZTAYDIb6YbfprLn/Cf/Egaf9C2lZLXar1/MGg8GwJxIK+vDHiIdMZ03DXg31AhueprNm/WLVg+msue3sFkLcL0K8x8FnoO+RFyElMzpqisFgMBi2n3AogBm/vIMp370tQhxGiBv2SowQ3z0wQnz72T2EeJUXXQYfj64HnozElI2zLRoMBoNh+6AQnzP2M8wf9zUcLt5nK40QN+x1GCG+e2CE+Paze7imVHhx0Nm34YDTbkJi2pYvIIPBYDBsnWDAZ8YRN+z1GCG+e2CE+Paze/SKtAF+XxUCfi9C4YhO+sFK5cViggkmmGDCtgXrHmowGAyG3ZvdangSu43DnkWHTGPg2MQmmGCCCSZsW7CGnjQYDAbD7o25UxsMBoPBYDAYDPWAEeIGg8FgMBgMBkM9YIT4bg79PM0oMgaDwWAwGAx7H0aI7yBW56jqYpkCmh2mqi/nb8bfFvbFGfJYToFAQMswPsQTv7x6mVod1hiYTvWOa1b9VF/O/XJ5bbDSYPo1nQN7Esx/TeUUj3XuVi/rusaqg+qhrrDOrZ19HAaDwWAwbA0jxHcQq2NpdbHM3+w0VRO1FdalpaWYPHkyiouLY0v2DOpKNLH8rPJlqF6e1dfHE7/c6rwWj1U/21Jv1WFcK31+Vk9rd6UmsV1TOVGwxsflOivsbKwytUJt66S2WOkbDAaDwVCfOO4VYt93Gb7yYswZ+wnKi/PloW5HKBBEy66D0Lr7ELiTUqkAdsnDvi74/PPPMW/ePDRu3BhJSUkqXpj3P8aOxV/jxiE1NRUZGRkqaLh80eLF+PLLL5GQmLjZMTYtIcvxOP/1r3+he/ceaN269R5TJjsqcHj8y5Ytw2+//YZZs2Zh7ty5GhYtWgSH3YEGDRtonO+//x5vv/22xquqqkLz5s3hdruxbt16TJgwQRsxs2fPxmIpc8J6oADjtkxrnNSP3+9Hdna2rids/Pz6668ap0GDBlssc9Y7x6Flfebl5aFhw4ZIS0uLrd19qemYfvzxR3z22Wd6Djdt2lSXMV583NzcPIwY8ZGO19uzZ886F8eE5c6xgFmnM2fO3FD3CxYsgNPhREZmxg6fXytWrMDrr7+u5xiPY0+5rrYF3ocQCWP5zDFYPW+SlBkQkrJNTMlA96GnI7Vhs1hMg2HPxnrm5ubmoqSkBK1atdb72JbgNgx8vrRq1QqZmZmmYb6DWPWwevVqVFZWokWLFkhOTo6tNWwJc+btIF9//RXuvuceFQpEbwgiyijQHnzwQfz555+6nFAs/v7rb3jppZewUsQAofCItzryuz5EBcbnSV1WVirLonHi11s3Ewt+t9KK/16dmpZb6canb8Hf1rLNpctlFLV//PEHHn74YRQXFW2STvV0N7cfwjcAFIU33HgjHn7kYTz11FN48skn8eKLL6gIpFi+4447cP3112PkyJESPse1116Ljz76CBUVFSKkx+AeqZMHHngA//vf07j99ttw5pln4plnntG0CwsLNe6VV16p8Sj0LFh3bPy89OJLG1xjquPz+fDoo4/ivPPOk7p8Ed9++w3uu+8+nHXWWdowIzy+eNeHzZVbPNb6+LLZXDlZyzaXbvyy6t/feON1vPnmGygoKNiw7ueff8Jrr7264TzmA+r555/HmDFj9Df3tjY/D++++w4+/PCDTY6tehltLj9bOiZrGev2iy++wA033ICHHn5I6v5JDc8996w2rLhf7q/6cVdPs6Z9WFDov/LKK/jpp59qzMfm2JZ9GAwGg8FQG4wQ304sIdKnTx8UiqDhw916iC9ZsgTzRNzNnz9fLeCEre11a9dhwsQJGq9Xr166nLN5cZ31OOf3eAudros97PkZv56f8XH5neurf69OTcutdOPTt+Bva1lN6TJfDCwTWjHfe+89tZbGp2OlG4mVUU37sWBaFMsOiUOx/cILL2h47LHHMXTYUBXOFOrHHHOMiMfX8NZbb4vYvkPfGjBdivHly5fjhBNOwLPPPieC8kW0bNlSxNxzakUn69atQ35+PqZMmSLbv6nLCBsTrMuCgvUbyt3Cqt833nhDG1Osw2eeeVbE6XuavwMOOEAaTWVaDsyHZTFmOjWVW3Ws9fFlE//dgr+tZZtLN36Z9Z355/cvvvgSo0Z9o+Vkrbv88ivwwQcf4rDDDtPfCxculMbkeyJ+J+lv7q1d+/bSsHlGj9nj8ehyYs1IZ5XP5vKzpWMiLCemwcYSxfZN/7pJ6u4FDWyMHXb4YXC5XLq/6sddPc3N7YOw3niO3nnnnX+LE59mdbZlHwaDwWAw1IbNP3UMW8R6YB988CHIysrCjBkzdFpXQhFeVFSogmH+vHkqCklObo6KyE6dOqFZs2Yq+sZPmKAW2FNOOQX/+Mc/1EXAEm7xWMsmTZqkFt4zzjhdLbqjRo2C1+tT8Udr8e23347jjz8ep512Gv773/9ibf5a3Z6ii1Zgy5WCFuILLrhA90cr5EsvvqjbXHfddRssj4T7nThxIm699VbN4z//+U98++23ai2Oh+nTTeTNN9/U473s8svxf//3f/I9avmnQKcX1DHHHivpnKwWblr7NwePlW49PXv0RP/+/bHffvtpo4cuQAUFhfoKsl27dhg0aJCuO+ecs/V7YmKibstAVxVuc9hhh2qZsM6YN35S8LEeOL3x6NE/6jESNhS43l6D2wXTLCwswscff4w2bdrgsssuwxFHHKH7OPLII9WKO3z4cBXgFPosC5bzUUcdhVtuuQVjx47VdLhvukXQqs76vPnmm3HyySfjkUce0UYdrdAsv7POOlPLlJZrQleYt956C1999aVadE866STNw3fffbfBKs20eYxMi/s+//zzNQ2+KvR6vfr2hi5P3C/fIjz00INYs2YN1q5dq646zDddc9jAmT9/gYjzD3DVVf/Ap59+qmnTYk63H+v851ubDz/8EBdeeAGOlLLgOUxLM89tslgapWwA/fzzz9KQegwnnngibrzxRjlXp+j6zcFXyz169NC6Zejbt5/WPc9Llj/3+fXXX+NSOX6et8wvG28WLIMnnngC5557Li655GI5b6/Wc/ibb77RcuC1Mm3aNK1Tli/j/v7775pH1gXLZsqUqXqeW2+j2DhhuZ5+xhk4X64dXktW3RgMBoPBsD0YIb6d8AFOOnfujCZNm+qDnT5qhKKTFtgjDj9cRY7l+rB06TLk5ORgwIABKnAnT5qMm0SEU2C1a9tWLbF0laAgoJBhHAuKO1pv6fZB9w+KVPo5v/76a9IImK7CioKeQoO+WRRNz4oAekCEVmVllab3559jRXg9pGKDvtQUQxTuV155Bb7/4Qe1cv4gn48//rjmiVCoM0/Tp09Dhw4d5BiWyu+7VdRbsCwozJy0Vkrg94SEBM0zRQzdHO6++25Ni37UPCxalZ9++mkVTCT+WAnTZJ5Zprk5uVizeg2Ki0tUILdr30796yl03333XWn0FKtwS6zmF8j9W4KRllSWiSWquL+mTZrisEMPUzH58ssv63Ja4avDuFbDZMqUyZrn4UcOR/fu3TWfTJc0adJEA/NMC/mzzz6roo/HzDq9//77VYwzLTZC6PpxzbXXaHpstL366qu4+pprtI4qKspFrEcF9Zgxv2r6tOBTEN988y3amEpJSdZ6euyxR1X8kqUifO+443Z1meI5SCj4mTZFpdvtgidWN54Ej9YFj4Hi+p133haxuUAbMzwXWGZuNz/dGoeWajbCRowYoemyAUd3IZ6T5eXlaCYNHzbi6DbEc5T1R4HP+GzAsQx43lLoP/nkU3KdzNB0rPKLh3nltZKzJkfLiiKby1h2f/31l5bLv//9b1RKA5CNMp5LFOZsENJfn795LtP/n+vpTkM3MZ4nLMePPx6hLkWEx/XOO+/o9cPjS09Pl3N1tAr3aEPSptca90ff9ebSiOZ+Kd7ZIPBWeTUdg8FgMBi2FSPEdwCKAoqWHiLI6I7CB3yxPPTZGaxHj5447vjjVRiwwyBFydKlS7TzwtChQ1WsvfnWmyJgylSg3XbbbSpWGZ+uFnRxsIi++rdpBzO6u5xzzrm46667VbBddtnlGofCjBZ5Whspru+66y4cf9xxGCXiZNy4P1VMUhQyzmmnna5x7rjjLhX/FC60jtPPeciQISqUuJ8qERj0waZou+OOO1Vg3XTTTSJumqhrCPNqQeF2+GGHaeODx0iLIq3rtGK++uor2hih9Zb7oHCj9ZppjBXBRij0LJhXBgpU+nlfcukluPiSi0W8PaEuErRGU4wSlgHzToHK47NgehSBc+bMwVdffaVikOK9X7/+G4QfrchdunRRyzOP+XfJi0saKDXB/BDWMQVh4+zG2tjgfiyxbzUlfhPByWPr17evHivr94orroh2EpQGCLcJhyMqANkYuPHGG7Tu2YAaPfoHdQ+5/bbb1XWC+2UDivXGelgnn3wDw7K8//4H9NhXrly14fh/GTNGLbmsfwpJ1tnAgQO14UNr/nnnnof27dqhY8eOuPKKK3V7ilWen/R99/n8aoE+XOqRy3k+sM4PPvhgPW7uwypn7pfnZLdu3fT8oFDl8bKMuJx5tsux0mrMRsHll1+u9cnjmyYNVzYsSXzdE5Ynrw+W26WXXYqLL75ERW98vVGkn3TyyXrdsOHIuvjll190X7+LWB4j3/fff38tgyuv/Id2ymT9032I2/v9AT1eCzYqWNZ8c8Frg5Z2NnAXScOE1zkbfQsWzNd+ASxb7pPnIf3ZZ86aqWnU1KAwGAwGg2FLGCG+A1jijMKaYoLiYc7sOSgsKlIrOQUNR9FYtWqVrqNVjS4pffr0VSsdreh0K6FrAX2OaY2jeJk8eeIGkcB9UJgEQ0EVx7TAH3LIIWjbti0GDx6MY489Vi2XfM3OdRQK7AXer18/nHrqqQiI6KC1nCKBAoQi7pxzzkHXrl1VXDF/hx56mIRD1eJ90EEHqbWcIpt5pnikoKW7BF0MKBT5m5Z+ujEQChUeP0U3rb8UjHQLYXpsRFCY9hVRSvcNupNw33RzYb6Z/uYEDK2n++03QN0/uC1dQLifRBFdZ555hoozpkMrLgX5lyKK6ILBONwvxem10higRZ/HTrcJCkvml3n0+rxISk7C0Ucfo3l57tlnpQFUro2K6uLQgukwv1xvCXAL69fCBQs0zsmSN1rNWQ4Utr1791YXJq5jGdM6e8aZZ2LAgIEaj+K4adNmOPHEk9SPmcfcQsqRFmGKdp4LQRHDFJN0n2BZUmzSN54NqiI57+g6wriTJ0/Rc4pvLtavX6cjx9CqzHqhaOW+KSRbiUBmWbC8nE6X5p+/KVpZDjxfeD6xXuWgdR3zwTJcsWK5pF2g5xzrt62kx7pinng+0krOcmJ8utHQbYfnLRuuLG9eA6R6WTM+G3N8c3T44UfIdkdq+lZa3Dfzc5aUHcuU5wUbDTx+vt0ISxx/wK/nNpczLhsRPEatW9kHv9PSb8G65PVANyLWw0HDDtJy4tsk1tf06dNFrJepWw/fnnzyySfaGGADfPmyZZoG82YwGAwGw7ZghPgOYAkxWhz5sKcI+v3331SsNG3SRH2QKcIokvg6nZZCWg9dLqeKCVoh+fDmQ56inG4GFBwUA/G+zny+h0NR8UfXB4ooCkJLrDMdih5uQ4FB0cGNKGYoeCxrXzAY0t+JiQkqLqz9c+gmSwzxu7Vvr7dK90PBxLxRRC5evETEYhMVlskxVxBr2/g0KYj5PSjHWVlRqUPisbwolHjsFHp0AWBDgfuIx0qPwp7Wavpe09JP8cl1DCkpKZoHWsbZkY/H/Nzzz2sDgfthXtq3b69W+ksvuUQtzhTtLBPmj2nwk4ENmDPOOAO//vobvv/+O7hFrGmeZF112DhgGVPUsvwp+hiX6Uii+snjZv54ToTlWGlB5jYsg4CsY94cjuj42BSL/M0y4f64Hd1HCIWgI1afVhwG1g/hvpguh2UkUYu2T+PzXKSLFN8I0L2EvtmZDTJ1m5A06phnxrPOIcJ96HEI1if3x+9sALBWGIfbcTnf5rBB0bxZc13G4+QnG5tWHG7LkJSUrNeFIuVkl+O36rk6jM/zkKPQsLMu6551Z11vXE9B7fFsFNJcxvX85HXXsGGWvgWh9frBBx/Qc5hC24rLvFlYv1mOLBceo5xluo6uUMwnj4ef9O3ntco+BRT5x0lDuI00LjRuLH8Gw75MOCzPpkA5qvwlKPeuQ2HFSuQXL8TK9dOxLH8iluT9hXmrf8b8NWOQV7xA4kT7Me2L0FWy0leInKI5Wh5zV/+ExXl/ajmtWDcVuUXzUVC+AmVVefD6ORCAX8Km/bMMez7mybEDWA9+uhTQOskH9Hfff4/GIjJp+aPIovCmEKcPKt1NaMUmfKhTRNFCydfnfCXOwFf7N9xwo25rCRV+2O1RkUc3EkvYUYwQh8OpAo5WbApdim1uRAseRSFFL9OyhBDT4Xcrfcax4Drrk0KQcWh1pKsJ88e83nff/bjqqqvQgFZSwUqH21DI8HdUULp1P2w40HJIMcPvXMYyoeWWolLzWwM8RqscWNaW0KmUY7TIymqobwUouhcvWqRlwPgUVhTqt992G66RvPMtAtMiVlpWvin6KPLbtGmtnSGt8pUIup5Y8bt16655pv8xLdV0vWBcriuXfZdKHfO4KdTXcL0cK8uRabIMKPKZFhtFLC8Kc25rBY71bNWBhVVXDNzWqi/+9km6bOARFe4Sl+OfX3311doJlIEuLuwoS+s688r0GVju9Be3sMrFgoLUOm76/nMb/ubx8TMpMVmF/KLFizRdlgvXUazyu5ZhDOaZ7jiE6cn/+r0muJ7HkZKSKp/RPPE382utYxLViklhXJ5bPM94Tar7T9NmKsgp7BUej6RRHZ6fhGlYxOeygZwnF5x/vrrDsFzpZnWTfNLthUSPy2DYe6BQjIo/vwrrUhGEFIZ5RQtEWE9Tsbgk/y8sWPMr5qwajWnLRmLS4o8wcdFHGL/wffy14D2MX/A+xi/6UJdN5LrFIyTOJxI+xoSFH8i6DzB16edYmPObCvMybx4i2DvdvNhIqfCtx9qSJdIgGYcpSz7Tcpog5cPymCxh4qIR0XKS8uJyLceF72ngb66buvQzzF75vYj3X0S4j9sg2teXLZc6yhXhnisCv0ieM16tQ8PujRHiO4haz+QBTKs4XVDG//UXmosw52t/QuschQOFG4UJfaMJrW/chmKOrh4U87QAW8PqUUha1jmKNgqHrl26qK81/VLZaZB+4fT9pWWSrgy0WFPws0MlO6a99967yEhPU3cM5pFCimkSS+xZn/FwGUUJrfpsUFDYUETSAkhRTxcAHitFqAXTp4ChAKc4Y6dEvsb3y3e6UrDDJjvT0T2HHfo4MQzFEn20rbxZ8DuPn5Z8xuWxMD12KGQ+fhw9Gk8+9ZR2/qNlkunS9YKjq2RkpGveWW6hkAT5JPxtwfSj66NlTHicHGGErjIV5eUq1iysY+N27du3w9FHH61lTUs8h0NkA4yj19wnYvfnn37SOiccU5x+xgsWLNTv7CswbNgwTYv7Znrxx823Awzxy/ideeQnzx82vn797Td8NGKEngv0i+ZbANY/GxR0+6HoZf74m77ZrA+rUyyhVZ/9FeiyxDxxPcuD5RYKRy3FFPXMo/UmhPXNcrDOSealhaTNtNh4Yd0sk33QFYZ1Muygg5Au5zjTiJb9xmPiskCAD/e/PyCs4+UbHnYmZr0zcEQXCnxuy/zSlz2+nLiMx81lPG/4RsYleWRIS0vVvPM6I4zjk7jcxvrNhhLfFFhphqUcOIJOIBg9l3itlkmeVsn1ynJlA5oNa16/3JbE58dg2N3xB8tRUpmDoorVKChboUKOVuul+RNEFP+Ouat+xIwVX2P68q8wecmnUSEdE9QTYkF/L4wKRorqqUtHyjbfqmV3vojzRbl/YvnaKcgpmI11pUtQWL4apZV58AZKUeEtQE7hXCzKGScC/otYGkxzBGbIPpkPWtIrfXTL21PFpNxrAuVy7Ev1TcDMFd+I4Bahrcf6IaYt/xILpKzzChdoeVT6SqRO8rScKKpzpXxWrJ2Kxbnj9S3CrJXfaRqsj2h5sT7kMxYs8c66mbzkE0wRwT5dypaifcGa36RM/9IG1OqCmVr260uXoVjOATYOAiHT6by+MDNr1gHMK4UJBQMf9uxMScHF5Xw4cwjDRYsW4phjjt1glaPFkP63FDmjRVhSqNKXmp3MUkTc0I+WAphCi+Nld9TX7Q1ViHJEit9++12HhKMFmNZeCn92gPtTBAvFFUfRoCA///wL1D+XIoUdEvmKnoKTgo4Wc/q60qeXfrZcRrHD4xg4YAAGynIKMophpsd0f/vtV80TOVAEtk1EJY+TwbIkMn8UyXSLoP88xTb925ku3SUoXulfe/bZZ+O4445TdxELpkNhQwHI/dJPna47FPXcliOjUEDRX53ij2XAwDSuueYade3hMHN0BTrwwCH6mw0hK20GijSKRXbso8sGGxisP7r9UIgz/cHSYKK/PI/JOi7WJePR3YhCkSNoWCKRZUtRRr9mNny4/i/JM3212VmWgUPw8c0CGzP5+Wt1ZBMOq0hrPuGoMrSk0w2DVm1CAU+xSx9+Ckzuc6WIYorvnyQ+y4jHyKEiKQ7p7sPzho01nlPMGxuBbODxeFjHxUXFku8/1Y+b46X37NkLi6TM5s2fh2FDh8VGg7GrWGddst55vrKxwnqlYOc5lJSUKHXl086k3BfzwkYRGyLXyXFyJCBOkMSGE+uid+9eWhc8L6ZNnab9GChwLVjOLPuF0nBhR07WPfPIumdjh3mn/zb7K7DuODyj5ZbDzrEJCR59C8JznX0Z8tfmq1WdZcVzhI1A1h3h+dyoUZZeG7SaswHBvDCfzAc7xbKTL/30ee21btVKrz2WP/PG8+sHOY8p6PnWi+VOeH7tDmijQMSLmVnTUB1/sAKrCmao2F6+bgpWF84WYTYLK9dNkzBFhNpUtbBSsK0RwZYnYjinaC7WliwSwb4KxRU5KK9ah0p/kYRiEdXlCIqIC4WD6tJltzk0OOxOCa5Y4PdocOrv6EhM1jKerxSsZVVrRYCukH0txtriRVgrArawfJU2GJI9mXA7k/52jXFbLuP9gs+3VrvJzJqBUJUI6D+xJH+8ivDFeWOlnGdIeS6W48mFL1gp5WSX44+Wj12DVW7xwSpDl5Yr7800FNC6znL3BipQJfXAOmHdFEodsZ4o5NmQyS1eIIJ+DtZIPVN85xbNk885Wqdcn1eyQN9EFJfnwONKRpInek/dVqx64HOQz1gzs2btMUJ8B7HymZnZQMRKgooidkqjdZskJyUjOSVZBQRFlzWkHAUJfYYpUmkBpPjktPfcnqKL4pBpU4TRnYXCjNtStPGGwZOe4pnCnoKGfrm0mNMVghcBf3MdxS7FNOF23B/jU1BGbzw2DBAB0lIuGi5juhQVtC5zODoKfAoNrqPrBQUZBRXFv3UshHllehSZFEcUay1btlBhw30yHaZBocVjO+20U3H66adrfGt7qyxZNilyAVMYcx8sS37nMTEvFPcsD5Yb89O9ezdceOFFKpp4rMwHb6yDBu0vN4PmG9K20ud6l9OlwpJla5UPrfn0F+dyjuzB/TGutZ31yX3TXcc6fm7PeuNIJgeL2GWDqZOkkyHlyHqljzbF+aWXXqr5j+bFrsJyqCyniw/3w/KhOwXrx3qQ0AJM1wcG3uAo1tlwOkrOMXbsZVyOyEKLOOuOx828sUOr5abDc48ClecO99GmTVv1F2faPF7mneduixYttYMx66RhwwZ6fnJ79gXgCDAdJB26h1Cocx/MP8+FRo0aa71y/8wbGwXMD/fFa5nnNUUuXUSixx7t2Ms0ebMmXEZY96lSDzxHrLdErHvrWuF5xDgU+zxHrbojHHeceRs16mtpjC3CJZdcomXDfbOs2BmadcPzh6KdI+gwTcJjGTz4gA2TQtHdi8d6wAGD0UgazMwH98ntLPcvlh3rm8stt5ndBdaFEeKGmli1frq6hywWcUiRW1S+WgTcGhHB61TQ+UTYBUJ8SxZ9W7hRWG8UhNXFoiUia3MNiASW83NTCze3YxqW8GSsSrrCVOYhXxoAeUXz0TyzO9KT+VzcVDDzXOf2u5cQj6grzx/zXsPy/ElqdfYHq7ShEl+G23PPYBos62jYtB42ph0V7Src5S8YDqjFm+KfdVzhLUK5d73mq7BspbrKsPHjl/VNMuV+5th4X60tVj0YIb7t2KTwdvn71JLcZfj4kdORt3ymnky+Si8Gn3wdhp5xK5IbNt0wqYrBYNgIRTjHumaDjqPEGP4Ob2ds8NCKzgmv2EGTDTa++eGbGL414fq9HTayIiKkfn3vHvz1+QtwOCPwe6uQ2aQNzrjjYzTt2D8W07CvMW7+2+rPTUFst7Efx+7vUkXhPrz3jWjZiCNnbdq/g65j1At8a8a3gUOGDNW+Q1uC1we346RcnNSNxhc1HNQZEXU1+XrKg6ioKtSy3r2xISRindbwQ3pegRYN+saW1x6rHnjvpeGDRhnL0GbYMkbt1jNR/9mNVP9dHa632k783FI7amtp1Zbq++H3LaVd07rqy+KPoyasfVQPFvHfSfXfO0Jt0mKc6mUS/5vr49Oxjmd74EOD0GpLv2xa2i1qm+727rs2VE97R/dlHVP1UBtokeH4+bTGfPzxxzqDKyf/oesQRyOiK9L2wjzE1zG/x/82GHZ3IpEQQhF2ELertVSWRFfs9mzdcmxZl7fDyGzYcB7YtJ+SYddihHg9U93yv7U3AVy/8YYTfc2/ObaWVm2pvh9+31LaNa2rviz+OGrC2kf1YBH/nVT/vSPUJi3GqV4m8b+5Pj4d63i2B7piELqYcLSaw484Qn+T2qa7vfuuDdXT3tF9WcdUPdQWjt/+lAhwugr169dXreIc4YQT9bBfxvbCPMTXMb/H/zYY9gz2nnOWDeEN12CsUWz9No1kw57Czns6GwyGOoV+0rT20qfbsGV69OyJiy++GNdff4MO5ch+G1aHSoPBsGPQVSQcCdUcYh0J+Z3x4kNdw7dU7ITNkbXYqZ8jSbETP0eEYidtsqcKcrqzhKuVn5ZrrGxrDixj0wDZ0zBCvB6xXm3H3yhMK96wJbbFTWNfhmVE33ArmDIzGLaMJfyi4e8iT59VMZEXFXwiILQTpxtOCS5HIjyuFCR60pGc0BBpidnITGmhIdHNRvCmw9TWBbR+c3SjCy64QMf0f+yxx3DuuefqRGAcZYvsic9ULWfJt8eZhMzk5lqGaUlNtFwTPRlIcKXC7UjScqeff9TNiOXLepFP/sn2f69Lq34p7I3W2F0wQrwe0RtbLFjU9uKoabvabmvYc9lWN419FZYRO19ZwZSZwbB16DvO0Tecdg+cjgQdLjCB4tqdgdTELKSLuM5Ka4NWWb3RPnt/dG5+EHq2Phq9Wh+L/u1PxQGdL8DBPS7HkX2uxxG9b8Dw3v/CUX1uxsCOZ6FBaksEQxtn8t1R2Ljmdc25OTjaEYd+5RCvHDmFI0BxxC6y51377CMTlPJujH7tT5ayvBFHSxke3us6DO/7Lxza80oc2PUi7NfhDC33ri0OQZfmh6BDEymHrL5onN4OGUlNZftG2vlSRbszWUdCiY6mYhepbtx3difMqCn1BK101gQkbNVzGDbWBCcV4eyE8QQDQTZy1VeYcbkNt2cZWf7DVi9wio7oRCnRMa8NBsO+hxk1xVAT7Kw5dv6bOrmLRUT+HDanWl0bp7eHR4SbR4QbRydJ9KQiwZ0EjyM6wzFFncuZoNZvfSiR2AfZ+DVuoeANlOlkP9OWfinpb3lowZrgM2+4CPuaRk3hhHf/+c9/8PDDD+nQoj179sA99/wbp5122gaxXp3dedQUjl7Ctwy9RWQP6HhmbGk80bQ2STH2g25B7IwbkgZPlZQ5fwfCFfD6OdZ4uXyWyGep7oNDVnKMeDa+KMw5DnySJxNDul6Mto0HRBPcBqyyNqOmbDvGTFQPcMxlTljDUR1GjBihM2RytsqVK1foBCqcsc9qH/Hk5gQifM3GsTkJW/0TJkzU2SQtOHPi9OkzUFFRiYULFmx4LWcwGAwGw+YIhQJo2qAzDu5xBQ7ofBH6tzsFPVoNR/eWh6Nd4/3RLLMXGqa1QYPU1khOaKDWVRVvIsw1xP1FBfimIpxE19U9UeOTA4cddqjO4EwGDtxfR0gie6JBj24mbmnsOB2bGuQ2Ei3jTf5idcH5D/gWI1EEdYOUllpvTTK6o02jAeja/BD0bXsSBnc+H8O6XY6BHc9GdkYnacjU3VsKw/ZhhPguhDcNCmzOcvjiiy/i7rvv1pkK/xw7Fnl5eXj33ffU143C3Jo2e+XKVbjm2mtw/XXXbRDe7Ihy88034ZVXXtFZAcmnn36Kxx9/DMuWLcUrr76CF154QZdznwaDwWAwVCcY8qu4plDLTG4VE3QU2XEh7q8mkb0los+82I+dgCW099tvgLqicJItinJOzralZx+Pk/DtM9Owfu8O0JebFmsLaobte47H1dwm9ckJAaG+501EiEvqsfiG+sII8XqAs07ywjryiCPw1FNP4aGHH9Zxj8vKStXqzenJOUU6+fzzT0VsF6kbC91RCKcS542DM1hxEgPi9wc0DuE6y6JuMBgMBkPNROB0eOByRt1FLMEXL/6qf1aHy2t+3kTdLqlxo509ZfudpHddLieOPPII3HLzLRhy4FBdtiVrONfRFeXoo49G8+bNdzvLOYU4Z+K0iDYUavdMt+pjc59WnbAyrFk4DfWLEeL1AP26eeFPERH9v//9DyNHjtQLxO/36dB0tI4vWLBALefTpk3X1n6ytPApxGkVX7VqFS644EKd+pvWccIbUU0wXYPBYDAY/o4NvkAZqnxF+stu3yj4LIMORZslojcdgYOBxiEKPPpcR4fW8wd88PrLUeEtRHnVOhSXr8Gy/InIKZyjHQV3FgMHDsQ5556D5i2ax5ZsGR5fRkaG9s+KCt3dAwpj+msvzhuHKUs/Q1H5SlR6C9TPniEQ9On6jUMZMmysE9hYf9F62/gZPd5oQ8jSBBFNJ976bqgfjBCvRyisaR3nJ1urPp8fHTq0F+HdH2PGjMF3332nE5D06dNHW++MQx9yuqNwCl9awBcsXKi9xZOSau4AY4S4wWAwGGqCfsgUzcvXTUNu0TwRfEUorczH+rJlGtaVLsaqwqkqChfn/YnZK0dj1orvMWnxx5i46COMnfcGfp/3Gn6e9Sx+mvk0vpv2KH6Y/qh8PoJRUx7E11Me0A6Lfy18D0UVOXA5PLE91z0ul0tF9bZYt3cnAR4PxXiFNI6mL/tayvJxLcNvpjyEb6c8jO+ljL+b+h/8KOX908z/4fe5r0ldfChhBGYt/xazV/yAhbl/aJ2tLJiC1YXTkF+yQOuztCJXO4+yntcWL0K+hJg6N9QjZtSUXQiFNC98dqx87NFH4RMhzXFP6afGauDMfxTl55xzLu65525UVlbgjjvuQElJqfqAc3bAt95+G3PmzEH/fn2xcOEijX/LLTdj7tx5GD16NB544AG89dZb6try8ssvxywa5kIzGPYlzKgphpqocdQUeUY4HS4dLYWjp3CED1pZ6T9OaGW1ZEJ0nGquj7qpWL+5PjoyCL9TSDpjz53ob37KApF82/csYvqbGzVl92T7R03ZSLTsoo/vaNkxnWA4ECvFaGlavt/6W33Ao8uiv6NxIL855jgFfvS3TV1faGHXn/JnRk2pP4xFvB7gxeEPBHRkEwrszz77HIWFRfLwDKs7SseOHfSEpqW7U6fOOsoKb0SzZ8/G2vx8nHXmmbjtttvw4IMPqm/5Tz//olby6JBMER3C6fvvv8fV//ynDuvEUVgMBoPBYKgOn0cUYRW+QpR616LMu05EZNEGVwgKtkDIqyEU9qsrAwU9gwrsWBp0O4lO8MNhdqN+znSj4NjhFO4xSWioNRTe4VgZ+lWEE4eUMctZxwNXwc2GiuUeFIiWu5Q564t152MIlKPSV6R1W8pQtRZef6lWn6mX+sdxrxD7vsvwlRdjzthPUF6crydSKBBEy66D0Lr7ELiTUnlW6YW9t6GtUwl0M2FLsWmzZkhKTFSLeMeOHXUSgm5du6F79+7yuxMOP/wI9OnTG2lp6dobvHXrNrpu8ODBOt0506CfeOtWrdG+Qwd079ED3bp1RXZ2Nlq2bKmf7IjStUsXuKqNTW4wGPZe1IIpD+flM8dg9bxJ0rAXYRQMIjElA92Hno7Uhs1iMQ37FhGsXD8dBWUrYr83QjEXEsFn+RrzzbQl8FTkVfNF3jQEo6JQHtt0d6FF3JoMKDkhQ39TkO/Ic71Dk8FIT24S3c8eQEAE8MLc3/VzW2GZsnHkcSUjLbGRDkvIoqMHAUU416t1PK6+qof4uuP3TdaH6UsujSdJz4JxXM5EtGrUV0dU2VZ4z2H9chAJDjpBI2FycnJsrWFLGNeUXQiL2jpZaeWm5ZquJTzWtLQ0fbVDq3aiiHMuZ1z6vfE7g7Zc5R+XcRumQx9zbmOl7/F4dASVqqpKXU7Rz7T3xvI0GAw1Y1xTDDVBUVbdNYXw2cFnsduRKM8Vu4joRHl2JKjV1eVI0mcNJ/PhA8jjTtZnkcflUTHndqTIL4esT1bXFsZ1iBh32rm9U767UFqVh9mrRmNNwezt8hNn/vYl1xR2wmyY1gq9Wh8jori1PP/9CEUCkgr7lFF8B+ENVKqo5r78oTL4Al4tJ58sp6j2B8tFzIdErHtl26A2smgtZ9oU+ZbF3Bqv3Lim1B9GiO9msDK232ZgMBgMRogbaqYmIU6ralZaa53EJyO5hS5T1wf6eet3pwpuy7/YvuHTEVvviq6PiXAqCn7GW645m+PkJZ9i5opv4IkNlbgt7EtCnIKY4rh7yyMwsONZ0fLfQHQYQn5SXFtEXVKCuhcKbe5PP2OWcP62LOMsS4a1JYsxd/WPKK7I1f0ZIV5/GCFex/ASCRcvRiR/BiK+Er1BbY74oueNi3CZ9b1WWGnIJvwan47FNqVn2PXIA8veoAucTeXmt4e8djXs3hghbqiJ6kKc4ovW756tj0a/didXE311B32UOcU9A90tthU+z/YVIU7hzDLq3fo49Gl7Ymxp3VMu+Zu27AvMWTVaO3IaIV5/GCFeh7AgAyt/QXDuBwgXzAE4dey2imC2WOWjJj84Felcq2nGpSvbKNY2WqV/j8fWMNlTfOz2HWywpTSFu+s5cHU4AdiOB5XBEI8R4vsurHvOVVET1YU4O/VlJDXFgI5nokOT6BTxm8MSWlv6jDf68Hv0mWWDL1iOKSLCpxkhvlUoiFlGfdocX6MQr009xNdHdUOcVSf+UCVmrfhO31TQh98I8frDKLI6JFhVgsCirxBa8RPC5TkI+4oQ9hbWLlQVICIB7lTR005EYss2rl8nl04YfiSIvq+UuOs1hLwlCDsSEXamyPdSRCrX6QM44mmAoLdctlsfTVvSsLnTYXMmyHbV0jahnoPU49oZ8M9+S84hqb/Y+WQwGAy1gaNllZSUaF8iS4RrY0yNMluGI3NYRpotYRlwrE9rcp4NnyLCLOFniT/9lH/cRzji5wJdbtg8LDO6mnCUE2sIyXhYzpt8VquH+Hqy6uFvxC02NVL/RGvMUDdUrkWkbJXc1EKwSYvW5vDUPjhFTCc3h3vALXAOvB1BT2PAkbBhHavK0XR/oNtliKR3lp9OCQ7ZpgVsXS6Ap/+1cDTuIyI8AKS1AXpfD3u74+Uik9avbB9JbQP3fjfCnt5OtpML1JUkacfSN6Geg9QD61/OHb9fGlNGihsMez0UybQi1kXgrMyjR/+ow9X++eef8Hq9Ksg3K8Ri0BLq9ZehsHxVrONfdXg3io2mwqELY5/0+a4KlMinhEApyrz5KK3KkZAraa3E+rLlGvJLFiG3aAGWr52MdSVL5XlkJMfWoH8+O1WuKZyDeat/kvKbj7xiTsgTLdOC8hUbypphYz1EP0Nh34Z6ijaw+DzZ+EyxzolA0AvOfhqqsd4NuxLjmlKHhNfPgXfs3QjmTxZhlSTn/tatDFF4YURgb3sc0O82RNhx4rfrYcv7M3rRqIW8CO7e/4Cv1ekIT3scztyfZYchhFscjkjvG+BMzYZt6ccITnhMhHoHRPa7GwmJSagcfRWcdrlRd7gImZ2PgPeXqxEpXxMV8ru+6g1bQurdfuy7SGzUe4N1w2DYHrbomnLnx2jaYc90TeHjansfWbyXbk2Y7qlwFK6nn34ajz/+uM7EPGTIEBx88MHo27cv0tPTY7FYfn/vrEkB3iClJdplD0SiO11+SxnLM5gCPBiu0seEdgYMcdSOKNExxTf+DoW9sh3HCodsE50pmj+4DYfKo2tKOd/8yTYUmtsK63yfGjWFxjxptCQnZCLJ00C+c9jj6Ggz+t3hin6XMnbaaahjZ1p2ruU6j2ypTqxwceQb0VjMj8PmkThu3YbWcs6gukwaSCWVObI8Oq2+cU2pH4wQr0PC6+eKEL9rO4R4FPvQ/6KiogpJ6VkIl4lYnvoIbNKqhVwkKsR7XQ5fy1MRnv6UCPGfEHKkwtbjcoTSu8hF4IU7LQvBsQ/AXjwPaHMcEgbcAO+k/yGyfjpw2BtIXPkp/DNehs2dIpk1reDdDhXi74kQ72WEuGGH2JIQP+32EWjeab9aC9q9VbxuC1pWElhi8S4flkWavzkhWxR+3zikLN1FVJgKOiytfpPvgYCWbXTbaJoMVnpb+s5ArOUcxvbLL7/Ec889p8Picqr3/v3746CDhulMzZyHgkPZ1iTEidYwXRn4J3lip00KcQrnKByz2vpOOAkQf1tHs+k5wnTi4XOeYm974XHuS0LcgoJ8Qx1sSKLm1CjEo/Wwca2Kc32WRKROo+VvuSExbX63XFmMEK8/jBCvQ7ZPiMuNWC60YFIb2A99Ed6/HkJSVlug03mI/HoV7BWr5C7mECFevFGIzxAhvmoUfA0HIdL7ejgLpsNRNg/23v9EYO4IOOa9jEhGZ6DvTXAmpqJi6Vhk9joNvp9pDc9RwbetjQTDLsAIcUMdUZMQDwf9SG/cSoX4LrGIUyRK4CPGChR5zBsf2tEoUSGp38NR0UqZoaKTQZbT/zkaJ/rJwOdDfDo1CVnui9+5zhK88XFqgussrHQ2xI99DwSj+7LbmT7XRX/zu+xmQ3zmkd9DGj+WT/ktP+S2L+Ugx2o951hOXM69y0NZl+n/XCx/lr+vlW/ux4LReYw//fQj3nnnHRXihJO6HXjgAbj22utUlHPiuM0JcUKLNifd4R45RGE0B7EdyU64/+pEc1qNWP43QTaNzga5fSKa5VjXQpxpMljw+Go6xu1jx4U4zxl1G6lenpvJY01LrS25jt85pCHrmc8XjpQStZZHMUK8/jBCvA7ZdiEul4f8i4SCCHU8D+4Ox8P3/YUIuRsi+ejX4Zv+EhyrvpMo8kDwlW4qxJePRLDr5Qi0OA6ORe/CXbYA9v43A4FyBMfehohcZOGmw5Aw9N/wlZcjYfknCMx+HTZPqmTUWMN3S4wQN9QRKkxjQnz8yBfA6cDKvGFkZmbi6H++gOz2/UUIBvShzCe0JToJv1uCj/C7JWTjl9cE9xuSOHaJH459t7arKf2NaUZlBK3EFC0U5Rstd1HBpEF+8/mgopS/mS4jyXcGXa/f5UtMmVj7tYimRSttLIJgCTB7zK+av/Qztrwm+IyyOkYyXvwzi8v521puxeNkbITLrWX8pLVaFmpcpzwTbZI3lqHOqCjf+Rm/rdO5cb9c5/VW4e2338add96p4oczMJ944gkYPvwoFeSavrA5Ia7ngTxn1BIu3zXfcUMZbs6arcslbjxcpoLbKndZz9klOV2+JQK3FdbZjgpxnmc8LobaYJ03tY2/KTsmxK1z3+1Kjk6kFMsL0wnyLXkNqOXcKvMYHGtc6zN2MUSt4Iwj192Geo6WpxHi9YcR4nXI9ghxXlhhRzI8Bz8Flz0C70wRy6FKRAY9BO/ahXBNuRf2UAUigQq4e14OrwjxyPQnYcv5BY7970MoowvCC0fAHiiBrcNpcKU1hfe3W+EqnQ9bchN4DnwAwbROqBp1Npy+fMlXYi3yZagXjBA31BHxQnzCly+gyOfEkrwwstMjGHzmncho3k2FMh/Peg+Se6588JakD2pLKMcTXR61+uoDnEIzts4Wu19vTuhYy5iGJVLJhnTkM168xn/nZ9StIrotBSmPz5phmNl2yXoH4zOuCNPotnJJOV0qWvmUo/COClKbbBuNY8F0CdfHL99ToI/4yJEj8fY772D4kUfixBNORNt2bWNrN1Kzj3hYraMNUluor7iLncflj7NjElrjuawmOAY5128QEfKFyzZa1FnadvUPX5w7FjlF82V9zWltCdb99gpxbsvzyPok5eXlGvj2gOcS65yzUnNK9tTU1A3ng0X8trVj+4U490XB3DC1FTo1G4q0RNFE0khiSbL+fMGKaMR4JPlAiP788detTWfVZFrRX1F3Iv72BytRULYSRRVrVIDzeWOEeP1hhHgdsj2uKbxwgmmd4Tj8DSRVzEfAXwknhXdme/giDRAZcxnspYujQrz3P+BvdQoi057Q4RHd+98BZ1oThAoXS0064EhqiLA7E5Wz3oVr3suwpzSDo9eVqMwaisgP58Fj52tHw26LEeKGOmITi/gXL6AyaEdecRgNMxJw1D+eRuN2fdUFwu3eOEuii99FbFCE0MpK+Dve+uoUYUscDjvcMQstcYiA3TahsnfBx+iOPEpZdjtSfqzvFctXiBgLonOnTrrMEkbxVBfiluhrldUH+3U4A43S/i7e6wJOpT5lyWeYuvTzXTaOOLexypQ+9Lm5ucjJyUGefC5btgLr1q1FURGHCIy6CKWlpaNBZiZat2mN5s2bo0mTJvLZAikpG/Mbn+aW2X4hHhSxzIZR7zbHYkCHM2NL657cwrmYvPQzrFo/QxtPRojXH+ZpX1/ELmZe1AktBsIVLkNg5ivAnDcQnD8CwUn/hSfBjkij/RBwN0IosQkiSU3hdvhhC3tlm/1hcyXCN/cjYPZLiMx+GaGZLyJSshTuFkMQdkZvHrxp6UN1331GGgz7NLQHpLhDaJ8VQKumGejerSt6du+GHj26o5OIto4S2ndoj1atWqkbQ7NmzZCd3VhD48aN0KBBAw10a0lNTdGQlJQEpwhxK2yPiFQRKA/v7Q3cfneBx08Rsr1he8ovHjae2rVvpyKcZUOY7taghTTRnYrWjfrtFBGudcR/IvYtq+6uwBLMHMZx3rx5GPn5SDz6n0dx66234q5778Brb72A38f9hOWrF2JdwWqszl2KqTPH49Mv38fDj92HW265Gffdd7/63E+cOBEFBQVarjtaT7WBlmunXa4rR3SUlJ1Fw7Q2aMK+ZIZ6xwjx+kKfIdJOdmcg2OxQBHMnIbhmLII54zSEVv6EoLRYAyLE/c2ORKDTpQg0PRQoXY6wtwShjK7wl6yBf/nPCK2dLmEqAqv/REjSsCU1gi+thyQfkjttFRzwxvZnMBj2VQL+AMIhEbDh3eNmUN/idW+EYpFlU1toqXU7k5EgYnxnoHVUD9XETr8rV67E559/jttvvw13i/iePX8aBg/th4eeugkvv/soXv/oMbz09sN45rV78eJbD+Hldx7Eu58/iadevBunnHk0KrxFePLpR3HtddfgtVdfw5w5c1XY72z4NjS+E+XOw6ajquzIaDaGusEI8Xpj48PQu/w3+OZ8oItsnFnTkyZfnMDsd2DPm4CUwBq4E9LhWzkW3hmvwlaVD2/OFESWjIQnsA7wpMs2GdrRKLR2GiqWjJbNPfLA9YvAnwzv/C/kktu6m4zBYDAY9ly2RYQTWl/pmsLJXdR4vZPeMtAFU32Vd4Eo9/v9mDp1Kh566CHcfc/diDh9ePCJf+G1Dx/B9Xeci4H790LzZk20QVrprUBFFUO5lEEQCa4UdOrQAedffhyeffMeEegPYsAB3fHOe2+plfzbb79FaWlpbE87B5YTZ9S0RrCpa6y3FOwMzL/omwpDfWKE+E6Dd5ytBTts/mIkLHgZCRULRTwn8CqhWUO/h9b8DteSDxBe+SPsk+6CZ+q/4ShbCnvEB/fKL+FcN16SkZYzr1UdCcUOR+kiJC58BYnl8+SnG5H8SfAsfhtuezBuvybsfiGGsfIZDIZdhNPh1qnUV66fhvVlS+ALlOlMm5w5s9JXjEp5Pv0tyPIKX2GtA+MXlK/UCWTsO1lyeH0+fPfdd/jnP6/WmUavv/EqPPf6vThgWH8EgyEUFZWiuITHWCWPzb+LXF/AJ8deidIyEea+AFq2bIbTzzsCQw7ph4mTpuKmm2/VsdrXrVsX26LuoYWaI6PkFM3BqoJpUoZFfyvTLYUa602W6Wyo/hJ4A6U6wVJe8UJJf5Y2kgz1i+msWYeECxeiauzdCOWMV/9tg6HW0FrkToXn+A/hyuwcL80Nhm0mvrPm32bWvONjNO24Z86sadgxaho1RUfNkOdwRlITpCc1hSvWcY8ja9SMnEuByhqFbHV4H2NaUQFYHl24HVCmbK2zJkeO+eijEXj0sYewriAXWQ0bo3//vjj46IHo1acLUtNq10mU7jQhPzDhr6kYNfJnTJ08Q440iBYdesMXcWDdikU46ahjccedd2o/iprZseELOd43t+HQhUmeDLgcnlqn4HYmqXtL9ficZTMqum26XkdNKV+tjTFiOmvWH0aI1yEh+aua8F+E5rwNm9x4DIZawVeE7JzT9igkHHgvbIlZsRUGw/ZhhLihJmoS4hYUaRRjtWFbhSXHqo7O/Lh9bEmIcx1F4AcffIj7H7gPzbtEcNoVfbFkdiHGfL0Aa5f7MfSgobj1vsuQlEwxGs07BXf1F5C6LuzAa89+ik8//gJZrWw4cHh7tO3cCA0aJmCZrQ2+/Xotcj/9CaecdBzuv/9+pKWlxbaOZ8cn9CEcWnLDzJq1hO4mtYHDTsbXiRHi9YcR4nVMuHItAou+QDhnvBwHB943tk3DVpCngSOjPWw9L4YrpYXeIA2GHWFLQvx0EeLNRIhbo0CYTo/7DlsS4hSPO+95tWNpU6bUJMQt8Tdq1Cjce+99SGlWhHOu2R8eDh9s4yyoPkz+dQW+fGMBzjjzVNx4z/moqor6w3ucHrg4MlmY6XMUHqhLysv//RgjP/kGB53cAoec2BmJiYkI+IM6JjfsYSwr3Q+jv/Wj9I93ccG55+DOu+9mAtU0S90I8R0tt80TzVG8aDdCvP4wQryuYXGGfTpbZvQiMhi2htwM5Xy3cdIMI8INdcDmhHgDEeIn3/oBWnbZX6dY5+yUHPpuj73fGraJzQlxdhCkKHPqZD51++RievR5ptDbXqt4TULcEn4LFy7E3Xffg1WFE3H2NQPh8TiRv7pUd5yU7EZ6wyRM/GUZRn+0HI89dyf2698L5ZXlWLkyF8sWrcCapaVYv64QFRVlmL9wAfJy1mL4We0x6LD2cCZEh8qMzjLKUuGwiHZMye2GDz+tQovFn+OBBx/ASSedtCE/UXZciGvnVjkIt9RJXddHKBLQRgob4daoKUaI1x9GiBsMBsNeRk1CPBCziJ96+0do1LYvvv7qS6xYsQJHHnkkevTooUO+Gev43gvrNhyMYNyiN7Ewd6MQp0hOS8xG5+YHo1lmV7jtFH51JwvolrKubClmrfwB60qXqr/ztlKTECcUf/ff/yA++uIVHHteZ2Rlp2LkG9OweFYh7A6bzpbZqXsLZLdzYNw3uXjtw8fRsUMbvPvy93j11dfhrapCckoakpMSRXv4kd0qCf2HtkaTlulwurifGsoh4kdOqAW+n9sdf739C45olIuPPv5Ex9rfyI4JcbqjJCc0RPeWR6B1wz7qolJX8DzwBcuwfN0ULMr5E1X+MvUTN0K8/nDcK8S+7zJ85cWYM/YTlBfny0lhRygQRMuug9C6+xC4k1J51ZkHgsFgMGwnal+Rh/fymWOwet4keUDKA1j+S0jJwJqqDDz9wmt48cUXdCSJAw88UCfx4T3XhL07OJx2rC6cifzihXqO0ELOWRw7NzsYfduehNSkRiLGMuo2JEQ/S6vW6kgdnKxme+jQZDDSk5vIcYhmkIYmRd9vv/2Gl196Ba26O9BvSGt89+FsBErTcOMd/8AJpx6Frt26YPLYBZg5aTn69u2Ls887HpUVPrz07DtwJBfjkpuH4qBj22HwMc2x38Et0GNAc6Rlcor+LegP2X+KoxLpSSko8bZBwYwf4XZ7MGjQIBWjLGcSCFZJg+d3/dwWKIhpge/cbBj6tz9Vyi5z0/LcwZAoITWxERqktEQg5EVu8XytE7rnsKNuq0Z9kZncPJab2sPzice+evVqVFZWokWLFkhO3vZZVPdFjEXcYDAY9jKqW8RttgAWrXNi/IoISsPJKKuoQkV5uVqtrrjiCnTt2lUt4nRTMey9cJTbVb7v5RyYD4fdo2NVpyU1wYAOZ6Bj0yHV3CvqDl+gHFOWfo5pS7+Ex5UUW1p7KFNqsojfcvOt+G3yZzjs1A5YNDMfCyYE8X/XXoxjTjkAfm9Ip7bPWZ2PFatXoWWrRmjdug0qy3y45Jyb0K6fAyec3wc+P33GoxZnWoYjYZvub0vYbWEU+Zrip/n98MMXMzE0MhZffPW1zj4bZfst4pzinu4ofdueiL7tTo4trXv8wQrMXPEtpiz5TN1TjEW8/jBC3GAwGPYyqgtx2PyYnePG93OrUFoVUssVb/377bcfzjvvPHTo0EG3oRCvh0eCYRfAOg8Gwihw/o6AZyUcNo9aRGn9HNjxTLTLjlp0+ezlOcDA79ayLX1a51P8J+E6B5/xwboT4pKknqecuv66a2+ALXM5klMTsGiyHxdcfBZOOedQ9a8OhyUf/GOeZJtQxC/5dYroseG2q/+Lhctn45oHh8DhlmslJsS3paO8lA4WFHbBR9+mI/Wv/+KhRx7FySefHL2OnA5UbqcQZ148rmT0bH2MvqWw6sIq27qoE+ouf6gCs1d8h8kqxJ1GiNcjRogbDAbDXkZ1IW53hFHpB4KeLKxL6I3fJs3D0iWLcfjhh+POO+9Ev379jI/4PoANDkxZ8T4Wrf1VJ9ehdZnis0fLI7F/x7Nhk+fxzoBjktPyOnXpSBWZ2wpliiXE5dSGU4TuG6+/gZff+C+adQHW5/jQrml/3HbvlXAmsMHBjo5RVIyrOA2B42e7XW5MnDgFV1/yb5x3Qz/0H9YKResqkJDkFt3BfcU23Axuj1PiuhAO+bF0XRt8OvFALP35E5zZHXj55VdiohfbbRGnIKZlvk+b49C//emxpXVPSWUeJi3+GIty/tAxxo0Qrz+MEDcYDIa9jOpCnJ01QwGfjpoy+ML/ojiYihEffaCq44orr0T//huHMzTsxYRt+HPBG5iX8zNNuirCaYFNSWiANiK+mmZ212cyJ+xRNUl1wFOiNp81IesohDmhz9L88VhdMAtu57ZPdhcvxKENCBtuvPEmTJ7/NboNaITZE9bjgH6H4/rbL0ZxSbHEoSVcN/0bTodTshvCzf94CrPmT0TX/RpixfwitGifgcNP6YbMrGTdX01Q4K9ZUYSF0wuQv8KL/PU+5JVmIuLzonfrdIwa9Q1SU1Mk5va7pnDftOhnpbVB1xaHSd1kResjWpiblvnWPmuA5cLOoHnFC7B87WR4A2XaodYI8frDCPF6xDpxN8fW1m8rtUnPehhXfyBbp4l5UBsMuz81CfENE/rc+QmaduiHFSuWo6ysDM2bt1Df1np4FBh2MXy2/rngTSzI+fs44rTCelypco+n9bh2E/vUFgo/WsWZ7ra4f1jw3Iz3ES8vL8dFF16CMscsHHRcJ3z34VxkJLTHPY9cjdZtm8lxipgNRVBV6dNp6zdBHmF0l5kxZQ7+ffOzyMrORHmJF8tWLMbVDwxB265Zum11UtI9mD42F9++Pw9uexqaZbdFgseNwoK1mDRpIpq1bI1PPv0E3bt1kzxuv0WcqKuMJJLgSoHLmVTn9UGhz06kwZBfdhN9phshXn/s/Wp3N4MPyLKy6FS/1UUx18XD9VVVVToBQTxerxd+PycLkhZ6MLjJdrxhVU+HcQjT83p9KCkp1d8WXF9aWioXUtT/zLowuQ8+qDcnzg0Gw56H5Q/Ljms9evTc0MHMusZN2IsDHzmbuY0Hgl6UVOaiuGINyqrW6igndRUqfUUqxrdHhNdEXl4eCgsLkZhqR/O26eg9uBmWr5yHpx9+G6M+GYeP3/4Zn77/I5YvWy1iOSG2VQzRxMFQEF17tcdD//0XjjhqGCoqK9C1X2NkNJSGSDVZ5HS4UFEawM8jF+Hjl6cg5PPg/EtPxc3/vgjX3X42jv7H8cAhA1FZUY5lS5fqNnxm7kizVstJnuWVvmIUl9d9fbCRwP4BPCcM9Y8ZvnAXsmTJErzw/PP48qsvMWvWLO3R3bZtW71oly9fjkcefliHEWvYsKHG59BMr7zyCr6S+H5/AM2bN8fPP/+M119/Hd98842OkTp//gKMHfuHDhVEEc7lv/76KwYOHKjievTo0ZgzZ47u5/3338eIESPw008/YebMmbqMwwu98MIL+PDDDzWdNWvWaB6Yn1dfew1fffmlLB+L3NxcZGdnIyWFr90MBsPujFq3RXDHD1/ICXwSUzLQY9gZSG3QTOOYB/G+RgQr109HQdmK2O+N8Fygi8LOCjsqwuOHL1y8eLE8F0ehQcsQuvZthkwR0BxtZNrERZjy5yLMlWfetOmTsXj+KnTo1AYNGmbKc3ZTv/EEdhq1R/DB2yMRsK3D8Rf0RONmaXJdRBuqFhxPfPKvKzFuVC6aNWmN084bjiOPHYqmLRogJc2FQlsAvyzNQ2TOUgwcMECHSeS1FQx7t2v4QosN9WH/e1nWRaheHzxuM3xh/bBjV4Zhm+DN4wsRtk6nU4X18yKAZ8+erVbv7777Dm+/+y6++OIL+Hw+FBcX43kR7Q0aZKJLl668f6p4/vjjj7XHeOtWrVTAr169CmPG/IK5c+fo66CRI0fiIxHb+WvXYq2ETz/9FPn5efjjjz/w9ttvi8huju7du+vrI3YsKSkpURHOC6dly5b4/PPPMUvyxB7pY375RS8svl769ttv8dZbb4u4L9Nj0Qe9wWDY84hdukaEG/ZU+MwMBPw6OVAkaIc7wYH9D26PY87pgn6Hp2HQsQ3RcT8PZs6agbFjpiIxMX4SIZuOm71+fSEevf8lLF42B8PP6opmbVMRsXEElY3PNodDntW+IBbOzkXLVi1wy78vwXEnHQqXy4my0krJhw/2YBhJgegMnBXyHI1iri1D7TFCfBfi9/ukhZiE008/HccffxzmzZ2rVvKqqkq1XJ94wgn488+x+sqN1quVK1ciNTUN559/AYYPH643iNzcPBXGF150EQ4++GAd/5eW8UWLFqt4p+WafoC0CFRUVKiFu3fvvvj666+lpd5HxwxmuOCCC/DNN6OwYsVKvYHQn+uEE05UNxWmw7yy0wlHVbj++uu1M9dff/2FiRMn6LFwG4PBYDAY6ptQKIiEZCd67t8MB53YCgMPb4EBwzqiYVMPpk2Zqz7Rlr5m+5Ojrowa+Ssmj5uFo8/ujk49m6hfeE2+4b6qIKoqvcjMSkHbDi2QmpIaff7FtDYbtOwAygVmHH7D9mCE+C7E7XZrS/7LL7/EV199hVatWqFdu3ZYunQZysvLcM0116CysgpTpkxBQkICLr74YhHmf+KRRx7GlKlT0LZtOxxxxBGYPHkynnnmGXVv6dSpM7Kzm2DZsqX6SoiuI3369MGE8eNVhDOdZs2a6lTWRx11jOTBpTeRIUOGqq95jsRJSUkWgT0RDz30kL5KatWypcThTSms7jP0G2eaLpdD3VyIsYgbDAaDoT5ISkrS52kg5FPfc4pgup7wbXKVPNcqy71ISHShVac0LFq4BEsWrUBiolu3pX4O+AMYN2YqWnfKQJ/BrRAMSRqRjf2jLCjwk9KcyGqcgdyVxVg8L0eFfHw8dsQMSDyHwx7nimGej4baY4T4LkSHhfL71VpNl5DLL7tMxTjdUqhr58+fryL5l59/1sv48ssvxxlnnIGcnBw89dRTsk0xrrjicpx66qmYMWMGXn75ZV3WsWNHLF60GH+NG4fevXvj0EMPxQQR1uNExHfp0kVdYdgAqKyq1BsIA3udk8TERN13YkIi1q9fpy163uQsfy+rhU/RTmt5sqwzGAwGg6G+4Fvh5OQU+LwBBOLGDCf0f6bcTkp1oGPPRvAFyjD+95nyrIt22oxKZJt8huFOCUSt21swLHFynqSkBOStKcSalWvh8kQnveKY5ByXvaLSj3K/T5+zWVlZsWeskVaG2mPOll0IW+tutwennX467rj9dpwigpq9v+mW0rNHT7VgDxgwQC3itHZPmzYNBxxwAI4//ngV41OnTlXXEwrtAw88UK3cdF9p3749CgoLMX7CeOy3X3+0bdMGK2XdWBHiBx10kFoOmjZtii9HjtROmKtWrcLIkZ+rT3jbdm1QJqKcnTv/88h/1J1l+vTp2mDwBwLqZ07f9j/++F1uZEnYT/JHqo/4YjAYDAbDroDPs6yshqgsDcFfFdYOldWxOxzIapKO7FaJmDZxHnx+Ws45dKETFVUVKCwq0sl5IiGbPM9cKqDjoYXd6bZj2by1WLm4AM1aZUp6qfD7rHTsCIZdyCkM6uhitIbzDTex29kd1GCoHUZN7UJofW4tIrmDCOeG0nKm28e6deu0FX3TzTepa8ott9yKbLnJzJg5EyNGfIRXX31FR0+hj7jL5dLOms8+9xwWiTgePHiwWrxbt26Nbt26oVGjxujcuQuSU1LQsVMnpKenq+83hyejT3hefj7ee+89vPPOOxgzZowu4zYtOeKK/LWSdDp37oxcaRxwX40bN9ZOm2+99RZWr16DY445Br169dJjMULcYDAYDLsaWqPZL6plq5aoKAmjtKQqKqirGbUjIT5zPWjSMgWLlyxBYUGx+nKHgiF88cmPWF+0Gv0Pai2C2a7jjsfjcjvgTnQgOdWNtbllWJdXjkHDeqHv/p1RXl4Vs3oDFSE7Vq3zwrEiTxsHbeT5Xl3QGwxbwwxfuAtJSExCm9Zt0LFjJ6SmpYLXfigURs+ePdFDAlvYSckpEqc12olYT0xKxuo1OToM0Hnnn4/u3bqjqLgEq1atRvfuPXDGGWeildyMmC5HQ6FI5vLklFS0lZZ5v/790aNHD31l1kr2275de7WIc8SWU049DSccf4LcwBLQSAR3r159dNjEFi1biADP1v23b99B8pOsQv7Ek07G0UcdpfXCG5651xgMuy/ah2Mzwxd2H3o6Uhs2i8U07FtsfvjC3R1r+EI+M2kIysvNxV/jJiA5M4zWHRsi4A9t+lySS8BO67cI5ym/r8IBB4rGaNIUEybOxCP3Po9Bw5vjgCM6qIuK1eeJQj0YCsFb6Ufx+ir4qkLyHHZh2fx18NgbYr+BfeS3G6FwGE7moawS3/w6EeV/TMEhhx2GE044QdNiPjhs4Y4MX7irMcMX1h9mZs2dgZzQkUA5EPTTFS26SIKdVyd9x7g+VuzqSybLI/FjnEqZSARuwDtJdGO5OeiJTp9tLud6uSGFJS2+BLNxmXyy7KJpRMvvb+lyOaNKvIhsz8St/fFCjOZHF8unfGEgzHMsbUMdIw8LyA3Q5ogfYstg2H62OLPmHR+jacf+sZiGfYlIJISx89/EgjV/n1lzd4bPPmtmzXCYfZfsWLRoEa65+npE0pfgtMv2U/cUivR4HE47Vi4qwBsPT8UVl16J8888Epf+391YuXYObnzsMEkn9nyLUbzOh1VLCrFCtlmzvBSJyXYcdmoXzJqwGnP+qMS1N12GE844CGWlFfJsdOD3JTm467l3kDxhrr6pPvbYY9Xn3C75q9yBmTXrAzOzZv1hhHgdE/GVIFQwF6G1MxHxFsqSPfM4DLsIeQ7YXcmwpbWGs9kg2BIbyjJzzhh2DCPEDTWxNwhxTnFvcdedd+PLH97Gsed3Q+9BLVFeytkiYysFupiszyvHu09OQf+eB+HYU4bh8guvx6V3DEKvgS3g8wY1bcUWwTv/HYeFU8rQoWM7DfPnLoYzrQzJ6cD0v9aoxfv2+65CJBRBYZUDr/wwEa+/9CIOa9ASn438HKmpqbJ/ZiCyQ1Pc1wdGiNcfRojXMYE578A37TmES1ZELZ17wAVoqG9ssDkT4e5/PVzdz4fdI3d9g2EHMELcUBN7ixC3RN+4ceNwy823IblZIc76v4EIRwI6Frjl2mp32LBiQSFee3AyOnXogpS0VCzPmY1/PnAgnK5NreFhBPHiv8fCW5iCi646Acefchjyc4vw1iufYNzvU5CRkYlzLz4Jx596iAhxO6auKcJDz7+Hwu//wD333aujnFn5MkLcCPFtwZje6pBw5ToEVvyEcNka2BIawCaCygQTthrcaXJj96FqzkfwV+btETdtg8FgqC8sQ92gQYNwxJGHI29FOeZNXwW3R0R6JLjhHkozY3KaC627J2LOwqmYvXA8hp/dQTt76uvIODzOZJxwQR80aefGf+59Ge+/OQotWjbF3Q//H9785DE8//b9OOqEIfKgj2BtRQTfTJiPWTNmoHefPjrMMNlTDYiG+sWcNXWJCHH4y9kMlx9yB5AWpjTPtzGEa1hWF2FnpWvCDodISC3ijmAxQoGqja9KDQaDwVAjlgX2nHPORvf2B+K3r5dg7apKuF0JCHGCHspxEc0NGqfg/OsG48ZHD8NV9wxF517ZCIX9uj6eQNCHtp2yceHN/dCsXRLyctajpKhc5Lob2Y2bIDMjXTfxh8KYtHQhfvzuO/QJefDPa67WEcqYH4NhezBCfJcjrfAt+QDHO7hVR7fbzHput9ltt7ROMD7JBoPBYNiDoAin+OWEdhddfCHsVU0w8u0pOmKHw+5AkIawGPQVb9gkBQ0aJW9wW6mJYMgnz8MIMhqkYNXi9SgqKNcZpQPBgLpuOJ1uzF5Tik/fGw37tAU4+9xzcfTRR29oFBgM24M5c3YVKpTt4Mgk9N2UH5sKYK6Tj0godvOoto49tDkCir5yY2cV62ai6UZn+tJRTTSutW10HeNoupusEzaky1d5sbibE/oGg8FgMOxGUPzy2XfkkUfixhtvQOmaFHz28iwEg2G4nYkxy3cUfWTW4vHmSXRi0BEtsXjVDEydPAM+X0D2Y0NSohtLCqvwxiufYf63P+O8887D1VdfrdsYEW7YEczZs6sQsRsM+OFL6wF/x4vkhiA3kFDsJiE3knBQ1tnT4et+DSKezNi6qOjm94i/FP62ZyCYPQwcsNAS1irOZV2wQW/425+HkCNF1kmrXtOVdYEKhOyJ8Ha7BqHEZrKIr+x4NxLhHvQiHKiEr9Olsn0fHQqRDYVa3a0MBoPBYKhnLAv3ySedhDvvvANrlzrw+iPjUVpUsWEca8tuVRsqy3zo3LcR0hs58dvo6VizvABZWZlYtTIfbz76PKZ89QMuueQS3HrrbTpJn8GwoxghvisQwRtM6wRf16sQaTIYic36Ae1Phq/jxaKHwwjbnPB1uxrBpocioWlvOFofAX/36xBJaCQiuwyBFkejotUZcDYbiIQmvRDqfAlCjQYAIsBD6d1Q2e58hJsejMSmPWBre5wI9rNU+IedKfB2uBCVTY+WeF1l+8Gyn2sQTGqugtzf5jRUtjgZ/vRecDbug6DkL5i1HyJ2l2R6U/85g8FgMBh2V5wuF0499VQ89dRTSHG0wfP3/obJv62Ay5mAhCR3LNbWCQT9SElNwoCDWmPxipmYOW0OJvw2H/ff8iKmjZ+L2269BXfccQcyMzNiWxgMO4YR4rsChwuucCWSPG442x+HcOOe8GYdjFBZjlq1+VorqWIhXB1Ohi2rI0Ltz0ICKmAL+WCTm4jHuxruFsNgb9oXoTayfUobFfdwuOEKFiElPQsJ7Q9BpOn+KsgRqpKadcBuiyAJpUjtdjxSWnVHqN1poq+DcARKwMljEnyrgGYHIblVD6DDaYh4GsLuL4JNX+cZq7jBYDAY9hw4i/Shhx6KZ/73DI457Ex89spcPHPHGMyetEbXJ6V44NrKxGkezusAJ/of1Arpje146N/P4YqLbtTxDp584in83//9n3bONBjqCiPEdwkiakVwO50OuQnYEPLJFe1KhcOTGl1td8KekIEEjwMhb1Ba5A54kRz125ZgdyUiIUFa9IEQAgFOMU+XFa6yi6B2w+5OFoHtFG0eQtCWoGkTm6TrkJuK3ZGIsE/SDTsRcfMGEhY9XiW7TURKWhrswQiCQRvCrjTZKDbii8FgMBgMexgU4926dcMdt9+F5595Be1a9ME7T07BA1d9i3f/9ydmTVmBwrUVfBmt1vLk1AR43AnySLUhGPZj6YJcfPfxDDx7529YPLMY7du3Uwv4Sy+9pL7oCQnyjDUY6hAjxHcJInTtyagoLYB30XeIlK5CQv5otZRH1zpQiRRUzfsUwbL18Kz+IurnLUKagtnraoqKZWMQKZwHT95PcJQtFcHsBII++B3pqCjMgX/FGLhKZ8Od+5Msr5JERZQH/Cgpr0LV/M9hr1yDwNJvAG+RrBOhLaEs6EHVwq9Rkb8IjpyfYC9fhrBDGgB2WgyMGDcYDAbDnofD4UDjxo0wfPiReOLxp/DGy+/htBMuROnqNHz8wgz897afcf9V3+CRa77HI1f/gkeuHY37//EtHrjyB7z52CRMH1OCfl0OwzNPP4833ngdF154Edq2bQuXK/rMNhjqEjOzZh0SXj8X3rF3IZg/WXRykmhZdnyMEhHhHIQbwdSOcGT3g3vFZwiHArDTjURa4iFHEvxIgq3jmUhY9TnCvpLoOvqQOxIRCVQh1P502H0FsK2fDnugVCoviLDdLZpbPhv2ARp0g2PNz4CvEPawT6S0HaGIlKM7FaEO58C2ajQcVTlwhCtVZwfhhC0c0M6jrtL5sJUsgD1YKekGNsm7YRfBtxvHvofERr1gt5k2smH7MTNrGmpib5vivjZwW14PBQUFWL++ADk5OVixfDlWrV6N0pKSqMlJ4iSnpCA7OxutW7dBixbNVcg3bNhQO2RuacjDmjEza5qZNWuPedrvIihuneFyeMrmwrn0Y8AvQjtYEVsbgSNYBk9wPVyL3wYqckVol8liEcNyA7CHKuGgbF45Cvb88XDQj5timW4rYX90XfFs2Jd/AZt3bUzcc20ETpusDxTDuegduCpXwBEq15uOrBQZLuvsEXhWfAp74fRoumFvdL8Gg8FgMOwF0F2lcePG6N69Gw477FCcfc7ZuOaaq3HzLTfj5ptv0s/rrrsWF110IY455mj0798PLVu23E4RbjBsG0aI1yls9W6u5WvTlrw94hcBXqq/ozNwxoh1rqRo1jSsdSqapZrsLhXu9qAIaYVVx30xHVq2fbItreQhWWSly20djKHpMo6mpati6Uqgdd2yzEeDof5gnRoMBoOhLqgupHVwhKQkNGjQAE2aNEGzZs00ZGVlITU1FS6XU+PVg7OAYR/FCPG6JCFTFG8CdNpyXvwU05uEqKDWOPytAju2zvq+2XUS2Nvb4Y5+18D18qn7YrpcF1v2t22ZrtxgqqfLwHS5ffx2Juy6II0l9gngeO92qQtjgTEYDIa6ZXP3VQrumkQ345t7sWFXIMrLUFfYk7PhaDYIdhHkEfqFeUtqCMUSiqotiw9bW8fta1rH5Ztbx7C96Zqw04OvRJ4GYbhaHQp3YiOw977BYDAYdg4U2LSMVw9GeBvqA9NZs46JlK2Cd9mPCBfMhwOh2FKDYQvQ8pLSHM62R8GR2VFadNFXowbD9mI6axpqYl/srFk/mM6aprNm7TFCfCcQCngBXzHskaDx+DVsHQpxTwZsruh0zAbDjmKEuKEmjBDfVRghboR47TFC3GAwGPYyjBA31IQR4rsKI8SNEK89Ru3uRHjziA/Wstp8GgwGg8FgMBj2bowQ36mw44cE7QDCUb2tZRs/Ldld/dNgMBgMBoPBsHdjhPhOIBwJIxTyAsFKICQhsOlnJO7TFqqq9inbGQwGg8FgMBj2eowQr2v85QgUzkcgZzyCa8YiuPpP+ZRQ28814xAuXopwmDNn7tnQZ8xgMBgMBoPBUDNGiNcl4SCCa6fDtmQUsPR7BJf/JOHHbQyjEVj8JYLFi7WzVXXoQ278yLeMKSODwWAwGAx7AkaI1yFhXxGCBXMRqiqEzemB3ZW47cGZgFBFPpAzEQhy2vlN2RNm+6IILi0rQ1FRUb1YxfeEMjIYDAaDwWAwQrxOofizy/87KgJl+6CXihbl5RVYunQp5s6dizlz5mDx4sUoLS39m8XXsgLXtNz6jF9XU1yLLa0j1ddbv60QCATw888/47XXXkOZCHIrTnWqbxeP9bv6Og7LlpOTgyVLlmwoh+rrV61ahYULF+p6Cyte9fgGg8FgMBgM9YUR4rsrMS0/ceJEXHPNNbj00ktx1VVX4dprr8VHH32IdevWRSMItDpbIV5k8rtlkbbWW1T/bWFtw1A9Leu3Faem3xTCwWAQP//0E5588kkUFxf/Lb6FtXxz+7LWx0Nh//jjj+Oyyy7DF198AZ/PtyEuoQi/8847cc4552DML79oXoiVVk35MBgMBoPBYKgPjBDf6VD0xQm/eBG4VUEYUevvvHnzMHjwYFx00UVITEzCAw88gFGjRsXiQMUm3UAK1q9HVdVGdxYup1D1+/0iiIs0Dq3VFKIlJSUoLCzcIGQtGJfxKPQrKys3rGNaXq9XA7dlHMalsKXluaCgQNMidAtJS0vTwfwpzLmOgtwSxRbcnnngeqZrEb8v7of5INwXt5k9ezZmzpyJl156CcWynpMIcD/km2++0QkFpkyZgmXLl+vxEuu4ONFA/HEZDAaDwWAw1BeOe4XY912Gr7wYc8Z+gvLifBFtIqICQbTsOgituw+BOylVBeqe6OMbCVYiVDAf8BbBZo/O/sVZQhlsIhb1eySk6yIR+R4KbogXTyQcgj0hA46sHpg5dwGWLF6MG264AccffzxatGiO33//A23atMGQIUNU/P7xxx944fnn8fWor1FRUYlWrVrB4/Go+8Z3332nAvSVV17BTz/9jPT0dBW0zz77DL744kskJHjQrFlzOJ1OFau//fabxv3ss880rWbNmiE1NVVdY8aOHYvly5bj008/1YaA2+3W/L7xxhsYMWKEptuxUycVub/88rNu06x5c7z11lu6bWZmJho3bqz7osgePXo0XnrxRXz77bcIiPhu0aKFNDQSMXvOHLVm073kzTffVDHdo0cPTZ8Nja+++godOnRQNx0ub9u2realoqICDz30EBo0aKCNg4MOOggDBgzUsuZxvfDCC7pteXk5mku+UlJSNP8Gw96GNjTlvF8+cwxWz5skjVUgJNdYYkoGug89HakNm8ViGvYtIli5fjoKylbEfu85dGgyGOnJTVQz7AkEglVYmPu7fu4J8DnpciaiVaO+yExuHltae3jPoW5bvXq1Grv4PE9OTo6tNWwJYxHfyVBo2x3O2He7fHdFv8vNxO6MClneHDcH/c0rKytUWNItY9KkSWqRThNxTEZ89BFuv/12rFi5UsX3Sy++hH9L28ov4nX+/AW4+uqr1bUlPy8fU6ZMVhcXWtaXLV0m6+fhuuuuV+syrcojR47EbbfdhtzcXBXMzz//HJ54/Am1ZjPO9ddfj3/d9C8sWLBARfDFF1+Mf/7zn5g8eTKKCgtx6623Yqw0CiiYHXLM+fn5eOZ//9MLlEL8H//4B2bNnKX5pv/4fffdh8KiQjhdTjz55BP4n8Sl6J40cSIuv/xy3HPPPVi6dImmY8G0KeL79euHXr16YcTHH2/wBR8zZgzWF6zHoYceqg0I7tfpdOCTTz7R42LDhI2K119/HQ8++KCUZ7luZzAYDAaDwVAfGCFe34hYDAc3P2a4J8GDwsIi8MXFEUccgaeeegrnn38+zjjzTBXD9JPu3r07Xn/jdTz66GM497xzMWH8eCxfvhwZ6WlISkrChRdeiFdF+P7vf8+oaB04cCCeefZZvPrq6ypW6epBkf/aq6/pOu7rkUcewfDhwzFp8iQV2hTqbN2eddZZahG/5ZZbRPi7VbB/LGL4P48+qlZp5odiOijH5HK58Nxzz6nAfvnlV9TlhIKenU+//PJLSf8o/Pe//8MzzzyLgw8+BH/++SeWLVumDQrmmw2Gr78ehSuvvHJDa5vwO+Ocdtpp+jZgzZo16pry/vvvo3u3birQPW4PEhISpdFSiq+++hr9+/fHSy+9iCeeeAInnnii7osNE1LdZcZgMBgMBoNhV2CE+C6C7ibhUFRw8xVQOOjX76IuYXdGreQ1ERaBmZXVECeffLKI1YPVrcNus6sLh1qL167FhAkTceUVV+KC8y/AO++8oyKVr6EJBW3fvn11mVP2Q0G93377qVsG0yC01NPlpKS0BOPGjcNNN92E008/Hd9+952KawpqusBQiNMlhrhcTvUD79Kli6YdDW4VtRTKgUAQ6Rnp6jbC/dCVJCEhQS3g06dPV7/wb74Zhf/7v6tw9tlnq28343FbWr0p8Cmema7DEXXfiRfi3A9dT7iOYpyNEo4qM3z40cjOboJgKKh5XLBgPnJy1uD3339X6z8bEh9++KEey57o/mQwGAwGg2HvwQjxXcQmLirqlhIvvjcvCCloKaAHDRqk7hRHHHE4Ph/5uQpml8vNxGTd/rjt1tvwr3/9C089+RReeulltG3XDpVV0Q6QFLYU4BSwhNbj6iKU7iFcT7eOG66/ATffdDNefOEFtaIz/ai7iUM/CY8hHI4KYsL0N01zowWb20W/b/zNdI4afpS6jHB/r77yqrrBtBWh762qUmcdqwNmddgY4X7ZmBg6dKj6qz/33LP6u2vXLnIcYbXKc59sRPC46E9/6y234sYbbsSzzz6Hl19+WYR+vw3pGQwGg8FgMOxqjBDfyUQt4ZbrQ7xQjf++eSIxQUvxSsF4xhln6u9Zs2ahU6dOaNuawtWL1q1bqyjt06cPGjXKgjsmQEm8CCbVRbPP69WOFRSyHKWlRcsWGHbQMPTs0VPTYkOgOtHNNw4byPRiX/U7rdslxVELOztujBnzC4qKCrWTJN1fOKJKZVW0Y+nQYUPRs1cvXUbhLBmEXdLgMddEdF8RjXvuuefpqDJvv/0ODjvsME2fIp/r6UvesWNHPTZ20KSVfdiwYVpG/E4/doPBYDAYDIb6wgjxnYx20LRGUKFLSk3uKVuBo4FYluj9999fxev333+vQwwee+yxmD9/Po4/4Xicetqp8nmcDm9oWaopSKPbRlUyf8dbmvmbo6UQjs3NkUr4SReOY487Vn3SOeQf02M+rHRDIXaa9KnlmTAda6jEqAj2we1xq6/5iSeeoNb6AQMGaCfLpk2b6jK6lJxxxhkajj32GPVbD0q6LmlwMI81WcSZNoU998MGBa31TZs20dFUDjv0UDRs2HBDWfl8fm1ccLQZ+p6ffc7ZOP2M0+X3cbj//gdQVhqdbMhgMBgMBoOhPjDDF9Yh0eEL5wHeQhHglrVVjiN2LDwmHXpJPzd+r44OX+hJh6NRT7gT09TaTQHLET/os92ocWP1vaZFvF//fujVuxfS0zOQkZGGAw8cEhvmsIX6ZLdv3x4HHHCADluYmJiAli1bqpsGBSuHLqQo5vomTZqo9bhv337q+03fco5dfswxx+i+KGjZEZINAVqu3W4P2rVrr2nRCk3rNYdBHDZsqCxvJ/tLE2F8GI466ig9zoMPOURHQqGvOON26tRZhx5MTUlFmsQdNuwgiTtcRTXz3blzZ7WcM9/RsooGiu+MzEzs17+/lgvjcv+Hyr5o7Wa+WUY8/oEDB+hxMT99eveR7TLUN5zHe9xxx8txtdH0DIa9DTZYzfCFhr9jhi/cVZjhC83whbXFJoUXcyjYdZTkLsPHj5yOvOUcNs8BX6UXg0++DkPPuBXJDZvK8yPq07zHQd/k5aMRXPMXoBdfNZFt/bRKnCK8evFTcDpccLYdDkeTAQiE7PD5vOrqYfky0+WCwxMmeDwqOmk55uggfr9PhShFM8uP1mvG5baWXzYvEIpXpsWqp5U72pHTqRcRLd0lJcVq3WZaFMp2h10t3wx0B2HgPpk2vzMPTJtWaabD39ye6XG/nLSH+6DA5zIL5o9DMTLdpKRkyXey5pu/afG28hWPdQxczvVMj645IWm88Di5vZUXK2+E+eWIMcyzHpc0aowIN+yt8HyPhIP49b178NfnL8DhjMDvrUJmkzY4446P0bRj/1hMw74E57EYO/9NLFjzW2zJngGfVcN734CWjfrIPb9ml8XdC3m2egvw9ZQHUVFVSCfO2PLdl5DcL5I8mRjS9WK0bTwgtrT28LnLZyon1ONbdMtoZ9g6RonUJdJSdzYbDHubo4HG+6lF29G418bQKBY2/K62Xpf1grP14XBk9RJB7hYh6VJhHS9IVdTGrOOEJ39GRjqys7NV7FoCk9uwRWr5WnM5f1tpUcTyNwWrJZAdIro58Q7TojWaIpxwGwpYxiVM07I+E6bN35Y4pti3hDQvxuoinHAdJ9+hv3ZqarTxQLgPpmXlMx7rGJi+lV5CYoLGt7a38mLljTC/1nHFl5HBYDDsK1DEOu0eEbZhEU5W3yWDIQofqa4tjOJm2DkYNVLH2DzpcDXpC0/bw+FqOxyuNkduW2h7JBxNB0g6aUwtmuhWoCC1RGldvuCIT4vp18PLkzplT8+/wWAw7Cgtsnqoi4c3WAF/sFJClYZA0ItAiMGnIRje/PwWu5zaPQp3OzTbu0neafGO1q8EqWur3hl8gQp9xjfJ6IxGqe1jWxh2FUaI7wTsTg/siQ1gS2q07SExCzZnUiylKJbItqj+m3CZFeLZ1t+Ey2gxrou0CJdvaV1t9hVPTetqsz2X1bQvg8Fg2FdomtEV/dudhgEdTkOPVsPRsdlQtGrUD9kZHZGZ3AIpCQ2Q4EqGw2YX8RbQ4AtQsG9etNPCXrdEENS0Y4JR9h+u833sXOiO4gsw71JesbLiMdWVQYjpR8soWk5aJ5sI7EpZ79f6Y2y3MwHJngbISG6Gxhkd0DKrD9pl748OTQ5Az9ZHY1DHc9G79QnwuFKjOzDsMoyPuMFgMOxlGB9xw5agOAtQqIX9Itbku4pE9rUR4S3ijct9tJirAK+Kxg9VyDJfbFnUmk7hRzEYigQlTnTErDCH7JU/W8wUrJ/6NfrbbnPopHQbLe4bh8Hld4fdBSfdMp1JcDkSkZzQUMRhMvq2ORlZaa33GEMKy2j8wg9QXlWAct96LTdvoCxaxuoWxGNm6bB8NpZWFMurXP7XfxvLh1hlZLc59ZPlxI6WTIXl5nZJcHqkQZUGjzNZf7scDAka38l+aPKd27MuuK3HlQKX3bMxC9sI7zl0AeWs1ZaPOF1BiTF+bRkjxA0Gg2Evwwhxw47DoW4DKsrV+hoW0R2MivZAqCoqwFW0B6LCPGY152+Ker/E8QdEuMs6jhzCbbitZaG1RCSFIy21bhHbye4MJLhTVXgnyneXQ8SkO02FYoonSz5FKO4hUFqVVuXJ8Xvh9ZdoeVXJJ91AKMgrfMXyvVzLrMpfKmVVIWXnU6lNQeyUY3c5E1Rks2xo0aa4djmkbFypKq6ddq4TcW2nuGbZ2OK2E7Ftp/D2qHDfVaPNTJ48WQdh4Aze7Gdm2DpGiBsMBsNehhHihl0NO39SbNIaTuu4uk3Qgq4iPGo512VqefeL2KTlVgSjiOxEd3rsMw1uWmp1+N+904qq5STHr+Jb3ypUiTAXQS5CnOXFw6bodqjlmsJbBLiDgxdQYLul3BJ1WbSMdg/Ccr9ZuXIlyisqMHv2bJSVlaF79+46QAIHZLAs44aaMULcYDAY9jKMEDfUG1QUxhNhn4Iy8vXXXsOPP/2EvLw8Hb44IyND5wM588wzde4Oa3hDw98xpWIwGAwGg2GHoNCiINvg3czvu97OV6fs6fnfFbCM6AOempaG6dOn4/fff8eECRPwww8/ICcnRycNNGwZI8QNBoPBYDDsELR2UpBZHfPiv++p7On535Ucd9xxOOKIIzbMNcJZvU844QSdmZti3VjDN48pGYPBYDAY9mAodGiRpgVyzJgx+O677zBq1KhY+FpnO6Tf7s6C+1+8eLHu79VXX8NHH32EyZMnaae9PZWqKi/mzpmDjz/+GC+//DI+/fRTzJ07Fz6vNxZjz4X1VVeB8NzjRHuHH344unbtqssOPPBAHHzwwRpHXeWqbbcnhp2F414h9n2X4Ssvxpyxn6C8OF9anHaEAkG07DoIrbsPgTsplWeJaYkaDAbDdqIPjUgYy2eOwep5k0BjVCgYRGJKBroPPR2pDZvFYhr2BiiEKHa++uor3HHHHRg9ejR+/vln/PTTT/jhh9FYu3Yt+vbti4YNG2rc6s9XS2TEL+eyLf2OZ8qUKXjqqafwyisv49dff8Uvv/ws4n8Cmjdvrn7CZHPb17R8W/ZdHQ6dN3PmTFRWVurxxm9b23QCgQC+/fZbPPnkk/jwww/leH7RslyxYgXatG6N5i1abEhrR/JaW7bnGGrC2jaWkn7WReA48sxSs2bNsEQaZAXr1+HCCy/AQQcdLCvDcNgdEq/u9rerQ3Xqun5NZ82dgBZoUFrNgXK5Q5pphHcYDrvkTATcqTVeFAaDYVNMZ819Bz7CWd9BaWg988wzeOSRR3DGGWeoSwDHdaaobNOmjboNNGrUSIV4Tc/X7RV4fr8fF110kQpwuifQCsoOez/++KO6Jlx++RVwOh2x2H+nNvvdlryxEXL7bbfi8MOPwKOPPRZbWjus/dC6z2Oi8D7//PPRq1cvzJs3D4sWLZRjPB7nnHPOJg2a7Sm3+iB6fCJNgmGUeoPwhWwIy7K6wu1x48MRn2DR4iU45cQT0LVLZz0391RYMh45dZNcdiS4HHDKZaPFJYVYl3VuhHgdE+HkCOVrEM6fClvhfEQClVpphu1FTk+OgZraEpEmA+DO6CA/RZQbDIbNYoT4vgMf4ZYQf/HFF1WIf/nllzqhSk3PUQrnvPx85KxejYqKCqSmpqqFt3HjxurfS3cSurhwDGhaOJk+RSdFKWndurUKfIuioiIccsihaNo0WxsCHTt20uVlZeWSryDSJH2vz6dWeaafkJCAZcuWqatMkybZaNGipeYhKhJteixr1qzBunXrUFZaquuymzTR4HJGh+wrLi5GQUGBukNUVVVhDfOblqYWcLrFPPjggzjooIPw0EMPwe12a0OEZcEGAtMulXQ5rF6rVq10iD2rnFiGTtkHOxrecMMNOPHEE3HbbbdtGA+7vLxcRwThfoiWpaTJwHVczjJjg4cwPR4r88njW758OdIkn03kWFjO/M5trPJk2iwnljc7OTIvPNZVq1ahYP16uORYWkhdMbAsGY9vABgnKytLj61Ivnfs0EHrM76eqCArA2Hklvowa1UxZq0pR4HPBl9QnrF1JFGYTFFlEFW+ADISnUhKcEUNk3soUmRo4JFzPtOFNtmp6NEkBdmpbjh4oHUoxo0Qr2O8+bPgm/oCsOpH2IJGhNcNvFE4Ec7sDlf/65HU7jDYdqMxVA2G3Q0jxPcd+AiPF+IPP/ww3n77bRx08MFwiRCzybOUgsGyjv85bhxef/11/Dl2rApxCmW6EFx8ySU44IDBGCvL77//frUC33fffSqcly5dqi4vFOFcR2FpiZDCwkIcffTRKgrZCBg2bJgKSK634nAUDeaNopjid8SIESo4W7ZsiX/+859qwU9MTFT3qclTpkjcFzB+wkRUiLhNTk6SNA/CZZddhj59+mh+Pv/8c7wjx9i2XTttNNCN5JBDDkGnTp3wySef6JjWFNh8K8DxrJ944gl1VXn88cfx3fffi+D1IksE8FVX/Z9avHk8hOXIchrzyy+47rrr0Kt3b9xyyy3o3KUL3CJ8eTxWg4Gimcf12muvqQ++CnER96eceir+7//+T8U4j5GWdXZctNxdmMdLL70UX3zxBfr166ffGZdpcgzup59+WsvirrvuVn/0d999R493tYhsiu8BAwbg+uuvVx9s1vlzzz2nvvlHHnmk+rOzrh599FGce+65KvQ1v3Js5f4QfpxfiBfH5uD3RcWSdiiqnA1bhgpZlHdGmhMndcvAVcNaoX/LNC26utKpxke8DuGMYr7pLyKy+AvYbXIM7hTRj57tDAnVQk1xGDYXZ3PL48Pm4lRfFh9vS8vj19UUp/q62oZEOR/kgVKZi3DpKtjbHQmHK0lK3NxFDIaaUPuK8RHfZ2B9UwhzVsM//vgDxxxzLDIy0tUSTbFNKO44/fjtt92G2bNm4fTTT1cRSp1BYbxs2VIMGTJEBey0aVO1wyctt7TwPv/88+pq8o9//EM74/H5bD2jnSJcZ4mA/O2331QEJiQkqhWbgpmGNrs9KjDfe+89dRuhpXv48OEYOnQoJk6cqL7XXUTodurYEUuWLMGVsg/GpzjnGNSpqWnq+z579iwRoQPV0kuL9aeffabuMBTRFOEDBw5USzHFLy3IFOGDBw1SH/WePXvqWwKK1kulwXHaaaeplZszhTJNj0eeM3I8lrCi4J0kZfnV11+rtTszIwMpKSnawGAchmnTpuHuu+/CokWLVPSyMcLyHjlypNbF4MGD1VpNqzzLJj8/H4cddpg0JnrruNoU5TNmTJf97yeNk9a6369lfy+99BK6deumrkRsMP3n0f/gABHdLHta9lmGrMejjjpKy/idd97RZWwMsKHCtPcTsc7j53HQf9sfljqelIP7Ri3DxBUVCNHHwiWBnyZsObCcHHap2wimryzHwnVV6NsyBU3SPNFGTh1oVSPE65BAyRqEFowAypaLeEyQ45AWpz4QtyPo7TEW5EKqMQ6DhcThm4SNy8MbZapuXz2N2Dr5EmE+w9HlNn7XfTLEttmA/N4kP7HfGwI/4tfHrfvb/rclcD9y45ebOv3ubU2HwZUqQmIPPEcMhl2BEeL7FvFCnKOmUBxSpFLsjfz8c7WcdhSh+9xzz8ry3/Bveezfduut2oGTIpbbUnjTvYECr3nzZvjmm1GYMnWqCl12WjzppJNw9dVXbxCtFrQg0+pMgT1p0iR8+OEHIrAnaEOAFm/LFYWCm6KenTqvuOIKdZ3herqS0Lo8XPb7wYcfqhi9/fbb1erLadIp2nNzcnR5r959VFTPmTNHGxy02j8qQpX5Ynr9+/eXBkeCrhs+/Ci88MILKkyZPq3G9P2mGKdVmcdJ9xXmr7reoCWZgn/16tX6hoANgVmzZuoyiuGwPC+5jKL7+utv0ONhvmjhZhlMkAbGxRddBL8/oBZzpv/mm2/i2muvVTHOTqyzpDHEMunRo4cep8/n18YK3VeuvPJKtdr/5z//0YbP+++/r5Z01leb1m3wyaef6HYdOnSQ/P2haZ199tlatmzAsFHDeuJ5wUbDN3ML8eh3KzAntwpIiHNXMdQeaVBSc+QU+rCipArDOqQgQ861ukBuz4a6whUshz0cnaJ2R5BHqF7ocgmpPt4ssZsHW7xBmwd+d2P4PdnymY2APV2ewzGhXO0mo8iycNCr2wacDWLbNUbIEfVli+6W2/G7DREbL145Xfh813XRT9XvkHXyyfT+vi/2lXbI9tGxRXcMEePSGHAFS2R/Vi4MBoPBEA/dIOg7TXeMSvmkECwtLRORt0KFZDcRdxTQ9HGm6OzatYs+C9gZkXTu3EXE7TVqOf/Xv/6lIv5WEe50LakJups89/zzasGlYKdl+5ZbbsW7774reQmqywfzQzFpDWnn8STo76yshlglgpdimRZy5uvoo49RIemXZXyiDB02DBmZmZo/+ncz316vV8X04MHRWRstoo2SqLsOnxMBiUuxTSszt6EryGeffaYNB5YT49cERfrbb7+jbwMo+Dn6DN1zvvnmG+Tn56n49Xp9GDdunFq9GTjMIa3g9G1nPvk2gEL40EMP1UaC0+WK5kvgMvqBc8QZ+nbPnz8Pc+fO0Xh072EjYLGUIy3pjz32mKbPBtGPP/2oDat58+ZqWswDy+yyyy7XhlR8WXDfPln/5bRcTF8vz+dE49K5QzhsCMjHtGXl+HTKel0UX97bixHidUwNkneb8UcS4O1+HeyHvoLggAcQTmomN5Rqlc2RREIBhB1JCLQ6ATjgP0g6+iUknjICnuPfRWToM/B3/ydCic0RUYG8aVXr66pGQ+AeeAfcR7yKhBM/gOfod+A68i2E9rsHgewhCLtS5I5eCZ+nGfw9b4R7+JtwdDlPbgLRG50vuSOC+z8C1xGvwX3gg/BnyQ1RO6fGWtzORCQc8G9d72tyGEJ6CHLTq6lhYDAYDIYdhu4TDz/8iPoV0x2Dlm6KT4pS+jHTGsuOioQCjjidLrXI5uXlq8ijOKeF2XJvoMtDdnb2ZkUrBaFHRDqt66+/8Saeeuq/mgYtvOPHj9M8EaZtCVE+Bph2Rkam/uZyiuOkpCQ0bNhA8+bgdhLRcgmhPzoFu2XBjncVYSB0h9HnDJ/GEo8dHOlWcvzxx+Oaa65R9xn6fZ911llqkaaorw7FFfPDfNCN5YMPPsRdd92lHVbp271u3XqNww6ntJizwcFA/3S6AtHCbTVamNf09DQ9HnvsWMjQocPQvn0HdTOhpZ6CnCOzRBsnWVpXbESwUfPqq69qWX7wwQf466+/0L17N20sWcdM3O6oDzv3w09LII5fXYW5OaIBgjsuGA2C0451gTB+W1Ku53N8HWwvO56CYSdgRyhrIDwtBiK9zf5wekQQ640lhgjdSLAK9nS5Se5/J1KH3YeMjofBk9EOblcaElMao0Hb/sgccCWcw56CL7N/bPSW6E3X5kqGZ+CtyDzyKbi7nY2U7I5ISGiApIwmSMzugvSep8O9/72IZB8guw0gkNgaaHKg5GcQbNn9YHd6EJY82rMHIqPr8UhssT9cnU5A4oE3I+BqJNvwRmtDyN0QaDYECbI+ktICERtvQDXfyA0Gg8FQN1DA0aJMMUixS/GXLGLU7faImC0QkVemojoYoH2Pk9dUaTxayxmXftG0Gufl5aJx40b4/rvvMWPGDI1b3QLI35YwpvuTR9I59tjj0LNnL3WzyMnJ3bBexXVM/HP/FNXFxUUq4ilo6J9OKz5HYqG1mumxAcH8UfSwsyhFtdUgqJ6XTYnGsYQ/Rye58cYb8f333+Oee+7BnDmz1cJNn/LqMH1LYFGoN2iQqS4ltIzn5uaKAC/VDpZsqDz77LNqHZ82dapO8U4LOf22uT8arCxiRaAw3+yEOnDgALV406WI22ZkZOgywnpISU1VV5P58+djupQ/44wV4f7FF19qA4FxLGFvlXF11hRWoriSjY2a1xu2HRojV5T4kVPq099bPg+3jhHiuyURuMM+aT3bEfR7pZKjNxKFYlqEbsSVgUjnc+HueCIccsOtyJ+Fwj8eRdF316FwzP0oXf4nHK4EJDbtJgL5Rtg86bJdUG8wrr5Xw935NDiSs1BZvBZV015GyU+3oIDb/vkkihaPR0Ra184kaQDIfcRtl5u6I6C3tYhNTrjY9Ryh5YGjl7BDjsODRGkIoO3xOoSjbij5DzM+b2jVLPIGg8Fg2DlYYpfizBJqFJO0hs+dNw9zZs9R8UBXCQpRCkkKwx49umtcTsZDK+xJJ52Mp5/+H4pLitU1gtbe6oJv3ty5aqXlcIJ22S+fE2vWrFbBz86ejRplqahlw4C+3fTVJuVl5SosS0pKN4yG0rdvP80XLdUU6cx7QAQ4J9ThcH8UvvFCvCZrJPPHEC+OKOrXry/Q9CjmTznlFBx44BB1//DVYBGniwzzxuNlY4blScG8dt1apKWmqasOR0LhsIH0x+cbhiwR5mxIsBMoGzWbE8bEyhv919u1a6eTBv0gDQS+hRi0/2BdR//5FlJf7HjKw+WILEyfHUf51mBL6cdTFgjDF4qW187GJvuybcbyztxuKcc2n+iczWRza9vGY8WtbfztheOvW+0s63zcXow62m2JVixdSDZBzi5at13NBiKh5QH66q5yxQRU/fUY3IvfgSfvZ3iWfYTIlMdQvPh3uYG4kJDZGb7mxyAcCsHXYCAc7Y7XyXG8a+fC9+uNCEx/Aa68MbLtL3AtfBMYdzO8v9yMQM4UFdr08q7pCome6NFhnNQfTtJM7H4uwqntRPNLS1FOTlvEKftlh1CNbDAYDIadBK3GxLICW1jC79xzz9Fxvv/z6KM6PB8791155RU6RN4RRxyJE044UWelZKfOxo0a44brb9COjXRtodWW7he0EDM97osChB066fLBMbdpaeaQhxyy7/fff9eRP/r330/jUgRTiFsdMW+7/Tb1P2cHyPPPiw4hyDQoth944AH8+9/34Iknn8QFF1yg1nl2Rhw0aJAeB4U18xAvti0xRCGcnp6h++eoJhzbnO4ot912K8477zw95qef/q82Hvr17avDN1YXUnQxOfnkk3XUFuaF+b3zzjtRVlqGYcOGqm83rePspMphGTnmOIcd5NCRdHm59ZZb9LloEQxyivfYD8FqHFF4Mw02hAqLitC7d280zm6s63rI8pOkPGhhP/3003QIRg6/yH0xbzNmzNTjp9/7luB+qx1enUMBnmSLIDvdhUZpTiRQt1iCXJ7/yaIfWnBdogN2Edw2f+z8lHw55HuG24ZmDT3I9NjgCFCQxzIs6xg/K8Gh26dQdMQaFZKUhng4wEmDBDuap7nQNMUJ+bdHYEZNqUMilesQXPkLwhU5sNnZOXH7zv4QZNvWxyCxQQuEqgoRXvED4C2Qs13OMikbnt+RTqfA3fYIRLzlCM7/EPYVo2B3eWBziHC22xEJ+RF0piKh9VBpbYVhL1+JUP5khDqejeRW+0syEZROeBbO3DFw0GodrIIt7JPghz1YDmflavmsECEdRCilDRwtpG5SsxEsXIjQip8lA2FEGvZBQpuhCHrXw7dmKpKy2sPhTkRFZSUc6yaJ2M+AS/Jpd6egcuVfcBRMg90mF9l2Wcdj54PdAVfbo9Qtx1jZDYaaUWEh16gZNWXvh89KS0jSbYI+xccffwKaN28hgi/qL2w9T2llpSWXvtgcWYRilCLx/PMv0BE96Js8duyfGDPmF1x44YXqV01LNq22U0Vwc8zuY445Rq3XtEYzXaZJYcz9Mj0Kc4prCv0LLrgQ2SIsFy5cuGEM7WOPPVb9rOkPTTFL9xCOiU2rMy3L7KzIDo8c/YXjdNMPm+KW441zX4xHKzH9qmlR5kglxDpGpkH/dI5eMmnSZLUec8ZPHiePi+myUyTHTr/r7rtV+FtvECzY+ZTHRIHMYQEXLJivef/XjTeqNT0hMVGPkR1A+Ubh11/H6LHPX7BAGjCNVChz2ESKZO6PI5+wA6Y1QouVV1rb2WhatWqllgUbG9YkSsw3G018q0D/caZD9yD6jvO42XDikJRsZLBe2GigO4yVNtPg98krSzF2cQlKvPKc15lo6phwBKf3a4xbDsnCcV1TcWK3NHRvlog1xUGsL/HhsE5pePDoJji+WwqO6JiKgzslYu5aP4p9EaSKaL7mwEa4dmgmDmqXjnMGNEW6iPEFOZXwSXY5kc59RzXCGX1kfdtUnNAtXSclyinx45w+DdCpUQJmrqnSPDQRVX7l0GzcfmRTHNgiAUd0SkKRrFqaJ/856lgryOWWnebG2f0aISPJrWVd09uZ2mIm9KlDwuvnwjv2LgRF8NqcSfog3B58kURg6HPI7DAI/sLFCP52I1C8UESoCHRJM2RLgGPQ3UjqfrosXwrfhMcQXPoVbJ4MyQRbmhEdpSTc7GAkHvpfuB1hVC0ZjeC4O2E/+DkR4gegoigPVT9cBk/lUoQ9DeBLaoewfeNQPDYR456qFSLIV8Hf5FC4978NKc16omrx1/D/dru6n4Q7nY/Mg+9CqGQlisY/j7R+l8LTsD0qi1YhMPpyyYUNyce8CUdKU6wf+xTcC9+A0+aXxOWmt82nXewG4nAh8ZD/wtnqUBXlBoPh7/Dhbib02bfgo5yilSK2SZOmOoyfJcrioaWWbiR09eB5QqFNAU7/ZGLNWmktY7qMx5E9aIGlSK0uXLkN/brpy804tG5z+8TEJG0McNxv+mfT4suRRSikGY+Cmb7WFJQWtJ6zocA0uV+KVQpMumVYuoBvYHmc6qohIR7ml2KVfu603uvMoc2bq+853Usojlku3I5i2rJOxxMKheV4CvWYmAbj0yWGx0SBbEGxzrxaZcly2XjsiXosdH/hdx6n1XiJh3llvujOwg6xrA8LllG51Cn3URXLN9ezXtjg4G92YGVZcQz16ttyfy+NXYX/fLcCK4oD9DONra0jvCGcMTAbp/VMx08LCzFmQSlSEpxoKgJ60ZpKZCc6cdNRzbB4rRfP/p6P5hkeXDCwAVJddlz+ySqc0j8LVwxphPu/WYWVa33o1iIRdx3eErd+vRwTV1fixVNaoaAqhI8mFyCnPCQC34NcEeFLCgK44eDmItYj+M8Pqyh50D7Dhf87OBvpkvZD366GPdWN9RUhlFQF2UqLZbiOkP32bJ6Mry7thjYNkzfU/fay56ndfRk5mSIhH5yeRLgTUqKVx9k7g5ywgScaxW1U4EbCfllcIBevD2E44EU6go50eFI4Na8NgcpytYJzRJVgw/2QMugmZB5yvwjrezUkHXgv7I3lYR3vn74Z7JEgHEWzUTF7hF78CWlNEGx1HBzhSsnyLm/nGQwGwz4HRRmFLa3XSUmcBK1m8UFhS6srrbQci5r+zhSljM/A7xyf2hLmXGb5VtdkPSbcL9fRQsw0+Z3C1coCnwtW4HIrHkU9rcTxcF8UpFb+aImm6Iw3zlnHWV2EE+aX4pvHRbcPq+HAZTwupsnlLIOaRDhxOOwq/q00mN/N5ZVuKlZe+cl4lg83xTXLglZt5oHLqsPy4FsKbhcvpAmPOS09He3j8s1jsMqD6TGf3L76trsCh9uGE7ukYPqaCnw+vRiL1vkxTQT0z3NKVfj3bJUsdQ68NL4AK0Q8/7W6CiMlXoesBPRunoAj2ydL3CL8NbcEq0r9+GVmEVYXVqFP8yS1fqcnOPCliPC/VlRIen6MnleK2avYcZcWaBscHNs7hhatCOQSaRys8YaxvjwoIpxv4Gu+DnYnjBDfw+CEO76QU91X9PTiSCTqBrMpNlluF8HudHN8kxASwwVwRrxy8spNVDa08wbEE1TS8wTXwx0ohItBVnvSmyEpqzVcIvZrAyfa8ThkP2t+REXBGtgdLiR1PQ7+5LbSCNjYODAYDAbD7seOvhivLjCZXvwyClgKSgpTivGtUZNgrWtqc8zxcaofE6kpnztaljVRPc1dUT5EhjptAAAwmUlEQVRbxR9CdooDDTwhzF9biaA85y8bnIXXzmqBfx2ahfaNE6XRZ9eOorkVQZ1IiMeRK4K7LOhHiwZupHrsWLzeD78cntNpQ1XYhsXFIWQlu9C1WTryvXasKvRjUKsk3HNEE7x0anMM75YGF2e8FOKLhW7nIWlA7d8pAzcd0Qrn9c9Gw6Ttt1LvSowQ31PQoQfl4nMkqC93yFch8lpORHc6whLkG2MJEoe+0/LBsWET3MmyKgRHsET9vwO+So3lScuCMyFNhzK0FS+Af+Ij8P76LwSXfiNndIn6jdOaXbtbik3Etwj/yhz45n0kN1oR9+ktEWh9KgKSb94zdof7hsFgMOzr1CTidlTYbU6gWlZsjory1JNPqt94dYt6bfKzo/mria2lyfXxcar/tqi+rKY4O8qu2Mc2I6I3KBKSz366npcFIxi/ugJLiiLo3zoDPZolQr1C5E91RMw/nb8TZBtvIKxCWj50nR5TMIwUZ0SWRVDp9SPRHoboc3UxGbeiAo0bJKJP62TYRZ/42Vkurhiozf0BYNKySnw9eS1+XlyMCk1898cI8T0BupD4yyWU6fjhTn8BIlXrEWLv4qTGiKR1QMTmljOaIlvO7JBP/b1DjfaHU074cCiAsvzF8ulHVf48bUZ6ElOR0O6IaMfOinyEixYhlD8VkbI16lu6yRleC3ih2UJVcK38CpH1s+W6ciC9w0FwutL1YtML0WAwGAz7DJZgpAsJO2RyohvDXoKI5/WlASwvCuDE7hnomOHB7HmlmLi4DBw/nSOclJV50STdgcEt04ACr46ecnCnVNhEu8xbUYnCqhCO6tYAIZEypeVBNG3oRr8WSZiZ68VPi0rQvpEHAzqnIke2/Wl6IZasC4kwd4hwjSAk+9AmnXzCHx020W2PoLjUi1mLSzB/TQW8snxPwAjx3ZaodHW6E2BPaQZ7agv5lJDWWlqDos3XzUCobLUIbQdcLYci3OYE+F2NELInIpjQFOHWxyGhwzEqgr3FeQjmjIctEkZwydeoKitQdxJXp5Ph7XwVqtJ7IehphHBCtmwrwt5OXzPu35LP7HZZG+TCkEZC+YJRCAWlNZuaCbc71rHFSspgMBgMBsMeD2XuqxPXqyi+47As3H58M5w3MEt0iR15ZQFMWVWJ2XkVuPrADNx8VDPcM7wphrRPxCuTC7GqIoSRs4vRsYET/zmhCe44oikePrYJZuRVYeLyckxfWYER0wtwVM8s3HV0C/zr8Kbo0diBwgofKvwR0Lt2eJckPH5iNq4+tBFaZyeiShT9kT3ScduJLXHdQdkY0CpZh1bc3TFCfHfEZoPdxR7vdjhTspHQ/xokDH1IwgPwDHkIIRHZkfzJOhKK1+dHQnYPJPX/J9yD/w3nwDvhOeAeJPe9DJ6MpvBW5KNq7ic6OgqtE86CKfDPeBU+X4mI+pZI7nMxkg64G65Bd8M95EG42x0NuycNIWcCwg63CPAIAhGPhqgYt14r8hdfMkWtHtFv0k6VPHO4xfLVU7SjJztURF1lolsbDAaDwWDYC3DaMTmnCs/8vhaTVlbCk2jH7HVVeHXcOkzJ8WJJeRgv/lWIUfNLEHbZsLoyiDcnF+GzWaXwiVj/dWk5nvhxDYp9IThdwIRVVfjfmDzkiIinMfvtv9bhgymFyKWPiwhvCvPvF5bBG7bh18Wl+GJmEXJKwyj0hpAjaY+aV4pPZ5WgIBBBofyuouN4XIfO3RUzjngdEqlci+DKMTs2jjhFa9gPT+thcKU0Usu1jRbx9DZRa3hGO/jXLwLW/IpwyUoEgrKPhAZwZHaAO7szXI27w9GgA0IhG3y5UxFY8BGwZCSctoCckHbYOf188XxpwQblGnLBltgIzkYd4W7UFa5G3YCkhrL7ClTmztLxwu0lSxBMbo1Ik0GwJ2cjtH4+Iqt+UT91ZHYGWh6mo7MEF30OeNfB5vDAHixFMOCDI6ub+o/ZQj4ElnwLR+miHdDjsQ1tHEd8uJRHu2hZGQyGv6GduzY3jviw05HawIwjbjDszVidS3f6OOKyj9yiAGau9WFunhfjl5djdm4VKjiRn4jgdWVBTF/jxYLcSkwWoT0nnyJb7k+yjt61C/KrRLz7MXtNJX5ZUYX8kiDCItKZ1ypR4wtl/RzZdo6sH7fai/UVchyy7ZoSv6Y3WZbNzfdjXUUQa0plX6sqMHNVpeSlCmtFwId3hpaU7NflOOJGiNchwaoSndAnUr5G9KJblmyPEJdzLBIUMVuGcNFChHInIpQzDqE1VhiLSO5fsFWtg923HpGiBQgULkWoeBkihQsQWTcTvlUT4F38HUJLvoAj53c4Q2VS0x4tV50pM+RFpEDiFs6Hd71sWyjCvmAuQmtnwLvydwSXfY/Qoi+Bovlgdwx23Ix4C+BfOxfI+wuO8uU6egvCAfjK1iEo+bIXTIedvuVyMtpkK1tVvjRM8hFeNwPh3PFA7p+wBSQfrFbmY5uRDbmtnC/2difBmdFKvxsMhr+zZSF+hgjxpjoGMsdJ5vXocvN+ZTAY9hZ2mRAnki5tgmVVHNVNfrPnpGWJppaTdVX+iI6Osuk6CSK6vSIdyipFZ/BGxd6ZsdUaT9KmwbEyIMnwd2xbJhWSQ+J+Odmm5UAblB8c3pA93cI7II63iOzPTOizm+KvKob39zuAZaNgc4rw5dCC2yPGeUKJyK0RThLEIQitIQtFVIflbAw7EmPiXxBBzGnwnXa5IjixEEdcoXC20N+MUxUdBtHFONHy5jJ7WALH/3YkxPYj6YeCetKzvjjGKvMYCYfkpA/KdeYAJ23QfG84Xvm0On1qnjlc4o7UqbSuQwFEkprBfcxbSMw0FnGDYXNwgonqE/qw30ZmdmucdPP78Dqz8O03o+D3+XD8CSfoLIAGg2HvwRLiO3VCn7okXj7s7oTNhD67Lc7EDDhaHYpwekfRoD7RupU6ysm2B9lOhHiNQQQ1p6+PBCqigX7YIpqdoXK1kDM4AiXSqOSoniKWmV6gfNP09bdXTnybxnMEijZs64xUir6V7aQRofvTY/DCJt9d8MMR4XFF84iwV5YF4JTl1rKN+/HK9pKHDXm2ttvOwBFh6ErT9li401sYEW4wbCMOud7XFlRgxMef4YEHHsBdd92Fr77+WmcQJCre5eFtggkm7B2Bypb6lkbp3Z49ZKjBnYGxiNcxQW8pfMtGI7LsG9gq84xgrAt4ijo9sGX3h7P7xXCnNY+tMBgMNRFvER8/8gVpLtuwKDeAxWvDWFhoQ0m5T+MdcOCBuOof/0CXLl10G51pcNc/EgwGQx0TluvYZbfhk2V2vDmtErml7PC4kxQ5fb5JzG1kW3HJZmly6ymSLFpJ/Q0ut5LXOPJffbUw6tgiboT4ToDtunDpSqA81wjxOkFOUWcSbI26w7HhSjQYDJtjEyH+xQuoDNrxx5Iwlub7UOKz62QZvPX369cPZ599tk6bzW325PuuwWDYFIctglHrGmLkMgfWc3bL7RTKW0TuI32ap8AbDGHZei98dNrehv04ZPv2DV04pnMqXp1YBGZzk8d8KIIktw1Ohw2V/jDn/EHfZh6d3n5Wvl9n7tzlGCFuMBgMhi0RL8QtH/Gwvwq5VWmobDwU81esx8yZMzB06FA8/PDDKsgNBsPexyvj1uDhb5dhRdFO8BEXQZqd7MDzp7VDmS+A/3y/GgvW+2HzOOT+I9LSZoNLBHRIxHKYgpkCXZZz6nv2G63yheEWvXd0rzT8++BGOPLV5VjPHp0xIc//I/4Q9mudgvZZLkxcVoFlRX5cNjgTyS4b3p1WisLKiHab46Gx06duJxsmynqOXhhkPuqaOhbiRu0aDAbDPgAtSV3aNMSD992N/z79NM499zy0bdsGOta/EJYHosFg2Duwrmf93FnmVl8IR3dKRZIjhF7ZiejTIkUt5Jkigntke3BA6yQM75CCA1skIkWUt1vWdcx04bB2KbI8GZ0bc74U1bUoCobgSXJiYMsEFdlc2KGBB31bOXFMj3T884AmOL5nEjJSbRi/0oexy7w6sU8DaQgMkf0c1TFZ9ulEoijyjg3dOLpjCga3TEIK09rNMULcYDAY9hHoN2p32DFo/4F45pn/4Y7b70TbNu10nXkLaTAYao3eS2wY0i4BX80pwJ+rvOjWIhmNPTZ0SHHirsOz8cAR2TivZxpuPjgLwzunIl1aBEd3z8CxndNwXLdMPDi8mQhnhw45SLncUET0Q0c1Ru8mnI8kjEsGZuOCAR70bBxAo6QQDmgZEiEfFtGdikM7pCHNY8dp3SX9odk4rmsqThKh3lPE/bWDs3BCtwwc1T4ZzVMd9eZKXlvMnddgMBj2QTweD1q2aon0jPTYEoPBYKglvjC6iWBukOJG3voAZq0sR5vMBHTJTlJ3lGSPGz/NL8dlH67AlDWVOKVrMgqCEXw5pxj/+TkPr0wuRlZmErIy3Cit4rwkEaxdW4WCiiCGtE9HdsME9Ml24OsZNrw/OYAJq/Lw4m+lmLQ4gsZJNnhsIfTITsCwdqn4TtK8/L1VeOmvSjRIsKNLY4/u55lf8nWSn13vgL1tGCFuMBgM+xKxh9KeOGmawWDYfRjWPhWZKSkY1j0LvZu70ad5EtpnJ6uT9vqyQqwrWavzj5R5g/BzQjGXHQe1S8ZDxzXHuX2zkODZqJA94bAK5q/nVKJdwyQc1zUFueUB5K3zIVmUqsvhRESCOpfLTYxbNkpxwR+26cycnOxnvcT/a2kZXp9chEsGt8C/jm2DzEQHOC3K7owR4gaDwWAwGAyG2iHC1i4Cd0AbD+avKcbi/ApMWVWJnIJKtGrkRmKKGxU6xaYIbKcdSYlOVMKGjlmJOHtgM7w/ZR3e+GUVfN6NxgCfw46QCPUxSyvQJDmAaw/MxFwR4bnlQYREofsiDZFgT47qcIFdW9ZXSUYcbvRskoxMjx2tMpxwuW34fkYB7v5kIbo2tOGU7hlwcC793RgjxA0Gg8FgMBgMtcMfQu9sNxJEZH84fj1e+DUfb/6xFm9NLEKyx6UdNct8Ip5F/0ZEMAdFCEe8QRSW+rGiwIcL92uE8w5sBCcnJxQtHQpHEKziJIRAXqEPM/NsyExLw1QR90WBMGat94rQDuOSA7PQq3WypB2GzW7HvLwKLMwpxOl9M/Dwqe3xz8GNcHBHDx48IRnnSPohBDA1p0KHlN6dcdwrxL7vMnzlxZgz9hOUF+fDZpNWUCCIll0HoXX3IXAnpWonAPPa1GAwGLYPHZU2EsbymWOwet4ksB9miK+GUzLQfejpSG3YLBbTYDDsjfAeQB01eWUpxi4uQYlX5KhlTt5RHHYRzTaMW16FhSVBBHiDcTuwotiHxeuiQwxOXB3EnAIbykSMrywSQbzWjyXyY5oI44AIb36+PbUIBRV+FFWFMTnXh1UVYUSCEQxomYD1VcCoyetRLEJ8vYj6xQVeSdeLxYUBEepezF/rQ15xANNzvJi73of8Mh++W1Ai64KSphOi+fHpjGJMXVGFkMsRHQuxrpDba3aaG2f3a4SMJLeW9Y50djcWcYPBYDAYDAZD7RBRu64yiCUiuCsDokopciVUiIheXBTEggI/lotILqgKgfP7rBQBvqgwqHFyi/34dHIB/lhYjqWyfYkI5kIR2jPWBnSWe1uCA31bujBxeQEKOBC4in5g+spK/DCrVLYPYLWkt6Q4CJ+I31KJ8teyMnw9q1iXlYmo/2tRBb6cXojZ6wIIOutYhO8EjBA3GAwGg8FgMNQajv3NQJFswe+ct4dB18VW8juX6XcRxfQHD0iwtmdgp07CZf/9vQAj55ShjAo6ZsUPiuj2i6gO222bpMePoM0GvwQdMl3WB1wOFekaZzcX4cQIcYPBYDAYDAbDroHieDMCmdp5aq5P3VViWjvKFrZR4tdtLe5uxm4nxNW10WpGGQwGg2GbMfdQg8Gwp0IXlX3pDrZ7CHEpcRv/7HYdkmZH5uw3GAyGfR2n0wm7nb6Re5BZyGAw1DlJThv7URp2AnXVWLBF6sF0UpK7DB8/cjryls/Uh0U4FER2295o3mkAPMnpiERizkIGg8Fg2C4i4TDylkzD6gWT5HsQAa8XmU3b4ow7PkbTjv1jsQwGw95IWK5/juTx/bz1uGPkEkxbU6Ejmxh2HBqMD22fjq8u645Ej0vfQO7ISH+7hRBXIjbYHC45wGgPWYPBYDDsGDRyAJzMIiJC3GeEuMGwj2CJw8LSSvxjxEJ8MrMIcJpugTtMKIKGHjv+b1hT3H98B2nw7NjQhaRehHhxDoX4achfMWujEKdnvebEyHCDwWCoE9RKIw8KhxOhQABpWc1x2u0j0KzjftH1BoNhryUs8s5ui+CN8Xl4cNQyLCvwAolOI7O2Fw7XEgzjgPapeOGsdujdrOEOW8NJvQjxqvJSfPbomVg8+UdEwqHos8Jm3+GDMRgMBkM8EXVRYf+bUCCMtn2G4rhrXkKjVt3q5AFiMBh2X/Qal8+CyiD++9MKvPD7GhRxYh+3sYxvMxwL0R9Cl5Ye3HdiS5zcrTkcsO+wNZzUixBno2LRhK8wbfTbKMxZpP6LBoPBYNg5hMMheJIyMPCka9F10AnyPTW2xmAw7M1YDe6VRV58NDkf70mYlVMholIEuWmH1w67De4EO4a2ScGlQ5rixN4NkWj36Kq6MGbUixAn4WAAa1fOQXlRHiKhkDkhDAaDYSehQjwxFU06DkBCYkpsqcFg2JcorAhg0spS/LW4AIvXVqEiyPHqDFuCAjktyYmezZMxtF06+rRIhSc222ddvVGsNyFu2Da00qNfDQaDwWAwGGoNpZ5qCBGPVT4/1pT4UCVC3AiLLUOFnJbgQPN0N1wOh5YjqUu3vnoV4rU5ID15ZH0wGMTy5cuxdOlSVFRUoE2bNmjXth3SM9JjMfd8eKyVlZX4448/kJGRgT59+sDj2fj6o7oYX7ZsGebOnYuWLVuiV69esaU7D6su+Ll+/XosWLBAP91uN1q1aoXWrVojNW3veeXN4ywtLcXYsWPRtGlTdO/eXY+1Li/AmigqKsLqVatR5a2KLYnmhWNDs5wbNWoUW7rj0H/4r/HjUVZWpudbdnZ2bI1hb8O6fg0Gw74J7wEkeh+oN+m3R8Kis+6hdX0f3SMs4uvWrsU3336L77//HvPmzVOx2r5de/Tfrz9OPvlk9O3bVwuGTvMcOzOe6oUWfyLye/zvzS2Lxxqbc2vx4teT6nHYmKCQ5uRFnTp12rCOjY2zzjoLHTt2xFNPPaWiq6CgAKtXr0aTJk30N/fP8MYbr+Oxxx7HmWecgX/fe++GTgPV902sdRY8DitP8WVWPZ8WTI/LS0pK8Msvv+DHH3/CzJkzNghxNoz69umLU087FT169NBtrH1Wr5P4vFh5tfYZn+/qeSZby6t1XFY6VhxrPxbVty0vL8fixYuRmJiIDh06xJYCs2bNwiUXX4wDDjwQ90oZN2jQYMO21Y+reprWPnkc8XFrOi7COFz3zahR+GjECKxZs2bDdkyHjbMrr7wSxxxzzIa0rf3xu8XWys2C8Xw+Hy677DLMnj0bTzzxOA477PBN0iJbS9vKi8Xmjs9gMBgM9U/1e7Zh61R/vtclu+0T0zpJ1q9bhzffegsPPfQQFi1aJCKvJw466GC4PW6MHDkSH3/8sVrLQ/QzFygC4kP1gosvTH5a8Qj3Gb+s+rbEiru1ePHra4qzTo6LQvull17aEJeftID3798fXbt2i82OZ8dcaXw8/vjjmDxpsgoqG0eTFxo3boyBAwegbbt2knddpFTfN0N1uMzKU3y86vm04HJaakeIQKQg/fnnn9Q6e/DBB0se9mcMfPX1VxglIpL1UV14xod4rLzy0/pu/a4Ja/3m4ljLq8eJXxa/3CIvLw+PPPII3pJzTVbqKBOMkyTCfOD++6ODNIxcLlcsdpT49GpK09oniY+3OXgO8xycM3cOvpWGZyAQ0LcdLGd+MqSkRt84WGnz0/q+pfTj18fH47ZdunRFv/79ROhnblgWH6pvU53axDEYDAbD7kH1e7YJWw8ss53FbmsRl/YaIFru85Gf4+abb1Yx8uCDD2Lw4APgcNjVSvzdd9+K4Ivg7LPPVssyC4uW49WrViEkQpDuBC1lO5cIWgtacCl40tLSUFhYqFbH1NQ0tGnTWq2hxcXFapVmHFp5GzZsqNuxmMrLylFcUqyCaO3atWrRdrmcaNu2HTIzoyLGgiKKaVPgUVA3b95cX/uzMisqKvH777/hqquu0nx89tlnKsBp8abYW7lylaSXgaSkJD1OruexX3XV/+G0005FVsMsZDbIVGsmLdSpIs6YjoXf78eKFSs0j0yP+2aw4LHk5OQgISFBt+VxMB1a21u0aLGJ4GRc5pmfbPjcc889us2dd96Jo446So+NFBYWYcyYX/T7iSeeuOHkpSBfuXIlcnNzNV2WnWXVJyxvvuGgtZefLHvGY31XL1PmYZXULcuVeWKcZs2axdZC3SuYHtPPz8/Xxg6Pm+dBVVWVbsvytMrEcsOgNXzMmDG4+JJL0KN7N7z++utSHwloJnGYy5WrViMrqyGSk5M1PvcdDIYkH6u1fpkv1h3TtMqOx828+P0BPY68vFwtA1rUWzRvgaTkJI0XDxswPI//97//4eGHH8ZLL7+MU04+ObZ2U5hnus2kpEQ73tFli+csy5cNtHh47DwfeL6znHmeM38NGjSU3+laVnJU8jtT326wHBlYz8wTzw/C8s7KytLv8fC4WLZMk/XBeAaDwWAwGLaO416aN3czLPG3Nn8t3n//fcyYOQPXXnONuqHIYl1HkdqrV2/07t1bxQtF6e+//YbX33gD73/wAUaPHo05c+aoIG4igovxKVQ+/fRT/Pjjj1i+bLlacN988w2MHz9eBIhHxdVHH32E1157TS2SFDtt27ZVsUNBQpeMDz78QAUHLfFvvfmmpkUR26xZc6Snp2veKMB+/vlnvCl5YXrcjgKTYpkiacqUKXj66adEoK6AT4TaClk3bdo0OZY+mscXX3xBhVD79u3x3nvv4YsvvlAxVFRUiOnTp6OktATt2rXDjBkztHwohi13CjY0vvnmGz2GTz75RAT/7/omwWoMsKwozJ544gm1tC9csABvv/02Rnw8Qt1+KDYpUCnIiFUXFL+vvfqaujDceuutOOOMMzaIaUJx161bNw2Mz8Dy+/77H/Dqq6/i4xEj1Iq+SkQ5GzcNRdAxL19//bXWCYXcmDG/StxXMObXX1FZUaGijmVKmBbLlCKZZfrjj6NV4FPkskyZFtd/+OGHKrZZP4xLMcm6p1vTO++8gy+kMfGz1AeFKUUpxSh98p9/4QXNQygUxOLFS7Sc999/kNRtMV5+5WWtc4pc7of1PXr0j5L+axgheflBzrX5Uo6EeWFZ8O0B6+H777/TBgHr6f3338PkyZPhrfKiY6eOG8rYgvtgmU6YMEHzdMLxx6NL166xtZsyYeJEvCvHs2TJEkydOhUvi2jnMXJfWVK+jaUOWXfMx+efj9Tz4fPPP9e0GZ/nZGZmAxHNLbWsxsvyFnJ+sKEwduwfml+K+0mTJmnaLFueW2zkMBBec3+NG6dvrBj/hx9+wMKFC5Es5d1EGj9WI81gMBgMBkPN7NZCnMKQD3gK2KuvvkYEQNYGsUL4nVC8UnBec+21Kh66inihmKSYovigtbJz584a/9lnn8VLL70ogmiSWqYpxihMKBKXLl2illEKDVobKRIpwgcNGqRC/M233hCR/CL+/PNPtSi3EZGuFmvZB63uPXv01PgUwI8++h+Jk6t5sYt4o/ChiB0wYIAKOVq58/LyEZa8e0SQeb0+DB9+pOy3DNdIo4PicdiwYXpczB8FFq2tbFjw2Pbbbz/N32OP/X975x5jVXXF4cPwcGBAmhYG20YHtZX5o8joNIAisYpISUXkoVgEq+BUYKiKAkIDpShUFAgNcUyLpogaTdqkETTB6rQVH2OFCiIUmJqKAyrFFvFRqchjd33rzh4O17njYKp3aH9fcuHec/fZe+2198389jrr7HOXi/Lzzz/fbUbszZ17m9X3kd9cSNR7jS1QEElnn322i3Eio5WVlS6uakxIke7QoX0H/0xONOWIjDMOwFggyO5fcb8vDm688UYfE4QYAplINuKeNhkbXvh65cqVyS233OL58Pjfhffjj/uihAUUopXUHCLAL7zwgtuFgET0P7F6tZcn9YV6nzZxPuWmm5K9tshB7BOxfvrpP/qi5txzz3VB/itb+CD6KYsvsIN2EKuk1GAvuffYykLtrbfedL8hwEmp4V4E7GYs91ub3x082BYOO5Op06Z6VJ2xo13qmjlzpp/Xo7Q0+ZK1/aIt5n5fXZ10sTlKrjx9wB5ELD790PxU3K04Wbt2nS/e+prIL+le0uBfiHM7CnHmXWfz8x7zy549//SFYqG1X9C6wBeKt912m99IumPnDreBcUD8U548cubKSlvEYSvzkkUlefAIdkT1dy64IDndFnA/mT3b22S+Ec3mN3PnnXe6H7mqwsIJf+IjxnvQoO/6b47f1002F161OrnPgd8Si1oWUn369Gm4AhT7J4QQQogsTGy1OEyQ+P8mHoMJuGB/+MM77+z1Y9mYIAh79+61MoOCCe5g4jR8/PHH/p2Jx2BCLJjYCiZm/XhFRUUwQRvGjx8ftm/f7uWWLFmC4gzl5eXeJpjICCZwwznn9A0mBIOJnDBnzpzQuXPncOmlQ8OmTZu9nAmbYEIwnHzyycHEdjDBHIYMuTT07dsnPPPMGi9jAjAsXbrU7bvjjjv8mImzYEI59O/fP5joCyb0vS+bN/8lmOgLJmCDiXwv+8gjj3j92Pn+e+8FE+9+fNGiRcEEc1i4cKF/NmEazjqrzGw+J2zcuNGP0bYJx9ClS5cwevRo74ctIoKJ2WACy881keVtV1RcFzp2LAoPPfSQn5sGG2yBEkaMGBFMjPkxE5vh5z9fEubNmxfmz58fFi9eHGyR4n3BdhNjoWfPnqG2ttaPwaxZs0JRUVFYvny5f549e3bo0KG9+WyIjxeYyAwmGoOJcGvrw1BXVxeuuOKKYCI6bNmyxetiTEzkeh+WL78/mNgPtqb0zyaYw5qn13hf6dcrr7wSnn32OZ8nwP/4F/9XVz/lxza8vCGcfvppYejQoQ3jwavm+RofN/r37rvvep+pv7S0NJigbpirzDt8OmzYsGDC3+fWNddcEzp16hQmV1aGv+/aFWwBEJYtWxZMsIZbb53u8zHOVTDh7PUxzrTZu3dvr2/EiOE254YEWwT6/IIVK1b4mJpYD08+mZmzzCk+85t54403wu7du8OAAQPcrnje1q3b3LfTpk3zY/v2/TtccMGFPmdMRHuZqqqqYIskn5v0ERgb+l1e/m33gQn0YAsyt9MEu9l+0O1ftXJVMAEeFixY4H7Gh9FHQgghhDiaFnlnVYygEbkkRaOgoFVCXnguiBYTGSViSRSRqKL1zaPGRKQ3b97kEUoiykRFid6NHDnSc8DBxETSpWvX5MILL0wuvvhiP0ZKA+kT//5ov0cqI1xunz59utVb6lFyIsREkMmzJSXFRJ+nnHDj286dbyQrV65KqqurPQpOhJdL90AfsRNaW518l4a66QPEqGLbNm2TNuQgpyKMlCM6Ca/+9dXkb397LTFR5dsZcj595jMRbnxE/08oLHRby83uq666yqPv2GKi2d4XeWQ13WegLl7RFiCqSmSfqxZEom2h4mkjtEE/SafBt0TTyS9fteox7yfRWSKttEG0nBz94cOH+3gBthL1pl/kuxMpJ/KLndRJpP2JJ37nZbFp06ZXPGoefTFxwsSkd5/eniIS+3XmmT396gXRadJS2pgvGZPt21/3eqxXVpe/9fGIYxOhT7RFFJj5ZgsHr/eQtUk/+p3bz/xZ7hFnXpyPPewgM6myMulmfuDqBH3Exj173vF6oy8bgzaJQHOVhBe+iOzf/5HPxYsuuigZODAzZ0kr4UZf7OE87OVBLlzhITpOu7bo8TaZr9QBmEDZCL87fm+XXPI9rx+4esE8P3jwQPLhvz6sT8950s/j/oDVq1f7y9s9zJhssnr2Ndk/IYQQ4v+dFinEowjkUjdCDgGyb19mT2X+8McX5fifPFiED6IHoRe/BwT1B9xkacKT8ggDbrBMC19vz8qnb7Rz6uvIhjpi/cAleEQfxxFpCFlSCxDskydXJhMmTPAUBYRYzK/l/Cig0+/TZIuYg4cyoi/dNkVisffef9/F6je/mckXRwgCfSW9APGEqG1jn6kbwUl9B02kQY7uOtQbc+UPHMjUS/7yb3/7qKe03FN1jwtD6qVOFj6UJeWBnPIpU6a4L8jbZkeSTh07NfQDv2MTRBP4jjFt3SaT084Yk+uOL0mN+dGPJie33367p8iQRx6FL22fdFI39zU+pR5E//Lly5Nx4671rSHHjB2brFhxv7eb5WKHc6gr7ecIKUmI/njvQNxdhbratmvnbXEDZ4OQp4FUI5zbHLB91qzZLm4RvKQ2kbIUb5Y8dOiw9zW2Q3kfy/oxx5HkoLMQ5V6Chx9+2FOq8BkCf+DAgZ4jfsTjnyTdf+pGzGfmTWtvhzFhTjEWkyZN9HSnW2fcmhS2L/T5VlBw9OJSCCGEEEfTIoV4BBHOTYgIm40bX/ZjB+rFFi9EAeIgim+icRxDPkRhi/AhB7qTCTZTRH5eRrQcEb7kcCOoGkTMpxDbO1wvVMifjfYUFXWw7wuSQYMGeT452+HxeuCBB/ymyBtuuMHPoWxauDYm+rIh0kjZbOKp7LxCH/ADuC/q7WRxgFg80XwRBSog5ArMjlxEP5aUlHjOOdFebuYD6mc3Ecapa/HRD5lBuOOnwYMHJ3fffXeDD/j/N7/+dTLy8pENfqSNg/XtZIOEjf3o1etM9yF1PPjgg/4/nxHnCPLoz49tTlCevhGx/uUvfpEsWLDAbO3qUftFCxf6zi65xtvHo/59Ngh87EbMcn7GvyaAbZHEZ3LVEaGNjRO0jgK9GbAAjZHs+MpVL/2mv/ggfqYsVxwY96VLlyZjxoxJ/mCLplGjrkgGDBjgY0Q5Xk1BHylDvzMHMvUz306xeXHvfff5Qocx4UVu/LRp033RgE2fVr8QQgjx/0qLFOIxykeKApfaubmPlIc9bD1oYgdxgrB8ffv2ZMP6DUm34mIXBaQvkH4QxRupEwhHvu9qooAdMTJC5pPCoLlSgfNrap73CHuBtYHQ37J1qwtBou/du5+aFBd3S9qZPWf06OE3wJ133nmeMkO6CCINogClr9Tpgq4JkQVt2xHBNVGaKmen8a+/RxAjxEgLQMSRbkGd7MVet6POFjWnu/hq7oIDovgiVYQbG7nxkZ1cSO8gks5YZNfHOYh22iKaTb/xQ79+/fzGSj5ztcPLmr2Ub8z/2E70nYg3vuQ9N1/iT9JtqI/P1NWY2OPY26QtrV/v9rAN5ogRI7wf3DzamL8bxC6OzTjXyUTPW/nCkHHmJlei/j5XrRjzjJs/udmR3VUYz89KPPeEE9r5+yjIeX3aHKE874la8xuprv6973BDRPzeZcv8pt2ZM3+cfOXLmXmYi1zmUz+LDsYWn3JT61llZUn//v19TJjnpIhxY3X8HQshhBCicVrsX0r+4LOVHjnbXEZftWpVcvUPfuCRN7a7W7x4cTL0ssuSqnuqkg5WjigfQogdOEgLefFPmZQIBBJ50KWlpTlFDDRXNiE6ubxPhJFL/XPnzrXFwHrfYYN0BYQaQrP6qaeSpWYLZVgssOME57ALCiDs2EuanGd2amGnCdJG0kRBhh+IxJLmQRrISy+t96g3UX0WF5Eoluk/u6lseHmD767Brhnt2rbznWdIn0BsHiukOVxm/iaqym4to0aNSpaZsGNHlscee9x3P0F4xVfXrsU+duyGQoQUP5BfzTjeddedntcNLKwAQZ4mLSzJT75s6FDfpWTWrFlJzfM1ybq163z3j/nz53lefq7FRceOnVyob3/tteR5W6ixAw0ReuxNbx/IAgYfs9BgG0xSQeKVhTSIz7KyXt42EX76RVkeBkQKCJFmzx03H8c+HCvxXEQzviPyz/aDRJu3bdtWX+qTML/xAz47dPCQL0572Vzk90LayJyfzvEnsM6YMcN3bsnMoSNpXBHqyMyrjP3Y4nXGeWPvifyTJ4/YZ+eU5559zseEnVbYMajG/IJIF0IIIURuWqwQjyKmrKzMxS5/9LnZkN0W2RIPYcLNlpWTKj1Xd8aMmSYOr/Q9t3nAD6kPiKWKiork6quv9hvZEIiFhe3tdYK9P5K/Sn4yOd6I4wjtI2T4jvOAiCTviaoSoY9iFOFdcd11bg9i7uYpU5LRo0e7YCUnedjwYcmkSZNcREfxxx7ZP/zh9Z7icO211/rWfNzAR6SRV4zAIq769j3HI44IvnHjxvnig3Qd9j7Hbm48BPKBWXyUl387WbJkifuM/rMYQYyzpR2CExs4j/5FPwO58+3bF1qfEcVHi0iEGDemkvdOvjcijocMjRkzNpk4cYILfqKhsQ18zFh9zz4jWPED6SCk5vz5zy+Z2MuIOvqZ9jsij/PxAfbRLlcR6AfjiqgcfdVoH1/EZU3NC34a/aBPnOcRdvuMcDzxxE4+/qeZ7fPmz3efsP0gV1uYE1a9w7aO+JYccBZ8U6dOTd57/wPPd45zgzqJhv/sZwt8T3uizJdffrkvTrgKgW94XDzl0n2I8wd4T33pRUA2LDzYLpG5zKKP+Y+veZgSizag/mhXhH7TJsfb2FjSFilD+IEnsJaVneXlEPjjrxvvV5AYfsr7toj1djKH+U3RRoS6Kdfefj+tbX7wPTc8T5482ReRY8aO8TFhLnNTLm4l5UsIIYQQuWmxT9ZMg5AgD5unZrLLBZfdu5eUuJhFGCEY6AY7rPCQF6KarVoVmHA8zdMEEA1RZGzZsiX5wAQWD1RBiAE32LHLBzdSkrIACOTa2lqvkz2REeHkGVdVVXl0m/2k2R2F9om2I56icEE8k5v7mtmxY+dOt43vEYNf6tzZRRjHELO0+9auXcnXv/Z1v9k0hMPJ2hfX+lMdS0pOaejb3r3v+oON/mV+IPLNY+137fq7p+fgh1NPO9Xbxlek5+ADUieKrO89zjjDhR1CCsjHXmdttDfRxu4viEVgX/Pa2m2+1zZ1Ngb1k45DGwh8bhClP3E8iN5HkYndjBtjVlf3uj/t9JSTM6kbPMUREcm+74hfriYghoF0Fuwn2kpqEiIQnzIWdXU7rD6eInnYxTRPRCU6S11vvvmW+bPWI9LpJ0AS4WUHG3zNrh9ctcAXb7/9D7elW7fiBluZH/+0vjEePXt+y9NC1q1dm5xS0t0ffsN4xPFllxrGDuFN2g959HFxc8DOo2+kMJ3Zq1eD7xlzrpCwS09paQ8vmw1lGAvszv6aOcq8ZdcTrqbwmQUSMEeZ//SV9BCuFHCl6CZb5I0dO9ZtY/xIq2ERw5Ndr7/+ek/92v/R/qSH2cPVA/zIsa/ZnInzyuuuq0t222/lbBuTwvpFErbyu2QvcT5j2zfMHhZPcfEihBBCiMY5LoQ4JkYzEQT8cUcQpSONEUQSZQAhkF0GIUJdMWoKnMNxynI8wjG+oxx18pAT0hpIryDqbJb5OdjSmODg/JgyQb1RqKfxMvYi8k4ZbOMcIvbZWzZiA/bEfvH+sAnSVr6949HRR+rI1HPkBr60L9J2HfED6QeZx6yny6ZJTxfqiP7JNR6Q9gPl0rZGH6fbpA2O8X/aZxyDOL5EZtvYoizC99Tnu8Jk2ULfEOFAndhM2XT/ATsR+dTLd0fG4+i5AZzPCxrrP9+Rz0/aTWyjqfrSYC/zK21bhGP0lRfv0/XQZvTdM2ueSa78/pUutonUcw/B7t1vJ4sWLfQtJ3m4FVFt5hPt0edYNz7IbBua8i/9te/YQjNaRVk4MiaNz3MhhBBCfJLjQoiniX/4c4k+aE6ZYwHhhNAgPYBtCB99dGXSt28fFy200ZhYAlwb3UuZXOWwN21r9udI7FdTdaX5LH7gnObWD81t41htib5ryg+5vstlf3osmoI60nVnf07TVJ1N9eHzJNpLpJpoOCkoXBVim0221+QK0DjSoW6+2a8INJem+tPUmAghhBCicY47IY65zRGJzS3XHKgLoUEeMDdMDrlkSHLSV0/y+j+tjejeY7GlKduPpV//TR/kIh/2UA983n2LfBF+/DwgOk560tatWz3NisUkW3mSOsJNp6S1NBWVPxa+6DERQggh/hc47oR4PkHIkL9cxA2BuvwujhO4okO+PcKcNBTy1f9bAlwIIYQQnx0J8WMEdynqJ4430j9zzV8hhBCiZaCETiGEEEIIIfKAIuJCCCGEEELkAUXEhRBCCCGEyAMS4kIIIYQQQuQBCXEhhBBCCCHygIS4EEIIIYQQeUBCXAghhBBCiDwgIS6EEEIIIUQekBAXQgghhBAiD0iICyGEEEIIkQckxIUQQgghhMgDEuJCCCGEEELkAQlxIYQQQggh8oCEuBBCCCGEEHlAQlwIIYQQQog8ICEuhBBCCCFEHpAQF0IIIYQQIg9IiAshhBBCCJEHJMSFEEIIIYTIAxLiQgghhBBC5AEJcSGEEEIIIfKAhLgQQgghhBBfOEnyH+w9Dtn6nTJtAAAAAElFTkSuQmCC;" vertex="1" parent="1">
          <mxGeometry x="100" y="60" width="675.93" height="490" as="geometry" />
        </mxCell>
        <mxCell id="mPjOF8SE_Fwrs24RMQ83-2" value="&lt;font style=&quot;font-size: 17px;&quot; face=&quot;Comic Sans MS&quot;&gt;Authtication Login&amp;nbsp;&lt;/font&gt;" style="rounded=0;whiteSpace=wrap;html=1;strokeColor=none;" vertex="1" parent="1">
          <mxGeometry x="180" y="340" width="200" height="20" as="geometry" />
        </mxCell>
        <mxCell id="mPjOF8SE_Fwrs24RMQ83-3" value="" style="rounded=0;whiteSpace=wrap;html=1;strokeColor=none;" vertex="1" parent="1">
          <mxGeometry x="170" y="370" width="230" height="10" as="geometry" />
        </mxCell>
        <mxCell id="mPjOF8SE_Fwrs24RMQ83-4" value="" style="rounded=0;whiteSpace=wrap;html=1;strokeColor=none;" vertex="1" parent="1">
          <mxGeometry x="170" y="370" width="240" height="10" as="geometry" />
        </mxCell>
        <mxCell id="mPjOF8SE_Fwrs24RMQ83-5" value="" style="rounded=0;whiteSpace=wrap;html=1;fillColor=default;strokeColor=none;" vertex="1" parent="1">
          <mxGeometry x="100" y="100" width="250" height="20" as="geometry" />
        </mxCell>
        <mxCell id="mPjOF8SE_Fwrs24RMQ83-6" value="&lt;font face=&quot;Comic Sans MS&quot;&gt;Main Menu&amp;nbsp;&lt;/font&gt;" style="rounded=0;whiteSpace=wrap;html=1;fillColor=#1ea185;strokeColor=none;fontColor=#ffffff;" vertex="1" parent="1">
          <mxGeometry x="540" y="130" width="120" height="20" as="geometry" />
        </mxCell>
        <mxCell id="mPjOF8SE_Fwrs24RMQ83-7" value="&lt;font face=&quot;Comic Sans MS&quot;&gt;Data R-T Dari Database&lt;/font&gt;" style="rounded=0;whiteSpace=wrap;html=1;fillColor=#167964;strokeColor=none;fontColor=#ffffff;" vertex="1" parent="1">
          <mxGeometry x="540" y="160" width="120" height="20" as="geometry" />
        </mxCell>
        <mxCell id="mPjOF8SE_Fwrs24RMQ83-8" value="&lt;font face=&quot;Comic Sans MS&quot;&gt;Data Rekapan Dari Database&lt;/font&gt;" style="rounded=0;whiteSpace=wrap;html=1;fillColor=#167964;strokeColor=none;fontColor=#ffffff;" vertex="1" parent="1">
          <mxGeometry x="540" y="200" width="120" height="30" as="geometry" />
        </mxCell>
        <mxCell id="mPjOF8SE_Fwrs24RMQ83-9" value="&lt;font face=&quot;Comic Sans MS&quot;&gt;Cloud Server at Biznet&lt;/font&gt;" style="rounded=0;whiteSpace=wrap;html=1;strokeColor=none;" vertex="1" parent="1">
          <mxGeometry x="550" y="470" width="130" height="20" as="geometry" />
        </mxCell>
        <mxCell id="mPjOF8SE_Fwrs24RMQ83-10" value="" style="rounded=0;whiteSpace=wrap;html=1;strokeColor=none;" vertex="1" parent="1">
          <mxGeometry x="120" y="510" width="260" height="20" as="geometry" />
        </mxCell>
        <mxCell id="mPjOF8SE_Fwrs24RMQ83-11" value="" style="rounded=0;whiteSpace=wrap;html=1;fillColor=none;" vertex="1" parent="1">
          <mxGeometry x="80" y="40" width="710" height="500" as="geometry" />
        </mxCell>
      </root>
    </mxGraphModel>
  </diagram>
</mxfile>
